<svg xmlns="http://www.w3.org/2000/svg" width="297mm" height="793.739" viewBox="0 0 297 210.01"><path fill="none" fill-opacity="0" stroke="#840000" stroke-linecap="round" stroke-linejoin="round" stroke-width=".15" d="M177 166.01h108v32H177v-32"/><path fill="none" fill-opacity="0" stroke="#840000" stroke-linecap="round" stroke-linejoin="round" stroke-width=".15" d="M10 10h277v190.01H10V10"/><path fill="none" fill-opacity="0" stroke="#840000" stroke-linecap="round" stroke-linejoin="round" stroke-width=".15" d="M12 12h273v186.01H12V12M60 12v-2M110 12v-2M160 12v-2M210 12v-2M260 12v-2"/><g fill="#840000" fill-opacity="0" stroke="#840000" stroke-linecap="round" stroke-linejoin="round" stroke-width=".15" class="stroked-text"><path fill="none" d="M36.089 11.594h-.743M35.718 11.594v-1.3M35.718 10.294l-.124.186M35.594 10.479l-.124.124M35.47 10.603l-.124.062"/></g><g fill="#840000" fill-opacity="0" stroke="#840000" stroke-linecap="round" stroke-linejoin="round" stroke-width=".15" class="stroked-text"><path fill="none" d="m85.346 10.417.062-.062M85.408 10.356l.124-.062M85.532 10.294h.31M85.842 10.294l.124.062M85.965 10.356l.062.062M86.027 10.417l.062.124M86.089 10.541v.124M86.089 10.665l-.062.186M86.027 10.851l-.743.743M85.284 11.594h.805"/></g><g fill="#840000" fill-opacity="0" stroke="#840000" stroke-linecap="round" stroke-linejoin="round" stroke-width=".15" class="stroked-text"><path fill="none" d="M135.28 10.294h.805M136.09 10.294l-.433.495M135.66 10.789h.186M135.84 10.789l.124.062M135.97 10.851l.062.062M136.03 10.913l.062.124M136.09 11.036v.31M136.09 11.346l-.062.124M136.03 11.47l-.062.062M135.97 11.532l-.124.062M135.84 11.594h-.371M135.47 11.594l-.124-.062M135.35 11.532l-.062-.062"/></g><g fill="#840000" fill-opacity="0" stroke="#840000" stroke-linecap="round" stroke-linejoin="round" stroke-width=".15" class="stroked-text"><path fill="none" d="M185.97 10.727v.867M185.66 10.232l-.31.929M185.35 11.16h.805"/></g><g fill="#840000" fill-opacity="0" stroke="#840000" stroke-linecap="round" stroke-linejoin="round" stroke-width=".15" class="stroked-text"><path fill="none" d="M236.03 10.294h-.62M235.41 10.294l-.062.62M235.35 10.913l.062-.062M235.41 10.851l.124-.062M235.53 10.789h.31M235.84 10.789l.124.062M235.97 10.851l.062.062M236.03 10.913l.062.124M236.09 11.036v.31M236.09 11.346l-.062.124M236.03 11.47l-.062.062M235.97 11.532l-.124.062M235.84 11.594h-.31M235.53 11.594l-.124-.062M235.41 11.532l-.062-.062"/></g><g fill="#840000" fill-opacity="0" stroke="#840000" stroke-linecap="round" stroke-linejoin="round" stroke-width=".15" class="stroked-text"><path fill="none" d="M285.97 10.294h-.248M285.72 10.294l-.124.062M285.59 10.356l-.062.062M285.53 10.417l-.124.186M285.41 10.603l-.062.248M285.35 10.851v.495M285.35 11.346l.062.124M285.41 11.47l.062.062M285.47 11.532l.124.062M285.59 11.594h.248M285.84 11.594l.124-.062M285.97 11.532l.062-.062M286.03 11.47l.062-.124M286.09 11.346v-.31M286.09 11.036l-.062-.124M286.03 10.913l-.062-.062M285.97 10.851l-.124-.062M285.84 10.789h-.248M285.59 10.789l-.124.062M285.47 10.851l-.062.062M285.41 10.913l-.062.124"/></g><path fill="none" fill-opacity="0" stroke="#840000" stroke-linecap="round" stroke-linejoin="round" stroke-width=".15" d="M60 198.01v2M110 198.01v2M160 198.01v2M210 198.01v2M260 198.01v2"/><g fill="#840000" fill-opacity="0" stroke="#840000" stroke-linecap="round" stroke-linejoin="round" stroke-width=".15" class="stroked-text"><path fill="none" d="M36.089 199.6h-.743M35.718 199.6v-1.3M35.718 198.3l-.124.186M35.594 198.49l-.124.124M35.47 198.61l-.124.062"/></g><g fill="#840000" fill-opacity="0" stroke="#840000" stroke-linecap="round" stroke-linejoin="round" stroke-width=".15" class="stroked-text"><path fill="none" d="m85.346 198.42.062-.062M85.408 198.36l.124-.062M85.532 198.3h.31M85.842 198.3l.124.062M85.965 198.36l.062.062M86.027 198.42l.062.124M86.089 198.55v.124M86.089 198.67l-.062.186M86.027 198.86l-.743.743M85.284 199.6h.805"/></g><g fill="#840000" fill-opacity="0" stroke="#840000" stroke-linecap="round" stroke-linejoin="round" stroke-width=".15" class="stroked-text"><path fill="none" d="M135.28 198.3h.805M136.09 198.3l-.433.495M135.66 198.8h.186M135.84 198.8l.124.062M135.97 198.86l.062.062M136.03 198.92l.062.124M136.09 199.04v.31M136.09 199.35l-.062.124M136.03 199.48l-.062.062M135.97 199.54l-.124.062M135.84 199.6h-.371M135.47 199.6l-.124-.062M135.35 199.54l-.062-.062"/></g><g fill="#840000" fill-opacity="0" stroke="#840000" stroke-linecap="round" stroke-linejoin="round" stroke-width=".15" class="stroked-text"><path fill="none" d="M185.97 198.73v.867M185.66 198.24l-.31.929M185.35 199.17h.805"/></g><g fill="#840000" fill-opacity="0" stroke="#840000" stroke-linecap="round" stroke-linejoin="round" stroke-width=".15" class="stroked-text"><path fill="none" d="M236.03 198.3h-.62M235.41 198.3l-.062.62M235.35 198.92l.062-.062M235.41 198.86l.124-.062M235.53 198.8h.31M235.84 198.8l.124.062M235.97 198.86l.062.062M236.03 198.92l.062.124M236.09 199.04v.31M236.09 199.35l-.062.124M236.03 199.48l-.062.062M235.97 199.54l-.124.062M235.84 199.6h-.31M235.53 199.6l-.124-.062M235.41 199.54l-.062-.062"/></g><g fill="#840000" fill-opacity="0" stroke="#840000" stroke-linecap="round" stroke-linejoin="round" stroke-width=".15" class="stroked-text"><path fill="none" d="M285.97 198.3h-.248M285.72 198.3l-.124.062M285.59 198.36l-.062.062M285.53 198.42l-.124.186M285.41 198.61l-.062.248M285.35 198.86v.495M285.35 199.35l.062.124M285.41 199.48l.062.062M285.47 199.54l.124.062M285.59 199.6h.248M285.84 199.6l.124-.062M285.97 199.54l.062-.062M286.03 199.48l.062-.124M286.09 199.35v-.31M286.09 199.04l-.062-.124M286.03 198.92l-.062-.062M285.97 198.86l-.124-.062M285.84 198.8h-.248M285.59 198.8l-.124.062M285.47 198.86l-.062.062M285.41 198.92l-.062.124"/></g><path fill="none" fill-opacity="0" stroke="#840000" stroke-linecap="round" stroke-linejoin="round" stroke-width=".15" d="M10 60h2M10 110h2M10 160h2"/><g fill="#840000" fill-opacity="0" stroke="#840000" stroke-linecap="round" stroke-linejoin="round" stroke-width=".15" class="stroked-text"><path fill="none" d="M10.69 35.222h.619M10.567 35.594l.433-1.3M11 34.294l.433 1.3"/></g><g fill="#840000" fill-opacity="0" stroke="#840000" stroke-linecap="round" stroke-linejoin="round" stroke-width=".15" class="stroked-text"><path fill="none" d="m11.093 84.913.186.062M11.279 84.975l.062.062M11.34 85.036l.062.124M11.402 85.16v.186M11.402 85.346l-.062.124M11.34 85.47l-.062.062M11.279 85.532l-.124.062M11.155 85.594h-.495M10.66 85.594v-1.3M10.66 84.294h.433M11.093 84.294l.124.062M11.217 84.356l.062.062M11.279 84.417l.062.124M11.34 84.541v.124M11.34 84.665l-.062.124M11.279 84.789l-.062.062M11.217 84.851l-.124.062M11.093 84.913h-.433"/></g><g fill="#840000" fill-opacity="0" stroke="#840000" stroke-linecap="round" stroke-linejoin="round" stroke-width=".15" class="stroked-text"><path fill="none" d="m11.402 135.47-.062.062M11.34 135.53l-.186.062M11.155 135.59h-.124M11.031 135.59l-.186-.062M10.845 135.53l-.124-.124M10.721 135.41l-.062-.124M10.66 135.28l-.062-.248M10.598 135.04v-.186M10.598 134.85l.062-.248M10.66 134.6l.062-.124M10.721 134.48l.124-.124M10.845 134.36l.186-.062M11.031 134.29h.124M11.155 134.29l.186.062M11.34 134.36l.062.062"/></g><g fill="#840000" fill-opacity="0" stroke="#840000" stroke-linecap="round" stroke-linejoin="round" stroke-width=".15" class="stroked-text"><path fill="none" d="M10.66 185.59v-1.3M10.66 184.29h.31M10.969 184.29l.186.062M11.155 184.36l.124.124M11.279 184.48l.062.124M11.34 184.6l.062.248M11.402 184.85v.186M11.402 185.04l-.062.248M11.34 185.28l-.062.124M11.279 185.41l-.124.124M11.155 185.53l-.186.062M10.969 185.59h-.31"/></g><path fill="none" fill-opacity="0" stroke="#840000" stroke-linecap="round" stroke-linejoin="round" stroke-width=".15" d="M287 60h-2M287 110h-2M287 160h-2"/><g fill="#840000" fill-opacity="0" stroke="#840000" stroke-linecap="round" stroke-linejoin="round" stroke-width=".15" class="stroked-text"><path fill="none" d="M285.69 35.222h.619M285.57 35.594l.433-1.3M286 34.294l.433 1.3"/></g><g fill="#840000" fill-opacity="0" stroke="#840000" stroke-linecap="round" stroke-linejoin="round" stroke-width=".15" class="stroked-text"><path fill="none" d="m286.1 84.913.186.062M286.28 84.975l.062.062M286.34 85.036l.062.124M286.4 85.16v.186M286.4 85.346l-.062.124M286.34 85.47l-.062.062M286.28 85.532l-.124.062M286.16 85.594h-.495M285.66 85.594v-1.3M285.66 84.294h.433M286.1 84.294l.124.062M286.22 84.356l.062.062M286.28 84.417l.062.124M286.34 84.541v.124M286.34 84.665l-.062.124M286.28 84.789l-.062.062M286.22 84.851l-.124.062M286.1 84.913h-.433"/></g><g fill="#840000" fill-opacity="0" stroke="#840000" stroke-linecap="round" stroke-linejoin="round" stroke-width=".15" class="stroked-text"><path fill="none" d="m286.4 135.47-.062.062M286.34 135.53l-.186.062M286.16 135.59h-.124M286.03 135.59l-.186-.062M285.85 135.53l-.124-.124M285.72 135.41l-.062-.124M285.66 135.28l-.062-.248M285.6 135.04v-.186M285.6 134.85l.062-.248M285.66 134.6l.062-.124M285.72 134.48l.124-.124M285.85 134.36l.186-.062M286.03 134.29h.124M286.16 134.29l.186.062M286.34 134.36l.062.062"/></g><g fill="#840000" fill-opacity="0" stroke="#840000" stroke-linecap="round" stroke-linejoin="round" stroke-width=".15" class="stroked-text"><path fill="none" d="M285.66 185.59v-1.3M285.66 184.29h.31M285.97 184.29l.186.062M286.16 184.36l.124.124M286.28 184.48l.062.124M286.34 184.6l.062.248M286.4 184.85v.186M286.4 185.04l-.062.248M286.34 185.28l-.062.124M286.28 185.41l-.124.124M286.16 185.53l-.186.062M285.97 185.59h-.31"/></g><g fill="#840000" fill-opacity="0" stroke="#840000" stroke-linecap="round" stroke-linejoin="round" stroke-width=".15" class="stroked-text"><path fill="none" d="M200.46 193.79v-1.5M200.46 192.29h.357M200.82 192.29l.214.071M201.03 192.36l.143.143M201.17 192.51l.071.143M201.24 192.65l.071.286M201.32 192.94v.214M201.32 193.15l-.071.286M201.24 193.44l-.071.143M201.17 193.58l-.143.143M201.03 193.72l-.214.071M200.82 193.79h-.357M202.6 193.79v-.786M202.6 193.01l-.071-.143M202.53 192.86l-.143-.071M202.39 192.79h-.286M202.1 192.79l-.143.071M202.6 193.72l-.143.071M202.46 193.79h-.357M202.1 193.79l-.143-.071M201.96 193.72l-.071-.143M201.89 193.58v-.143M201.89 193.44l.071-.143M201.96 193.29l.143-.071M202.1 193.22h.357M202.46 193.22l.143-.071M203.1 192.79h.571M203.32 192.29v1.286M203.32 193.58l.071.143M203.39 193.72l.143.071M203.53 193.79h.143M204.74 193.72l-.143.071M204.6 193.79h-.286M204.32 193.79l-.143-.071M204.17 193.72l-.071-.143M204.1 193.58v-.571M204.1 193.01l.071-.143M204.17 192.86l.143-.071M204.32 192.79h.286M204.6 192.79l.143.071M204.74 192.86l.071.143M204.82 193.01v.143M204.82 193.15l-.714.143M205.46 193.65l.071.071M205.53 193.72l-.071.071M205.46 193.79l-.071-.071M205.39 193.72l.071-.071M205.46 193.65v.143M205.46 192.86l.071.071M205.53 192.94l-.071.071M205.46 193.01l-.071-.071M205.39 192.94l.071-.071M205.46 192.86v.143M207.24 192.44l.071-.071M207.32 192.36l.143-.071M207.46 192.29h.357M207.82 192.29l.143.071M207.96 192.36l.071.071M208.03 192.44l.071.143M208.1 192.58v.143M208.1 192.72l-.071.214M208.03 192.94l-.857.857M207.17 193.79h.929M209.03 192.29h.143M209.17 192.29l.143.071M209.32 192.36l.071.071M209.39 192.44l.071.143M209.46 192.58l.071.286M209.53 192.86v.357M209.53 193.22l-.071.286M209.46 193.51l-.071.143M209.39 193.65l-.071.071M209.32 193.72l-.143.071M209.17 193.79h-.143M209.03 193.79l-.143-.071M208.89 193.72l-.071-.071M208.82 193.65l-.071-.143M208.74 193.51l-.071-.286M208.67 193.22v-.357M208.67 192.86l.071-.286M208.74 192.58l.071-.143M208.82 192.44l.071-.071M208.89 192.36l.143-.071M210.1 192.44l.071-.071M210.17 192.36l.143-.071M210.32 192.29h.357M210.67 192.29l.143.071M210.82 192.36l.071.071M210.89 192.44l.071.143M210.96 192.58v.143M210.96 192.72l-.071.214M210.89 192.94l-.857.857M210.03 193.79h.928M212.24 192.79v1M211.89 192.22l-.357 1.071M211.53 193.29h.928M213.03 193.22h1.143M215.17 192.29h.143M215.32 192.29l.143.071M215.46 192.36l.071.071M215.53 192.44l.071.143M215.6 192.58l.071.286M215.67 192.86v.357M215.67 193.22l-.071.286M215.6 193.51l-.071.143M215.53 193.65l-.071.071M215.46 193.72l-.143.071M215.32 193.79h-.143M215.17 193.79l-.143-.071M215.03 193.72l-.071-.071M214.96 193.65l-.071-.143M214.89 193.51l-.071-.286M214.82 193.22v-.357M214.82 192.86l.071-.286M214.89 192.58l.071-.143M214.96 192.44l.071-.071M215.03 192.36l.143-.071M216.24 192.44l.071-.071M216.32 192.36l.143-.071M216.46 192.29h.357M216.82 192.29l.143.071M216.96 192.36l.071.071M217.03 192.44l.071.143M217.1 192.58v.143M217.1 192.72l-.071.214M217.03 192.94l-.857.857M216.17 193.79h.929M217.74 193.22h1.143M219.53 192.44l.071-.071M219.6 192.36l.143-.071M219.74 192.29h.357M220.1 192.29l.143.071M220.24 192.36l.071.071M220.32 192.44l.071.143M220.39 192.58v.143M220.39 192.72l-.071.214M220.32 192.94l-.857.857M219.46 193.79h.929M221.82 193.79h-.857M221.39 193.79v-1.5M221.39 192.29l-.143.214M221.24 192.51l-.143.143M221.1 192.65l-.143.071"/></g><path fill="none" fill-opacity="0" stroke="#840000" stroke-linecap="round" stroke-linejoin="round" stroke-width=".15" d="M177 194.51h108"/><g fill="#840000" fill-opacity="0" stroke="#840000" stroke-linecap="round" stroke-linejoin="round" stroke-width=".15" class="stroked-text"><path fill="none" d="M178.46 196.59v-1.5M179.32 196.59l-.643-.857M179.32 195.09l-.857.857M179.96 196.59v-1M179.96 195.09l-.071.071M179.89 195.16l.071.071M179.96 195.24l.071-.071M180.03 195.16l-.071-.071M179.96 195.09v.143M181.53 196.45l-.071.071M181.46 196.52l-.214.071M181.24 196.59h-.143M181.1 196.59l-.214-.071M180.89 196.52l-.143-.143M180.74 196.38l-.071-.143M180.67 196.24l-.071-.286M180.6 195.95v-.214M180.6 195.74l.071-.286M180.67 195.45l.071-.143M180.74 195.31l.143-.143M180.89 195.16l.214-.071M181.1 195.09h.143M181.24 195.09l.214.071M181.46 195.16l.071.071M182.82 196.59v-.786M182.82 195.81l-.071-.143M182.74 195.66l-.143-.071M182.6 195.59h-.286M182.32 195.59l-.143.071M182.82 196.52l-.143.071M182.67 196.59h-.357M182.32 196.59l-.143-.071M182.17 196.52l-.071-.143M182.1 196.38v-.143M182.1 196.24l.071-.143M182.17 196.09l.143-.071M182.32 196.02h.357M182.67 196.02l.143-.071M184.17 196.59v-1.5M184.17 196.52l-.143.071M184.03 196.59h-.286M183.74 196.59l-.143-.071M183.6 196.52l-.071-.071M183.53 196.45l-.071-.143M183.46 196.31v-.429M183.46 195.88l.071-.143M183.53 195.74l.071-.071M183.6 195.66l.143-.071M183.74 195.59h.286M184.03 195.59l.143.071M186.03 195.81h.5M186.74 196.59h-.714M186.03 196.59v-1.5M186.03 195.09h.714M187.39 196.45l.071.071M187.46 196.52l-.071.071M187.39 196.59l-.071-.071M187.32 196.52l.071-.071M187.39 196.45v.143M188.1 196.59v-1.5M188.1 195.09h.357M188.46 195.09l.214.071M188.67 195.16l.143.143M188.82 195.31l.071.143M188.89 195.45l.071.286M188.96 195.74v.214M188.96 195.95l-.071.286M188.89 196.24l-.071.143M188.82 196.38l-.143.143M188.67 196.52l-.214.071M188.46 196.59h-.357M189.6 196.45l.071.071M189.67 196.52l-.071.071M189.6 196.59l-.071-.071M189.53 196.52l.071-.071M189.6 196.45v.143M190.24 196.16h.714M190.1 196.59l.5-1.5M190.6 195.09l.5 1.5M191.6 196.45l.071.071M191.67 196.52l-.071.071M191.6 196.59l-.071-.071M191.53 196.52l.071-.071M191.6 196.45v.143M194.6 196.59v-1.5M194.74 196.02l.429.571M195.17 195.59l-.571.572M195.82 196.59v-1M195.82 195.09l-.071.071M195.74 195.16l.071.071M195.82 195.24l.071-.071M195.89 195.16l-.071-.071M195.82 195.09v.143M197.17 196.52l-.143.071M197.03 196.59h-.286M196.74 196.59l-.143-.071M196.6 196.52l-.071-.071M196.53 196.45l-.071-.143M196.46 196.31v-.429M196.46 195.88l.071-.143M196.53 195.74l.071-.071M196.6 195.66l.143-.071M196.74 195.59h.286M197.03 195.59l.143.071M198.46 196.59v-.786M198.46 195.81l-.071-.143M198.39 195.66l-.143-.071M198.24 195.59h-.286M197.96 195.59l-.143.071M198.46 196.52l-.143.071M198.32 196.59h-.357M197.96 196.59l-.143-.071M197.82 196.52l-.071-.143M197.74 196.38v-.143M197.74 196.24l.071-.143M197.82 196.09l.143-.071M197.96 196.02h.357M198.32 196.02l.143-.071M199.82 196.59v-1.5M199.82 196.52l-.143.071M199.67 196.59h-.286M199.39 196.59l-.143-.071M199.24 196.52l-.071-.071M199.17 196.45l-.071-.143M199.1 196.31v-.429M199.1 195.88l.071-.143M199.17 195.74l.071-.071M199.24 195.66l.143-.071M199.39 195.59h.286M199.67 195.59l.143.071M201.53 195.09h1M202.53 195.09l-.643 1.5M203.1 196.45l.071.071M203.17 196.52l-.071.071M203.1 196.59l-.071-.071M203.03 196.52l.071-.071M203.1 196.45v.143M204.1 195.09h.143M204.24 195.09l.143.071M204.39 195.16l.071.071M204.46 195.24l.071.143M204.53 195.38l.071.286M204.6 195.66v.357M204.6 196.02l-.071.286M204.53 196.31l-.071.143M204.46 196.45l-.071.071M204.39 196.52l-.143.071M204.24 196.59h-.143M204.1 196.59l-.143-.071M203.96 196.52l-.071-.071M203.89 196.45l-.071-.143M203.82 196.31l-.071-.286M203.74 196.02v-.357M203.74 195.66l.071-.286M203.82 195.38l.071-.143M203.89 195.24l.071-.071M203.96 195.16l.143-.071M205.24 196.45l.071.071M205.32 196.52l-.071.071M205.24 196.59l-.071-.071M205.17 196.52l.071-.071M205.24 196.45v.143M206.74 196.59h-.857M206.32 196.59v-1.5M206.32 195.09l-.143.214M206.17 195.31l-.143.143M206.03 195.45l-.143.071M207.67 195.09h.143M207.82 195.09l.143.071M207.96 195.16l.071.071M208.03 195.24l.071.143M208.1 195.38l.071.286M208.17 195.66v.357M208.17 196.02l-.071.286M208.1 196.31l-.071.143M208.03 196.45l-.071.071M207.96 196.52l-.143.071M207.82 196.59h-.143M207.67 196.59l-.143-.071M207.53 196.52l-.071-.071M207.46 196.45l-.071-.143M207.39 196.31l-.071-.286M207.32 196.02v-.357M207.32 195.66l.071-.286M207.39 195.38l.071-.143M207.46 195.24l.071-.071M207.53 195.16l.143-.071"/></g><path fill="none" fill-opacity="0" stroke="#840000" stroke-linecap="round" stroke-linejoin="round" stroke-width=".15" d="M177 191.51h108"/><g fill="#840000" fill-opacity="0" stroke="#840000" stroke-linecap="round" stroke-linejoin="round" stroke-width=".3" class="stroked-text"><path fill="none" d="m264.41 193.79-.5-.714M263.56 193.79v-1.5M263.56 192.29h.571M264.13 192.29l.143.071M264.27 192.36l.071.071M264.34 192.43l.071.143M264.41 192.57v.214M264.41 192.79l-.071.143M264.34 192.93l-.071.071M264.27 193l-.143.071M264.13 193.07h-.571M265.63 193.71l-.143.071M265.49 193.79h-.286M265.2 193.79l-.143-.071M265.06 193.71l-.071-.143M264.99 193.57v-.571M264.99 193l.071-.143M265.06 192.86l.143-.071M265.2 192.79h.286M265.49 192.79l.143.071M265.63 192.86l.071.143M265.7 193v.143M265.7 193.14l-.714.143M266.2 192.79l.357 1M266.56 193.79l.357-1M267.49 193.64l.071.071M267.56 193.71l-.071.071M267.49 193.79l-.071-.071M267.41 193.71l.071-.071M267.49 193.64v.143M267.49 192.86l.071.071M267.56 192.93l-.071.071M267.49 193l-.071-.071M267.41 192.93l.071-.071M267.49 192.86v.143M269.63 192.29h.143M269.77 192.29l.143.071M269.91 192.36l.071.071M269.99 192.43l.071.143M270.06 192.57l.071.286M270.13 192.86v.357M270.13 193.21l-.071.286M270.06 193.5l-.071.143M269.99 193.64l-.071.071M269.91 193.71l-.143.071M269.77 193.79h-.143M269.63 193.79l-.143-.071M269.49 193.71l-.071-.071M269.41 193.64l-.071-.143M269.34 193.5l-.071-.286M269.27 193.21v-.357M269.27 192.86l.071-.286M269.34 192.57l.071-.143M269.41 192.43l.071-.071M269.49 192.36l.143-.071M271.56 193.79h-.857M271.13 193.79v-1.5M271.13 192.29l-.143.214M270.99 192.5l-.143.143M270.84 192.64l-.143.071M272.2 193.21h1.143M273.99 192.43l.071-.071M274.06 192.36l.143-.071M274.2 192.29h.357M274.56 192.29l.143.071M274.7 192.36l.071.071M274.77 192.43l.071.143M274.84 192.57v.143M274.84 192.71l-.071.214M274.77 192.93l-.857.857M273.91 193.79h.928M275.77 192.29h.143M275.91 192.29l.143.071M276.06 192.36l.071.071M276.13 192.43l.071.143M276.2 192.57l.071.286M276.27 192.86v.357M276.27 193.21l-.071.286M276.2 193.5l-.071.143M276.13 193.64l-.071.071M276.06 193.71l-.143.071M275.91 193.79h-.143M275.77 193.79l-.143-.071M275.63 193.71l-.071-.071M275.56 193.64l-.071-.143M275.49 193.5l-.071-.286M275.41 193.21v-.357M275.41 192.86l.071-.286M275.49 192.57l.071-.143M275.56 192.43l.071-.071M275.63 192.36l.143-.071M276.84 192.43l.071-.071M276.91 192.36l.143-.071M277.06 192.29h.357M277.41 192.29l.143.071M277.56 192.36l.071.071M277.63 192.43l.071.143M277.7 192.57v.143M277.7 192.71l-.071.214M277.63 192.93l-.857.857M276.77 193.79h.929M278.99 192.79v1M278.63 192.21l-.357 1.071M278.27 193.29h.929"/></g><g fill="#840000" fill-opacity="0" stroke="#840000" stroke-linecap="round" stroke-linejoin="round" stroke-width=".15" class="stroked-text"><path fill="none" d="m178.39 193.72.214.071M178.6 193.79h.357M178.96 193.79l.143-.071M179.1 193.72l.071-.071M179.17 193.65l.071-.143M179.24 193.51v-.143M179.24 193.36l-.071-.143M179.17 193.22l-.071-.071M179.1 193.15l-.143-.071M178.96 193.08l-.286-.071M178.67 193.01l-.143-.071M178.53 192.94l-.071-.071M178.46 192.86l-.071-.143M178.39 192.72v-.143M178.39 192.58l.071-.143M178.46 192.44l.071-.071M178.53 192.36l.143-.071M178.67 192.29h.357M179.03 192.29l.214.071M179.89 193.79v-1M179.89 192.29l-.071.071M179.82 192.36l.071.071M179.89 192.44l.071-.071M179.96 192.36l-.071-.071M179.89 192.29v.143M180.46 192.79h.786M181.24 192.79l-.786 1M180.46 193.79h.786M182.39 193.72l-.143.071M182.24 193.79h-.286M181.96 193.79l-.143-.071M181.82 193.72l-.071-.143M181.74 193.58v-.571M181.74 193.01l.071-.143M181.82 192.86l.143-.071M181.96 192.79h.286M182.24 192.79l.143.071M182.39 192.86l.071.143M182.46 193.01v.143M182.46 193.15l-.714.143M183.1 193.65l.071.071M183.17 193.72l-.071.071M183.1 193.79l-.071-.071M183.03 193.72l.071-.071M183.1 193.65v.143M183.1 192.86l.071.071M183.17 192.94l-.071.071M183.1 193.01l-.071-.071M183.03 192.94l.071-.071M183.1 192.86v.143M184.89 193.36h.714M184.74 193.79l.5-1.5M185.24 192.29l.5 1.5M186.89 192.79v1M186.53 192.22l-.357 1.071M186.17 193.29h.929"/></g><g fill="#840000" fill-opacity="0" stroke="#840000" stroke-linecap="round" stroke-linejoin="round" stroke-width=".15" class="stroked-text"><path fill="none" d="M263.46 196.59v-1.5M264.82 196.59v-1.5M264.82 196.52l-.143.071M264.67 196.59h-.286M264.39 196.59l-.143-.071M264.24 196.52l-.071-.071M264.17 196.45l-.071-.143M264.1 196.31v-.429M264.1 195.88l.071-.143M264.17 195.74l.071-.071M264.24 195.66l.143-.071M264.39 195.59h.286M264.67 195.59l.143.071M265.53 196.45l.071.071M265.6 196.52l-.071.071M265.53 196.59l-.071-.071M265.46 196.52l.071-.071M265.53 196.45v.143M265.53 195.66l.071.071M265.6 195.74l-.071.071M265.53 195.81l-.071-.071M265.46 195.74l.071-.071M265.53 195.66v.143M268.17 196.59h-.857M267.74 196.59v-1.5M267.74 195.09l-.143.214M267.6 195.31l-.143.143M267.46 195.45l-.143.071M269.89 195.02l-1.286 1.929M271.17 196.59h-.857M270.74 196.59v-1.5M270.74 195.09l-.143.214M270.6 195.31l-.143.143M270.46 195.45l-.143.071"/></g><path fill="none" fill-opacity="0" stroke="#840000" stroke-linecap="round" stroke-linejoin="round" stroke-width=".15" d="M177 187.51h108"/><g fill="#840000" fill-opacity="0" stroke="#840000" stroke-linecap="round" stroke-linejoin="round" stroke-width=".4" class="stroked-text"><path fill="none" d="M178.69 188.21h1.143M179.02 190.21l.25-2M180.25 190.21l.167-1.333M180.5 188.21l-.107.095M180.4 188.31l.083.095M180.48 188.4l.107-.095M180.59 188.31l-.083-.095M180.5 188.21l-.024.19M181.09 188.88h.762M181.46 188.21l-.214 1.714M181.24 189.93l.071.19M181.31 190.12l.178.095M181.49 190.21h.19M182.63 190.21l-.179-.095M182.46 190.12l-.071-.19M182.38 189.93l.214-1.714M184.17 190.12l-.202.095M183.97 190.21h-.38M183.59 190.21l-.179-.095M183.41 190.12l-.071-.19M183.34 189.93l.095-.762M183.43 189.16l.12-.19M183.55 188.97l.202-.095M183.75 188.88h.38M184.13 188.88l.179.095M184.31 188.97l.071.19M184.38 189.16l-.024.19M184.36 189.35l-.976.19M185.13 190.02l.083.095M185.22 190.12l-.107.095M185.11 190.21l-.083-.095M185.03 190.12l.107-.095M185.13 190.02l-.024.19M185.27 188.97l.083.095M185.35 189.07l-.107.095M185.24 189.16l-.083-.095M185.16 189.07l.107-.095M185.27 188.97l-.024.19M187.55 188.21l.417 2M187.97 190.21l.917-2M189.59 190.21l-.179-.095M189.41 190.12l-.083-.095M189.32 190.02l-.071-.19M189.25 189.83l.071-.571M189.32 189.26l.119-.19M189.44 189.07l.107-.095M189.55 188.97l.202-.095M189.75 188.88h.286M190.04 188.88l.178.095M190.22 188.97l.083.095M190.3 189.07l.071.19M190.37 189.26l-.071.571M190.3 189.83l-.12.19M190.18 190.02l-.107.095M190.07 190.12l-.202.095M189.87 190.21h-.286M191.4 190.21l-.179-.095M191.22 190.12l-.071-.19M191.15 189.93l.214-1.714M192.13 188.88l.31 1.333M192.44 190.21l.643-1.333M193.97 190.21l-.178-.095M193.79 190.12l-.083-.095M193.71 190.02l-.071-.19M193.63 189.83l.071-.571M193.71 189.26l.12-.19M193.82 189.07l.107-.095M193.93 188.97l.202-.095M194.13 188.88h.286M194.42 188.88l.179.095M194.6 188.97l.083.095M194.68 189.07l.071.19M194.75 189.26l-.071.571M194.68 189.83l-.119.19M194.56 190.02l-.107.095M194.46 190.12l-.202.095M194.25 190.21h-.286M197.02 190.21l.25-2M197.27 188.21h.762M198.03 188.21l.178.095M198.21 188.31l.083.095M198.29 188.4l.071.19M198.36 188.59l-.036.286M198.32 188.88l-.12.19M198.21 189.07l-.107.095M198.1 189.16l-.202.095M197.9 189.26h-.762M199.15 188.4l.107-.095M199.25 188.31l.202-.095M199.46 188.21h.476M199.93 188.21l.179.095M200.11 188.31l.083.095M200.19 188.4l.071.19M200.27 188.59l-.024.19M200.24 188.78l-.13.286M200.11 189.07l-1.286 1.143M198.82 190.21h1.238M203.4 190.21h-.952M202.44 190.21l.25-2M204.19 189.16h.667M205.02 190.21h-.952M204.06 190.21l.25-2M204.31 188.21h.952M205.87 190.21l.25-2M206.12 188.21h.476M206.6 188.21l.274.095M206.87 188.31l.167.19M207.04 188.5l.071.19M207.11 188.69l.048.381M207.16 189.07l-.036.286M207.12 189.35l-.143.38M206.98 189.74l-.119.19M206.86 189.93l-.214.19M206.65 190.12l-.298.095M206.35 190.21h-.476M210.42 188.88l-.167 1.333M209.56 188.88l-.131 1.048M209.43 189.93l.071.19M209.5 190.12l.178.095M209.68 190.21h.286M209.97 190.21l.202-.095M210.17 190.12l.107-.095M211.37 188.88l-.25 2M211.36 188.97l.202-.095M211.56 188.88h.38M211.94 188.88l.179.095M212.12 188.97l.083.095M212.21 189.07l.071.19M212.28 189.26l-.071.571M212.21 189.83l-.119.19M212.09 190.02l-.107.095M211.98 190.12l-.202.095M211.78 190.21h-.381M211.4 190.21l-.179-.095M214.04 188.88l-.202 1.62M213.84 190.5l-.12.19M213.72 190.69l-.107.095M213.61 190.78l-.202.095M213.41 190.88h-.286M213.12 190.88l-.179-.095M213.88 190.12l-.202.095M213.68 190.21h-.38M213.3 190.21l-.179-.095M213.12 190.12l-.083-.095M213.04 190.02l-.071-.19M212.97 189.83l.071-.571M213.04 189.26l.119-.19M213.16 189.07l.107-.095M213.27 188.97l.202-.095M213.47 188.88h.381M213.85 188.88l.179.095M214.82 190.21l.167-1.333M214.94 189.26l.12-.19M215.06 189.07l.107-.095M215.17 188.97l.202-.095M215.37 188.88h.19M216.92 190.21l.131-1.048M217.05 189.16l-.071-.19M216.98 188.97l-.178-.095M216.8 188.88h-.381M216.42 188.88l-.202.095M216.93 190.12l-.202.095M216.73 190.21h-.476M216.25 190.21l-.179-.095M216.07 190.12l-.071-.19M216 189.93l.024-.19M216.03 189.74l.119-.19M216.15 189.54l.202-.095M216.35 189.45h.476M216.82 189.45l.202-.095M218.73 190.21l.25-2M218.74 190.12l-.202.095M218.54 190.21h-.381M218.16 190.21l-.179-.095M217.98 190.12l-.083-.095M217.9 190.02l-.071-.19M217.82 189.83l.071-.571M217.9 189.26l.12-.19M218.02 189.07l.107-.095M218.12 188.97l.202-.095M218.32 188.88h.38M218.71 188.88l.179.095M220.46 190.12l-.202.095M220.25 190.21h-.381M219.87 190.21l-.179-.095M219.69 190.12l-.071-.19M219.62 189.93l.095-.762M219.72 189.16l.12-.19M219.84 188.97l.202-.095M220.04 188.88h.38M220.42 188.88l.179.095M220.6 188.97l.071.19M220.67 189.16l-.024.19M220.65 189.35l-.976.19M222.8 188.88h.762M223.17 188.21l-.214 1.714M222.96 189.93l.071.19M223.03 190.12l.178.095M223.21 190.21h.19M224.35 190.21l-.179-.095M224.17 190.12l-.083-.095M224.09 190.02l-.071-.19M224.02 189.83l.071-.571M224.09 189.26l.119-.19M224.21 189.07l.107-.095M224.31 188.97l.202-.095M224.52 188.88h.286M224.8 188.88l.178.095M224.98 188.97l.083.095M225.06 189.07l.071.19M225.13 189.26l-.071.571M225.06 189.83l-.12.19M224.94 190.02l-.107.095M224.84 190.12l-.202.095M224.63 190.21h-.286M227.28 188.88h.762M227.65 188.21l-.214 1.714M227.43 189.93l.071.19M227.5 190.12l.178.095M227.68 190.21h.19M228.54 190.21l.25-2M229.4 190.21l.131-1.048M229.53 189.16l-.071-.19M229.46 188.97l-.178-.095M229.28 188.88h-.286M228.99 188.88l-.202.095M228.79 188.97l-.107.095M231.12 190.12l-.202.095M230.92 190.21h-.38M230.54 190.21l-.179-.095M230.36 190.12l-.071-.19M230.29 189.93l.095-.762M230.38 189.16l.12-.19M230.5 188.97l.202-.095M230.71 188.88h.381M231.09 188.88l.179.095M231.27 188.97l.071.19M231.34 189.16l-.024.19M231.31 189.35l-.976.19M233.59 190.21l.25-2M233.74 188.97l.202-.095M233.94 188.88h.381M234.32 188.88l.179.095M234.5 188.97l.083.095M234.59 189.07l.071.19M234.66 189.26l-.071.571M234.59 189.83l-.12.19M234.47 190.02l-.107.095M234.36 190.12l-.202.095M234.16 190.21h-.38M233.78 190.21l-.179-.095M236.25 190.21l.13-1.048M236.38 189.16l-.071-.19M236.31 188.97l-.179-.095M236.13 188.88h-.38M235.75 188.88l-.202.095M236.27 190.12l-.202.095M236.06 190.21h-.476M235.59 190.21l-.179-.095M235.41 190.12l-.071-.19M235.34 189.93l.024-.19M235.36 189.74l.119-.19M235.48 189.54l.202-.095M235.68 189.45h.476M236.16 189.45l.202-.095M238.07 190.12l-.202.095M237.87 190.21h-.38M237.49 190.21l-.179-.095M237.31 190.12l-.083-.095M237.23 190.02l-.071-.19M237.16 189.83l.071-.571M237.23 189.26l.12-.19M237.35 189.07l.107-.095M237.46 188.97l.202-.095M237.66 188.88h.381M238.04 188.88l.178.095M238.92 190.21l.25-2M239.21 189.45l.476.762M239.85 188.88l-.857.762M242.92 190.21l.25-2M242.93 190.12l-.202.095M242.73 190.21h-.381M242.35 190.21l-.179-.095M242.17 190.12l-.083-.095M242.09 190.02l-.071-.19M242.02 189.83l.071-.571M242.09 189.26l.119-.19M242.21 189.07l.107-.095M242.31 188.97l.202-.095M242.52 188.88h.38M242.9 188.88l.179.095M244.16 190.21l-.178-.095M243.98 190.12l-.083-.095M243.9 190.02l-.071-.19M243.82 189.83l.071-.571M243.9 189.26l.12-.19M244.02 189.07l.107-.095M244.12 188.97l.202-.095M244.32 188.88h.286M244.61 188.88l.179.095M244.79 188.97l.083.095M244.87 189.07l.071.19M244.94 189.26l-.071.571M244.87 189.83l-.119.19M244.75 190.02l-.107.095M244.65 190.12l-.202.095M244.44 190.21h-.286M245.97 190.21l-.178-.095M245.79 190.12l-.083-.095M245.71 190.02l-.071-.19M245.63 189.83l.071-.571M245.71 189.26l.12-.19M245.82 189.07l.107-.095M245.93 188.97l.202-.095M246.13 188.88h.286M246.42 188.88l.179.095M246.6 188.97l.083.095M246.68 189.07l.071.19M246.75 189.26l-.071.571M246.68 189.83l-.119.19M246.56 190.02l-.107.095M246.46 190.12l-.202.095M246.25 190.21h-.286M247.49 190.21l.167-1.333M247.61 189.26l.12-.19M247.73 189.07l.107-.095M247.84 188.97l.202-.095M248.04 188.88h.19M248.65 190.12l.179.095M248.82 190.21h.38M249.21 190.21l.202-.095M249.41 190.12l.12-.19M249.53 189.93l.012-.095M249.54 189.83l-.071-.19M249.47 189.64l-.178-.095M249.29 189.54h-.286M249 189.54l-.179-.095M248.82 189.45l-.071-.19M248.75 189.26l.012-.095M248.77 189.16l.119-.19M248.88 188.97l.202-.095M249.09 188.88h.286M249.37 188.88l.179.095"/></g><g fill="#840000" fill-opacity="0" stroke="#840000" stroke-linecap="round" stroke-linejoin="round" stroke-width=".15" class="stroked-text"><path fill="none" d="M178.96 185.61h-.5M178.46 186.39v-1.5M178.46 184.89h.714M179.74 186.39v-1M179.74 184.89l-.071.071M179.67 184.96l.071.071M179.74 185.04l.071-.071M179.82 184.96l-.071-.071M179.74 184.89v.143M180.67 186.39l-.143-.071M180.53 186.32l-.071-.143M180.46 186.18v-1.286M181.82 186.32l-.143.071M181.67 186.39h-.286M181.39 186.39l-.143-.071M181.24 186.32l-.071-.143M181.17 186.18v-.571M181.17 185.61l.071-.143M181.24 185.46l.143-.071M181.39 185.39h.286M181.67 185.39l.143.071M181.82 185.46l.071.143M181.89 185.61v.143M181.89 185.75l-.714.143M182.53 186.25l.071.071M182.6 186.32l-.071.071M182.53 186.39l-.071-.071M182.46 186.32l.071-.071M182.53 186.25v.143M182.53 185.46l.071.071M182.6 185.54l-.071.071M182.53 185.61l-.071-.071M182.46 185.54l.071-.071M182.53 185.46v.143M185.03 186.39v-1.5M185.03 186.32l-.143.071M184.89 186.39h-.286M184.6 186.39l-.143-.071M184.46 186.32l-.071-.071M184.39 186.25l-.071-.143M184.32 186.11v-.429M184.32 185.68l.071-.143M184.39 185.54l.071-.071M184.46 185.46l.143-.071M184.6 185.39h.286M184.89 185.39l.143.071M185.96 186.39l-.143-.071M185.82 186.32l-.071-.071M185.74 186.25l-.071-.143M185.67 186.11v-.429M185.67 185.68l.071-.143M185.74 185.54l.071-.071M185.82 185.46l.143-.071M185.96 185.39h.214M186.17 185.39l.143.071M186.32 185.46l.071.071M186.39 185.54l.071.143M186.46 185.68v.429M186.46 186.11l-.071.143M186.39 186.25l-.071.071M186.32 186.32l-.143.071M186.17 186.39h-.214M187.32 186.39l-.143-.071M187.17 186.32l-.071-.071M187.1 186.25l-.071-.143M187.03 186.11v-.429M187.03 185.68l.071-.143M187.1 185.54l.071-.071M187.17 185.46l.143-.071M187.32 185.39h.214M187.53 185.39l.143.071M187.67 185.46l.071.071M187.74 185.54l.071.143M187.82 185.68v.429M187.82 186.11l-.071.143M187.74 186.25l-.071.071M187.67 186.32l-.143.071M187.53 186.39h-.214M188.46 186.39v-1M188.46 185.68l.071-.143M188.53 185.54l.071-.071M188.6 185.46l.143-.071M188.74 185.39h.143M189.03 186.54h1.143M190.74 186.39l-.143-.071M190.6 186.32l-.071-.143M190.53 186.18v-1.286M191.53 186.39l-.143-.071M191.39 186.32l-.071-.071M191.32 186.25l-.071-.143M191.24 186.11v-.429M191.24 185.68l.071-.143M191.32 185.54l.071-.071M191.39 185.46l.143-.071M191.53 185.39h.214M191.74 185.39l.143.071M191.89 185.46l.071.071M191.96 185.54l.071.143M192.03 185.68v.429M192.03 186.11l-.071.143M191.96 186.25l-.071.071M191.89 186.32l-.143.071M191.74 186.39h-.214M193.32 186.32l-.143.071M193.17 186.39h-.286M192.89 186.39l-.143-.071M192.74 186.32l-.071-.071M192.67 186.25l-.071-.143M192.6 186.11v-.429M192.6 185.68l.071-.143M192.67 185.54l.071-.071M192.74 185.46l.143-.071M192.89 185.39h.286M193.17 185.39l.143.071M193.96 186.39v-1.5M194.1 185.82l.429.571M194.53 185.39l-.572.572M195.17 186.39v-1M195.17 184.89l-.071.071M195.1 184.96l.071.071M195.17 185.04l.071-.071M195.24 184.96l-.071-.071M195.17 184.89v.143M195.89 185.39v1M195.89 185.54l.071-.071M195.96 185.46l.143-.071M196.1 185.39h.214M196.32 185.39l.143.071M196.46 185.46l.071.143M196.53 185.61v.786M197.89 185.39v1.214M197.89 186.61l-.071.143M197.82 186.75l-.071.071M197.74 186.82l-.143.071M197.6 186.89h-.214M197.39 186.89l-.143-.071M197.89 186.32l-.143.071M197.74 186.39h-.286M197.46 186.39l-.143-.071M197.32 186.32l-.071-.071M197.24 186.25l-.071-.143M197.17 186.11v-.429M197.17 185.68l.071-.143M197.24 185.54l.071-.071M197.32 185.46l.143-.071M197.46 185.39h.286M197.74 185.39l.143.071M198.24 186.54h1.143M199.74 186.39v-1.5M199.74 185.46l.143-.071M199.89 185.39h.286M200.17 185.39l.143.071M200.32 185.46l.071.071M200.39 185.54l.071.143M200.46 185.68v.429M200.46 186.11l-.071.143M200.39 186.25l-.071.071M200.32 186.32l-.143.071M200.17 186.39h-.286M199.89 186.39l-.143-.071M201.74 186.39v-.786M201.74 185.61l-.071-.143M201.67 185.46l-.143-.071M201.53 185.39h-.286M201.24 185.39l-.143.071M201.74 186.32l-.143.071M201.6 186.39h-.357M201.24 186.39l-.143-.071M201.1 186.32l-.071-.143M201.03 186.18v-.143M201.03 186.04l.071-.143M201.1 185.89l.143-.071M201.24 185.82h.357M201.6 185.82l.143-.071M203.1 186.32l-.143.071M202.96 186.39h-.286M202.67 186.39l-.143-.071M202.53 186.32l-.071-.071M202.46 186.25l-.071-.143M202.39 186.11v-.429M202.39 185.68l.071-.143M202.46 185.54l.071-.071M202.53 185.46l.143-.071M202.67 185.39h.286M202.96 185.39l.143.071M203.74 186.39v-1.5M203.89 185.82l.429.571M204.32 185.39l-.572.572M204.6 186.54h1.143M206.32 186.39l-.143-.071M206.17 186.32l-.071-.143M206.1 186.18v-1.286M207.46 186.32l-.143.071M207.32 186.39h-.286M207.03 186.39l-.143-.071M206.89 186.32l-.071-.143M206.82 186.18v-.571M206.82 185.61l.071-.143M206.89 185.46l.143-.071M207.03 185.39h.286M207.32 185.39l.143.071M207.46 185.46l.071.143M207.53 185.61v.143M207.53 185.75l-.714.143M208.82 186.39v-1.5M208.82 186.32l-.143.071M208.67 186.39h-.286M208.39 186.39l-.143-.071M208.24 186.32l-.071-.071M208.17 186.25l-.071-.143M208.1 186.11v-.429M208.1 185.68l.071-.143M208.17 185.54l.071-.071M208.24 185.46l.143-.071M208.39 185.39h.286M208.67 185.39l.143.071M209.53 186.25l.071.071M209.6 186.32l-.071.071M209.53 186.39l-.071-.071M209.46 186.32l.071-.071M209.53 186.25v.143M210.24 186.39v-1.5M210.39 185.82l.429.571M210.82 185.39l-.572.572M211.46 186.39v-1M211.46 184.89l-.071.071M211.39 184.96l.071.071M211.46 185.04l.071-.071M211.53 184.96l-.071-.071M211.46 184.89v.143M212.82 186.32l-.143.071M212.67 186.39h-.286M212.39 186.39l-.143-.071M212.24 186.32l-.071-.071M212.17 186.25l-.071-.143M212.1 186.11v-.429M212.1 185.68l.071-.143M212.17 185.54l.071-.071M212.24 185.46l.143-.071M212.39 185.39h.286M212.67 185.39l.143.071M214.1 186.39v-.786M214.1 185.61l-.071-.143M214.03 185.46l-.143-.071M213.89 185.39h-.286M213.6 185.39l-.143.071M214.1 186.32l-.143.071M213.96 186.39h-.357M213.6 186.39l-.143-.071M213.46 186.32l-.071-.143M213.39 186.18v-.143M213.39 186.04l.071-.143M213.46 185.89l.143-.071M213.6 185.82h.357M213.96 185.82l.143-.071M215.46 186.39v-1.5M215.46 186.32l-.143.071M215.32 186.39h-.286M215.03 186.39l-.143-.071M214.89 186.32l-.071-.071M214.82 186.25l-.071-.143M214.74 186.11v-.429M214.74 185.68l.071-.143M214.82 185.54l.071-.071M214.89 185.46l.143-.071M215.03 185.39h.286M215.32 185.39l.143.071M215.82 186.54h1.143M217.32 185.39v1.5M217.32 185.46l.143-.071M217.46 185.39h.286M217.74 185.39l.143.071M217.89 185.46l.071.071M217.96 185.54l.071.143M218.03 185.68v.429M218.03 186.11l-.071.143M217.96 186.25l-.071.071M217.89 186.32l-.143.071M217.74 186.39h-.286M217.46 186.39l-.143-.071M219.32 186.32l-.143.071M219.17 186.39h-.286M218.89 186.39l-.143-.071M218.74 186.32l-.071-.071M218.67 186.25l-.071-.143M218.6 186.11v-.429M218.6 185.68l.071-.143M218.67 185.54l.071-.071M218.74 185.46l.143-.071M218.89 185.39h.286M219.17 185.39l.143.071M219.96 186.39v-1.5M219.96 185.46l.143-.071M220.1 185.39h.286M220.39 185.39l.143.071M220.53 185.46l.071.071M220.6 185.54l.071.143M220.67 185.68v.429M220.67 186.11l-.071.143M220.6 186.25l-.071.071M220.53 186.32l-.143.071M220.39 186.39h-.286M220.1 186.39l-.143-.071"/></g><path fill="none" fill-opacity="0" stroke="#840000" stroke-linecap="round" stroke-linejoin="round" stroke-width=".15" d="M177 181.51h108"/><g fill="#840000" fill-opacity="0" stroke="#840000" stroke-linecap="round" stroke-linejoin="round" stroke-width=".15" class="stroked-text"><path fill="none" d="m178.39 183.62.214.071M178.6 183.69h.357M178.96 183.69l.143-.071M179.1 183.62l.071-.071M179.17 183.55l.071-.143M179.24 183.41v-.143M179.24 183.26l-.071-.143M179.17 183.12l-.071-.071M179.1 183.05l-.143-.071M178.96 182.98l-.286-.071M178.67 182.91l-.143-.071M178.53 182.84l-.071-.071M178.46 182.76l-.071-.143M178.39 182.62v-.143M178.39 182.48l.071-.143M178.46 182.34l.071-.071M178.53 182.26l.143-.071M178.67 182.19h.357M179.03 182.19l.214.071M179.89 183.69v-1.5M180.53 183.69v-.786M180.53 182.91l-.071-.143M180.46 182.76l-.143-.071M180.32 182.69h-.214M180.1 182.69l-.143.071M179.96 182.76l-.071.071M181.82 183.62l-.143.071M181.67 183.69h-.286M181.39 183.69l-.143-.071M181.24 183.62l-.071-.143M181.17 183.48v-.571M181.17 182.91l.071-.143M181.24 182.76l.143-.071M181.39 182.69h.286M181.67 182.69l.143.071M181.82 182.76l.071.143M181.89 182.91v.143M181.89 183.05l-.714.143M183.1 183.62l-.143.071M182.96 183.69h-.286M182.67 183.69l-.143-.071M182.53 183.62l-.071-.143M182.46 183.48v-.571M182.46 182.91l.071-.143M182.53 182.76l.143-.071M182.67 182.69h.286M182.96 182.69l.143.071M183.1 182.76l.071.143M183.17 182.91v.143M183.17 183.05l-.714.143M183.6 182.69h.571M183.82 182.19v1.286M183.82 183.48l.071.143M183.89 183.62l.143.071M184.03 183.69h.143M184.67 183.55l.071.071M184.74 183.62l-.071.071M184.67 183.69l-.071-.071M184.6 183.62l.071-.071M184.67 183.55v.143M184.67 182.76l.071.071M184.74 182.84l-.071.071M184.67 182.91l-.071-.071M184.6 182.84l.071-.071M184.67 182.76v.143"/></g><g fill="#840000" fill-opacity="0" stroke="#840000" stroke-linecap="round" stroke-linejoin="round" stroke-width=".3" class="stroked-text"><path fill="none" d="m178.41 179.19.357 1.5M178.77 180.69l.286-1.071M179.06 179.61l.286 1.071M179.34 180.69l.357-1.5M180.13 179.19l.357 1.5M180.49 180.69l.286-1.071M180.77 179.61l.286 1.071M181.06 180.69l.357-1.5M181.84 179.19l.357 1.5M182.2 180.69l.286-1.071M182.49 179.61l.286 1.071M182.77 180.69l.357-1.5M183.7 180.54l.071.071M183.77 180.61l-.071.071M183.7 180.69l-.071-.071M183.63 180.61l.071-.071M183.7 180.54v.143M184.34 180.26h.714M184.2 180.69l.5-1.5M184.7 179.19l.5 1.5M185.7 179.9h.5M186.41 180.69h-.714M185.7 180.69v-1.5M185.7 179.19h.714M187.34 179.19h.286M187.63 179.19l.143.071M187.77 179.26l.143.143M187.91 179.4l.071.286M187.99 179.69v.5M187.99 180.19l-.071.286M187.91 180.47l-.143.143M187.77 180.61l-.143.071M187.63 180.69h-.286M187.34 180.69l-.143-.071M187.2 180.61l-.143-.143M187.06 180.47l-.071-.286M186.99 180.19v-.5M186.99 179.69l.071-.286M187.06 179.4l.143-.143M187.2 179.26l.143-.071M188.63 180.69v-1.5M188.63 179.19l.857 1.5M189.49 180.69v-1.5M190.91 180.69h-.714M190.2 180.69v-1.5M191.34 180.26h.714M191.2 180.69l.5-1.5M191.7 179.19l.5 1.5M193.2 179.9l.214.071M193.41 179.97l.071.071M193.49 180.04l.071.143M193.56 180.19v.214M193.56 180.4l-.071.143M193.49 180.54l-.071.071M193.41 180.61l-.143.071M193.27 180.69h-.571M192.7 180.69v-1.5M192.7 179.19h.5M193.2 179.19l.143.071M193.34 179.26l.071.071M193.41 179.33l.071.143M193.49 179.47v.143M193.49 179.61l-.071.143M193.41 179.76l-.071.071M193.34 179.83l-.143.071M193.2 179.9h-.5M194.13 180.61l.214.071M194.34 180.69h.357M194.7 180.69l.143-.071M194.84 180.61l.071-.071M194.91 180.54l.071-.143M194.99 180.4v-.143M194.99 180.26l-.071-.143M194.91 180.11l-.071-.071M194.84 180.04l-.143-.071M194.7 179.97l-.286-.071M194.41 179.9l-.143-.071M194.27 179.83l-.071-.071M194.2 179.76l-.071-.143M194.13 179.61v-.143M194.13 179.47l.071-.143M194.2 179.33l.071-.071M194.27 179.26l.143-.071M194.41 179.19h.357M194.77 179.19l.214.071M195.63 180.54l.071.071M195.7 180.61l-.071.071M195.63 180.69l-.071-.071M195.56 180.61l.071-.071M195.63 180.54v.143M196.27 180.61l.214.071M196.49 180.69h.357M196.84 180.69l.143-.071M196.99 180.61l.071-.071M197.06 180.54l.071-.143M197.13 180.4v-.143M197.13 180.26l-.071-.143M197.06 180.11l-.071-.071M196.99 180.04l-.143-.071M196.84 179.97l-.286-.071M196.56 179.9l-.143-.071M196.41 179.83l-.071-.071M196.34 179.76l-.071-.143M196.27 179.61v-.143M196.27 179.47l.071-.143M196.34 179.33l.071-.071M196.41 179.26l.143-.071M196.56 179.19h.357M196.91 179.19l.214.071M198.63 180.54l-.071.071M198.56 180.61l-.214.071M198.34 180.69h-.143M198.2 180.69l-.214-.071M197.99 180.61l-.143-.143M197.84 180.47l-.071-.143M197.77 180.33l-.071-.286M197.7 180.04v-.214M197.7 179.83l.071-.286M197.77 179.54l.071-.143M197.84 179.4l.143-.143M197.99 179.26l.214-.071M198.2 179.19h.143M198.34 179.19l.214.071M198.56 179.26l.071.071M199.27 180.69v-1.5M199.99 179.9h.5M200.7 180.69h-.714M199.99 180.69v-1.5M199.99 179.19h.714M201.34 180.69v-1.5M201.34 179.19l.857 1.5M202.2 180.69v-1.5M203.77 180.54l-.071.071M203.7 180.61l-.214.071M203.49 180.69h-.143M203.34 180.69l-.214-.071M203.13 180.61l-.143-.143M202.99 180.47l-.071-.143M202.91 180.33l-.071-.286M202.84 180.04v-.214M202.84 179.83l.071-.286M202.91 179.54l.071-.143M202.99 179.4l.143-.143M203.13 179.26l.214-.071M203.34 179.19h.143M203.49 179.19l.214.071M203.7 179.26l.071.071M204.41 179.9h.5M205.13 180.69h-.714M204.41 180.69v-1.5M204.41 179.19h.714"/></g><g fill="#840000" fill-opacity="0" stroke="#840000" stroke-linecap="round" stroke-linejoin="round" stroke-width=".15" class="stroked-text"><path fill="none" d="m179.32 177.55-.071.071M179.24 177.62l-.214.071M179.03 177.69h-.143M178.89 177.69l-.214-.071M178.67 177.62l-.143-.143M178.53 177.48l-.071-.143M178.46 177.34l-.071-.286M178.39 177.05v-.214M178.39 176.84l.071-.286M178.46 176.55l.071-.143M178.53 176.41l.143-.143M178.67 176.26l.214-.071M178.89 176.19h.143M179.03 176.19l.214.071M179.24 176.26l.071.071M179.96 177.69v-1M179.96 176.98l.071-.143M180.03 176.84l.071-.071M180.1 176.76l.143-.071M180.24 176.69h.143M181.46 177.62l-.143.071M181.32 177.69h-.286M181.03 177.69l-.143-.071M180.89 177.62l-.071-.143M180.82 177.48v-.571M180.82 176.91l.071-.143M180.89 176.76l.143-.071M181.03 176.69h.286M181.32 176.69l.143.071M181.46 176.76l.071.143M181.53 176.91v.143M181.53 177.05l-.714.143M182.82 177.69v-.786M182.82 176.91l-.071-.143M182.74 176.76l-.143-.071M182.6 176.69h-.286M182.32 176.69l-.143.071M182.82 177.62l-.143.071M182.67 177.69h-.357M182.32 177.69l-.143-.071M182.17 177.62l-.071-.143M182.1 177.48v-.143M182.1 177.34l.071-.143M182.17 177.19l.143-.071M182.32 177.12h.357M182.67 177.12l.143-.071M183.32 176.69h.571M183.53 176.19v1.286M183.53 177.48l.071.143M183.6 177.62l.143.071M183.74 177.69h.143M184.39 177.69v-1M184.39 176.19l-.071.071M184.32 176.26l.071.071M184.39 176.34l.071-.071M184.46 176.26l-.071-.071M184.39 176.19v.143M184.96 176.69l.357 1M185.32 177.69l.357-1M186.82 177.62l-.143.071M186.67 177.69h-.286M186.39 177.69l-.143-.071M186.24 177.62l-.071-.143M186.17 177.48v-.571M186.17 176.91l.071-.143M186.24 176.76l.143-.071M186.39 176.69h.286M186.67 176.69l.143.071M186.82 176.76l.071.143M186.89 176.91v.143M186.89 177.05l-.714.143M189.53 177.55l-.071.071M189.46 177.62l-.214.071M189.24 177.69h-.143M189.1 177.69l-.214-.071M188.89 177.62l-.143-.143M188.74 177.48l-.071-.143M188.67 177.34l-.071-.286M188.6 177.05v-.214M188.6 176.84l.071-.286M188.67 176.55l.071-.143M188.74 176.41l.143-.143M188.89 176.26l.214-.071M189.1 176.19h.143M189.24 176.19l.214.071M189.46 176.26l.071.071M190.39 177.69l-.143-.071M190.24 177.62l-.071-.071M190.17 177.55l-.071-.143M190.1 177.41v-.429M190.1 176.98l.071-.143M190.17 176.84l.071-.071M190.24 176.76l.143-.071M190.39 176.69h.214M190.6 176.69l.143.071M190.74 176.76l.071.071M190.82 176.84l.071.143M190.89 176.98v.429M190.89 177.41l-.071.143M190.82 177.55l-.071.071M190.74 177.62l-.143.071M190.6 177.69h-.214M191.53 177.69v-1M191.53 176.84l.071-.071M191.6 176.76l.143-.071M191.74 176.69h.214M191.96 176.69l.143.071M192.1 176.76l.071.143M192.17 176.91v.786M192.17 176.91l.071-.143M192.24 176.76l.143-.071M192.39 176.69h.214M192.6 176.69l.143.071M192.74 176.76l.071.143M192.82 176.91v.786M193.53 177.69v-1M193.53 176.84l.071-.071M193.6 176.76l.143-.071M193.74 176.69h.214M193.96 176.69l.143.071M194.1 176.76l.071.143M194.17 176.91v.786M194.17 176.91l.071-.143M194.24 176.76l.143-.071M194.39 176.69h.214M194.6 176.69l.143.071M194.74 176.76l.071.143M194.82 176.91v.786M195.74 177.69l-.143-.071M195.6 177.62l-.071-.071M195.53 177.55l-.071-.143M195.46 177.41v-.429M195.46 176.98l.071-.143M195.53 176.84l.071-.071M195.6 176.76l.143-.071M195.74 176.69h.214M195.96 176.69l.143.071M196.1 176.76l.071.071M196.17 176.84l.071.143M196.24 176.98v.429M196.24 177.41l-.071.143M196.17 177.55l-.071.071M196.1 177.62l-.143.071M195.96 177.69h-.214M196.89 176.69v1M196.89 176.84l.071-.071M196.96 176.76l.143-.071M197.1 176.69h.214M197.32 176.69l.143.071M197.46 176.76l.071.143M197.53 176.91v.786M198.17 177.62l.143.071M198.32 177.69h.286M198.6 177.69l.143-.071M198.74 177.62l.071-.143M198.82 177.48v-.071M198.82 177.41l-.071-.143M198.74 177.26l-.143-.071M198.6 177.19h-.214M198.39 177.19l-.143-.071M198.24 177.12l-.071-.143M198.17 176.98v-.071M198.17 176.91l.071-.143M198.24 176.76l.143-.071M198.39 176.69h.214M198.6 176.69l.143.071M200.53 177.62l.214.071M200.74 177.69h.357M201.1 177.69l.143-.071M201.24 177.62l.071-.071M201.32 177.55l.071-.143M201.39 177.41v-.143M201.39 177.26l-.071-.143M201.32 177.12l-.071-.071M201.24 177.05l-.143-.071M201.1 176.98l-.286-.071M200.82 176.91l-.143-.071M200.67 176.84l-.071-.071M200.6 176.76l-.071-.143M200.53 176.62v-.143M200.53 176.48l.071-.143M200.6 176.34l.071-.071M200.67 176.26l.143-.071M200.82 176.19h.357M201.17 176.19l.214.071M202.03 177.69v-1.5M202.67 177.69v-.786M202.67 176.91l-.071-.143M202.6 176.76l-.143-.071M202.46 176.69h-.214M202.24 176.69l-.143.071M202.1 176.76l-.071.071M204.03 177.69v-.786M204.03 176.91l-.071-.143M203.96 176.76l-.143-.071M203.82 176.69h-.286M203.53 176.69l-.143.071M204.03 177.62l-.143.071M203.89 177.69h-.357M203.53 177.69l-.143-.071M203.39 177.62l-.071-.143M203.32 177.48v-.143M203.32 177.34l.071-.143M203.39 177.19l.143-.071M203.53 177.12h.357M203.89 177.12l.143-.071M204.74 177.69v-1M204.74 176.98l.071-.143M204.82 176.84l.071-.071M204.89 176.76l.143-.071M205.03 176.69h.143M206.24 177.62l-.143.071M206.1 177.69h-.286M205.82 177.69l-.143-.071M205.67 177.62l-.071-.143M205.6 177.48v-.571M205.6 176.91l.071-.143M205.67 176.76l.143-.071M205.82 176.69h.286M206.1 176.69l.143.071M206.24 176.76l.071.143M206.32 176.91v.143M206.32 177.05l-.714.143M208.03 177.26h.714M207.89 177.69l.5-1.5M208.39 176.19l.5 1.5M209.6 177.69l-.143-.071M209.46 177.62l-.071-.143M209.39 177.48v-1.286M210.17 177.69v-1M210.17 176.19l-.071.071M210.1 176.26l.071.071M210.17 176.34l.071-.071M210.24 176.26l-.071-.071M210.17 176.19v.143M210.89 177.69v-1.5M211.03 177.12l.428.571M211.46 176.69l-.571.572M212.67 177.62l-.143.071M212.53 177.69h-.286M212.24 177.69l-.143-.071M212.1 177.62l-.071-.143M212.03 177.48v-.571M212.03 176.91l.071-.143M212.1 176.76l.143-.071M212.24 176.69h.286M212.53 176.69l.143.071M212.67 176.76l.071.143M212.74 176.91v.143M212.74 177.05l-.714.143M214.53 176.69v1M214.53 176.84l.071-.071M214.6 176.76l.143-.071M214.74 176.69h.214M214.96 176.69l.143.071M215.1 176.76l.071.143M215.17 176.91v.786M216.1 177.69l-.143-.071M215.96 177.62l-.071-.071M215.89 177.55l-.071-.143M215.82 177.41v-.429M215.82 176.98l.071-.143M215.89 176.84l.071-.071M215.96 176.76l.143-.071M216.1 176.69h.214M216.32 176.69l.143.071M216.46 176.76l.071.071M216.53 176.84l.071.143M216.6 176.98v.429M216.6 177.41l-.071.143M216.53 177.55l-.071.071M216.46 177.62l-.143.071M216.32 177.69h-.214M217.24 176.69v1M217.24 176.84l.071-.071M217.32 176.76l.143-.071M217.46 176.69h.214M217.67 176.69l.143.071M217.82 176.76l.071.143M217.89 176.91v.786M218.6 177.12h1.143M221.1 177.62l-.143.071M220.96 177.69h-.286M220.67 177.69l-.143-.071M220.53 177.62l-.071-.071M220.46 177.55l-.071-.143M220.39 177.41v-.429M220.39 176.98l.071-.143M220.46 176.84l.071-.071M220.53 176.76l.143-.071M220.67 176.69h.286M220.96 176.69l.143.071M221.96 177.69l-.143-.071M221.82 177.62l-.071-.071M221.74 177.55l-.071-.143M221.67 177.41v-.429M221.67 176.98l.071-.143M221.74 176.84l.071-.071M221.82 176.76l.143-.071M221.96 176.69h.214M222.17 176.69l.143.071M222.32 176.76l.071.071M222.39 176.84l.071.143M222.46 176.98v.429M222.46 177.41l-.071.143M222.39 177.55l-.071.071M222.32 177.62l-.143.071M222.17 177.69h-.214M223.1 177.69v-1M223.1 176.84l.071-.071M223.17 176.76l.143-.071M223.32 176.69h.214M223.53 176.69l.143.071M223.67 176.76l.071.143M223.74 176.91v.786M223.74 176.91l.071-.143M223.82 176.76l.143-.071M223.96 176.69h.214M224.17 176.69l.143.071M224.32 176.76l.071.143M224.39 176.91v.786M225.1 177.69v-1M225.1 176.84l.071-.071M225.17 176.76l.143-.071M225.32 176.69h.214M225.53 176.69l.143.071M225.67 176.76l.071.143M225.74 176.91v.786M225.74 176.91l.071-.143M225.82 176.76l.143-.071M225.96 176.69h.214M226.17 176.69l.143.071M226.32 176.76l.071.143M226.39 176.91v.786M227.67 177.62l-.143.071M227.53 177.69h-.286M227.24 177.69l-.143-.071M227.1 177.62l-.071-.143M227.03 177.48v-.571M227.03 176.91l.071-.143M227.1 176.76l.143-.071M227.24 176.69h.286M227.53 176.69l.143.071M227.67 176.76l.071.143M227.74 176.91v.143M227.74 177.05l-.714.143M228.39 177.69v-1M228.39 176.98l.071-.143M228.46 176.84l.071-.071M228.53 176.76l.143-.071M228.67 176.69h.143M229.96 177.62l-.143.071M229.82 177.69h-.286M229.53 177.69l-.143-.071M229.39 177.62l-.071-.071M229.32 177.55l-.071-.143M229.24 177.41v-.429M229.24 176.98l.071-.143M229.32 176.84l.071-.071M229.39 176.76l.143-.071M229.53 176.69h.286M229.82 176.69l.143.071M230.6 177.69v-1M230.6 176.19l-.071.071M230.53 176.26l.071.071M230.6 176.34l.071-.071M230.67 176.26l-.071-.071M230.6 176.19v.143M231.96 177.69v-.786M231.96 176.91l-.071-.143M231.89 176.76l-.143-.071M231.74 176.69h-.286M231.46 176.69l-.143.071M231.96 177.62l-.143.071M231.82 177.69h-.357M231.46 177.69l-.143-.071M231.32 177.62l-.071-.143M231.24 177.48v-.143M231.24 177.34l.071-.143M231.32 177.19l.143-.071M231.46 177.12h.357M231.82 177.12l.143-.071M232.89 177.69l-.143-.071M232.74 177.62l-.071-.143M232.67 177.48v-1.286"/></g><path fill="none" fill-opacity="0" stroke="#840000" stroke-linecap="round" stroke-linejoin="round" stroke-width=".15" d="M197 191.51v3M261 191.51v6.5"/><g fill="#C83434" stroke="#000" stroke-linecap="round" stroke-linejoin="round"><g stroke="none" stroke-width="0"><path fill-rule="evenodd" d="M133.88 90.72v-1.8h1.8v1.8z"/><circle cx="137.32" cy="89.82" r=".9"/></g><g fill-rule="evenodd" stroke="none" stroke-width="0"><path d="m138.2 86.155-.019.096-.054.08-.081.055-.096.019h-.625l-.096-.019-.08-.054-.055-.081-.019-.096v-2.15l.019-.096.054-.08.081-.055.096-.019h.625l.096.019.08.054.055.081.019.096zM135.27 86.155l-.019.096-.054.08-.081.055-.096.019h-.625l-.096-.019-.08-.054-.055-.081-.019-.096v-2.15l.019-.096.054-.08.081-.055.096-.019h.625l.096.019.08.054.055.081.019.096z"/></g><g stroke="none" stroke-width="0"><path fill-rule="evenodd" d="M132.52 86.54v1.7h-1.7v-1.7z"/><circle cx="131.67" cy="84.85" r=".85"/></g><g fill="none" fill-opacity="0" stroke="#C83434" stroke-width=".5"><path d="M129.03 86.24v2.8M130.34 90.35h3.905M129.03 89.04l1.31 1.31M130.42 84.85l-1.39 1.39M131.67 84.85h-1.25M134.24 90.35l.53-.53M137.63 85.08v4.423M137.63 89.502l-.318.318M133.81 87.39l.897-.897M134.71 86.492v-1.413M131.67 87.39h2.14M131.67 87.39v.6"/></g></g><circle cx="134.78" cy="89.82" r=".45" fill="#fff" stroke="none" stroke-linecap="round" stroke-linejoin="round" stroke-width="0"/><circle cx="137.32" cy="89.82" r=".45" fill="#fff" stroke="none" stroke-linecap="round" stroke-linejoin="round" stroke-width="0"/><circle cx="131.67" cy="87.39" r=".5" fill="#fff" stroke="none" stroke-linecap="round" stroke-linejoin="round" stroke-width="0"/><circle cx="131.67" cy="84.85" r=".5" fill="#fff" stroke="none" stroke-linecap="round" stroke-linejoin="round" stroke-width="0"/><g fill="#4D7FC4" stroke="none" stroke-linecap="round" stroke-linejoin="round" stroke-width="0"><path fill-rule="evenodd" d="M133.88 90.72v-1.8h1.8v1.8z"/><circle cx="137.32" cy="89.82" r=".9"/><path fill-rule="evenodd" d="M132.52 86.54v1.7h-1.7v-1.7z"/><circle cx="131.67" cy="84.85" r=".85"/></g><circle cx="134.78" cy="89.82" r=".45" fill="#fff" stroke="none" stroke-linecap="round" stroke-linejoin="round" stroke-width="0"/><circle cx="137.32" cy="89.82" r=".45" fill="#fff" stroke="none" stroke-linecap="round" stroke-linejoin="round" stroke-width="0"/><circle cx="131.67" cy="87.39" r=".5" fill="#fff" stroke="none" stroke-linecap="round" stroke-linejoin="round" stroke-width="0"/><circle cx="131.67" cy="84.85" r=".5" fill="#fff" stroke="none" stroke-linecap="round" stroke-linejoin="round" stroke-width="0"/><g fill="#F2EDA1" fill-opacity="0" stroke="#F2EDA1" stroke-linecap="round" stroke-linejoin="round" stroke-width=".15"><g class="stroked-text"><path fill="none" d="m131.54 89.024-1 .333M130.54 89.357l1 .333M130.54 90.024h1M131.54 90.024v.238M131.54 90.262l-.048.143M131.49 90.405l-.095.095M131.4 90.5l-.095.048M131.3 90.548l-.19.048M131.11 90.595h-.143M130.97 90.595l-.19-.048M130.78 90.548l-.095-.048M130.68 90.5l-.095-.095M130.59 90.405l-.048-.143M130.54 90.262v-.238M130.54 91.024h1M131.54 91.024v.238M131.54 91.262l-.048.143M131.49 91.405l-.095.095M131.4 91.5l-.095.048M131.3 91.548l-.19.048M131.11 91.595h-.143M130.97 91.595l-.19-.048M130.78 91.548l-.095-.048M130.68 91.5l-.095-.095M130.59 91.405l-.048-.143M130.54 91.262v-.238"/></g><g class="stroked-text"><path fill="none" d="m131.09 82.437-.095-.048M131 82.39h-.143M130.85 82.39l-.143.048M130.71 82.437l-.095.095M130.61 82.533l-.048.095M130.57 82.628l-.048.19M130.52 82.818v.143M130.52 82.961l.048.19M130.57 83.152l.048.095M130.61 83.247l.095.095M130.71 83.342l.143.048M130.85 83.39h.095M130.95 83.39l.143-.048M131.09 83.342l.048-.048M131.14 83.295v-.333M131.14 82.961h-.19M131.57 83.39v-1M131.57 82.39l.571 1M132.14 83.39v-1M132.61 83.39v-1M132.61 82.39h.238M132.85 82.39l.143.048M133 82.437l.095.095M133.09 82.533l.048.095M133.14 82.628l.048.19M133.19 82.818v.143M133.19 82.961l-.048.19M133.14 83.152l-.048.095M133.09 83.247l-.095.095M133 83.342l-.143.048M132.85 83.39h-.238"/></g><g class="stroked-text"><path fill="none" d="m136.36 82 .333 1M136.7 83l.333-1M137.51 83l-.095-.048M137.41 82.952l-.048-.048M137.36 82.905l-.048-.095M137.32 82.809v-.286M137.32 82.524l.048-.095M137.36 82.428l.048-.048M137.41 82.381l.095-.048M137.51 82.333h.143M137.65 82.333l.095.048M137.74 82.381l.048.048M137.79 82.428l.048.095M137.84 82.524v.286M137.84 82.809l-.048.095M137.79 82.905l-.048.048M137.74 82.952l-.095.048M137.65 83h-.143M138.41 83l-.095-.048M138.32 82.952l-.048-.095M138.27 82.857V82M138.7 82.333l.238.667M138.94 83l.238-.667M139.7 83l-.095-.048M139.6 82.952l-.048-.048M139.55 82.905l-.048-.095M139.51 82.809v-.286M139.51 82.524l.048-.095M139.55 82.428l.048-.048M139.6 82.381l.095-.048M139.7 82.333h.143M139.84 82.333l.095.048M139.94 82.381l.048.048M139.98 82.428l.048.095M140.03 82.524v.286M140.03 82.809l-.048.095M139.98 82.905l-.048.048M139.94 82.952l-.095.048M139.84 83h-.143M141.22 83v-1M141.22 82h.38M141.6 82l.095.048M141.7 82.047l.048.048M141.74 82.095l.048.095M141.79 82.19v.143M141.79 82.333l-.048.095M141.74 82.428l-.048.048M141.7 82.476l-.095.048M141.6 82.524h-.38M142.17 82.095l.048-.048M142.22 82.047l.095-.048M142.32 82h.238M142.55 82l.095.048M142.65 82.047l.048.048M142.7 82.095l.048.095M142.74 82.19v.095M142.74 82.286l-.048.143M142.7 82.428l-.572.571M142.13 83h.62"/></g><g class="stroked-text"><path fill="none" d="m135.33 81.66-.333-.476M134.76 81.66v-1M134.76 80.66h.38M135.14 80.66l.095.048M135.23 80.707l.048.048M135.28 80.755l.048.095M135.33 80.85v.143M135.33 80.993l-.048.095M135.28 81.088l-.048.048M135.23 81.136l-.095.048M135.14 81.184h-.38M136.14 81.612l-.095.048M136.04 81.66h-.19M135.85 81.66l-.095-.048M135.76 81.612l-.048-.095M135.71 81.517v-.381M135.71 81.136l.048-.095M135.76 81.041l.095-.048M135.85 80.993h.19M136.04 80.993l.095.048M136.14 81.041l.048.095M136.19 81.136v.095M136.19 81.231l-.476.095M137.04 81.66v-.524M137.04 81.136l-.048-.095M136.99 81.041l-.095-.048M136.9 80.993h-.19M136.71 80.993l-.095.048M137.04 81.612l-.095.048M136.95 81.66h-.238M136.71 81.66l-.095-.048M136.61 81.612l-.048-.095M136.57 81.517v-.095M136.57 81.422l.048-.095M136.61 81.326l.095-.048M136.71 81.279h.238M136.95 81.279l.095-.048M137.52 81.66v-.667M137.52 81.184l.048-.095M137.57 81.088l.048-.048M137.61 81.041l.095-.048M137.71 80.993h.095M138.9 81.66v-1M138.9 80.66h.238M139.14 80.66l.143.048M139.28 80.707l.095.095M139.38 80.803l.048.095M139.42 80.898l.048.19M139.47 81.088v.143M139.47 81.231l-.048.19M139.42 81.422l-.048.095M139.38 81.517l-.095.095M139.28 81.612l-.143.048M139.14 81.66h-.238M140.04 81.66l-.095-.048M139.95 81.612l-.048-.048M139.9 81.565l-.048-.095M139.85 81.469v-.286M139.85 81.184l.048-.095M139.9 81.088l.048-.048M139.95 81.041l.095-.048M140.04 80.993h.143M140.19 80.993l.095.048M140.28 81.041l.048.048M140.33 81.088l.048.095M140.38 81.184v.286M140.38 81.469l-.048.095M140.33 81.565l-.048.048M140.28 81.612l-.095.048M140.19 81.66h-.143M140.95 81.66l-.095-.048M140.85 81.612l-.048-.048M140.8 81.565l-.048-.095M140.76 81.469v-.286M140.76 81.184l.048-.095M140.8 81.088l.048-.048M140.85 81.041l.095-.048M140.95 80.993h.143M141.09 80.993l.095.048M141.19 81.041l.048.048M141.23 81.088l.048.095M141.28 81.184v.286M141.28 81.469l-.048.095M141.23 81.565l-.048.048M141.19 81.612l-.095.048M141.09 81.66h-.143M141.71 81.66v-.667M141.71 81.184l.048-.095M141.76 81.088l.048-.048M141.8 81.041l.095-.048M141.9 80.993h.095M142.28 81.612l.095.048M142.38 81.66h.19M142.57 81.66l.095-.048M142.66 81.612l.048-.095M142.71 81.517v-.048M142.71 81.469l-.048-.095M142.66 81.374l-.095-.048M142.57 81.326h-.143M142.42 81.326l-.095-.048M142.33 81.279l-.048-.095M142.28 81.184v-.048M142.28 81.136l.048-.095M142.33 81.041l.095-.048M142.42 80.993h.143M142.57 80.993l.095.048"/></g><g class="stroked-text"><path fill="none" d="m139.88 89.244-1 .333M138.88 89.577l1 .333M138.88 90.244h1M139.88 90.244v.238M139.88 90.482l-.048.143M139.83 90.625l-.095.095M139.74 90.72l-.095.048M139.64 90.768l-.19.048M139.45 90.815h-.143M139.31 90.815l-.19-.048M139.12 90.768l-.095-.048M139.02 90.72l-.095-.095M138.93 90.625l-.048-.143M138.88 90.482v-.238M138.88 91.244h1M139.88 91.244v.238M139.88 91.482l-.048.143M139.83 91.625l-.095.095M139.74 91.72l-.095.048M139.64 91.768l-.19.048M139.45 91.815h-.143M139.31 91.815l-.19-.048M139.12 91.768l-.095-.048M139.02 91.72l-.095-.095M138.93 91.625l-.048-.143M138.88 91.482v-.238"/></g></g><g fill="none" fill-opacity="0" stroke="#F2EDA1" stroke-linecap="round" stroke-linejoin="round" stroke-width=".12"><path d="M134.48 88.584v.156M134.48 90.9v.156M137.72 88.741a1.99 1.99 0 0 0-3.232-.157"/><path d="M137.09 88.74a1.5 1.5 0 0 0-2.082 0M135 90.9a1.5 1.5 0 0 0 2.082 0"/><path d="M134.48 91.056a1.99 1.99 0 0 0 3.232-.157M136.89 86.435h-1.447M136.89 83.725h-1.447M132.94 88.66h-1.27M132.94 87.39v1.27M130.63 85.23h-.397M130.63 84.47h-.397M130.56 87.77h-.33M130.56 87.01h-.33M130.23 88.72v-5.2M130.23 86.12h-2.66M130.23 83.52h-2.66M127.57 88.72h2.66M127.57 87.77h-6M127.57 87.71h-6M127.57 87.59h-6M127.57 87.47h-6M127.57 87.35h-6M127.57 87.23h-6M127.57 87.11h-6M127.57 85.23h-6M127.57 83.52v5.2M121.57 87.77v-.76M121.57 87.01h6M121.57 85.23v-.76M121.57 84.47h6"/></g><circle cx="134.78" cy="89.82" r=".45" fill="#fff" stroke="none" stroke-linecap="round" stroke-linejoin="round" stroke-width="0"/><circle cx="137.32" cy="89.82" r=".45" fill="#fff" stroke="none" stroke-linecap="round" stroke-linejoin="round" stroke-width="0"/><circle cx="131.67" cy="87.39" r=".5" fill="#fff" stroke="none" stroke-linecap="round" stroke-linejoin="round" stroke-width="0"/><circle cx="131.67" cy="84.85" r=".5" fill="#fff" stroke="none" stroke-linecap="round" stroke-linejoin="round" stroke-width="0"/><circle cx="134.78" cy="89.82" r=".45" fill="#fff" stroke="none" stroke-linecap="round" stroke-linejoin="round" stroke-width="0"/><circle cx="137.32" cy="89.82" r=".45" fill="#fff" stroke="none" stroke-linecap="round" stroke-linejoin="round" stroke-width="0"/><circle cx="131.67" cy="87.39" r=".5" fill="#fff" stroke="none" stroke-linecap="round" stroke-linejoin="round" stroke-width="0"/><circle cx="131.67" cy="84.85" r=".5" fill="#fff" stroke="none" stroke-linecap="round" stroke-linejoin="round" stroke-width="0"/><path fill="none" fill-opacity="0" stroke="#D0D2CD" stroke-linecap="round" stroke-linejoin="round" stroke-width=".1" d="M128.17 80.43h14.99v11.74h-14.99z"/></svg>