<?xml version="1.0" encoding="UTF-8" standalone="no"?>
<!-- Created with Inkscape (http://www.inkscape.org/) -->

<svg
   xmlns:dc="http://purl.org/dc/elements/1.1/"
   xmlns:cc="http://creativecommons.org/ns#"
   xmlns:rdf="http://www.w3.org/1999/02/22-rdf-syntax-ns#"
   xmlns:svg="http://www.w3.org/2000/svg"
   xmlns="http://www.w3.org/2000/svg"
   xmlns:sodipodi="http://sodipodi.sourceforge.net/DTD/sodipodi-0.dtd"
   xmlns:inkscape="http://www.inkscape.org/namespaces/inkscape"
   width="24.27552mm"
   height="24.27552mm"
   viewBox="0 0 24.27552 24.27552"
   version="1.1"
   id="svg976"
   inkscape:version="0.92.4 5da689c313, 2019-01-14"
   sodipodi:docname="mise-icon.svg">
  <defs
     id="defs970" />
  <sodipodi:namedview
     id="base"
     pagecolor="#ffffff"
     bordercolor="#666666"
     borderopacity="1.0"
     inkscape:pageopacity="0.0"
     inkscape:pageshadow="2"
     inkscape:zoom="0.35"
     inkscape:cx="641.58927"
     inkscape:cy="-371.26785"
     inkscape:document-units="mm"
     inkscape:current-layer="layer1"
     showgrid="false"
     fit-margin-top="0"
     fit-margin-left="0"
     fit-margin-right="0"
     fit-margin-bottom="0"
     inkscape:window-width="1600"
     inkscape:window-height="831"
     inkscape:window-x="1920"
     inkscape:window-y="180"
     inkscape:window-maximized="1" />
  <metadata
     id="metadata973">
    <rdf:RDF>
      <cc:Work
         rdf:about="">
        <dc:format>image/svg+xml</dc:format>
        <dc:type
           rdf:resource="http://purl.org/dc/dcmitype/StillImage" />
        <dc:title></dc:title>
      </cc:Work>
    </rdf:RDF>
  </metadata>
  <g
     inkscape:label="Layer 1"
     inkscape:groupmode="layer"
     id="layer1"
     transform="translate(201.12585,-26.326527)">
    <g
       transform="matrix(0.26458333,0,0,0.26458333,-934.22231,-251.22313)"
       id="g2711-6-7">
      <g
         id="g2856">
        <g
           id="g2894"
           inkscape:export-filename="/home/carlos/Documents/Git/mise/img/logos/mise-icon.png"
           inkscape:export-xdpi="104.63"
           inkscape:export-ydpi="104.63">
          <rect
             style="fill:none;fill-opacity:1;stroke:none;stroke-width:1.83500004;stroke-miterlimit:4;stroke-dasharray:none;stroke-opacity:1"
             id="rect2582-6-0"
             width="91.75"
             height="91.75"
             x="2770.7583"
             y="1049.0066"
             rx="0" />
          <g
             transform="translate(41.730556,-9.7598322)"
             id="g2571-4-1">
            <path
               inkscape:connector-curvature="0"
               style="fill:#4c3b71;fill-opacity:1;stroke:none;stroke-width:2.30191088;stroke-miterlimit:4;stroke-dasharray:none;stroke-opacity:1"
               d="m 2753.3698,1146.0767 a 8.0512686,8.0512686 0 0 0 2.4258,0.3769 8.0512686,8.0512686 0 0 0 8.0527,-8.0508 8.0512686,8.0512686 0 0 0 -8.0527,-8.0527 8.0512686,8.0512686 0 0 0 -2.4238,0.3848 l 0.014,0.037 c 0.5047,1.4009 1.2953,2.6523 2.3028,3.6836 1.0074,1.0313 2.2314,1.8428 3.5996,2.3593 l 3.3808,1.2754 c 0.1277,0.048 0.211,0.1739 0.211,0.3125 0,0.1388 -0.084,0.2608 -0.211,0.3086 l -3.3808,1.2774 c -1.3683,0.5167 -2.5922,1.3281 -3.5996,2.3593 -1.0075,1.0313 -1.7983,2.2829 -2.3028,3.6836 z"
               id="path2338-6-6-0" />
            <path
               inkscape:connector-curvature="0"
               id="path2267-2-4-7-2-1"
               d="m 2750.4272,1146.6681 c 0.041,0.032 0.067,0.086 0.1212,0.086 0.1,0 0.1898,-0.064 0.2243,-0.1599 l 0.921,-2.5582 c 0.3726,-1.0346 0.9576,-1.9584 1.7016,-2.7202 0.744,-0.7618 1.647,-1.3617 2.6577,-1.7434 l 2.4976,-0.9411 c 0.095,-0.035 0.1561,-0.127 0.1561,-0.2296 0,-0.1024 -0.061,-0.1941 -0.1561,-0.2293 l -2.4976,-0.9433 c -1.0105,-0.3815 -1.9136,-0.9793 -2.6577,-1.7413 -0.7442,-0.7618 -1.3288,-1.6876 -1.7016,-2.7223 l -0.921,-2.556 c -0.035,-0.096 -0.1239,-0.16 -0.2243,-0.16 -0.071,0 -0.1132,0.06 -0.1581,0.1116 -0.024,0.025 -0.077,0.1151 -0.1012,0.1431 l -0.884,2.4613 c -0.3726,1.0348 -0.9573,1.9604 -1.7016,2.7224 -0.7441,0.7619 -1.6489,1.3595 -2.6595,1.7412 l -2.4958,0.9433 c -0.095,0.035 -0.1561,0.1269 -0.1561,0.2294 0,0.1024 0.061,0.1942 0.1561,0.2295 l 2.4958,0.9412 c 1.0102,0.3815 1.9154,0.9814 2.6595,1.7433 0.7442,0.7618 1.3289,1.6876 1.7016,2.7224 l 0.8157,2.2696 c 0.045,0.114 0.1521,0.2102 0.1931,0.3242 z"
               style="fill:#021f4b;fill-opacity:1;stroke-width:0.32329255" />
            <path
               inkscape:connector-curvature="0"
               style="fill:none;fill-opacity:1;stroke:none;stroke-width:2.30191088;stroke-miterlimit:4;stroke-dasharray:none;stroke-opacity:1"
               d="m 2751.319,1131.7173 0.3789,1.0488 c 0.3728,1.0348 0.957,1.9609 1.7012,2.7227 0.7441,0.7619 1.6477,1.3587 2.6582,1.7402 l 2.4961,0.9434 c 0.095,0.035 0.1562,0.126 0.1562,0.2285 0,0.1025 -0.063,0.1951 -0.1562,0.2305 l -2.4961,0.9414 c -1.0105,0.3816 -1.9142,0.9803 -2.6582,1.7421 -0.744,0.7618 -1.3286,1.6862 -1.7012,2.7208 l -0.3789,1.0527 a 8.0512686,8.0512686 0 0 0 2.0508,0.9883 l 0.016,-0.045 c 0.5045,-1.4007 1.2953,-2.6523 2.3028,-3.6836 1.0074,-1.0312 2.2313,-1.8426 3.5996,-2.3593 l 3.3808,-1.2774 c 0.1265,-0.048 0.211,-0.1698 0.211,-0.3086 0,-0.1386 -0.083,-0.2647 -0.211,-0.3125 l -3.3808,-1.2754 c -1.3682,-0.5165 -2.5922,-1.328 -3.5996,-2.3593 -1.0075,-1.0313 -1.7981,-2.2827 -2.3028,-3.6836 l -0.014,-0.037 a 8.0512686,8.0512686 0 0 0 -2.0528,0.9824 z"
               id="path1864-5-3-7-8-3" />
          </g>
          <path
             id="path2-3-9-2-4-0-0-05-4-4-8-60-4-9-7"
             d="m 2813.3315,1083.4946 2.1815,5.9148 c 0.082,0.2227 0.2941,0.3703 0.5311,0.3703 0.237,0 0.449,-0.1476 0.531,-0.3703 l 2.1815,-5.9148 c 1.7658,-4.7884 5.5405,-8.5631 10.3285,-10.3286 l 5.9148,-2.1815 c 0.2224,-0.082 0.3701,-0.294 0.3701,-0.531 0,-0.237 -0.1477,-0.4491 -0.3701,-0.5311 l -5.9151,-2.1815 c -4.788,-1.7658 -8.5627,-5.5401 -10.3282,-10.3282 l -2.1815,-5.9148 c -0.082,-0.2223 -0.294,-0.37 -0.531,-0.37 -0.237,0 -0.4491,0.1477 -0.5311,0.37 l -2.1815,5.9148 c -1.7658,4.7881 -5.5401,8.5624 -10.3285,10.3282 l -5.9151,2.1815 c -0.2224,0.082 -0.3701,0.2941 -0.3701,0.5311 0,0.237 0.1477,0.449 0.3701,0.531 l 5.9148,2.1815 c 4.7883,1.7655 8.563,5.5398 10.3288,10.3286 z"
             inkscape:connector-curvature="0"
             style="fill:#4c3b71;fill-opacity:1;stroke-width:0.33336082" />
          <path
             id="path4-5-2-7-2-4-5-0-6-1-8-4-99-6-7"
             d="m 2854.7165,1110.1348 -5.9145,-2.1812 c -4.7884,-1.7658 -8.563,-5.5401 -10.3285,-10.3282 l -2.1815,-5.9148 c -0.082,-0.2224 -0.2941,-0.37 -0.5311,-0.37 -0.237,0 -0.449,0.1476 -0.531,0.37 l -2.1815,5.9145 c -1.7658,4.7884 -5.5405,8.5627 -10.3285,10.3285 l -5.9148,2.1812 c -0.2224,0.082 -0.3701,0.294 -0.3701,0.531 0,0.2371 0.1477,0.4491 0.3701,0.5311 l 5.9151,2.1818 c 4.788,1.7658 8.5624,5.5401 10.3282,10.3282 l 2.1815,5.9152 c 0.082,0.2223 0.294,0.37 0.531,0.37 0.237,0 0.4491,-0.1477 0.5311,-0.37 l 2.1815,-5.9152 c 1.7658,-4.7881 5.5401,-8.5627 10.3282,-10.3282 l 5.9151,-2.1818 c 0.2224,-0.082 0.37,-0.294 0.37,-0.5311 0,-0.237 -0.1479,-0.449 -0.3703,-0.531 z"
             inkscape:connector-curvature="0"
             style="fill:#115268;fill-opacity:1;stroke:none;stroke-width:0.33336082;stroke-opacity:1" />
          <path
             id="path10-6-3-3-9-2-5-2-9-2-6-1-4-0-2"
             d="m 2858.6843,1075.6465 -2.8043,-1.034 c -2.2698,-0.8371 -4.059,-2.6263 -4.8957,-4.8961 l -1.0344,-2.8036 c -0.039,-0.1057 -0.1394,-0.1757 -0.2517,-0.1757 -0.1123,0 -0.2131,0.07 -0.2517,0.1754 l -1.0341,2.8032 c -0.8371,2.2699 -2.6265,4.0594 -4.8964,4.8964 l -2.8043,1.0341 c -0.1053,0.039 -0.1753,0.1393 -0.1753,0.2517 0,0.1123 0.07,0.213 0.1753,0.2517 l 2.8039,1.0344 c 2.2703,0.8371 4.0597,2.6266 4.8968,4.8967 l 1.0341,2.8036 c 0.039,0.1053 0.1394,0.1753 0.2517,0.1753 0.1123,0 0.213,-0.07 0.2517,-0.1753 l 1.0344,-2.8039 c 0.837,-2.2702 2.6262,-4.0593 4.8964,-4.8961 l 2.8039,-1.0344 c 0.1053,-0.039 0.1753,-0.1393 0.1753,-0.2517 0,-0.1123 -0.07,-0.213 -0.1756,-0.2517 z"
             inkscape:connector-curvature="0"
             style="fill:#021f4b;fill-opacity:1;stroke-width:0.33336082" />
        </g>
      </g>
    </g>
  </g>
</svg>
