<svg xmlns="http://www.w3.org/2000/svg" width="1122.527" height="793.727" viewBox="0 0 297.002 210.007" xmlns:v="https://vecta.io/nano"><style><![CDATA[.B{stroke-linejoin:round}.C{stroke-width:.152}.D{opacity:0}.E{stroke-linecap:round}.F{font-size:1.733px}.G{font-size:2px}.H{text-anchor:middle}.I{stroke:#840000}.J{stroke-width:.3}]]></style><path d="M0 0h297.002v210.007H0z" fill="#f5f4ef" stroke="#f5f4ef" stroke-width="0" class="B"/><g fill="none" class="I B"><g class="C E"><path d="M177.002 166.007h108v32h-108v-32"/><path d="M10 10h277.002v190.007H10V10"/><path d="M12 12h273.002v186.007H12V12m48 0v-2m50 2v-2m50 2v-2m50 2v-2m50 2v-2"/></g><text x="35" y="11.65" textLength="1.4353" lengthAdjust="spacingAndGlyphs" class="C D F">1</text><g class="C E"><path d="M36.091 11.594h-.743"/><path d="M35.719 11.594v-1.3m0 0l-.124.186m0-.001l-.124.124m.001 0l-.124.062"/></g><text x="85" y="11.65" textLength="1.4353" lengthAdjust="spacingAndGlyphs" class="C D F">2</text><path d="M85.348 10.417l.062-.062m0 0l.124-.062m0 .001h.309m0 0l.124.062m0-.001l.062.062m0 0l.062.124m0 0v.124m0 0l-.062.186m0 0l-.743.743m0 0h.805" class="C E"/><text x="135" y="11.65" textLength="1.4353" lengthAdjust="spacingAndGlyphs" class="C D F">3</text><g class="C E"><path d="M135.286 10.294h.805"/><path d="M136.091 10.294l-.433.495m-.001 0h.186m0 0l.124.062m0 0l.062.062m0 0l.062.124m0-.001v.309m0 .001l-.062.124m0 0l-.062.062m0 0l-.124.062m0 0h-.371m0 0l-.124-.062m0 0l-.062-.062"/></g><text x="185" y="11.65" textLength="1.4353" lengthAdjust="spacingAndGlyphs" class="C D F">4</text><g class="C E"><path d="M185.967 10.727v.867m-.31-1.362l-.309.928"/><path d="M185.348 11.16h.805"/></g><text x="235" y="11.65" textLength="1.4353" lengthAdjust="spacingAndGlyphs" class="C D F">5</text><path d="M236.029 10.294h-.619m0 0l-.062.619m0 0l.062-.062m0 0l.124-.062m0 0h.309m0 0l.124.062m0 0l.062.062m0 0l.062.124m0-.001v.309m0 .001l-.062.124m0 0l-.062.062m0 0l-.124.062m0 0h-.309m0 0l-.124-.062m0 0l-.062-.062" class="C E"/><text x="285" y="11.65" textLength="1.4353" lengthAdjust="spacingAndGlyphs" class="C D F">6</text><g class="C E"><path d="M285.967 10.294h-.248m0 0l-.124.062m0-.001l-.062.062m.001 0l-.124.186m0 0l-.062.248m0 0v.495m0 0l.062.124m0 0l.062.062m0 0l.124.062m-.001 0h.248m0 0l.124-.062m0 0l.062-.062m0 0l.062-.124"/><path d="M286.091 11.346v-.309m0-.001l-.062-.124m0 .001l-.062-.062m0 0l-.124-.062m0 0h-.248m0 0l-.124.062m.001 0l-.062.062m0 0l-.062.124M60 198.007v2m50-2v2m50-2v2m50-2v2m50-2v2"/></g><text x="35" y="199.657" textLength="1.4353" lengthAdjust="spacingAndGlyphs" class="C D F">1</text><g class="C E"><path d="M36.091 199.601h-.743"/><path d="M35.719 199.601v-1.3m0 0l-.124.186m0-.001l-.124.124m.001 0l-.124.062"/></g><text x="85" y="199.657" textLength="1.4353" lengthAdjust="spacingAndGlyphs" class="C D F">2</text><path d="M85.348 198.425l.062-.062m0 0l.124-.062m0 0h.309m0 0l.124.062m0 0l.062.062m0 0l.062.124m0-.001v.124m0 0l-.062.186m0 0l-.743.743m0 0h.805" class="C E"/><text x="135" y="199.657" textLength="1.4353" lengthAdjust="spacingAndGlyphs" class="C D F">3</text><g class="C E"><path d="M135.286 198.301h.805"/><path d="M136.091 198.301l-.433.495m-.001 0h.186m0 0l.124.062m0 0l.062.062m0 0l.062.124m0 0v.31m0-.001l-.062.124m0 0l-.062.062m0 0l-.124.062m0 0h-.371m0 0l-.124-.062m0 0l-.062-.062"/></g><text x="185" y="199.657" textLength="1.4353" lengthAdjust="spacingAndGlyphs" class="C D F">4</text><g class="C E"><path d="M185.967 198.734v.867m-.31-1.362l-.309.929"/><path d="M185.348 199.167h.805"/></g><text x="235" y="199.657" textLength="1.4353" lengthAdjust="spacingAndGlyphs" class="C D F">5</text><path d="M236.029 198.301h-.619m0 0l-.062.619m0 0l.062-.062m0 0l.124-.062m0 0h.309m0 0l.124.062m0 0l.062.062m0 0l.062.124m0 0v.31m0-.001l-.062.124m0 0l-.062.062m0 0l-.124.062m0 0h-.309m0 0l-.124-.062m0 0l-.062-.062" class="C E"/><text x="285" y="199.657" textLength="1.4353" lengthAdjust="spacingAndGlyphs" class="C D F">6</text><g class="C E"><path d="M285.967 198.301h-.248m0 0l-.124.062m0 0l-.062.062m.001 0l-.124.186m0-.001l-.062.248m0 0v.495m0 0l.062.124m0 0l.062.062m0 0l.124.062m-.001 0h.248m0 0l.124-.062m0 0l.062-.062m0 0l.062-.124"/><path d="M286.091 199.353v-.31m0 .001l-.062-.124m0 0l-.062-.062m0 0l-.124-.062m0 0h-.248m0 0l-.124.062m.001 0l-.062.062m0 0l-.062.124M10 60h2m-2 50h2m-2 50h2"/></g><text x="11" y="35.65" textLength="1.3115" lengthAdjust="spacingAndGlyphs" class="C D F H">A</text><g class="C E"><path d="M10.691 35.222h.619m-.743.372l.433-1.3"/><path d="M11 34.294l.433 1.3"/></g><text x="11" y="85.65" textLength="1.4972" lengthAdjust="spacingAndGlyphs" class="C D F H">B</text><g class="C E"><path d="M11.093 84.913l.186.062m0-.001l.062.062m-.001 0l.062.124m0 0v.186m0 0l-.062.124m0 0l-.062.062m.001 0l-.124.062m0 0h-.495"/><path d="M10.66 85.594v-1.3m0 0h.433m0 0l.124.062m0-.001l.062.062m0 0l.062.124m-.001 0v.124m0 0l-.062.124m.001 0l-.062.062m0 0l-.124.062"/><path d="M11.093 84.913h-.433"/></g><text x="11" y="135.65" textLength="1.4972" lengthAdjust="spacingAndGlyphs" class="C D F H">C</text><g class="C E"><path d="M11.402 135.47l-.062.062m0 0l-.186.062m.001 0h-.124m0 0l-.186-.062m0 0l-.124-.124m0 0l-.062-.124m.001 0l-.062-.248m0 0v-.186m0 .001l.062-.248m0 0l.062-.124m-.001 0l.124-.124m0 0l.186-.062"/><path d="M11.031 134.294h.124m0 0l.186.062m-.001-.001l.062.062"/></g><text x="11" y="185.65" textLength="1.4972" lengthAdjust="spacingAndGlyphs" class="C D F H">D</text><g class="C E"><path d="M10.66 185.594v-1.3m0 0h.309m0 0l.186.062m0-.001l.124.124m0 0l.062.124m-.001 0l.062.248m0 0v.186m0-.001l-.062.248m0 0l-.062.124m.001 0l-.124.124m0 0l-.186.062"/><path d="M10.969 185.594h-.309M287.002 60h-2m2 50h-2m2 50h-2"/></g><text x="286.002" y="35.65" textLength="1.3115" lengthAdjust="spacingAndGlyphs" class="C D F H">A</text><g class="C E"><path d="M285.693 35.222h.619m-.743.372l.433-1.3"/><path d="M286.002 34.294l.433 1.3"/></g><text x="286.002" y="85.65" textLength="1.4972" lengthAdjust="spacingAndGlyphs" class="C D F H">B</text><g class="C E"><path d="M286.095 84.913l.186.062m0-.001l.062.062m0 0l.062.124m0 0v.186m0 0l-.062.124m0 0l-.062.062m0 0l-.124.062m0 0h-.495"/><path d="M285.662 85.594v-1.3m0 0h.433m0 0l.124.062m0-.001l.062.062m0 0l.062.124m0 0v.124m0 0l-.062.124m0 0l-.062.062m0 0l-.124.062"/><path d="M286.095 84.913h-.433"/></g><text x="286.002" y="135.65" textLength="1.4972" lengthAdjust="spacingAndGlyphs" class="C D F H">C</text><g class="C E"><path d="M286.405 135.47l-.062.062m0 0l-.186.062m0 0h-.124m0 0l-.186-.062m0 0l-.124-.124m.001 0l-.062-.124m0 0l-.062-.248m0 0v-.186m0 .001l.062-.248m0 0l.062-.124m0 0l.124-.124m-.001 0l.186-.062"/><path d="M286.033 134.294h.124m0 0l.186.062m0-.001l.062.062"/></g><text x="286.002" y="185.65" textLength="1.4972" lengthAdjust="spacingAndGlyphs" class="C D F H">D</text><g class="C E"><path d="M285.662 185.594v-1.3m0 0h.31m-.001 0l.186.062m0-.001l.124.124m0 0l.062.124m0 0l.062.248m0 0v.186m0-.001l-.062.248m0 0l-.062.124m0 0l-.124.124m0 0l-.186.062"/><path d="M285.971 185.594h-.31"/></g><text x="200.002" y="193.857" textLength="7.0143" lengthAdjust="spacingAndGlyphs" class="C D G">Date: </text><g class="C E"><path d="M200.46 193.793v-1.5m0 0h.357m0 0l.214.071m0 .001l.143.143m0-.001l.071.143m0 0l.071.286m.001 0v.214m0 0l-.071.286m-.001 0l-.071.143m0 0l-.143.143m0 0l-.214.071"/><path d="M200.817 193.793h-.357m2.142 0v-.786m0 0l-.071-.143m0 .001l-.143-.071m0-.001h-.286m0 0l-.143.071m.643.858l-.143.071m.001 0h-.357m-.001 0l-.143-.071m.001 0l-.071-.143m-.001 0v-.143"/><path d="M201.888 193.436l.071-.143m.001 0l.143-.071m-.001 0h.357m.001 0l.143-.071m.499-.358h.571"/><path d="M203.317 192.293v1.286m0 0l.071.143m0 0l.143.071m0 0h.143m1.071-.071l-.143.071m0 0h-.286m.001 0l-.143-.071m0 0l-.071-.143m-.001 0v-.571"/><path d="M204.102 193.007l.071-.143m.001.001l.143-.071m0-.001h.286m-.001 0l.143.071m0 .001l.071.143m.001-.001v.143m0 0l-.714.143m1.356.357l.071.071m.001.001l-.071.071m-.001 0l-.071-.071"/><path d="M205.388 193.722l.071-.071m0-.001v.143m0-.928l.071.071m.001 0l-.071.071"/><path d="M205.459 193.007l-.071-.071m0 0l.071-.071"/><path d="M205.459 192.865v.143m-28.457 1.499h108"/></g><text x="178.002" y="196.657" textLength="45.5145" lengthAdjust="spacingAndGlyphs" class="C D G">KiCad E.D.A. 8.99.0-249-g34a6e605de</text><g class="C E"><path d="M178.46 196.593v-1.5m.857 1.5l-.643-.857"/><path d="M179.317 195.093l-.857.857m1.5.643v-1m0-.5l-.071.071m-.001.001l.071.071m.001 0l.071-.071"/><path d="M180.031 195.165l-.071-.071m0-.001v.143m1.571 1.214l-.071.072m0 0l-.214.071m-.001 0h-.143m0 0l-.214-.071m0 0l-.143-.143m0 0l-.071-.143m0 0l-.071-.286m-.001 0v-.214"/><path d="M180.602 195.736l.071-.286m.001 0l.071-.143m0 0l.143-.143m0 .001l.214-.071m0-.001h.143m0 0l.214.071m.001.001l.071.071m1.286 1.357v-.786m0 0l-.071-.143m-.001.001l-.143-.071m0-.001h-.286m.001 0l-.143.071m.643.858l-.143.071m0 0h-.357m0 0l-.143-.071m0 0l-.071-.143m-.001 0v-.143"/><path d="M182.102 196.236l.071-.143m.001 0l.143-.071m0 0h.357m0 0l.143-.072m1.357.643v-1.5m0 1.429l-.143.071m0 0h-.286m0 0l-.143-.071m0 0l-.071-.072m0 0l-.071-.143"/><path d="M183.46 196.307v-.429m0 .001l.071-.143m0 0l.071-.071m0 0l.143-.071m0-.001h.286m0 0l.143.071m1.857.143h.5m.214.786h-.714"/><path d="M186.031 196.593v-1.5m0 0h.714m.643 1.357l.071.072m0 0l-.071.071m0 0l-.071-.071"/><path d="M187.317 196.522l.071-.072m0 0v.143m.714 0v-1.5m0 0h.357m0 0l.214.071m.001.001l.143.143m0-.001l.071.143m0 0l.071.286m0 0v.214m0 0l-.071.286m0 0l-.071.143m0 0l-.143.143m0 0l-.214.071"/><path d="M188.459 196.593h-.357m1.5-.143l.071.072m.001 0l-.071.071m-.001 0l-.071-.071"/><path d="M189.531 196.522l.071-.072m0 0v.143m.643-.428h.714m-.857.428l.5-1.5"/><path d="M190.602 195.093l.5 1.5m.5-.143l.071.072m.001 0l-.071.071m-.001 0l-.071-.071"/><path d="M191.531 196.522l.071-.072m0 0v.143m2.072-.857l-.143-.071m0 0l-.071-.071m0-.001l-.071-.143m-.001 0v-.071m0 0l.071-.143m.001 0l.071-.071m0 0l.143-.071m0-.001h.286m0 0l.143.071m-.001.001l.071.071m.001 0l.071.143m0 0v.071m0 0l-.071.143m0 0l-.071.071m-.001.001l-.143.071"/><path d="M193.96 195.736h-.286m0 0l-.143.072m0-.001l-.071.071m0 .001l-.071.143m-.001 0v.286m0-.001l.071.143m.001 0l.071.072m0 0l.143.071m0 0h.286m0 0l.143-.071m-.001 0l.071-.072m.001 0l.071-.143"/><path d="M194.245 196.307v-.286m0 .001l-.071-.143m0 0l-.071-.071m-.001-.001l-.143-.072m.929.715l.071.072m.001 0l-.071.071m-.001 0l-.071-.071"/><path d="M194.817 196.522l.071-.072m0 0v.143m.786 0h.286m0 0l.143-.071m-.001 0l.071-.072m.001 0l.143-.214m0 0l.071-.286m0 0v-.571m0 0l-.071-.143m0 0l-.071-.071m-.001 0l-.143-.071"/><path d="M196.102 195.093h-.286m.001 0l-.143.071m0 .001l-.071.071m-.001 0l-.071.143m0 0v.357m0 0l.071.143m0 0l.071.071m.001 0l.143.072m0 0h.286m-.001 0l.143-.072m0 0l.071-.071m.001 0l.071-.143m.714.857h.286m0 0l.143-.071m0 0l.071-.072m0 0l.143-.214m0 0l.071-.286m.001 0v-.571"/><path d="M197.817 195.379l-.071-.143m-.001 0l-.071-.071m0 0l-.143-.071m0-.001h-.286m0 0l-.143.071m0 .001l-.071.071m0 0l-.071.143m0 0v.357m0 0l.071.143m0 0l.071.071m0 0l.143.072m0 0h.286m0 0l.143-.072m0 0l.071-.071m0 0l.071-.143m.644.714l.071.072m0 0l-.071.071m0 0l-.071-.071"/><path d="M198.388 196.522l.071-.072m.001 0v.143m1-1.5h.143m0 0l.143.071m-.001.001l.072.071m0 0l.071.143m0 0l.071.286m.001 0v.357m0 0l-.071.286m-.001-.001l-.071.143m0 0l-.072.072m0 0l-.143.071m.001 0h-.143m0 0l-.143-.071m0 0l-.072-.072m0 0l-.071-.143m0 0l-.071-.286"/><path d="M199.103 196.022v-.357m0 0l.071-.286m0 0l.071-.143m0 0l.072-.071m0 0l.143-.071m1.143.928h1.143m.642-.786l.071-.071m.001 0l.143-.071m0-.001h.357m0 0l.143.071m0 .001l.071.071m0 0l.071.143m0 0v.143m0 0l-.071.214m0 0l-.857.857m0 0h.929m1.285-1v1m-.357-1.571l-.357 1.071"/><path d="M203.817 196.093h.928m.643.5h.286m0 0l.143-.071m0 0l.071-.072m0 0l.143-.214m0 0l.071-.286m.001 0v-.571m0 0l-.071-.143m-.001 0l-.071-.071m0 0l-.143-.071"/><path d="M205.817 195.093h-.286m0 0l-.143.071m0 .001l-.071.071m0 0l-.071.143m-.001 0v.357m0 0l.071.143m.001 0l.071.071m0 0l.143.072m0 0h.286m0 0l.143-.072m0 0l.071-.071m0 0l.071-.143m.643.286h1.143m1.357-.429v1.214m0 0l-.071.143m0 0l-.071.072m0 0l-.143.071m0 0h-.214m-.001 0l-.143-.071"/><path d="M209.245 196.522l-.143.071m.001 0h-.286m0 0l-.143-.071m0 0l-.071-.072m0 0l-.071-.143m-.001 0v-.429m0 .001l.071-.143m.001 0l.071-.071m0 0l.143-.071m0-.001h.286"/><path d="M209.103 195.593l.143.071m.571-.571h.929"/><path d="M210.745 195.093l-.5.571m0 .001h.214m.001 0l.143.071m0 0l.071.072m0-.001l.071.143m0 0v.357m0 0l-.071.143m0 0l-.071.072m0 0l-.143.071m0 0h-.429m0 0l-.143-.071m0 0l-.072-.072m2.215-.857v1m-.357-1.571l-.357 1.071"/><path d="M211.317 196.093h.928m1.215.5v-.786m0 0l-.071-.143m-.001.001l-.143-.071m0-.001h-.286m.001 0l-.143.071m.643.858l-.143.071m0 0h-.357m0 0l-.143-.071m0 0l-.071-.143m-.001 0v-.143"/><path d="M212.745 196.236l.071-.143m.001 0l.143-.071m0 0h.357m0 0l.143-.072m1.357-.857h-.286m0 0l-.143.071m0 .001l-.071.071m0 0l-.143.214m0 0l-.071.286m0 0v.572m0-.001l.071.143m0 0l.071.072m0 0l.143.071m0 0h.286m0 0l.143-.071m0 0l.071-.072m0 0l.071-.143m.001 0v-.357"/><path d="M214.96 195.95l-.071-.143m-.001 0l-.071-.072m0 .001l-.143-.071m0 0h-.286m0 0l-.143.071m0 0l-.071.072m0-.001l-.071.143m2.071.572l-.143.071m0 0h-.286m0 0l-.143-.071m.001 0l-.071-.143m-.001 0v-.571m0-.001l.071-.143m.001.001l.143-.071"/><path d="M215.745 195.593h.286m0 0l.143.071m0 .001l.071.143m0-.001v.143m0 0l-.714.143m2-1h-.286m0 0l-.143.071m.001.001l-.071.071m-.001 0l-.143.214m0 0l-.071.286m0 0v.572m0-.001l.071.143m0 0l.071.072m.001 0l.143.071m0 0h.286m-.001 0l.143-.071m0 0l.071-.072m.001 0l.071-.143"/><path d="M217.674 196.307v-.357m0 0l-.071-.143m0 0l-.071-.072m-.001.001l-.143-.071m0 0h-.286m.001 0l-.143.071m0 0l-.071.072m-.001-.001l-.071.143m1.786-.857h.143m-.001 0l.143.071m0 .001l.071.071m.001 0l.071.143m0 0l.071.286m.001 0v.357m0 0l-.071.286m-.001-.001l-.071.143m0 0l-.071.072m-.001 0l-.143.071m0 0h-.143m.001 0l-.143-.071m0 0l-.071-.072m-.001 0l-.071-.143m0 0l-.071-.286m-.001.001v-.357"/><path d="M218.245 195.665l.071-.286m.001 0l.071-.143m0 0l.071-.071m.001 0l.143-.071m1.857-.001h-.714m-.001 0l-.071.714m0 0l.071-.072m0 .001l.143-.071m0 0h.357m0 0l.143.071m0 0l.071.072m.001-.001l.071.143m0 0v.357m0 0l-.071.143m0 0l-.071.072m-.001 0l-.143.071m0 0h-.357m0 0l-.143-.071m0 0l-.071-.072m2.143.143v-1.5m0 1.429l-.143.071m0 0h-.286m0 0l-.143-.071m0 0l-.071-.072m0 0l-.071-.143"/><path d="M221.103 196.307v-.429m0 .001l.071-.143m0 0l.071-.071m0 0l.143-.071m0-.001h.286m0 0l.143.071m1.286.858l-.143.071m0 0h-.286m0 0l-.143-.071m0 0l-.071-.143"/><path d="M222.46 196.379v-.571m0-.001l.071-.143m0 .001l.143-.071m0-.001h.286m0 0l.143.071m0 .001l.072.143m-.001-.001v.143"/><path d="M223.174 195.95l-.714.143m-45.458-4.586h108"/></g><text x="263.002" y="193.857" textLength="6.3858" lengthAdjust="spacingAndGlyphs" class="D G J">Rev: </text><g class="E J"><path d="M264.414 193.786l-.5-.714m-.357.714v-1.5"/><path d="M263.557 192.286h.571m0 0l.143.071m0 0l.071.071m0 0l.071.143m.001 0v.214m0 .001l-.071.143m-.001-.001l-.071.071m0 .001l-.143.071m0 0h-.571m2.071.643l-.143.071m0 .001h-.286m.001 0l-.143-.071m0-.001l-.071-.143m-.001 0V193"/><path d="M264.985 193l.071-.143m.001 0l.143-.071m0 0h.286m-.001 0l.143.071m0 0l.072.143m0 0v.143m0 0l-.714.143m1.213-.5l.357 1m.001 0l.357-1m.571.857l.071.072m.001-.001l-.071.071m-.001.001l-.071-.071"/><path d="M267.414 193.714l.071-.072m0 .001v.143m0-.929l.071.071m.001 0l-.071.071"/><path d="M267.485 193l-.071-.071m0-.001l.071-.071"/><path d="M267.485 192.857V193"/></g><text x="178.002" y="193.857" textLength="9.3716" lengthAdjust="spacingAndGlyphs" class="C D G">Size: A4</text><g class="C E"><path d="M178.388 193.722l.214.071m0 0h.357m.001 0l.143-.071m-.001 0l.071-.071m.001-.001l.071-.143m0 0v-.143m0 .001l-.071-.143m0 0l-.071-.071m-.001-.001l-.143-.071m.001 0l-.286-.071m0-.001l-.143-.071m0 0l-.071-.071m0 0l-.071-.143m-.001 0v-.143m0 0l.071-.143m.001 0l.071-.071m0 0l.143-.071m0-.001h.357m0 0l.214.071m.643 1.429v-1m0-.5l-.071.071m0 .001l.071.071m0 0l.071-.071"/><path d="M179.96 192.365l-.071-.071m-.001-.001v.143m.572.357h.786"/><path d="M181.245 192.793l-.786 1m.001 0h.786m1.142-.071l-.143.071m0 0h-.286m.001 0l-.143-.071m0 0l-.071-.143m-.001 0v-.571"/><path d="M181.745 193.007l.071-.143m.001.001l.143-.071m0-.001h.286m-.001 0l.143.071m0 .001l.071.143m.001-.001v.143m0 0l-.714.143m1.356.357l.071.071m.001.001l-.071.071m-.001 0l-.071-.071"/><path d="M183.031 193.722l.071-.071m0-.001v.143m0-.928l.071.071m.001 0l-.071.071"/><path d="M183.102 193.007l-.071-.071m0 0l.071-.071"/><path d="M183.102 192.865v.143m1.786.357h.714m-.857.428l.5-1.5"/><path d="M185.245 192.293l.5 1.5m1.143-1v1m-.357-1.571l-.357 1.071"/><path d="M186.174 193.293h.928"/></g><text x="263.002" y="196.657" textLength="8.5144" lengthAdjust="spacingAndGlyphs" class="C D G">Id: 1/1</text><g class="C E"><path d="M263.46 196.593v-1.5m1.357 1.5v-1.5m0 1.429l-.143.071m0 0h-.286m0 0l-.143-.071m0 0l-.071-.072m0 0l-.071-.143m-.001 0v-.429"/><path d="M264.102 195.879l.071-.143m.001 0l.071-.071m0 0l.143-.071m0-.001h.286m0 0l.143.071m.714.786l.071.072m0 0l-.071.071m0 0l-.071-.071"/><path d="M265.46 196.522l.071-.072m0 0v.143m0-.928l.071.071"/><path d="M265.602 195.736l-.071.072m0-.001l-.071-.072m0 .001l.071-.071"/><path d="M265.531 195.665v.143m2.643.785h-.857"/><path d="M267.745 196.593v-1.5m0 0l-.143.214m0 0l-.143.143m.001 0l-.143.072m2.571-.5l-1.286 1.928m2.572-.357h-.857"/><path d="M270.745 196.593v-1.5m0 0l-.143.214m0 0l-.143.143m.001 0l-.143.072m-93.315-8.015h108"/></g><text x="178.002" y="190.307" textLength="9.6572" font-size="2.667" lengthAdjust="spacingAndGlyphs" stroke-width=".4" class="D">Title: </text><g stroke-width=".4" class="E"><path d="M178.694 188.212h1.143"/><path d="M179.015 190.212l.25-2m.988 2l.167-1.333m.083-.667l-.107.095m0 0l.083.095m.001 0l.107-.095"/><path d="M180.587 188.307l-.083-.095m-.001 0l-.024.19m.608.476h.762"/><path d="M181.456 188.212l-.214 1.714m0 0l.071.19m0 0l.179.095m0 .001h.19m.952 0l-.179-.095m.001-.001l-.071-.19"/><path d="M182.384 189.926l.214-1.714m1.572 1.904l-.202.095m0 .001h-.381m0 0l-.179-.095m0-.001l-.071-.19"/><path d="M183.337 189.926l.095-.762m0 0l.119-.19m0 0l.202-.095m0-.001h.381m0 0l.179.095m0 .001l.071.19m0 0l-.024.19"/><path d="M184.361 189.354l-.976.191m1.749.476l.083.095m.001 0l-.107.095m0 .001l-.083-.095"/><path d="M185.027 190.116l.107-.095m0 0l-.024.191m.155-1.238l.083.095m.001 0l-.107.095m0 0l-.083-.095"/><path d="M185.158 189.069l.107-.095m0 0l-.024.19"/></g><text x="178.002" y="186.457" textLength="39.2281" lengthAdjust="spacingAndGlyphs" class="C D G">File: dual_band_antenna.kicad_sch</text><g class="C E"><path d="M178.96 185.607h-.5m0 .786v-1.5"/><path d="M178.46 184.893h.714m.571 1.5v-1m0-.5l-.071.071m0 .001l.071.071m0 0l.071-.071"/><path d="M179.817 184.965l-.071-.071m-.001-.001v.143m.929 1.357l-.143-.071m0 0l-.071-.143"/><path d="M180.46 186.179v-1.286m1.357 1.429l-.143.071m0 0h-.286m0 0l-.143-.071m0 0l-.071-.143"/><path d="M181.174 186.179v-.571m0-.001l.071-.143m0 .001l.143-.071m0-.001h.286m0 0l.143.071m0 .001l.072.143m-.001-.001v.143"/><path d="M181.888 185.75l-.714.143m1.357.357l.071.071m0 .001l-.071.071m0 0l-.071-.071"/><path d="M182.46 186.322l.071-.071m0-.001v.143m0-.928l.071.071"/><path d="M182.602 185.536l-.071.072m0-.001l-.071-.072m0 .001l.071-.071"/><path d="M182.531 185.465v.143m2.5.785v-1.5m0 1.429l-.143.071m0 0h-.286m0 0l-.143-.071m.001 0l-.071-.071m-.001-.001l-.071-.143"/><path d="M184.317 186.107v-.429m0 .001l.071-.143m0 0l.071-.071m.001 0l.143-.071m-.001-.001h.286m0 0l.143.071m1.357-.071v1m-.643-1v.786m0 0l.071.143m.001 0l.143.071m0 0h.214m0 0l.143-.071"/><path d="M186.317 186.322l.072-.071m1.356.142v-.786m0 0l-.072-.143m.001.001l-.143-.071m0-.001h-.286m0 0l-.143.071m.643.858l-.143.071m0 0h-.357m0 0l-.143-.071m0 0l-.071-.143"/><path d="M187.031 186.179v-.143m0 0l.071-.143m0 0l.143-.071m0 0h.357m0 0l.143-.071m.929.642l-.143-.071m0 0l-.071-.143m-.001 0v-1.286m.429 1.643h1.143m.357-.143v-1.5m0 .572l.143-.071m0-.001h.286m0 0l.143.071m-.001.001l.072.071m0 0l.071.143m0 0v.429m0-.001l-.071.143m0 0l-.072.071m0 .001l-.143.071m.001 0h-.286"/><path d="M190.531 186.393l-.143-.071m2 .071v-.786m0 0l-.072-.143m.001.001l-.143-.071m0-.001h-.286m0 0l-.143.071m.643.858l-.143.071m0 0h-.357m0 0l-.143-.071m0 0l-.071-.143"/><path d="M191.674 186.179v-.143m0 0l.071-.143m0 0l.143-.071m0 0h.357m0 0l.143-.071m.714-.358v1m0-.857l.071-.071m.001 0l.143-.071m0-.001h.214m0 0l.143.071m0 .001l.072.143m-.001-.001v.786m1.357 0v-1.5m0 1.429l-.143.071m0 0h-.286m.001 0l-.143-.071m0 0l-.071-.071m-.001-.001l-.071-.143"/><path d="M194.388 186.107v-.429m0 .001l.071-.143m0 0l.071-.071m.001 0l.143-.071m0-.001h.286m-.001 0l.143.071m.357 1.072h1.143m1-.143v-.786m0 0l-.072-.143m.001.001l-.143-.071m0-.001h-.286m0 0l-.143.071m.643.858l-.143.071m0 0h-.357m0 0l-.143-.071m0 0l-.071-.143"/><path d="M196.888 186.179v-.143m0 0l.071-.143m0 0l.143-.071m0 0h.357m0 0l.143-.071m.714-.358v1m0-.857l.071-.071m.001 0l.143-.071m0-.001h.214m0 0l.143.071m0 .001l.072.143m-.001-.001v.786m.5-1h.571"/><path d="M199.674 184.893v1.286m0 0l.071.143m0 0l.143.071m0 0h.143m1.071-.071l-.143.071m0 0h-.286m.001 0l-.143-.071m0 0l-.071-.143m-.001 0v-.571"/><path d="M200.459 185.607l.071-.143m.001.001l.143-.071m0-.001h.286m-.001 0l.143.071m0 .001l.071.143m.001-.001v.143m0 0l-.714.143m1.356-.5v1m0-.857l.071-.071m.001 0l.143-.071m0-.001h.214m0 0l.143.071m0 .001l.072.143m-.001-.001v.786m.714-1v1m0-.857l.071-.071m.001 0l.143-.071m0-.001h.214m0 0l.143.071m0 .001l.072.143m-.001-.001v.786m1.357 0v-.786m0 0l-.071-.143m0 .001l-.143-.071m0-.001h-.286m0 0l-.143.071m.643.858l-.143.071m.001 0h-.357m-.001 0l-.143-.071m.001 0l-.071-.143m-.001 0v-.143"/><path d="M204.459 186.036l.071-.143m.001 0l.143-.071m-.001 0h.357m.001 0l.143-.071m.714.499l.071.071m0 .001l-.071.071m0 0l-.071-.071"/><path d="M205.816 186.322l.071-.071m.001-.001v.143m.714 0v-1.5m.143.929l.429.571"/><path d="M207.173 185.393l-.571.571m1.214.429v-1m0-.5l-.071.071m0 .001l.071.071m0 0l.071-.071"/><path d="M207.888 184.965l-.071-.071m-.001-.001v.143m1.357 1.286l-.143.071m.001 0h-.286m0 0l-.143-.071m0 0l-.071-.071m0-.001l-.071-.143m-.001 0v-.429"/><path d="M208.459 185.679l.071-.143m.001 0l.071-.071m0 0l.143-.071m0-.001h.286m0 0l.143.071m1.285.929v-.786m0 0l-.072-.143m.001.001l-.143-.071m0-.001h-.286m0 0l-.143.071m.643.858l-.143.071m0 0h-.357m0 0l-.143-.071m0 0l-.071-.143"/><path d="M209.745 186.179v-.143m0 0l.071-.143m0 0l.143-.071m0 0h.357m0 0l.143-.071m1.357.642v-1.5m0 1.429l-.143.071m0 0h-.286m.001 0l-.143-.071m0 0l-.071-.071m-.001-.001l-.071-.143"/><path d="M211.102 186.107v-.429m0 .001l.071-.143m0 0l.071-.071m.001 0l.143-.071m0-.001h.286m-.001 0l.143.071m.357 1.072h1.143m.286-.214l.143.071m0 0h.286m-.001 0l.143-.071m0 0l.071-.143m.001 0v-.071"/><path d="M214.245 186.107l-.071-.143m-.001.001l-.143-.071m0-.001h-.214m0 0l-.143-.071m0 0l-.071-.143m0 0v-.071m0-.001l.071-.143m0 .001l.143-.071"/><path d="M213.816 185.393h.214m0 0l.143.071m1.358.858l-.143.071m0 0h-.286m0 0l-.143-.071m0 0l-.071-.071m0-.001l-.071-.143m-.001 0v-.429"/><path d="M214.816 185.679l.071-.143m.001 0l.071-.071m0 0l.143-.071m0-.001h.286m0 0l.143.071m.642.929v-1.5m.643 1.5v-.786m0 0l-.072-.143m.001.001l-.143-.071m0-.001h-.214m0 0l-.143.071"/><path d="M216.245 185.465l-.071.071m-39.172-4.029h108"/></g><text x="178.002" y="183.757" textLength="9.8000" lengthAdjust="spacingAndGlyphs" class="C D G">Sheet: /</text><g class="C E"><path d="M178.388 183.622l.214.071m0 0h.357m.001 0l.143-.071m-.001 0l.071-.072m.001 0l.071-.143m0 0v-.143m0 .001l-.071-.143m0 0l-.071-.072m-.001 0l-.143-.071m.001 0l-.286-.071m0-.001l-.143-.071m0 0l-.071-.071m0 0l-.071-.143m-.001 0v-.143m0 0l.071-.143m.001 0l.071-.071m0 0l.143-.071m0-.001h.357m0 0l.214.071m.643 1.429v-1.5m.643 1.5v-.786m0 0l-.072-.143m.001.001l-.143-.071m0-.001h-.214m-.001 0l-.143.071"/><path d="M179.96 182.765l-.071.071m1.928.786l-.143.071m0 0h-.286m0 0l-.143-.071m0 0l-.071-.143"/><path d="M181.174 183.479v-.571m0-.001l.071-.143m0 .001l.143-.071m0-.001h.286m0 0l.143.071m0 .001l.072.143m-.001-.001v.143"/><path d="M181.888 183.05l-.714.143m1.928.429l-.143.071m.001 0h-.286m0 0l-.143-.071m0 0l-.071-.143"/><path d="M182.46 183.479v-.571m0-.001l.071-.143m0 .001l.143-.071m0-.001h.286m0 0l.143.071m-.001.001l.071.143m.001-.001v.143"/><path d="M183.174 183.05l-.714.143m1.142-.5h.571"/><path d="M183.817 182.193v1.286m0 0l.071.143m0 0l.143.071m0 0h.143m.5-.143l.071.072m0 0l-.071.071m0 0l-.071-.071"/><path d="M184.602 183.622l.071-.072m.001 0v.143m0-.928l.071.071m0 0l-.071.071"/><path d="M184.674 182.907l-.071-.071m-.001 0l.071-.071"/><path d="M184.674 182.765v.143m2.928-.786l-1.286 1.928"/></g></g><g fill="none" class="B C"><g class="I"><path d="M197.002 191.507v3m64-3v6.5" class="E"/></g><g stroke="#0000c2"><text x="144.272" y="98.556" textLength="113.8624" font-size="6.773" lengthAdjust="spacingAndGlyphs" class="D H">There's no circuit schematics</text><g class="E"><path d="M87.545 93.278h2.903"/><path d="M88.997 98.358v-5.08m3.144 5.08v-5.08m2.178 5.08v-2.661m0 0l-.242-.484m0 0l-.484-.242m0 0h-.726m0 0l-.484.242"/><path d="M92.383 95.213l-.242.242m6.532 2.661l-.484.242m0 0h-.968m0 0l-.484-.242m.001 0l-.242-.484"/><path d="M96.496 97.632v-1.935m0 0l.242-.484m0 0l.484-.242m-.001 0h.968m0 0l.484.242m0 0l.242.484m0 0v.484m0 0l-2.419.484m4.596 1.693v-3.387m0 .968l.242-.484m0 0l.242-.242m0 0l.484-.242m0 0h.484m3.628 3.145l-.484.242m0 0h-.968m.001 0l-.484-.242m0 0l-.242-.484"/><path d="M103.995 97.632v-1.935m0 0l.242-.484m0 0l.484-.242m0 0h.968m-.001 0l.484.242m0 0l.242.484m0 0v.484"/><path d="M106.414 96.181l-2.419.484m4.838-3.387l-.484.968m2.419 3.87l.484.242m0 0h.968m0 0l.484-.242m-.001 0l.242-.484"/><path d="M112.945 97.632v-.242m0 0l-.242-.484m0 .001l-.484-.242m.001 0h-.726m0 0l-.484-.242m0 0l-.242-.484m0 0v-.242m0 0l.242-.484m0 0l.484-.242m0 0h.726"/><path d="M112.22 94.971l.484.242m6.289-.242v3.387m0-2.903l.242-.242m0 0l.484-.242m0 0h.726m-.001 0l.484.242m0 0l.242.484m0 0v2.661m3.145 0l-.484-.242m0 0l-.242-.242m0 0l-.242-.484"/><path d="M123.347 97.39v-1.451m0 0l.242-.484m0 0l.242-.242m0 0l.484-.242m0 0h.726m0 0l.484.242m-.001 0l.242.242m0 0l.242.484m0 0v1.451m0 0l-.242.484m0 0l-.242.242m0 0l-.484.242m.001 0h-.726m9.918-.242l-.484.242m0 0h-.968m.001 0l-.484-.242m0 0l-.242-.242m0 0l-.242-.484m0 0v-1.451"/><path d="M131.814 95.939l.242-.484m0 0l.242-.242m0 0l.484-.242m0 0h.968m-.001 0l.484.242m2.177 3.145v-3.387m0-1.693l-.242.242m0 0l.242.242m0 0l.242-.242"/><path d="M136.652 93.52l-.242-.242m0 0v.484m2.419 4.596v-3.387m0 .968l.242-.484m0 0l.242-.242m0 0l.484-.242m0 0h.484m3.87 3.145l-.484.242m0 0h-.968m.001 0l-.484-.242m0 0l-.242-.242m0 0l-.242-.484"/><path d="M141.732 97.39v-1.451m0 0l.242-.484m0 0l.242-.242m0 0l.484-.242m0 0h.968m-.001 0l.484.242m4.354-.242v3.387m-2.177-3.387v2.661m0 0l.242.484m0 0l.484.242m0 0h.726m0 0l.484-.242"/><path d="M148.263 98.116l.242-.242m2.419.484v-3.387m0-1.693l-.242.242m.001 0l.242.242m-.001 0l.242-.242"/><path d="M151.166 93.52l-.242-.242m0 0v.484m1.694 1.209h1.935"/><path d="M153.343 93.278v4.354m0 0l.242.484m0 0l.484.242m0 0h.484m5.322-.242l.484.242m0 0h.968m-.001 0l.484-.242m0 0l.242-.484"/><path d="M162.052 97.632v-.242m0 0l-.242-.484m0 .001l-.484-.242m0 0h-.726m.001 0l-.484-.242m0 0l-.242-.484m0 0v-.242m0 0l.242-.484m0 0l.484-.242"/><path d="M160.601 94.971h.726m-.001 0l.484.242m4.596 2.903l-.484.242m.001 0h-.968m0 0l-.484-.242m0 0l-.242-.242m0 0l-.242-.484m0 0v-1.451"/><path d="M163.987 95.939l.242-.484m0 0l.242-.242m0 0l.484-.242m0 0h.968m0 0l.484.242m2.177 3.145v-5.08m2.177 5.08v-2.661m0 0l-.242-.484m0 0l-.484-.242m0 0h-.726m0 0l-.484.242"/><path d="M168.825 95.213l-.242.242m6.532 2.661l-.484.242m0 0h-.968m.001 0l-.484-.242m0 0l-.242-.484m0 0v-1.935"/><path d="M172.938 95.697l.242-.484m0 0l.484-.242m0 0h.968m-.001 0l.484.242m0 0l.242.484m0 0v.484m0 0l-2.419.484m4.596 1.693v-3.387m0 .484l.242-.242m0 0l.484-.242m0 0h.726m-.001 0l.484.242m0 0l.242.484m0 0v2.661m0-2.661l.242-.484m0 0l.484-.242m0 0h.726m0 0l.484.242m-.001 0l.242.484m0 0v2.661m4.596 0v-2.661m0 0l-.242-.484m.001 0l-.484-.242m0 0h-.968m0 0l-.484.242m2.177 2.903l-.484.242m.001 0h-1.209m-.001 0l-.484-.242m0 0l-.242-.484"/><path d="M184.065 97.632v-.484m0 .001l.242-.484m0 0l.484-.242m0 0H186m.001 0l.484-.242m1.693-1.21h1.935"/><path d="M188.904 93.278v4.354m0 0l.242.484m-.001 0l.484.242m0 0h.484m1.693 0v-3.387m0-1.693l-.242.242m.001 0l.242.242m-.001 0l.242-.242"/><path d="M192.048 93.52l-.242-.242m0 0v.484m4.597 4.354l-.484.242m0 0h-.968m0 0l-.484-.242m0 0l-.242-.242m0 0l-.242-.484"/><path d="M193.984 97.39v-1.451m0 0l.242-.484m-.001 0l.242-.242m0 0l.484-.242m0 0h.968m0 0l.484.242m1.935 2.903l.484.242m0 0h.968m-.001 0l.484-.242m0 0l.242-.484"/><path d="M200.515 97.632v-.242m0 0l-.242-.484m0 .001l-.484-.242m0 0h-.726m.001 0l-.484-.242m0 0l-.242-.484m0 0v-.242m0 0l.242-.484m0 0l.484-.242"/><path d="M199.064 94.971h.726m-.001 0l.484.242"/></g></g></g></svg>