<?xml version="1.0" standalone="no"?>
<!DOCTYPE svg PUBLIC "-//W3C//DTD SVG 20010904//EN"
 "http://www.w3.org/TR/2001/REC-SVG-20010904/DTD/svg10.dtd">
<svg version="1.0" xmlns="http://www.w3.org/2000/svg"
 width="700.000000pt" height="700.000000pt" viewBox="0 0 700.000000 700.000000"
 preserveAspectRatio="xMidYMid meet">
<metadata>
Created by potrace 1.11, written by Peter Selinger 2001-2013
</metadata>
<g transform="translate(0.000000,700.000000) scale(0.100000,-0.100000)"
fill="#000000" stroke="none">
<path d="M3433 6832 c-7 -4 -40 -82 -73 -172 -153 -413 -191 -494 -296 -637
-142 -193 -355 -354 -579 -441 -33 -13 -69 -28 -80 -32 -11 -5 -92 -34 -180
-65 -248 -89 -265 -99 -236 -143 7 -12 270 -115 401 -158 25 -8 54 -19 65 -24
197 -88 265 -126 355 -198 168 -135 286 -276 376 -452 15 -30 75 -181 133
-335 87 -230 110 -280 126 -283 11 -1 26 2 33 6 7 5 57 128 111 273 93 251
155 395 187 430 8 8 14 19 14 23 0 17 135 181 198 241 165 157 310 238 654
364 119 44 229 83 243 87 15 4 32 17 38 31 9 20 7 27 -9 43 -10 10 -120 55
-244 100 -124 45 -249 93 -278 106 -29 13 -54 24 -56 24 -2 0 -37 19 -78 42
-223 126 -408 316 -522 538 -27 51 -93 213 -148 359 -105 283 -114 299 -155
273z"/>
<path d="M5997 5613 c-9 -21 -35 -87 -57 -148 -90 -242 -198 -346 -465 -445
-133 -50 -163 -66 -147 -82 4 -3 67 -29 140 -56 166 -62 229 -99 312 -183 77
-77 117 -148 180 -319 27 -73 53 -126 61 -128 10 -2 29 37 64 130 81 218 150
315 285 403 57 37 123 65 303 131 33 12 47 22 45 33 -2 10 -53 34 -141 67
-157 60 -228 99 -297 166 -92 89 -129 152 -191 324 -57 161 -65 169 -92 107z"/>
<path d="M4926 3748 c-8 -13 -33 -75 -56 -138 -23 -63 -60 -162 -82 -220 -22
-58 -44 -118 -50 -135 -16 -44 -77 -162 -117 -225 -96 -154 -280 -331 -434
-419 -99 -57 -186 -94 -422 -180 -259 -95 -294 -115 -274 -152 6 -11 16 -22
22 -24 163 -54 569 -215 641 -255 225 -125 423 -332 539 -565 19 -38 58 -133
86 -210 29 -77 59 -156 66 -175 7 -19 28 -75 47 -124 35 -94 56 -119 85 -100
10 6 58 122 113 270 156 418 201 497 394 689 187 187 293 243 811 429 126 46
129 48 133 78 4 36 2 37 -213 116 -370 135 -426 161 -564 256 -70 48 -213 180
-275 254 -86 103 -171 265 -240 454 -92 254 -138 373 -148 385 -16 20 -46 15
-62 -9z"/>
<path d="M1620 1533 c-6 -15 -18 -48 -26 -73 -98 -281 -187 -376 -439 -471
-105 -39 -146 -62 -133 -74 3 -4 57 -26 119 -49 158 -60 192 -80 269 -155 82
-81 116 -136 162 -266 46 -128 59 -155 73 -155 6 0 22 30 35 68 84 242 132
318 255 405 73 52 82 57 215 106 119 44 133 63 65 88 -209 78 -251 99 -327
164 -71 60 -128 153 -177 289 -23 63 -46 121 -50 129 -13 26 -31 23 -41 -6z"/>
<path d="M1922 1525 c-29 -7 -55 -15 -58 -18 -9 -9 41 -113 87 -179 91 -134
212 -224 394 -295 231 -89 230 -88 230 -108 0 -19 -26 -31 -195 -95 -165 -62
-247 -111 -339 -202 -81 -79 -193 -261 -177 -287 11 -17 137 -33 219 -28 155
11 276 66 387 177 124 124 183 259 184 425 0 117 -19 197 -70 296 -80 152
-221 262 -394 309 -63 17 -205 20 -268 5z"/>
</g>
</svg>
