<svg xmlns="http://www.w3.org/2000/svg" xmlns:xlink="http://www.w3.org/1999/xlink" width="1122.52" height="793.739" viewBox="0 0 297 210.01" xmlns:v="https://vecta.io/nano"><style><![CDATA[.B{stroke-linejoin:round}.C{stroke-linecap:round}.D{stroke-width:.152}.E{fill:none}.F{stroke:#840000}.G{stroke:#006464}.H{stroke:#a90000}.I{fill-opacity:0}.J{stroke-width:.508}]]></style><path fill="#f5f4ef" d="M0 0h297v210.01H0z"/><g class="F B C E"><g class="D I"><path d="M177 166.01h108v32H177v-32"/><path d="M10 10h277v190.01H10V10"/><path d="M12 12h273v186.01H12V12m48 0v-2m50 2v-2m50 2v-2m50 2v-2m50 2v-2M36.091 11.594h-.743m.371 0v-1.3m0 0l-.124.186m0-.001l-.124.124m.001 0l-.124.062m50-.248l.062-.062m0 0l.124-.062m0 .001h.31m-.001 0l.124.062m0-.001l.062.062m0 0l.062.124m0 0v.124m0 0l-.062.186m0 0l-.743.743m0 0h.805m49.199-1.3h.805m-.005 0l-.433.495m.003 0h.186m-.006 0l.124.062m.006 0l.062.062m-.002-.001l.062.124m-.002 0v.31m0 0l-.062.124m.002 0l-.062.062m.002 0l-.124.062m-.006 0h-.371m.001 0l-.124-.062m.004 0l-.062-.062m50.682-.743v.867m-.31-1.362l-.31.928m0 0h.805m49.875-.866h-.619m-.001 0l-.062.619m.002-.001l.062-.062m-.002.001l.124-.062m-.004 0h.31m0 0l.124.062m.006 0l.062.062m-.002-.001l.062.124m-.002 0v.31m0 0l-.062.124m.002 0l-.062.062m.002 0l-.124.062m-.006 0h-.31m0 0l-.124-.062m.004 0l-.062-.062m50.622-1.176h-.248m-.002 0l-.124.062m.004-.001l-.062.062m-.008 0l-.124.186m.004 0l-.062.248m.002 0v.495m0 0l.062.124m-.002 0l.062.062m-.002 0l.124.062m.006 0h.248m-.008 0l.124-.062m.006 0l.062-.062m-.002 0l.062-.124m-.002 0v-.31m0 0l-.062-.124m.002 0l-.062-.062m.002.001l-.124-.062m-.006 0h-.248m.008 0l-.124.062m-.006 0l-.062.062m.002-.001l-.062.124M60 198.01v2m50-2v2m50-2v2m50-2v2m50-2v2m-223.909-.41h-.743m.371 0v-1.3m0 0l-.124.186m0 .004l-.124.124m.001-.004l-.124.062m50-.252l.062-.062m0 .002l.124-.062m0 .002h.31m-.001 0l.124.062m0-.002l.062.062m0-.002l.062.124m0 .006v.124m0-.004l-.062.186m0 .004l-.743.743m0-.003h.805m49.199-1.3h.805m-.005 0l-.433.495m.003.005h.186m-.006 0l.124.062m.006-.002l.062.062m-.002-.002l.062.124m-.002-.004v.31m0 0l-.062.124m.002.006l-.062.062m.002-.002l-.124.062m-.006-.002h-.371m.001 0l-.124-.062m.004.002l-.062-.062m50.682-.748v.867m-.31-1.357l-.31.928m0 .002h.805m49.875-.87h-.619m-.001 0l-.062.619m.002.001l.062-.062m-.002.002l.124-.062m-.004.002h.31m0 0l.124.062m.006-.002l.062.062m-.002-.002l.062.124m-.002-.004v.31m0 0l-.062.124m.002.006l-.062.062m.002-.002l-.124.062m-.006-.002h-.31m0 0l-.124-.062m.004.002l-.062-.062m50.622-1.178h-.248m-.002 0l-.124.062m.004-.002l-.062.062m-.008-.002l-.124.186m.004.004l-.062.248m.002.002v.495m0-.005l.062.124m-.002.006l.062.062m-.002-.002l.124.062m.006-.002h.248m-.008 0l.124-.062m.006.002l.062-.062m-.002.002l.062-.124m-.002-.006v-.31m0 0l-.062-.124m.002.004l-.062-.062m.002.002l-.124-.062m-.006.002h-.248m.008 0l-.124.062m-.006-.002l-.062.062m.002-.002l-.062.124M10 60h2m-2 50h2m-2 50h2"/><path d="M10.69 35.222h.619m-.742.372l.433-1.3m0 0l.433 1.3m-.34 49.318l.186.062m-.001 0l.062.062m0 0l.062.124m0 0v.186m0 0l-.062.124m0 0l-.062.062m0 0l-.124.062m.001 0h-.495m0 0v-1.3m0 0h.433m0 0l.124.062m0-.001l.062.062m-.001 0l.062.124m0 0v.124m0 0l-.062.124m0 0l-.062.062m.001 0l-.124.062m0-.001h-.433m.742 50.558l-.062.062m0-.002l-.186.062m.001-.002h-.124m0 0l-.186-.062m0 .002l-.124-.124m0 .004l-.062-.124m.001-.006l-.062-.248m0 .008v-.186m0-.004l.062-.248m0-.002l.062-.124m-.001.004l.124-.124m0 .004l.186-.062m0-.008h.124m0 0l.186.062m-.001.008l.062.062m-.742 51.168v-1.3m0 0h.31m-.001 0l.186.062m0 .008l.124.124m-.001-.004l.062.124m0-.004l.062.248m0 .002v.186m0 .004l-.062.248m0-.008l-.062.124m0 .006l-.124.124m.001-.004l-.186.062m0-.002h-.31M287 60h-2m2 50h-2m2 50h-2"/><path d="M285.69 35.222h.619m-.739.372l.433-1.3m-.003 0l.433 1.3m-.333 49.318l.186.062m-.006 0l.062.062m-.002 0l.062.124m-.002 0v.186m0 0l-.062.124m.002 0l-.062.062m.002 0l-.124.062m.004 0h-.495m-.005 0v-1.3m0 0h.433m.007 0l.124.062m-.004-.001l.062.062m-.002 0l.062.124m-.002 0v.124m0 0l-.062.124m.002 0l-.062.062m.002 0l-.124.062m.004-.001h-.433m.733 50.558l-.062.062m.002-.002l-.186.062m.006-.002h-.124m-.006 0l-.186-.062m.006.002l-.124-.124m-.006.004l-.062-.124m.002-.006l-.062-.248m.002.008v-.186m0-.004l.062-.248m-.002-.002l.062-.124m-.002.004l.124-.124m.006.004l.186-.062m-.006-.008h.124m.006 0l.186.062m-.006.008l.062.062m-.742 51.168v-1.3m0 0h.31m0 0l.186.062m.004.008l.124.124m-.004-.004l.062.124m-.002-.004l.062.248m-.002.002v.186m0 .004l-.062.248m.002-.008l-.062.124m.002.006l-.124.124m.004-.004l-.186.062m-.004-.002h-.31m-85.2 8.2v-1.5m0 0h.357m.003 0l.214.071m-.004-.001l.143.143m-.003.007l.071.143m.009-.003l.071.286m-.001.004v.214m0-.004l-.071.286m.001.004l-.071.143m-.009-.003l-.143.143m.003-.003l-.214.071m.004-.001h-.357m2.137 0v-.786m0 .006l-.071-.143m.001-.007l-.143-.071m.003.001h-.286m-.004 0l-.143.071m.643.859l-.143.071m.003-.001h-.357m-.003 0l-.143-.071m.003.001l-.071-.143m.001.003v-.143m0 .003l.071-.143m-.001-.007l.143-.071m-.003.001h.357m.003 0l.143-.071m.497-.359h.571m-.351-.5v1.286m0 .004l.071.143m-.001-.003l.143.071m-.003-.001h.143m1.077-.07l-.143.071m-.007-.001h-.286m.006 0l-.143-.071m-.007.001l-.071-.143m.001.003v-.571m0 .001l.071-.143m-.001-.007l.143-.071m.007.001h.286m-.006 0l.143.071m.007-.001l.071.143m-.001.007v.143m0-.003l-.714.143m1.354.357l.071.071m-.001-.001l-.071.071m.001-.001l-.071-.071m.001.001l.071-.071m-.001.001v.143m0-.933l.071.071m-.001.009l-.071.071m.001-.001l-.071-.071m.001.001l.071-.071m-.001-.009v.143m1.79-.563l.071-.071m-.001-.009l.143-.071m-.003.001h.357m.003 0l.143.071m-.003-.001l.071.071m-.001.009l.071.143m-.001-.003v.143m0-.003l-.071.214m.001.006l-.857.857m-.003-.007h.929m.931-1.5h.143m-.003 0l.143.071m.007-.001l.071.071m-.001.009l.071.143m-.001-.003l.071.286m-.001-.006v.357m0 .003l-.071.286m.001.004l-.071.143m.001-.003l-.071.071m.001-.001l-.143.071m-.007-.001h-.143m.003 0l-.143-.071m.003.001l-.071-.071m.001.001l-.071-.143m.001.003l-.071-.286m-.009-.004v-.357m0-.003l.071-.286m.009.006l.071-.143m-.001.003l.071-.071m-.001-.009l.143-.071m1.067.151l.071-.071m-.001-.009l.143-.071m.007.001h.357m-.007 0l.143.071m.007-.001l.071.071m-.001.009l.071.143m-.001-.003v.143m0-.003l-.071.214m.001.006l-.857.857m-.003-.007h.929m1.291-1v1m-.36-1.57l-.357 1.071m-.003-.001h.928m.572-.07h1.143m.997-.93h.143m.007 0l.143.071m-.003-.001l.071.071m-.001.009l.071.143m-.001-.003l.071.286m-.001-.006v.357m0 .003l-.071.286m.001.004l-.071.143m.001-.003l-.071.071m.001-.001l-.143.071m.003-.001h-.143m-.007 0l-.143-.071m.003.001l-.071-.071m.001.001l-.071-.143m.001.003l-.071-.286m.001-.004v-.357m0-.003l.071-.286m-.001.006l.071-.143m-.001.003l.071-.071m-.001-.009l.143-.071m1.077.151l.071-.071m-.001-.009l.143-.071m-.003.001h.357m.003 0l.143.071m-.003-.001l.071.071m-.001.009l.071.143m-.001-.003v.143m0-.003l-.071.214m.001.006l-.857.857m-.003-.007h.929m.651-.57h1.143m.997-.93h.143m-.003 0l.143.071m-.003-.001l.071.071m.009.009l.071.143m-.001-.003l.071.286m-.001-.006v.357m0 .003l-.071.286m.001.004l-.071.143m.001-.003l-.071.071m-.009-.001l-.143.071m.003-.001h-.143m.003 0l-.143-.071m.003.001l-.071-.071m-.009.001l-.071-.143m.001.003l-.071-.286m.001-.004v-.357m0-.003l.071-.286m-.001.006l.071-.143m-.001.003l.071-.071m.009-.009l.143-.071m1.357.651l-.143-.071m-.007-.009l-.071-.071m.001.001l-.071-.143m.001.003v-.071m0 .001l.071-.143m-.001.003l.071-.071m-.001-.009l.143-.071m.007.001h.286m-.006 0l.143.071m-.003-.001l.071.071m.009.009l.071.143m-.001-.003v.071m0-.001l-.071.143m.001-.003l-.071.071m-.009-.001l-.143.071m.003.009h-.286m.006 0l-.143.071m-.007-.001l-.071.071m.001-.001l-.071.143m.001-.003v.286m0 .004l.071.143m-.001-.003l.071.071m-.001-.001l.143.071m.007-.001h.286m-.006 0l.143-.071m-.003.001l.071-.071m.009.001l.071-.143m-.001.003v-.286m0-.004l-.071-.143m.001.003l-.071-.071m-.009.001l-.143-.071M177 194.51h108m-106.54 2.08v-1.5m.86 1.5l-.643-.857m.643-.643l-.857.857m1.497.643v-1m0-.5l-.071.071m.001-.001l.071.071m-.001.009l.071-.071m-.001-.009l-.071-.071m.001.001v.143m1.57 1.217l-.071.071m.001-.001l-.214.071m.004-.001h-.143m-.007 0l-.214-.071m.004.001l-.143-.143m.003.003l-.071-.143m-.009.003l-.071-.286m.001-.004v-.214m0 .004l.071-.286m-.001-.004l.071-.143m.009.003l.143-.143m-.003-.007l.214-.071m-.004.001h.143m.007 0l.214.071m-.004-.001l.071.071m1.289 1.359v-.786m0 .006l-.071-.143m.001-.007l-.143-.071m-.007.001h-.286m.006 0l-.143.071m.643.859l-.143.071m-.007-.001h-.357m.007 0l-.143-.071m-.007.001l-.071-.143m.001.003v-.143m0 .003l.071-.143m-.001-.007l.143-.071m.007.001h.357m-.007 0l.143-.071m1.357.641v-1.5m0 1.43l-.143.071m.003-.001h-.286m.006 0l-.143-.071m-.007.001l-.071-.071m.001.001l-.071-.143m.001.003v-.429m0-.001l.071-.143m-.001.003l.071-.071m-.001-.009l.143-.071m.007.001h.286m-.006 0l.143.071m1.857.149h.5m.22.78h-.714m-.006 0v-1.5m0 0h.714m.646 1.36l.071.071m-.001-.001l-.071.071m.001-.001l-.071-.071m.001.001l.071-.071m-.001.001v.143m.71-.003v-1.5m0 0h.357m.003 0l.214.071m-.004-.001l.143.143m.007.007l.071.143m-.001-.003l.071.286m-.001.004v.214m0-.004l-.071.286m.001.004l-.071.143m.001-.003l-.143.143m-.007-.003l-.214.071m.004-.001h-.357m1.497-.14l.071.071m-.001-.001l-.071.071m.001-.001l-.071-.071m.001.001l.071-.071m-.001.001v.143m.65-.433h.714m-.864.43l.5-1.5m0 0l.5 1.5m.5-.14l.071.071m-.001-.001l-.071.071m.001-.001l-.071-.071m.001.001l.071-.071m-.001.001v.143m3-.003v-1.5m.15.93l.428.571m-.008-1.001l-.571.571m1.221.429v-1m0-.5l-.071.071m.001-.001l.071.071m-.001.009l.071-.071m-.001-.009l-.071-.071m.001.001v.143m1.35 1.287l-.143.071m.003-.001h-.286m.006 0l-.143-.071m-.007.001l-.071-.071m.001.001l-.071-.143m.001.003v-.429m0-.001l.071-.143m-.001.003l.071-.071m-.001-.009l.143-.071m.007.001h.286m-.006 0l.143.071m1.287.929v-.786m0 .006l-.071-.143m.001-.007l-.143-.071m.003.001h-.286m-.004 0l-.143.071m.643.859l-.143.071m.003-.001h-.357m-.003 0l-.143-.071m.003.001l-.071-.143m.001.003v-.143m0 .003l.071-.143m-.001-.007l.143-.071m-.003.001h.357m.003 0l.143-.071m1.357.641v-1.5m0 1.43l-.143.071m-.007-.001h-.286m.006 0l-.143-.071m.003.001l-.071-.071m-.009.001l-.071-.143m.001.003v-.429m0-.001l.071-.143m-.001.003l.071-.071m.009-.009l.143-.071m-.003.001h.286m-.006 0l.143.071m1.717-.571h1m0 0l-.643 1.5m1.213-.14l.071.071m-.001-.001l-.071.071m.001-.001l-.071-.071m.001.001l.071-.071m-.001.001v.143m1-1.503h.143m.007 0l.143.071m-.003-.001l.071.071m-.001.009l.071.143m-.001-.003l.071.286m-.001-.006v.357m0 .003l-.071.286m.001.004l-.071.143m.001-.003l-.071.071m.001-.001l-.143.071m.003-.001h-.143m-.007 0l-.143-.071m.003.001l-.071-.071m.001.001l-.071-.143m.001.003l-.071-.286m.001-.004v-.357m0-.003l.071-.286m-.001.006l.071-.143m-.001.003l.071-.071m-.001-.009l.143-.071m1.147 1.361l.071.071m-.001-.001l-.071.071m.001-.001l-.071-.071m-.009.001l.071-.071m.009.001v.143m1.5-.003h-.857m.427 0v-1.5m0 0l-.143.214m-.007.006l-.143.143m.003-.003l-.143.071m1.783-.431h.143m.007 0l.143.071m-.003-.001l.071.071m-.001.009l.071.143m-.001-.003l.071.286m-.001-.006v.357m0 .003l-.071.286m.001.004l-.071.143m.001-.003l-.071.071m.001-.001l-.143.071m.003-.001h-.143m-.007 0l-.143-.071m.003.001l-.071-.071m.001.001l-.071-.143m.001.003l-.071-.286m.001-.004v-.357m0-.003l.071-.286m-.001.006l.071-.143m-.001.003l.071-.071m-.001-.009l.143-.071"/><path d="M177 191.51h108"/></g><path d="M264.41 193.79l-.5-.714m-.35.714v-1.5m0 0h.571m-.001 0l.143.071m-.003-.001l.071.071m-.001-.001l.071.143m-.001-.003v.214m0 .006l-.071.143m.001-.003l-.071.071m.001-.001l-.143.071m.003-.001h-.571m2.071.64l-.143.071m.003.009h-.286m-.004 0l-.143-.071m.003-.009l-.071-.143m.001.003v-.571m0 .001l.071-.143m-.001.003l.143-.071m-.003.001h.286m.004 0l.143.071m-.003-.001l.071.143M265.7 193v.143m0-.003l-.714.143m1.214-.493l.357 1m.003 0l.357-1m.573.85l.071.071m-.001-.001l-.071.071m.001.009l-.071-.071m-.009-.009l.071-.071m.009.001v.143m0-.923l.071.071m-.001-.001l-.071.071m.001-.001l-.071-.071m-.009.001l.071-.071m.009.001v.143m2.14-.713h.143m-.003 0l.143.071m-.003-.001l.071.071m.009-.001l.071.143m-.001-.003l.071.286m-.001.004v.357m0-.007l-.071.286m.001.004l-.071.143m.001-.003l-.071.071m-.009-.001l-.143.071m.003.009h-.143m.003 0l-.143-.071m.003-.009l-.071-.071m-.009.001l-.071-.143m.001.003l-.071-.286m.001-.004v-.357m0 .007l.071-.286m-.001-.004l.071-.143m-.001.003l.071-.071m.009.001l.143-.071m1.067.141l.071-.071m-.001.001l.143-.071m-.003.001h.357m.003 0l.143.071m-.003-.001l.071.071m.009-.001l.071.143m-.001-.003v.143m0-.003l-.071.214m.001.006l-.857.857m-.003.003h.929m.641-.58h1.143m.647-.78l.071-.071m-.001.001l.143-.071m-.003.001h.357m.003 0l.143.071m-.003-.001l.071.071m-.001-.001l.071.143m-.001-.003v.143m0-.003l-.071.214m.001.006l-.857.857m-.003.003h.929m.931-1.5h.143m-.003 0l.143.071m.007-.001l.071.071m-.001-.001l.071.143m-.001-.003l.071.286m-.001.004v.357m0-.007l-.071.286m.001.004l-.071.143m.001-.003l-.071.071m.001-.001l-.143.071m-.007.009h-.143m.003 0l-.143-.071m.003-.009l-.071-.071m.001.001l-.071-.143m.001.003l-.071-.286m-.009-.004v-.357m0 .007l.071-.286m.009-.004l.071-.143m-.001.003l.071-.071m-.001.001l.143-.071m1.067.141l.071-.071m-.001.001l.143-.071m.007.001h.357m-.007 0l.143.071m.007-.001l.071.071m-.001-.001l.071.143m-.001-.003v.143m0-.003l-.071.214m.001.006l-.857.857m-.003.003h.929m1.291-1v1m-.36-1.58l-.357 1.071m-.003.009h.928" stroke-width=".3"/><path d="M178.39 193.72l.214.071m-.004-.001h.357m.003 0l.143-.071m-.003.001l.071-.071m-.001.001l.071-.143m.009.003v-.143m0-.007l-.071-.143m-.009.003l-.071-.071m.001.001l-.143-.071m.003.001l-.286-.071m-.004.001l-.143-.071m.003.001l-.071-.071m.001-.009l-.071-.143m.001.003v-.143m0 .003l.071-.143m-.001.003l.071-.071m-.001-.009l.143-.071m-.003.001h.357m.003 0l.214.071m.646 1.429v-1m0-.5l-.071.071m.001-.001l.071.071m-.001.009l.071-.071m-.001-.009l-.071-.071m.001.001v.143m.57.357h.786m.004 0l-.786 1m-.004 0h.786m1.144-.07l-.143.071m.003-.001h-.286m-.004 0l-.143-.071m.003.001l-.071-.143m.001.003v-.571m0 .001l.071-.143m-.001-.007l.143-.071m-.003.001h.286m.004 0l.143.071m-.003-.001l.071.143m-.001.007v.143m0-.003l-.714.143m1.354.357l.071.071m-.001-.001l-.071.071m.001-.001l-.071-.071m.001.001l.071-.071m-.001.001v.143m0-.933l.071.071m-.001.009l-.071.071m.001-.001l-.071-.071m.001.001l.071-.071m-.001-.009v.143m1.79.357h.714m-.854.43l.5-1.5m0 0l.5 1.5m1.14-1v1m-.36-1.57l-.357 1.071m-.003-.001h.928m76.362 3.3v-1.5m1.36 1.5v-1.5m0 1.43l-.143.071m-.007-.001h-.286m.006 0l-.143-.071m.003.001l-.071-.071m-.009.001l-.071-.143m.001.003v-.429m0-.001l.071-.143m-.001.003l.071-.071m.009-.009l.143-.071m-.003.001h.286m-.006 0l.143.071m.717.789l.071.071m-.001-.001l-.071.071m.001-.001l-.071-.071m.001.001l.071-.071m-.001.001v.143m0-.933l.071.071m-.001.009l-.071.071m.001-.001l-.071-.071m.001.001l.071-.071m-.001-.009v.143m2.64.787h-.857m.437 0v-1.5m0 0l-.143.214m-.007.006l-.143.143m.003-.003l-.143.071m2.573-.501l-1.286 1.929m2.566-.359h-.857m.437 0v-1.5m0 0l-.143.214m-.007.006l-.143.143m.003-.003l-.143.071M177 187.51h108" class="D I"/><path d="M178.69 188.21h1.143m-.813 2l.25-2m.98 2l.167-1.333m.083-.667l-.107.095m.007.005l.083.095m-.003-.005l.107-.095m.003.005l-.083-.095m-.007-.005l-.024.19m.614.48h.762m-.392-.67l-.214 1.714m-.006.006l.071.19m-.001 0l.179.095m.001-.005h.19m.95 0l-.179-.095m.009.005l-.071-.19m-.009 0l.214-1.714m1.576 1.904l-.202.095m.002-.005h-.381m.001 0l-.179-.095m-.001.005l-.071-.19m.001 0l.095-.762m-.005-.008l.119-.19m.001 0l.202-.095m-.002.005h.38m0 0l.179.095m.001-.005l.071.19m-.001 0l-.024.19m.004 0l-.976.19m1.746.48l.083.095m.007.005l-.107.095m-.003-.005l-.083-.095m.003.005l.107-.095m-.007-.005l-.024.19m.164-1.24l.083.095m-.003.005l-.107.095m-.003-.005l-.083-.095m.003.005l.107-.095m.003-.005l-.024.19m2.344 1.05l.25-2m0 0h.762m-.002 0l.179.095m.001.005l.083.095m-.003-.005l.071.19m-.001 0l-.036.286m.006.004l-.12.19m0 0l-.107.095m-.003-.005l-.202.095m.002.005h-.762m3.042.76l-.107.095m.007.005l-.298.095m-.002-.005h-.19m0 0l-.274-.095m-.006.005l-.167-.19m.007 0l-.071-.19m.001 0l-.048-.381m-.002-.009l.036-.286m-.006.006l.143-.38m.007 0l.12-.19m0 0l.214-.19m-.004 0l.298-.095m.002-.005h.19m0 0l.274.095m-.004.005l.083.095m1.427.755l.274.095m.006.005l.083.095m-.003-.005l.071.19m-.001 0l-.036.286m.006.004l-.119.19m-.001 0l-.107.095m-.003.005l-.202.095m.002-.005h-.762m.002 0l.25-2m0 0h.667m-.007 0l.179.095m.001.005l.083.095m.007-.005l.071.19m-.001 0l-.024.19m-.006 0l-.119.19m-.001 0l-.107.095m.007.005l-.202.095m-.008-.005h-.667m4.167.96l-.202.095m.002-.005h-.381m.001 0l-.179-.095m-.001.005l-.071-.19m.001 0l.095-.762m.005-.008l.119-.19m.001 0l.202-.095m-.002.005h.38m0 0l.179.095m.001-.005l.071.19m-.001 0l-.024.19m-.006 0l-.976.19m2.016.67l-.179-.095m-.001.005l-.071-.19m.001 0l.214-1.714m1.576 1.904l-.202.095m-.008-.005h-.381m.001 0l-.179-.095m-.001.005l-.071-.19m.001 0l.095-.762m.005-.008l.119-.19m.001 0l.202-.095m-.002.005h.38m0 0l.179.095m.001-.005l.071.19m-.001 0l-.024.19m.004 0l-.976.19m2.596.58l-.202.095m-.008-.005h-.38m0 0l-.179-.095m-.001.005l-.083-.095m.003-.005l-.071-.19m.001 0l.071-.571m-.001.001l.12-.19m0 0l.107-.095m.003-.005l.202-.095m-.002.005h.381m-.001 0l.178.095m.582-.095h.762m-.392-.67l-.214 1.714m.004.006l.071.19m-.001 0l.179.095m.001-.005h.19m.66 0l.167-1.333m-.047.383l.119-.19m.001 0l.107-.095m.003-.005l.202-.095m-.002.005h.19m.79 1.33l-.179-.095m-.001.005l-.083-.095m.003-.005l-.071-.19m-.009 0l.071-.571m.009.001l.12-.19m-.01 0l.107-.095m.003-.005l.202-.095m-.002.005h.286m.004 0l.179.095m.001-.005l.083.095m-.003.005l.071.19m-.001 0l-.071.571m.001-.001l-.119.19m-.001 0l-.107.095m.007.005l-.202.095m-.008-.005h-.286m1.696-1.33l-.167 1.333m.137-1.143l.107-.095m.003-.005l.202-.095m-.002.005h.286m.004 0l.179.095m.001-.005l.071.19m-.001 0l-.13 1.048m.95.002l.167-1.333m.083-.667l-.107.095m-.003.005l.083.095m.007-.005l.107-.095m-.007.005l-.083-.095m.003-.005l-.024.19m1.594 1.72l-.202.095m.002-.005h-.38m0 0l-.179-.095m-.001.005l-.083-.095m.003-.005l-.071-.19m.001 0l.071-.571m-.001.001l.12-.19m0 0l.107-.095m-.007-.005l.202-.095m.008.005h.381m-.001 0l.178.095m.612 1.145l.179.095m.001-.005h.38m0 0l.202-.095m.008.005l.12-.19m0 0l.012-.095m-.002-.005l-.071-.19m.001 0l-.178-.095m-.002-.005h-.286m-.004 0l-.178-.095m-.002.005l-.071-.19m.001 0l.012-.095m-.002-.005l.119-.19m.001 0l.202-.095m-.002.005h.286m.004 0l.179.095m2.201-.095h.762m-.642 1.33l.214-1.714m-.004.004l.12-.19m0 0l.202-.095m.008-.005h.19m.7 2l-.179-.095m-.001.005l-.083-.095m.003-.005l-.071-.19m.001 0l.071-.571m-.001.001l.12-.19m0 0l.107-.095m-.007-.005l.202-.095m.008.005h.286m-.006 0l.179.095m.001-.005l.083.095m-.003.005l.071.19m-.001 0l-.071.571m.001-.001l-.119.19m-.001 0l-.107.095m.007.005l-.202.095m-.008-.005h-.286m1.526 0l.167-1.333m-.047.383l.119-.19m.001 0l.107-.095m.003-.005l.202-.095m-.002.005h.19m2.82.28l.274.095m.006.005l.083.095m-.003-.005l.071.19m-.001 0l-.036.286m.006.004l-.119.19m-.001 0l-.107.095m-.003.005l-.202.095m.002-.005h-.762m-.008 0l.25-2m0 0h.667m.003 0l.179.095m.001.005l.083.095M220 188.4l.071.19m-.001 0l-.024.19m.004 0l-.119.19m-.001 0l-.107.095m-.003.005l-.202.095m.002-.005h-.667m2.157 1.05l-.179-.095m-.001.005l-.083-.095m.003-.005l-.071-.19m.001 0l.071-.571m-.001.001l.12-.19m0 0l.107-.095m-.007-.005l.202-.095m.008.005h.286m-.006 0l.179.095m.001-.005l.083.095m-.003.005l.071.19m.009 0l-.071.571m-.009-.001l-.119.19m.009 0l-.107.095m-.003.005l-.202.095m.002-.005h-.286m1.436-.09l.179.095m.001-.005h.38m0 0l.202-.095m-.002.005l.12-.19m0 0l.012-.095m-.002-.005l-.071-.19m.001 0l-.178-.095m-.002-.005h-.286m.006 0l-.178-.095m-.002.005l-.071-.19m.001 0l.012-.095m-.002-.005l.119-.19m.001 0l.202-.095m-.002.005h.286m.004 0l.179.095m1.661 1.145l-.202.095m.002-.005h-.38m0 0l-.179-.095m-.001.005l-.083-.095m.003-.005l-.071-.19m.001 0l.071-.571m-.001.001l.12-.19m0 0l.107-.095m-.007-.005l.202-.095m.008.005h.381m-.001 0l.178.095m.702 1.235l.25-2m.6 2l.13-1.048m.01-.002l-.071-.19m-.009 0l-.179-.095m.009.005h-.286m-.004 0l-.202.095m.002-.005l-.107.095m3.317.095h.667m.153 1.05h-.952m.002 0l.25-2m0 0h.952m.568 0h1.143m-.813 2l.25-2m.98 2l.25-2m0 0l.488 1.429m.002.001l.845-1.429m.005-.001l-.25 2m.87-.09l.179.095m.001-.005h.38m0 0l.202-.095m-.002.005l.12-.19m0 0l.012-.095m-.002-.005l-.071-.19m.001 0l-.178-.095m-.002-.005h-.286m-.004 0l-.178-.095m.008.005l-.071-.19m-.009 0l.012-.095m.008-.005l.119-.19m-.009 0l.202-.095m.008.005h.286m-.006 0l.179.095" stroke-width=".4"/><path d="M178.96 185.61h-.5m0 .78v-1.5m0 0h.714m.576 1.5v-1m0-.5l-.071.071m-.009-.001l.071.071m.009.009l.071-.071m-.001-.009l-.071-.071m.001.001v.143m.92 1.357l-.143-.071m.003.001l-.071-.143m.001.003v-1.286m1.36 1.426l-.143.071m-.007-.001h-.286m.006 0l-.143-.071m.003.001l-.071-.143m-.009.003v-.571m0 .001l.071-.143m.009-.007l.143-.071m-.003.001h.286m-.006 0l.143.071m.007-.001l.071.143m-.001.007v.143m0-.003l-.714.143m1.354.357l.071.071m-.001-.001l-.071.071m.001-.001l-.071-.071m.001.001l.071-.071m-.001.001v.143m0-.933l.071.071m-.001.009l-.071.071m.001-.001l-.071-.071m.001.001l.071-.071m-.001-.009v.143m1.86.007h.5m.21.78h-.714m.004 0v-1.5m0 0h.714m.426 0h.857m-.427 1.5v-1.5m.93 1.5v-1.5m0 0l.5 1.071m0-.001l.5-1.071m0 .001v1.5m2.36-.78l.214.071m-.004-.001l.071.071m-.001-.001l.071.143m-.001-.003v.214m0 .006l-.071.143m.001-.003l-.071.071m.001-.001l-.143.071m.003-.001h-.571m.001 0v-1.5m0 0h.5m0 0l.143.071m-.003-.001l.071.071m-.001.009l.071.143m-.001-.003v.143m0-.003l-.071.143m.001-.003l-.071.071m.001.009l-.143.071m.003-.001h-.5m1.71.78l-.143-.071m.003.001l-.071-.071m.001.001l-.071-.143m-.009.003v-.429m0-.001l.071-.143m.009.003l.071-.071m-.001-.009l.143-.071m-.003.001h.214m-.004 0l.143.071m.007-.001l.071.071m-.001.009l.071.143m-.001-.003v.429m0 .001l-.071.143m.001-.003l-.071.071m.001-.001l-.143.071m-.007-.001h-.214m1.074-.07l.143.071m-.003-.001h.286m.004 0l.143-.071m-.003.001l.071-.143m-.001.003v-.071m0 .001l-.071-.143m.001-.007l-.143-.071m.003.001h-.214m.004 0l-.143-.071m-.007.001l-.071-.143m.001.003v-.071m0 .001l.071-.143m-.001-.007l.143-.071m.007.001h.214m-.004 0l.143.071m1.357.859l-.143.071m.003-.001h-.286m-.004 0l-.143-.071m.003.001l-.071-.071m.001.001l-.071-.143m.001.003v-.429m0-.001l.071-.143m-.001.003l.071-.071m-.001-.009l.143-.071m-.003.001h.286m.004 0l.143.071m.637.929v-1.5m.65 1.5v-.786m0 .006l-.071-.143m-.009-.007l-.143-.071m.003.001h-.214m.004 0l-.143.071m-.007-.001l-.071.071m1.361.719l.071.071m-.001-.001l-.071.071m.001-.001l-.071-.071m.001.001l.071-.071m-.001.001v.143m.71-.003v-1.5m.15.93l.428.571m.002-1.001l-.571.571m1.211.429v-1m0-.5l-.071.071m.001-.001l.071.071m-.001.009l.071-.071m-.001-.009l-.071-.071m.001.001v.143m1.36 1.287l-.143.071m-.007-.001h-.286m.006 0l-.143-.071m-.007.001l-.071-.071m.001.001l-.071-.143m.001.003v-.429m0-.001l.071-.143m-.001.003l.071-.071m-.001-.009l.143-.071m.007.001h.286m-.006 0l.143.071m1.287.929v-.786m0 .006l-.071-.143m.001-.007l-.143-.071m.003.001h-.286m-.004 0l-.143.071m.643.859l-.143.071m.003-.001h-.357m-.003 0l-.143-.071m.003.001l-.071-.143m.001.003v-.143m0 .003l.071-.143m-.001-.007l.143-.071m-.003.001h.357m.003 0l.143-.071m1.357.641v-1.5m0 1.43l-.143.071m.003-.001h-.286m-.004 0l-.143-.071m.003.001l-.071-.071m.001.001l-.071-.143m-.009.003v-.429m0-.001l.071-.143m.009.003l.071-.071m-.001-.009l.143-.071m-.003.001h.286m.004 0l.143.071m.357 1.079h1.143m.277-.22l.143.071m.007-.001h.286m-.006 0l.143-.071m.007.001l.071-.143m-.001.003v-.071m0 .001l-.071-.143m.001-.007l-.143-.071m-.007.001h-.214m.004 0l-.143-.071m.003.001l-.071-.143m-.009.003v-.071m0 .001l.071-.143m.009-.007l.143-.071m-.003.001h.214m-.004 0l.143.071m1.357.859l-.143.071m.003-.001h-.286m-.004 0l-.143-.071m.003.001l-.071-.071m.001.001l-.071-.143m.001.003v-.429m0-.001l.071-.143m-.001.003l.071-.071m-.001-.009l.143-.071m-.003.001h.286m.004 0l.143.071m.647.929v-1.5m.64 1.5v-.786m0 .006l-.071-.143m.001-.007l-.143-.071m-.007.001h-.214m.004 0l-.143.071m.003-.001l-.071.071M177 181.51h108m-106.61 2.11l.214.071m-.004-.001h.357m.003 0l.143-.071m-.003.001l.071-.071m-.001.001l.071-.143m.009.003v-.143m0-.007l-.071-.143m-.009.003l-.071-.071m.001.001l-.143-.071m.003.001l-.286-.071m-.004.001l-.143-.071m.003.001l-.071-.071m.001-.009l-.071-.143m.001.003v-.143m0 .003l.071-.143m-.001.003l.071-.071m-.001-.009l.143-.071m-.003.001h.357m.003 0l.214.071m.646 1.429v-1.5m.64 1.5v-.786m0 .006l-.071-.143m.001-.007l-.143-.071m.003.001h-.214m-.006 0l-.143.071m.003-.001l-.071.071m1.931.789l-.143.071m-.007-.001h-.286m.006 0l-.143-.071m.003.001l-.071-.143m-.009.003v-.571m0 .001l.071-.143m.009-.007l.143-.071m-.003.001h.286m-.006 0l.143.071m.007-.001l.071.143m-.001.007v.143m0-.003l-.714.143m1.924.427l-.143.071m.003-.001h-.286m-.004 0l-.143-.071m.003.001l-.071-.143m.001.003v-.571m0 .001l.071-.143m-.001-.007l.143-.071m-.003.001h.286m.004 0l.143.071m-.003-.001l.071.143m-.001.007v.143m0-.003l-.714.143m1.144-.503h.571m-.351-.5v1.286m0 .004l.071.143m-.001-.003l.143.071m-.003-.001h.143m.497-.14l.071.071m.009-.001l-.071.071m-.009-.001l-.071-.071m.001.001l.071-.071m-.001.001v.143m0-.933l.071.071m.009.009l-.071.071m-.009-.001l-.071-.071m.001.001l.071-.071m-.001-.009v.143m2.93-.783l-1.286 1.929" class="D I"/><path d="M178.41 179.69l.286 1m.004 0l.286-.714m.004-.006l.286.714m-.006.006l.286-1m.434 0l.286 1m-.006 0l.286-.714m.004-.006l.286.714m-.006.006l.286-1m.434 0l.286 1m-.006 0l.286-.714m.004-.006l.286.714m-.006.006l.286-1m.574.85l.071.071m-.001-.001l-.071.071m.001.009l-.071-.071m.001-.009l.071-.071m-.001.001v.143m1.36.007v-.786m0-.004l-.071-.143m.001.003l-.143-.071m-.007.001h-.286m.006 0l-.143.071m.643.849l-.143.071m.003.009h-.357m-.003 0l-.143-.071m.003-.009l-.071-.143m-.009.003v-.143m0 .003l.071-.143m.009.003l.143-.071m-.003-.009h.357m.003 0l.143-.071m1.277.571l-.143.071m.003.009h-.286m.006 0l-.143-.071m-.007-.009l-.071-.143m.001.003v-.571m0 .001l.071-.143m-.001.003l.143-.071m.007.001h.286m-.006 0l.143.071m-.003-.001l.071.143m.009-.003v.143m0-.003l-.714.143m1.564.507l-.143-.071m.003-.009l-.071-.071m.001.001l-.071-.143m.001.003v-.429m0-.001l.071-.143m-.001.003l.071-.071m-.001.001l.143-.071m-.003.001h.214m.006 0l.143.071m-.003-.001l.071.071m-.001-.001l.071.143m-.001-.003v.429m0 .001l-.071.143m.001-.003l-.071.071m.001-.001l-.143.071m.003.009h-.214m1.134-1v1m0-.86l.071-.071m.009.001l.143-.071m-.003.001h.214m-.004 0l.143.071m.007-.001l.071.143m-.001-.003v.786m.93.004l-.143-.071m-.007-.009l-.071-.143m.001.003v-1.286m1.43 1.506v-.786m0-.004l-.071-.143m.001.003l-.143-.071m.003.001h-.286m-.004 0l-.143.071m.643.849l-.143.071m.003.009h-.357m-.003 0l-.143-.071m.003-.009l-.071-.143m.001.003v-.143m0 .003l.071-.143m-.001.003l.143-.071m-.003-.009h.357m.003 0l.143-.071m.707.651v-1.5m0 .57l.143-.071m.007.001h.286m-.006 0l.143.071m.007-.001l.071.071m-.001-.001l.071.143m-.001-.003v.429m0 .001l-.071.143m.001-.003l-.071.071m.001-.001l-.143.071m-.007.009h-.286m.006 0l-.143-.071m1.283-.009l.143.071m-.003.009h.286m.004 0l.143-.071m-.003-.009l.071-.143m-.001.003v-.071m0 .001l-.071-.143m.001.003l-.143-.071m.003.001h-.214m-.006 0l-.143-.071m.003-.009l-.071-.143m.001.003v-.071m0 .001l.071-.143m-.001.003l.143-.071m-.003.001h.214m.006 0l.143.071m.717.779l.071.071m-.001-.001l-.071.071m.001.009l-.071-.071m-.009-.009l.071-.071m.009.001v.143m.64-.073l.143.071m-.003.009h.286m.004 0l.143-.071m-.003-.009l.071-.143m-.001.003v-.071m0 .001l-.071-.143m.001.003l-.143-.071m.003.001h-.214m-.006 0l-.143-.071m.003-.009l-.071-.143m.001.003v-.071m0 .001l.071-.143m-.001.003l.143-.071m-.003.001h.214m.006 0l.143.071m1.357.849l-.143.071m-.007.009h-.286m.006 0l-.143-.071m.003-.009l-.071-.071m-.009.001l-.071-.143m.001.003v-.429m0-.001l.071-.143m-.001.003l.071-.071m.009.001l.143-.071m-.003.001h.286m-.006 0l.143.071m.647.929v-1m0-.5l-.071.071m.001-.001l.071.071m-.001-.001l.071-.071m-.001.001l-.071-.071m.001.001v.143m1.29 1.277l-.143.071m-.007.009h-.286m.006 0l-.143-.071m-.007-.009l-.071-.143m.001.003v-.571m0 .001l.071-.143m-.001.003l.143-.071m.007.001h.286m-.006 0l.143.071m.007-.001l.071.143m-.001-.003v.143m0-.003l-.714.143m1.354-.493v1m0-.86l.071-.071m-.001.001l.143-.071m-.003.001h.214m.006 0l.143.071m-.003-.001l.071.143m-.001-.003v.786m1.36-.076l-.143.071m.003.009h-.286m-.004 0l-.143-.071m.003-.009l-.071-.071m.001.001l-.071-.143m.001.003v-.429m0-.001l.071-.143m-.001.003l.071-.071m-.001.001l.143-.071m-.003.001h.286m.004 0l.143.071m1.207.849l-.143.071m.003.009h-.286m.006 0l-.143-.071m-.007-.009l-.071-.143m.001.003v-.571m0 .001l.071-.143m-.001.003l.143-.071m.007.001h.286m-.006 0l.143.071m-.003-.001l.071.143m.009-.003v.143m0-.003l-.714.143" stroke-width=".3"/><g class="D I"><path d="M178.46 177.69v-1.5m.64 1.5v-.786m0 .006l-.071-.143m.001-.007l-.143-.071m.003.001h-.214m-.006 0l-.143.071m.003-.001l-.071.071m1.141-.141h.571m-.351-.5v1.286m0 .004l.071.143m-.001-.003l.143.071m-.003-.001h.143m.287-1h.571m-.361-.5v1.286m0 .004l.071.143m.009-.003l.143.071m-.003-.001h.143m.497-1v1.5m0-1.43l.143-.071m-.003.001h.286m.004 0l.143.071m-.003-.001l.071.071m-.001.009l.071.143m.009-.003v.429m0 .001l-.071.143m-.009-.003l-.071.071m.001-.001l-.143.071m.003-.001h-.286m-.004 0l-.143-.071m1.293.001l.143.071m-.003-.001h.286m-.006 0l.143-.071m.007.001l.071-.143m-.001.003v-.071m0 .001l-.071-.143m.001-.007l-.143-.071m-.007.001h-.214m.004 0l-.143-.071m.003.001l-.071-.143m.001.003v-.071m0 .001l.071-.143m-.001-.007l.143-.071m-.003.001h.214m-.004 0l.143.071m.717.789l.071.071m-.001-.001l-.071.071m.001-.001l-.071-.071m.001.001l.071-.071m-.001.001v.143m0-.933l.071.071m-.001.009l-.071.071m.001-.001l-.071-.071m.001.001l.071-.071m-.001-.009v.143m1.79-.783l-1.286 1.929m2.856-1.929l-1.286 1.929m2.426-1.359v1.214m0 .006l-.071.143m.001-.003l-.071.071m.001-.001l-.143.071m.003-.001h-.214m-.006 0l-.143-.071m.643-.499l-.143.071m.003-.001h-.286m-.004 0l-.143-.071m.003.001l-.071-.071m.001.001l-.071-.143m.001.003v-.429m0-.001l.071-.143m-.001.003l.071-.071m-.001-.009l.143-.071m-.003.001h.286m.004 0l.143.071m.717.929v-1m0-.5l-.071.071m-.009-.001l.071.071m.009.009l.071-.071m-.001-.009l-.071-.071m.001.001v.143m.5.357h.571m-.361-.5v1.286m0 .004l.071.143m-.001-.003l.143.071m-.003-.001h.143m.507 0v-1.5m.64 1.5v-.786m0 .006l-.071-.143m.001-.007l-.143-.071m.003.001h-.214m-.006 0l-.143.071m.003-.001l-.071.071m2.001-.141v1m-.65-1v.786m0 .004l.071.143m.009-.003l.143.071m-.003-.001h.214m-.004 0l.143-.071m.007.001l.071-.071m.709.141v-1.5m0 .57l.143-.071m-.003.001h.286m.004 0l.143.071m-.003-.001l.071.071m-.001.009l.071.143m.009-.003v.429m0 .001l-.071.143m-.009-.003l-.071.071m.001-.001l-.143.071m.003-.001h-.286m-.004 0l-.143-.071m1.363-.069l.071.071m-.001-.001l-.071.071m.001-.001l-.071-.071m.001.001l.071-.071m-.001.001v.143m1.36-.073l-.143.071m-.007-.001h-.286m.006 0l-.143-.071m-.007.001l-.071-.071m.001.001l-.071-.143m.001.003v-.429m0-.001l.071-.143m-.001.003l.071-.071m-.001-.009l.143-.071m.007.001h.286m-.006 0l.143.071m.857.929l-.143-.071m.003.001l-.071-.071m.001.001l-.071-.143m.001.003v-.429m0-.001l.071-.143m-.001.003l.071-.071m-.001-.009l.143-.071m-.003.001h.214m.006 0l.143.071m-.003-.001l.071.071m-.001.009l.071.143m-.001-.003v.429m0 .001l-.071.143m.001-.003l-.071.071m.001-.001l-.143.071m.003-.001h-.214m1.144 0v-1m0 .15l.071-.071m-.001-.009l.143-.071m-.003.001h.214m-.004 0l.143.071m.007-.001l.071.143m-.001.007v.786m0-.786l.071-.143m-.001-.007l.143-.071m-.003.001h.214m.006 0l.143.071m-.003-.001l.071.143m-.001.007v.786m1.79-1.576l-1.286 1.929m2.426-.359v-.786m0 .006l-.071-.143m.001-.007l-.143-.071m.003.001h-.286m-.004 0l-.143.071m.643.859l-.143.071m.003-.001h-.357m-.003 0l-.143-.071m.003.001l-.071-.143m.001.003v-.143m0 .003l.071-.143m-.001-.007l.143-.071m-.003.001h.357m.003 0l.143-.071m1.287.571l-.143.071m-.007-.001h-.286m.006 0l-.143-.071m-.007.001l-.071-.143m.001.003v-.571m0 .001l.071-.143m-.001-.007l.143-.071m.007.001h.286m-.006 0l.143.071m.007-.001l.071.143m-.001.007v.143m0-.003l-.714.143m1.564.497l-.143-.071m.003.001l-.071-.071m.001.001l-.071-.143m.001.003v-.429m0-.001l.071-.143m-.001.003l.071-.071m-.001-.009l.143-.071m-.003.001h.214m.006 0l.143.071m-.003-.001l.071.071m-.001.009l.071.143m-.001-.003v.429m0 .001l-.071.143m.001-.003l-.071.071m.001-.001l-.143.071m.003-.001h-.214m1.144-1v1m0-.85l.071-.071m-.001-.009l.143-.071m-.003.001h.214m.006 0l.143.071m-.003-.001l.071.143m-.001.007v.786m.64-.076l.214.071m.006-.001h.357m-.007 0l.143-.071m.007.001l.071-.071m-.001.001l.071-.143m-.001.003v-.143m0-.007l-.071-.143m.001.003l-.071-.071m.001.001l-.143-.071m-.007.001l-.286-.071m.006.001l-.143-.071m.003.001l-.071-.071m-.009-.009l-.071-.143m.001.003v-.143m0 .003l.071-.143m-.001.003l.071-.071m.009-.009l.143-.071m-.003.001h.357m.003 0l.214.071m.856 1.429l-.143-.071m-.007.001l-.071-.071m.001.001l-.071-.143m.001.003v-.429m0-.001l.071-.143m-.001.003l.071-.071m-.001-.009l.143-.071m.007.001h.214m-.004 0l.143.071m-.003-.001l.071.071m.009.009l.071.143m-.001-.003v.429m0 .001l-.071.143m.001-.003l-.071.071m-.009-.001l-.143.071m.003-.001h-.214m1.354 0l-.143-.071m.003.001l-.071-.143m.001.003v-1.286m1.43.496v1m-.64-1v.786m0 .004l.071.143m-.001-.003l.143.071m-.003-.001h.214m-.004 0l.143-.071m.007.001l.071-.071m.499-.859h.571m-.361-.5v1.286m0 .004l.071.143m-.001-.003l.143.071m.007-.001h.143m.497 0v-1m0-.5l-.071.071m.001-.001l.071.071m-.001.009l.071-.071m-.001-.009l-.071-.071m.001.001v.143m.93 1.357l-.143-.071m.003.001l-.071-.071m-.009.001l-.071-.143m.001.003v-.429m0-.001l.071-.143m-.001.003l.071-.071m.009-.009l.143-.071m-.003.001h.214m-.004 0l.143.071m.007-.001l.071.071m-.001.009l.071.143m-.001-.003v.429m0 .001l-.071.143m.001-.003l-.071.071m.001-.001l-.143.071m-.007-.001h-.214m1.144-1v1m0-.85l.071-.071m-.001-.009l.143-.071m.007.001h.214m-.004 0l.143.071m-.003-.001l.071.143m-.001.007v.786m.65-.076l.143.071m-.003-.001h.286m.004 0l.143-.071m-.003.001l.071-.143m-.001.003v-.071m0 .001l-.071-.143m.001-.007l-.143-.071m.003.001h-.214m-.006 0l-.143-.071m.003.001l-.071-.143m.001.003v-.071m0 .001l.071-.143m-.001-.007l.143-.071m-.003.001h.214m.006 0l.143.071"/><path d="M179.1 174.62l-.143.071m.003-.001h-.286m-.004 0l-.143-.071m.003.001l-.071-.071m.001.001l-.071-.143m.001.003v-.429m0-.001l.071-.143m-.001.003l.071-.071m-.001-.009l.143-.071m-.003.001h.286m.004 0l.143.071m.647.929v-1m0 .29l.071-.143m-.001.003l.071-.071m-.001-.009l.143-.071m-.003.001h.143m1.077.93l-.143.071m-.007-.001h-.286m.006 0l-.143-.071m-.007.001l-.071-.143m.001.003v-.571m0 .001l.071-.143m-.001-.007l.143-.071m.007.001h.286m-.006 0l.143.071m.007-.001l.071.143m-.001.007v.143m0-.003l-.714.143m1.994.497v-.786m0 .006l-.071-.143m.001-.007l-.143-.071m.003.001h-.286m-.004 0l-.143.071m.643.859l-.143.071m.003-.001h-.357m-.003 0l-.143-.071m.003.001l-.071-.143m.001.003v-.143m0 .003l.071-.143m-.001-.007l.143-.071m-.003.001h.357m.003 0l.143-.071m.497-.359h.571m-.351-.5v1.286m0 .004l.071.143m-.001-.003l.143.071m-.003-.001h.143m.497 0v-1m0-.5l-.071.071m.001-.001l.071.071m-.001.009l.071-.071m.009-.009l-.071-.071m-.009.001v.143m.58.357l.357 1m-.007 0l.357-1m1.143.93l-.143.071m.003-.001h-.286m-.004 0l-.143-.071m.003.001l-.071-.143m.001.003v-.571m0 .001l.071-.143m-.001-.007l.143-.071m-.003.001h.286m.004 0l.143.071m-.003-.001l.071.143m-.001.007v.143m0-.003l-.714.143m3.144.427l-.143.071m.003-.001h-.286m-.004 0l-.143-.071m.003.001l-.071-.071m.001.001l-.071-.143m.001.003v-.429m0-.001l.071-.143m-.001.003l.071-.071m-.001-.009l.143-.071m-.003.001h.286m.004 0l.143.071m.857.929l-.143-.071m.003.001l-.071-.071m.001.001l-.071-.143m-.009.003v-.429m0-.001l.071-.143m.009.003l.071-.071m-.001-.009l.143-.071m-.003.001h.214m-.004 0l.143.071m.007-.001l.071.071m-.001.009l.071.143m-.001-.003v.429m0 .001l-.071.143m.001-.003l-.071.071m.001-.001l-.143.071m-.007-.001h-.214m1.144 0v-1m0 .15l.071-.071m-.001-.009l.143-.071m.007.001h.214m-.004 0l.143.071m-.003-.001l.071.143m.009.007v.786m0-.786l.071-.143m-.001-.007l.143-.071m-.003.001h.214m-.004 0l.143.071m.007-.001l.071.143m-.001.007v.786m.71-.006v-1m0 .15l.071-.071m-.001-.009l.143-.071m.007.001h.214m-.004 0l.143.071m-.003-.001l.071.143m.009.007v.786m0-.786l.071-.143m-.001-.007l.143-.071m-.003.001h.214m-.004 0l.143.071m.007-.001l.071.143m-.001.007v.786m.93-.006l-.143-.071m-.007.001l-.071-.071m.001.001l-.071-.143m.001.003v-.429m0-.001l.071-.143m-.001.003l.071-.071m-.001-.009l.143-.071m.007.001h.214m-.004 0l.143.071m-.003-.001l.071.071m.009.009l.071.143m-.001-.003v.429m0 .001l-.071.143m.001-.003l-.071.071m-.009-.001l-.143.071m.003-.001h-.214m1.144-1v1m0-.85l.071-.071m-.001-.009l.143-.071m-.003.001h.214m.006 0l.143.071m-.003-.001l.071.143m-.001.007v.786m.65-.076l.143.071m-.003-.001h.286m-.006 0l.143-.071m.007.001l.071-.143m-.001.003v-.071m0 .001l-.071-.143m.001-.007l-.143-.071m-.007.001h-.214m.004 0l-.143-.071m.003.001l-.071-.143m.001.003v-.071m0 .001l.071-.143m-.001-.007l.143-.071m-.003.001h.214m-.004 0l.143.071m1.787.859l.143.071m.007-.001h.286m-.006 0l.143-.071m-.003.001l.071-.143m.009.003v-.071m0 .001l-.071-.143m-.009-.007l-.143-.071m.003.001h-.214m.004 0l-.143-.071m-.007.001l-.071-.143m.001.003v-.071m0 .001l.071-.143m-.001-.007l.143-.071m.007.001h.214m-.004 0l.143.071m.717.929v-1.5m.64 1.5v-.786m0 .006l-.071-.143m.001-.007l-.143-.071m.003.001h-.214m-.006 0l-.143.071m.003-.001l-.071.071m2.001.859v-.786m0 .006l-.071-.143m.001-.007l-.143-.071m-.007.001h-.286m.006 0l-.143.071m.643.859l-.143.071m.003-.001h-.357m-.003 0l-.143-.071m.003.001l-.071-.143m-.009.003v-.143m0 .003l.071-.143m.009-.007l.143-.071m-.003.001h.357m.003 0l.143-.071m.707.641v-1m0 .29l.071-.143m-.001.003l.071-.071m.009-.009l.143-.071m-.003.001h.143m1.067.93l-.143.071m.003-.001h-.286m-.004 0l-.143-.071m.003.001l-.071-.143m.001.003v-.571m0 .001l.071-.143m-.001-.007l.143-.071m-.003.001h.286m.004 0l.143.071m-.003-.001l.071.143m-.001.007v.143m0-.003l-.714.143m3.144.497v-.786m0 .006l-.071-.143m.001-.007l-.143-.071m.003.001h-.286m-.004 0l-.143.071m.643.859l-.143.071m.003-.001h-.357m-.003 0l-.143-.071m.003.001l-.071-.143m.001.003v-.143m0 .003l.071-.143m-.001-.007l.143-.071m-.003.001h.357m.003 0l.143-.071m.927.641l-.143-.071m.003.001l-.071-.143m.001.003v-1.286m.78 1.496v-1m0-.5l-.071.071m.001-.001l.071.071m-.001.009l.071-.071m-.001-.009l-.071-.071m.001.001v.143m.72 1.357v-1.5m.14.93l.428.571m.002-1.001l-.571.571m1.781.359l-.143.071m.003-.001h-.286m-.004 0l-.143-.071m.003.001l-.071-.143m.001.003v-.571m0 .001l.071-.143m-.001-.007l.143-.071m-.003.001h.286m.004 0l.143.071m-.003-.001l.071.143m-.001.007v.143m0-.003l-.714.143m2.504-.503v1m0-.85l.071-.071m-.001-.009l.143-.071m-.003.001h.214m.006 0l.143.071m-.003-.001l.071.143m-.001.007v.786m.93-.006l-.143-.071m.003.001l-.071-.071m.001.001l-.071-.143m.001.003v-.429m0-.001l.071-.143m-.001.003l.071-.071m-.001-.009l.143-.071m-.003.001h.214m.006 0l.143.071m-.003-.001l.071.071m-.001.009l.071.143m-.001-.003v.429m0 .001l-.071.143m.001-.003l-.071.071m.001-.001l-.143.071m.003-.001h-.214m1.134-1v1m0-.85l.071-.071m-.001-.009l.143-.071m.007.001h.214m-.004 0l.143.071m-.003-.001l.071.143m.009.007v.786m2.5-.076l-.143.071m-.007-.001h-.286m.006 0l-.143-.071m-.007.001l-.071-.071m.001.001l-.071-.143m.001.003v-.429m0-.001l.071-.143m-.001.003l.071-.071m-.001-.009l.143-.071m.007.001h.286m-.006 0l.143.071m.857.929l-.143-.071m.003.001l-.071-.071m.001.001l-.071-.143m.001.003v-.429m0-.001l.071-.143m-.001.003l.071-.071m-.001-.009l.143-.071m-.003.001h.214m.006 0l.143.071m-.003-.001l.071.071m-.001.009l.071.143m-.001-.003v.429m0 .001l-.071.143m.001-.003l-.071.071m.001-.001l-.143.071m.003-.001h-.214m1.144 0v-1m0 .15l.071-.071m-.001-.009l.143-.071m-.003.001h.214m-.004 0l.143.071m.007-.001l.071.143m-.001.007v.786m0-.786l.071-.143m-.001-.007l.143-.071m-.003.001h.214m.006 0l.143.071m-.003-.001l.071.143m-.001.007v.786m.72-.006v-1m0 .15l.071-.071m-.001-.009l.143-.071m-.003.001h.214m-.004 0l.143.071m.007-.001l.071.143m-.001.007v.786m0-.786l.071-.143m-.001-.007l.143-.071m-.003.001h.214m.006 0l.143.071m-.003-.001l.071.143m-.001.007v.786m1.29-.076l-.143.071m-.007-.001h-.286m.006 0l-.143-.071m.003.001l-.071-.143m-.009.003v-.571m0 .001l.071-.143m.009-.007l.143-.071m-.003.001h.286m-.006 0l.143.071m.007-.001l.071.143m-.001.007v.143m0-.003l-.714.143m1.354.497v-1m0 .29l.071-.143m-.001.003l.071-.071m-.001-.009l.143-.071m.007.001h.143m1.137.93l-.143.071m.003-.001h-.286m-.004 0l-.143-.071m.003.001l-.071-.071m.001.001l-.071-.143m.001.003v-.429m0-.001l.071-.143m-.001.003l.071-.071m-.001-.009l.143-.071m-.003.001h.286m.004 0l.143.071m.647.929v-1m0-.5l-.071.071m-.009-.001l.071.071m.009.009l.071-.071m-.001-.009l-.071-.071m.001.001v.143m1.35 1.357v-.786m0 .006l-.071-.143m.001-.007l-.143-.071m.003.001h-.286m-.004 0l-.143.071m.643.859l-.143.071m.003-.001h-.357m-.003 0l-.143-.071m.003.001l-.071-.143m.001.003v-.143m0 .003l.071-.143m-.001-.007l.143-.071m-.003.001h.357m.003 0l.143-.071m.927.641l-.143-.071m.003.001l-.071-.143m.001.003v-1.286M197 191.51v3m64-3v6.5"/></g></g><g class="I B C E"><g class="F"><path d="M140.44 90.551v-4.064m1.52 4.064v-4.064" class="J"/><path d="M142.21 88.519h2.794m-4.824 0h-2.794" class="D"/></g><g class="D G"><use xlink:href="#B"/><use xlink:href="#C"/></g></g><g class="F B D"><path d="M99.466 131.95h-.406m.406-2.54h-.406m.406-2.54h-.406m.406-2.54h-.406" class="C E"/><path d="M98.196 131.83h.864v.254h-.864zm0-2.54h.864v.254h-.864zm0-2.54h.864v.254h-.864zm0-2.54h.864v.254h-.864z" fill="#840000"/><path d="M99.466 124.33h3.81" class="C E"/></g><path d="M101.73 123.92h-.726m.366 0v-1.27m0 0l-.12.181m0-.001l-.121.12m.001 0l-.12.06" class="B C D E H"/><path d="M99.466 126.87h3.81" class="B C D E F"/><use xlink:href="#D" class="B C D E H"/><path d="M99.466 129.41h3.81" class="B C D E F"/><use xlink:href="#E" class="B C D E H"/><path d="M99.466 131.95h3.81" class="B C D E F"/><path d="M101.61 130.69v.847m-.3-1.327l-.302.907m.002-.007h.786" class="B C D E H"/><g class="B C D E G I"><use xlink:href="#F"/><use xlink:href="#G"/></g><g class="B C D E I"><path d="M103.28 126.87h1.27v-1.27l1.27 1.27-1.27 1.27v-1.27" class="F"/><use xlink:href="#H" class="G"/></g><g class="I B C D E"><path d="M156.74 98.679v-2.54m0 0h-1.27m1.27 0v-3.81m0 0h-1.27m1.27 0v-3.81m0 0h-1.27m1.27 0v-3.81m0 0h-1.27m1.27 0v-2.54m0 0h16.51m0 16.51h-16.51m16.51-2.54v2.54m0-6.35v3.81m0-7.62v3.81m0-7.62v3.81m0-6.35v2.54m1.27 11.43h-1.27m1.27-3.81h-1.27m1.27-3.81h-1.27m1.27-3.81h-1.27m-17.78 0h-2.54" class="F"/><use xlink:href="#I" class="G"/><use xlink:href="#J" class="H"/><path d="M155.47 88.519h-2.54" class="F"/><use xlink:href="#K" class="G"/><use xlink:href="#L" class="H"/><path d="M155.47 92.329h-2.54" class="F"/><use xlink:href="#M" class="G"/><use xlink:href="#N" class="H"/><path d="M155.47 96.139h-2.54" class="F"/><use xlink:href="#O" class="G"/><path d="M154.4 95.075v.677m-.24-1.064l-.242.726m-.008 0h.629" class="H"/><path d="M174.52 96.139h2.54" class="F"/><use xlink:href="#P" class="G"/><use xlink:href="#Q" class="H"/><path d="M174.52 92.329h2.54" class="F"/><use xlink:href="#R" class="G"/><use xlink:href="#S" class="H"/><path d="M174.52 88.519h2.54" class="F"/><use xlink:href="#T" class="G"/><path d="M175.45 87.117h.677m.003 0l-.435 1.016" class="H"/><path d="M174.52 84.709h2.54" class="F"/><use xlink:href="#U" class="G"/><use xlink:href="#V" class="H"/><g class="G"><use xlink:href="#W"/><use xlink:href="#X"/></g></g><g class="B C D E I"><path d="M152.93 96.139v1.27h-1.27l1.27 1.27 1.27-1.27h-1.27" class="F"/><use xlink:href="#Y" class="G"/></g><g class="B C D E I"><path d="M177.06 96.139v1.27h-1.27l1.27 1.27 1.27-1.27h-1.27" class="F"/><use xlink:href="#Y" x="24.13" class="G"/></g><g class="B C D E I"><path d="M137.39 88.519h-1.27v-1.27l-1.27 1.27 1.27 1.27v-1.27" class="F"/><use xlink:href="#Z" class="G"/></g><g class="I B C E"><g class="F"><path d="M140.31 83.972v-4.064m1.52 4.064v-4.064" class="J"/><path d="M142.09 81.94h2.794m-4.824 0h-2.794" class="D"/></g><g class="D G"><use xlink:href="#a"/><use xlink:href="#b"/></g></g><g class="B C D E I"><path d="M136.96 81.94h-1.27v-1.27l-1.27 1.27 1.27 1.27v-1.27" class="F"/><use xlink:href="#c" class="G"/></g><g class="B C D E I"><path d="M177.06 84.709h1.27v1.27l1.27-1.27-1.27-1.27v1.27" class="F"/><use xlink:href="#d" class="G"/></g><g class="E I B D"><g class="F"><path d="M102.46 84.277h8.941v11.684h-8.941z"/><path d="M102.44 85.801H99.9" class="C"/></g><g class="C"><use xlink:href="#e" class="G"/><path d="M101.53 85.384h-.726m.366 0v-1.27m0 0l-.12.181m0 0l-.121.12m.001.001l-.12.06" class="H"/><path d="M102.41 87.96h-2.54" class="F"/><use xlink:href="#f" class="G"/><use xlink:href="#g" class="H"/><path d="M102.41 90.094h-2.54" class="F"/><use xlink:href="#h" class="G"/><use xlink:href="#i" class="H"/><path d="M102.39 92.253h-2.54" class="F"/><use xlink:href="#j" class="G"/><path d="M101.36 90.989v.847m-.3-1.331l-.302.907m-.008 0h.786" class="H"/><path d="M102.41 94.463h-2.54" class="F"/><use xlink:href="#k" class="G"/><use xlink:href="#l" class="H"/><use xlink:href="#m" class="G"/></g></g><path fill="#840000" fill-rule="evenodd" d="M34.087 194.11l-.102-.05-.279-.179-.356-.228-.457-.305-.432-.305-.355-.228-.254-.178-.102-.051-.076.025-.508.254-.178.102-.28.102-.126.025-.026-.025-.101-.204-.153-.38-.228-.483-.229-.559-.254-.61-.28-.61-.228-.609-.228-.533-.178-.432-.102-.305-.05-.127.152-.152.254-.178.508-.432.533-.66.305-.737.127-.813-.102-.762-.304-.71-.508-.661-.61-.483-.711-.305-.813-.101-.762.076-.737.305-.66.508-.28.305-.38.66-.229.711-.025.178.05.787.229.737.406.66.56.56.075.05.28.203.178.127.127.127-.991 2.388-.152.38-.28.661-.228.559-.204.457-.127.305-.076.102v.025h-.076l-.178-.05-.813-.407-.127-.051-.101.05-.229.153-.355.254-.432.28-.407.279-.38.254-.28.178-.127.076H20.6l-.102-.076-.229-.178-.33-.305-.914-.914-.305-.33-.203-.229-.076-.102h0l.076-.127.178-.279.228-.381.305-.432.813-1.168-.457-1.092-.127-.33-.178-.407-.127-.28-.051-.126-.127-.051-.28-.051-.431-.102-.534-.101-.482-.076-.432-.102-.33-.05-.153-.026-.025-.026-.025-.076-.026-.152v-.254l-.025-.432v-.686l.025-.584v-.457l.026-.28v-.127h0l.152-.025.305-.076.457-.076.508-.102.05-.025.509-.102.457-.076.305-.076.127-.051.025-.026.102-.203.152-.33.356-.813.152-.38.102-.28.025-.127h0l-.076-.127-.178-.254-.254-.381-.33-.457v-.026l-.559-.838-.228-.381h0l.101-.127.229-.254.33-.356.94-.94.305-.279.177-.127.102-.05h0l.127.101.28.178.838.559.025.025.457.305.356.254.28.178.1.05h.026l.178-.05.33-.102.381-.152.407-.178.38-.153.28-.127.127-.076h0l.05-.152.077-.33.102-.458.101-.558.026-.077.101-.533.076-.432.051-.305.051-.127.076-.025.254-.025h1.854l.407.025.305.025.127.026h0l.05.152.077.33.076.483.127.533v.102l.101.533.102.432.05.305.052.102.025.025.229.102.355.152.432.178 1.016.406 1.27-.863.102-.077.457-.304.355-.254.254-.153.127-.05h0l.127.101.254.229.33.33.382.406.304.28.33.355.23.229.126.152.026.102v.05l-.077.128-.177.279-.28.381-.305.432-.228.38-.28.407-.177.305-.051.152v.051l.101.254.127.356.204.457.431.99.635.128.407.05.559.127.508.102.838.152.025 2.998-.127.05-.127.026-.305.076-.431.076-.508.102-.432.076-.457.102-.458.076-.304.61-.153.406-.178.406-.152.407-.127.279-.025.178.05.101.178.254.229.381.61.864.253.381.229.381-.025.102-.178.203-.89.889-.406.38-.33.306-.228.203z" class="B D F"/><g class="I B E"><g class="F"><path stroke-width=".254" d="M93.523 93.447h5.08v2.032h-5.08z"/><path d="M98.603 94.463h1.27m-6.35 0h-1.27" class="C D"/></g><g class="C D G"><use xlink:href="#n"/><use xlink:href="#o"/></g></g><g class="F B D E I"><path d="M105.71 123.73h-.605m.005 0l-.06.605m0 .005l.06-.06m0 0l.121-.06m-.001 0h.302m-.002 0l.12.06m0 0l.06.06m0 0l.06.12m0 0v.302m0-.002l-.06.121m0-.001l-.06.06m0 0l-.12.06m0 0h-.302m.002 0l-.121-.06m.001 0l-.06-.06m1.09-1.15l.423 1.27m-.003 0l.423-1.27m.667 0h.121m-.001 0l.12.06m0 0l.06.06m0 0l.06.12m0 .01l.06.242m0-.002v.302m0-.002l-.06.242m0-.002l-.06.121m0-.001l-.06.06m0 0l-.12.06m0 0h-.121m.001 0l-.12-.06m0 0l-.06-.06m0 0l-.06-.121m0 .001l-.06-.242m0 .002v-.302m0 .002l.06-.242m0 .002l.06-.12m0-.01l.06-.06m0 0l.12-.06" class="C"/><path d="m103.28 124.33 1.111 1.27h4.842v-2.54h-4.842z"/><path d="M105.05 129.72h.605m-.725.36l.423-1.27m-.003 0l.423 1.27m.367-.06l.181.06m-.001 0h.302m-.002 0l.12-.06m0 0l.06-.06m0 0l.06-.121m0 .001v-.12m0 0l-.06-.121m0 .001l-.06-.06m0 0l-.12-.06m0 0l-.242-.06m.002 0l-.121-.06m.001 0l-.06-.06m0 0l-.06-.12m0 0v-.121m0 .001l.06-.12m0-.01l.06-.06m0 0l.121-.06m-.001 0h.302m-.002 0l.181.06m.239 1.33h.968m.242-.18l.181.06m-.001 0h.302m.008 0l.12-.06m0 0l.06-.06m0 0l.06-.121m0 .001v-.12m0 0l-.06-.121m0 .001l-.06-.06m0 0l-.12-.06m0 0l-.242-.06m-.008 0l-.121-.06m.001 0l-.06-.06m0 0l-.06-.12m0 0v-.121m0 .001l.06-.12m0-.01l.06-.06m0 0l.121-.06m-.001 0h.302m.008 0l.181.06m.539 1.21v-1.27m0 0h.302m.008 0l.181.06m-.001 0l.121.121m-.001-.001l.06.12m0 .01l.06.242m0-.002v.181m0-.001l-.06.242m0-.002l-.06.121m0-.001l-.121.121m.001-.001l-.181.06m.001 0h-.302m1.202-.36h.605m-.725.36l.423-1.27m-.003 0l.423 1.27" class="C"/><path d="m103.28 129.41 1.111 1.27h8.168v-2.54h-8.168z"/><path d="M178.83 88.826h.605m-.725.363l.423-1.27m.007 0l.423 1.27m.357-.06l.181.06m-.001 0h.302m.008 0l.12-.06m0 0l.06-.06m0-.001l.06-.121m0 0v-.12m0-.001l-.06-.121m0 .001l-.06-.06m0-.001l-.12-.06m0 0l-.242-.06m-.008-.001l-.121-.06m.001 0l-.06-.06m0-.001l-.06-.12m0-.001v-.121m0 0l.06-.12m0-.001l.06-.06m0 0l.121-.06m-.001-.001h.302m.008 0l.181.06m.239 1.331h.968m.242-.181l.181.06m-.001 0h.302m-.002 0l.12-.06m0 0l.06-.06m.01-.001l.06-.121m0 0v-.12m0-.001l-.06-.121m0 .001l-.06-.06m-.01-.001l-.12-.06m0 0l-.242-.06m.002-.001l-.121-.06m.001 0l-.06-.06m0-.001l-.06-.12m0-.001v-.121m0 0l.06-.12m0-.001l.06-.06m0 0l.121-.06m-.001-.001h.302m-.002 0l.181.06m1.279 1.089l-.06.06m0 .001l-.181.06m-.009 0h-.12m0 0l-.181-.06m.001 0l-.121-.121m.001 0l-.06-.121m0 0l-.06-.242m0 0v-.181m0 0l.06-.242m0 0l.06-.12m0-.001l.121-.121m-.001 0l.181-.06m-.001-.001h.12m0 0l.181.06m.009.001l.06.06m1.14 1.149h-.605m.005 0v-1.27" class="C"/><path d="m177.06 88.519 1.111 1.27h8.108v-2.54h-8.108z"/><path d="M148.17 78.183v.605m0 0l.605.06m-.005.001l-.06-.06m0-.001l-.06-.121m0 0v-.302m0 0l.06-.12m0-.001l.06-.06m0-.001l.12-.06m0 0h.302m.008 0l.121.06m-.001 0l.06.06m0 .001l.06.12m0 .001v.302m0 0l-.06.121m0 0l-.06.06m-1.15-1.088l1.27-.423m0 0l-1.27-.423m0-.666v-.121m0 0l.06-.12m0-.001l.06-.06m0 0l.12-.06m0-.001l.242-.06m-.002 0h.302m-.002 0l.242.06m.008 0l.121.06m-.001.001l.06.06m0 0l.06.12m0 .001v.121m0 0l-.06.12m0 .001l-.06.06m0 .001l-.121.06m.001 0l-.242.06m-.008 0h-.302m.002 0l-.242-.06m.002 0l-.12-.06m0 0l-.06-.06m0-.001l-.06-.12" class="C"/><path d="m148.77 80.62 1.27-1.111v-4.842h-2.54v4.842z"/><path d="M142.94 92.999v-1.27m0 0h.484m-.004 0l.121.06m-.001.001l.06.06m0 0l.06.12m0 .001v.181m0 .001l-.06.12m0 .001l-.06.06m0 0l-.121.06m.001.001h-.484m1.154-.666l.302 1.27m-.002 0l.242-.907m-.002 0l.242.907m-.002 0l.302-1.27m.488 1.27v-1.27m0 0l.423.907m-.003 0l.423-.907m.007 0v1.27m.3.121h.968m.542-1.391h.242m-.002 0l.121.06m-.001.001l.12.121m0 0l.06.242m0 0v.423m0 0l-.06.242m0 0l-.12.121m0 0l-.121.06m.001 0h-.242m.002 0l-.12-.06m0 0l-.121-.121m.001 0l-.06-.242m0 0v-.423m0 0l.06-.242m0 0l.121-.121m-.001 0l.12-.06m1.09-.001v1.028m0 0l.06.121m0 0l.06.06m0 .001l.12.06m0 0h.242m-.002 0l.121-.06m-.001 0l.06-.06m0-.001l.06-.121m0 0v-1.028m.43 0h.726m-.366 1.27v-1.27" class="C"/><path d="m152.93 92.329-1.111-1.27h-10.103v2.54h10.103z"/><path d="M105.05 132.26h.605m-.725.36l.423-1.27m-.003 0l.423 1.27m.367-.06l.181.06m-.001 0h.302m-.002 0l.12-.06m0 0l.06-.06m0 0l.06-.121m0 .001v-.12m0 0l-.06-.121m0 .001l-.06-.06m0 0l-.12-.06m0 0l-.242-.06m.002 0l-.121-.06m.001 0l-.06-.06m0 0l-.06-.12m0 0v-.121m0 .001l.06-.12m0-.01l.06-.06m0 0l.121-.06m-.001 0h.302m-.002 0l.181.06m.239 1.33h.968m.242-.18l.181.06m-.001 0h.302m.008 0l.12-.06m0 0l.06-.06m0 0l.06-.121m0 .001v-.12m0 0l-.06-.121m0 .001l-.06-.06m0 0l-.12-.06m0 0l-.242-.06m-.008 0l-.121-.06m.001 0l-.06-.06m0 0l-.06-.12m0 0v-.121m0 .001l.06-.12m0-.01l.06-.06m0 0l.121-.06m-.001 0h.302m.008 0l.181.06m1.269 1.09l-.06.06m0 0l-.181.06m.001 0h-.12m0 0l-.181-.06m-.009 0l-.121-.121m.001.001l-.06-.121m0 .001l-.06-.242m0 .002v-.181m0 .001l.06-.242m0 .002l.06-.12m0-.01l.121-.121m-.001.001l.181-.06m.009 0h.12m0 0l.181.06m-.001 0l.06.06m1.15 1.15h-.605m-.005 0v-1.27" class="C"/><path d="m103.28 131.95 1.111 1.27h8.108v-2.54h-8.108z"/><path d="M183.25 84.547l-.06.06m0 .001l-.181.06m.001 0h-.12m0 0l-.181-.06m.001 0l-.121-.121m.001 0l-.06-.121m0 0l-.06-.242m0 0v-.181m0-.001l.06-.242m0 0l.06-.12m0 0l.121-.121m-.001 0l.181-.06m-.001-.001h.12m0 0l.181.06m-.001.001l.06.06m.79-.121h.242m-.002 0l.121.06m-.001.001l.12.121m0 0l.06.242m0 0v.423m0 0l-.06.242m0 0l-.12.121m0 0l-.121.06m.001 0h-.242m.002 0l-.12-.06m0 0l-.121-.121m.001 0l-.06-.242m0 0v-.423m0 0l.06-.242m0 0l.121-.121m-.001 0l.12-.06m1.09 1.269v-1.27m0 0l.726 1.27m-.006 0v-1.27m1.03.605h-.423m.003.665v-1.27m0 0h.605m.485 1.27v-1.27m1.33 1.27l-.423-.605m-.307.605v-1.27m0 0h.484m.006 0l.121.06m-.001.001l.06.06m0 0l.06.12m0 .001v.181m0 .001l-.06.12m0 0l-.06.06m0 .001l-.121.06m.001 0h-.484m1.264.605v-1.27m0 0l.423.907m-.003 0l.423-.907m.007 0v1.27" class="C"/><path d="m180.7 83.998 1.111 1.27h9.68v-2.54h-9.68z"/><path d="M178.83 92.636h.605m-.725.363l.423-1.27m.007 0l.423 1.27m.357-.06l.181.06m-.001 0h.302m.008 0l.12-.06m0 0l.06-.06m0-.001l.06-.121m0 0v-.12m0-.001l-.06-.121m0 .001l-.06-.06m0-.001l-.12-.06m0 0l-.242-.06m-.008-.001l-.121-.06m.001 0l-.06-.06m0-.001l-.06-.12m0-.001v-.121m0 0l.06-.12m0-.001l.06-.06m0 0l.121-.06m-.001-.001h.302m.008 0l.181.06m.239 1.331h.968m.242-.181l.181.06m-.001 0h.302m-.002 0l.12-.06m0 0l.06-.06m.01-.001l.06-.121m0 0v-.12m0-.001l-.06-.121m0 .001l-.06-.06m-.01-.001l-.12-.06m0 0l-.242-.06m.002-.001l-.121-.06m.001 0l-.06-.06m0-.001l-.06-.12m0-.001v-.121m0 0l.06-.12m0-.001l.06-.06m0 0l.121-.06m-.001-.001h.302m-.002 0l.181.06m.549 1.21v-1.27m0 0h.302m-.002 0l.181.06m-.001.001l.121.121m-.001 0l.06.12m.01.001l.06.242m0 0v.181m0 0l-.06.242m0 0l-.06.121m-.01 0l-.121.121m.001 0l-.181.06m.001 0h-.302m1.212-.363h.605m-.725.363l.423-1.27m-.003 0l.423 1.27" class="C"/><path d="m177.06 92.329 1.111 1.27h8.168v-2.54h-8.168z"/><path d="M89.877 88.63v-1.27m0 0h.484m0 0l.121.06m0 .001l.06.06m0 .001l.06.12m.001 0v.181m0 .001l-.06.12m-.001.001l-.06.06m0 0l-.121.06m0 .001h-.484m1.149-.666l.302 1.27m.001 0l.242-.907m-.001 0l.242.907m0 0l.302-1.27m.484 1.27v-1.27m0 0l.423.907m.001.001l.423-.907m0-.001v1.27m.303.122h.968m.543-1.392h.242m0 0l.121.06m0 .001l.12.121m.001 0l.06.242m.001 0v.423m0 0l-.06.242m-.001 0l-.12.121m-.001 0l-.121.06m0 0h-.242m0 0l-.12-.06m-.001 0l-.121-.121m.001 0l-.06-.242m-.001 0v-.423m0 0l.06-.242m.001 0l.121-.121m-.001 0l.12-.06m1.09-.001v1.028m0 .001l.06.121m0 0l.06.06m.001 0l.12.06m.001 0h.242m0 0l.121-.06m0 0l.06-.06m0 0l.06-.121m.001 0v-1.028m.423-.001h.726m-.363 1.27v-1.27" class="C"/><path d="m99.873 87.96-1.111-1.27H88.659v2.54h10.103z"/><path d="M95.769 84.16h-.605m0 0l-.06.605m0 0l.06-.06m0-.001l.121-.06m0 0h.302m0 0l.12.06m.001 0l.06.06m.001.001l.06.12m0 .001v.302m0 0l-.06.121m0 0l-.06.06m-.001.001l-.12.06m-.001 0h-.302m0 0l-.121-.06m0 0l-.06-.06m1.088-1.15l.423 1.27m0 0l.423-1.27m.666 0h.121m0 0l.12.06m.001.001l.06.06m0 0l.06.12m.001.001l.06.242m0 0v.302m0 0l-.06.242m0 0l-.06.121m-.001 0l-.06.06m0 .001l-.12.06m-.001 0h-.121m0 0l-.12-.06m-.001 0l-.06-.06m-.001-.001l-.06-.121m0 0l-.06-.242m0 0v-.302m0 0l.06-.242m0 0l.06-.12m0-.001l.06-.06m.001 0l.12-.06" class="C"/><path d="m99.898 84.76-1.111-1.27h-4.842v2.54h4.842z"/></g><path d="M82.444 115.94v-1.27m0 0h.484m0 0l.121.06m0 0l.06.06m.001 0l.06.12m0 .01v.181m0-.001l-.06.12m0 0l-.06.06m-.001 0l-.121.06m0 0h-.484m1.27.6v-.847m0 .247l.06-.121m.001.001l.06-.06m.001 0l.12-.06m0 0h.121m.605.84l-.121-.06m0 0l-.06-.06m0 0l-.06-.121m-.001.001v-.363m0 .003l.06-.121m.001.001l.06-.06m0 0l.121-.06m0 0h.181m.001 0l.12.06m0 0l.06.06m.001 0l.06.121m.001-.001v.363m0-.003l-.06.121m-.001-.001l-.06.06m-.001 0l-.12.06m0 0h-.181m1.511-.84v1.028m0 .002l-.06.12m0 0l-.06.06m-.001 0l-.121.06m0 0h-.181m0 0l-.121-.06m.544-.43l-.12.06m-.001 0h-.242m0 0l-.121-.06m0 0l-.06-.06m0 0l-.06-.121m-.001.001v-.363m0 .003l.06-.121m.001.001l.06-.06m0 0l.121-.06m0 0h.242m0 0l.12.06m.606.78v-.847m0 .247l.06-.121m0 .001l.06-.06m.001 0l.12-.06m.001 0h.121m.967.84v-.665m0 .005l-.06-.121m0 .001l-.12-.06m-.001 0h-.242m0 0l-.121.06m.544.72l-.12.06m-.001 0h-.302m0 0l-.121-.06m0 0l-.06-.121m-.001.001v-.121m0 .001l.06-.12m.001 0l.121-.06m0 0h.302m0 0l.12-.06m.606.54v-.847m0 .127l.06-.06m0 0l.121-.06m0 0h.181m.001 0l.12.06m.001 0l.06.121m0-.001v.665m0-.665l.06-.121m.001.001l.12-.06m.001 0h.181m0 0l.12.06m.001 0l.06.121m0-.001v.665m1.573-.005v-1.27m0 .61h.726m-.001.66v-1.27m1.089 1.21l-.12.06m-.001 0h-.242m0 0l-.121-.06m0 0l-.06-.121m0 .001v-.484m0 .004l.06-.121m0 .001l.121-.06m0 0h.242m0 0l.12.06m.001 0l.06.121m.001-.001v.12m0 0l-.605.121m1.693.419v-.665m0 .005l-.06-.121m0 .001l-.12-.06m-.001 0h-.242m0 0l-.121.06m.544.72l-.12.06m-.001 0h-.302m0 0l-.121-.06m0 0l-.06-.121m0 .001v-.121m0 .001l.06-.12m0 0l.121-.06m0 0h.302m0 0l.12-.06m1.15.54v-1.27m0 1.21l-.12.06m-.001 0h-.242m0 0l-.121-.06m0 0l-.06-.06m0 0l-.06-.121m-.001.001v-.363m0 .003l.06-.121m.001.001l.06-.06m0 0l.121-.06m0 0h.242m0 0l.12.06m1.09.72l-.12.06m-.001 0h-.242m0 0l-.121-.06m0 0l-.06-.121m0 .001v-.484m0 .004l.06-.121m0 .001l.121-.06m0 0h.242m0 0l.12.06m.001 0l.06.121m0-.001v.12m0 0l-.605.121m1.149.419v-.847m0 .247l.06-.121m.001.001l.06-.06m.001 0l.12-.06m0 0h.121M127.3 71.062v-1.27m0 .605h.726m.004.665v-1.27m1.15 1.27v-.665m0 0l-.06-.121m0 0l-.12-.06m-.01 0h-.242m.002 0l-.121.06m.551.726l-.12.06m-.01 0h-.302m.002 0l-.121-.06m.001 0l-.06-.121m0 0v-.121m0 0l.06-.12m0-.001l.121-.06m-.001-.001h.302m-.002 0l.12-.06m.79.544l-.121-.06m.001 0l-.06-.121m0 0v-1.089m.85 1.27l-.121-.06m.001 0l-.06-.121m0 0v-1.089m1.57 1.21l.12.06m0 0h.242m-.002 0l.121-.06m-.001 0l.06-.121m0 0v-.06m0-.001l-.06-.12m0-.001l-.121-.06m.001 0h-.181m.001 0l-.121-.06m.001-.001l-.06-.12m0-.001v-.06m0 0l.06-.121m0 0l.121-.06m-.001 0h.181m-.001 0l.121.06m1.089.726l-.12.06m0 0h-.242m.002 0l-.121-.06m.001 0l-.06-.121m0 0v-.484m0 0l.06-.121m0 0l.121-.06m-.001 0h.242m-.002 0l.12.06m0 0l.06.121m0 0v.12m0 .001l-.605.121m1.155-.423v.847m0-.727l.06-.06m0 0l.121-.06m-.001 0h.181m-.001 0l.12.06m0 0l.06.121m0 0v.665m.54-.06l.12.06m0 0h.242m.008 0l.121-.06m-.001 0l.06-.121m0 0v-.06m0-.001l-.06-.12m0-.001l-.121-.06m.001 0h-.181m.001 0l-.121-.06m-.009-.001l-.06-.12m0-.001v-.06m0 0l.06-.121m0 0l.121-.06m.009 0h.181m-.001 0l.121.06m.779.786l-.121-.06m.001 0l-.06-.06m0-.001l-.06-.121m0 0v-.363m0 0l.06-.121m0 0l.06-.06m0 0l.121-.06m-.001 0h.181m.009 0l.12.06m0 0l.06.06m0 0l.06.121m0 0v.363m0 0l-.06.121m0 0l-.06.06m0 .001l-.12.06m0 0h-.181m.961 0v-.847m0 .242l.06-.121m0 0l.06-.06m0 0l.12-.06m0 0h.121" stroke="#0000c2" class="B C D E"/><g stroke="#0000c2" class="B C D E I"><path d="M82.038 70.783v-1.27m0 0h.484m0 0l.121.06m0 0l.06.06m0 .001l.06.12m.001.001v.181m0 0l-.06.12m-.001.001l-.06.06m0 .001l-.121.06m0 0h-.484m1.996.484l-.06.06m-.001 0l-.181.06m0 .001h-.12m-.001 0l-.181-.06m0-.001l-.121-.121m0 0l-.06-.121m-.001 0l-.06-.242m0 0v-.181m0 0l.06-.242m0 0l.06-.12m.001-.001l.121-.121m0 0l.181-.06m0 0h.12m.001 0l.181.06m0 0l.06.06m.969.485l.181.06m0 0l.06.06m0 0l.06.121m.001 0v.181m0 .001l-.06.121m-.001 0l-.06.06m0 0l-.121.06m0 .001h-.484m0 0v-1.27m0 0h.423m.001 0l.12.06m0 0l.06.06m.001.001l.06.12m0 .001v.121m0 0l-.06.12m0 0l-.06.06m-.001.001l-.12.06m0 .001h-.423m2.841.665h-.605m.001 0v-1.27m.967.907h.605m-.726.363l.423-1.27m.001 0l.423 1.27m.665-.605v.605m-.423-1.27l.423.665m0 0l.423-.665m.666 0h.242m0 0l.121.06m0 0l.12.121m.001 0l.06.242m0 0v.423m0 0l-.06.242m0 0l-.12.121m-.001 0l-.121.06m0 .001h-.242m0 0l-.12-.06m-.001-.001l-.121-.121m0 0l-.06-.242m0 0v-.423m0 0l.06-.242m0 0l.121-.121m0 0l.12-.06m1.09 0v1.028m0 0l.06.121m0 0l.06.06m0 0l.12.06m.001.001h.242m0 0l.121-.06m0-.001l.06-.06m.001 0l.06-.121m0 0v-1.028m.424 0h.726m-.363 1.27v-1.27m1.632.423l.242.847m0 0l.242-.605m0 0l.242.605m0 0l.242-.847m.484.847v-.847m0-.423l-.06.06m-.001 0l.06.06m.001.001l.06-.06m0-.001l-.06-.06m0 0v.121m.423.302h.484m-.303-.423v1.089m0-.001l.06.121m.001 0l.121.06m0 .001h.12m.424 0v-1.27m.544 1.27v-.665m0 0l-.06-.121m0-.001l-.12-.06m-.001 0h-.181m0 0l-.121.06m0 0l-.06.06m2.66.666l-.12.06m-.001.001h-.242m0 0l-.121-.06m0-.001l-.06-.06m0 0l-.06-.121m-.001 0v-.363m0 0l.06-.121m.001 0l.06-.06m0-.001l.121-.06m0 0h.242m0 0l.12.06m.722.787l-.121-.06m.001-.001l-.06-.06m0 0l-.06-.121m0 0v-.363m0 0l.06-.121m0 0l.06-.06m0-.001l.121-.06m-.001 0h.181m.009 0l.12.06m0 0l.06.06m0 .001l.06.121m0 0v.363m0 0l-.06.121m0 0l-.06.06m0 0l-.12.06m0 .001h-.181m.961-.847v.847m0-.726l.06-.06m0-.001l.121-.06m-.001 0h.181m.009 0l.12.06m0 0l.06.121m0 .001v.665m.6-.847v.847m0-.726l.06-.06m0-.001l.121-.06m-.001 0h.181m-.001 0l.12.06m.01 0l.06.121m0 .001v.665m1.08-.061l-.12.06m0 .001h-.242m.002 0l-.121-.06m.001-.001l-.06-.121m0 0v-.484m0 .001l.06-.121m0-.001l.121-.06m-.001 0h.242m-.002 0l.12.06m0 0l.06.121m0 .001v.12m0 0l-.605.121m1.695.363l-.12.06m0 .001h-.242m.002 0l-.121-.06m.001-.001l-.06-.06m0 0l-.06-.121m0 0v-.363m0 0l.06-.121m0 0l.06-.06m0-.001l.121-.06m-.001 0h.242m-.002 0l.12.06m.37-.06h.484m-.304-.423v1.089m0-.001l.06.121m0 0l.121.06m-.001.001h.12m.6 0l-.121-.06m.001-.001l-.06-.06m0 0l-.06-.121m0 0v-.363m0 0l.06-.121m0 0l.06-.06m0-.001l.121-.06m-.001 0h.181m.009 0l.12.06m0 0l.06.06m0 .001l.06.121m0 0v.363m0 0l-.06.121m0 0l-.06.06m0 0l-.12.06m0 .001h-.181m.961 0v-.847m0 .242l.06-.121m0 0l.06-.06m0-.001l.12-.06m0 0h.121"/><path d="M125.27 67.894h70.079v43.586H125.27V67.894m-44.473.178h43.104v43.332H80.797V68.072m44.833 45.318l.076 21.438m-44.959-.008h44.958m-.075-21.43l-44.831-.076m-.002-.004l-.05 21.514"/></g><g class="B C D E"><path d="M148.74 88.519h-3.734m-.126-3.81h3.886M136.96 81.94h.305m-37.367 2.82v1.041m44.982-3.861v2.769m3.89 3.962h-.025m-48.847 1.423v.025m0 0h.025m.001 0v-.025m-.051 0h.025m-8.407 4.369h.762m7.671-4.369h-.025m-8.408 0v4.369m61.489-5.944h-.05m-4.16-7.899v4.09m0-.001h4.166m-4.166 0v3.962m-.03 0v-.152m4.19 0h-4.191m-57.248 1.575h8.382" stroke="#009600"/><path d="M99.212 91.643l1.22 1.22m-.002-1.22l-1.22 1.22" stroke="#000084"/></g><g class="B C D E G I"><use xlink:href="#W"/><use xlink:href="#X"/></g><g class="B C D E"><path d="M155.47 84.709h-2.54" class="F"/><use xlink:href="#I" class="G"/><use xlink:href="#J" class="H"/><path d="M155.47 88.519h-2.54" class="F"/><use xlink:href="#K" class="G"/><use xlink:href="#L" class="H"/><path d="M155.47 92.329h-2.54" class="F"/><use xlink:href="#M" class="G"/><use xlink:href="#N" class="H"/><path d="M155.47 96.139h-2.54" class="F"/><use xlink:href="#O" class="G"/><path d="M154.4 95.075v.677m-.24-1.064l-.242.726m-.008 0h.629" class="H"/><path d="M174.52 96.139h2.54" class="F"/><use xlink:href="#P" class="G"/><use xlink:href="#Q" class="H"/><path d="M174.52 92.329h2.54" class="F"/><use xlink:href="#R" class="G"/><use xlink:href="#S" class="H"/><path d="M174.52 88.519h2.54" class="F"/><use xlink:href="#T" class="G"/><path d="M175.45 87.117h.677m.003 0l-.435 1.016" class="H"/><path d="M174.52 84.709h2.54" class="F"/><use xlink:href="#U" class="G"/><use xlink:href="#V" class="H"/></g><g class="B C D E G I"><use xlink:href="#Y"/><use xlink:href="#Y" x="24.13"/><use xlink:href="#B"/><use xlink:href="#C"/></g><path d="M142.21 88.519h2.794m-4.824 0h-2.794" class="B C D E F"/><g class="B C D E G I"><use xlink:href="#Z"/><use xlink:href="#a"/><use xlink:href="#b"/></g><path d="M142.09 81.94h2.794m-4.824 0h-2.794" class="B C D E F"/><g class="B C D E G I"><use xlink:href="#c"/><use xlink:href="#d"/><use xlink:href="#m"/></g><g class="B C D E"><path d="M102.44 85.801H99.9" class="F"/><use xlink:href="#e" class="G"/><path d="M101.53 85.384h-.726m.366 0v-1.27m0 0l-.12.181m0 0l-.121.12m.001.001l-.12.06" class="H"/><path d="M102.41 87.96h-2.54" class="F"/><use xlink:href="#f" class="G"/><use xlink:href="#g" class="H"/><path d="M102.41 90.094h-2.54" class="F"/><use xlink:href="#h" class="G"/><use xlink:href="#i" class="H"/><path d="M102.39 92.253h-2.54" class="F"/><use xlink:href="#j" class="G"/><path d="M101.36 90.989v.847m-.3-1.331l-.302.907m-.008 0h.786" class="H"/><path d="M102.41 94.463h-2.54" class="F"/><use xlink:href="#k" class="G"/><use xlink:href="#l" class="H"/></g><g class="B C D E G I"><use xlink:href="#n"/><use xlink:href="#o"/></g><path d="M98.603 94.463h1.27m-6.35 0h-1.27" class="B C D E F"/><g class="B C D E G I"><use xlink:href="#H"/><use xlink:href="#F"/><use xlink:href="#G"/></g><g class="B C D E"><path d="M99.466 124.33h3.81" class="F"/><path d="M101.73 123.92h-.726m.366 0v-1.27m0 0l-.12.181m0-.001l-.121.12m.001 0l-.12.06" class="H"/><path d="M99.466 126.87h3.81" class="F"/><use xlink:href="#D" class="H"/><path d="M99.466 129.41h3.81" class="F"/><use xlink:href="#E" class="H"/><path d="M99.466 131.95h3.81" class="F"/><path d="M101.61 130.69v.847m-.3-1.327l-.302.907m.002-.007h.786" class="H"/></g><g fill="#009600" stroke="#009600" class="B D"><circle cx="148.74" cy="88.519" r=".457"/><circle cx="152.93" cy="88.519" r=".457"/><circle cx="148.77" cy="84.709" r=".457"/><circle cx="99.898" cy="90.094" r=".457"/><circle cx="99.873" cy="90.094" r=".457"/></g><defs ><path id="B" d="M139.23 89.375v-.423m.67-.182v.605m0 0h-1.27m0 0v-.605m1.15-1.269l.06.06m0 0l.06.181m0 0v.12m0 .001l-.06.181m0 .001l-.121.121m.001 0l-.121.06m.001 0l-.242.06m-.008.001h-.181m.001 0l-.242-.06m.002-.001l-.12-.06m0 0l-.121-.121m.001 0l-.06-.181m0-.001v-.12m0-.001l.06-.181m0 0l.06-.06m0-.484l-.06-.06m0-.001l-.06-.121m0 0v-.302m0 0l.06-.12m0-.001l.06-.06m0 0l.12-.06m0-.001h.121m-.001 0l.181.06m-.001.001l.726.726m.004-.001v-.786"/><path id="C" d="M143.37 88.082h-.726m.366 0v-1.27m0 0l-.12.181m0 .001l-.121.12m-.009.001l-.12.06m1.52-.363h.121m-.001 0l.12.06m0 .001l.06.06m0 .001l.06.12m0 0l.06.242m0 0v.302m0 .001l-.06.242m0 0l-.06.121m0 0l-.06.06m0 0l-.12.06m0 0h-.121m.001 0l-.12-.06m-.01 0l-.06-.06m0 0l-.06-.121m0 0l-.06-.242m0 0v-.302m0-.001l.06-.242m0 0l.06-.12m0 0l.06-.06m0-.001l.12-.06m1.22-.001h.121m-.001 0l.12.06m0 .001l.06.06m0 .001l.06.12m0 0l.06.242m0 0v.302m0 .001l-.06.242m0 0l-.06.121m0 0l-.06.06m0 0l-.12.06m0 0h-.121m.001 0l-.12-.06m-.01 0l-.06-.06m0 0l-.06-.121m0 0l-.06-.242m0 0v-.302m0-.001l.06-.242m0 0l.06-.12m0 0l.06-.06m0-.001l.12-.06m.97.423v.847m0-.726l.06-.06m0-.001l.121-.06m-.001 0h.181m.009 0l.12.06m0 0l.06.121m0 0v.665m1.03-.665h-.423m-.007.665v-1.27m0 0h.605"/><path id="D" d="M101.01 125.31l.06-.06m0 0l.121-.06m-.001 0h.302m-.002 0l.12.06m0 0l.06.06m0 0l.06.12m0 0v.121m0-.001l-.06.181m0-.001l-.726.726m.006.004h.786"/><path id="E" d="M100.95 127.73h.786m-.006 0l-.423.484m.003-.004h.181m-.001 0l.12.06m0 0l.06.06m0 0l.06.12m0 0v.302m0-.002l-.06.121m0-.001l-.06.06m0 .01l-.12.06m0 0h-.363m.003 0l-.12-.06m0 0l-.06-.06"/><path id="F" d="M95.324 119.38v-1.27m0 0h.484m0 0l.121.06m0 0l.06.06m0 0l.06.12m.001 0v.181m0-.001l-.06.12m-.001 0l-.06.06m0 0l-.121.06m0 0h-.484m1.814-.24v.847m-.302-1.337l-.302.907m-.001.003h.786m.484.43v-1.27m0 0h.484m0 0l.121.06m0 0l.06.06m.001 0l.06.12m0 0v.181m0-.001l-.06.12m0 0l-.06.06m-.001 0l-.121.06m0 0h-.484m1.21-.54l.06-.06m0 0l.121-.06m0 0h.302m.001 0l.12.06m.001 0l.06.06m0 0l.06.12m.001 0v.121m0-.001l-.06.181m-.001-.001l-.726.726m0 .004h.786m.542 0v-1.27m0 0l.423.907m.007-.007l.423-.907m-.003.007v1.27m1.27 0h-.726m.366 0v-1.27m0 0l-.12.181m0-.001l-.121.12m-.009 0l-.12.06"/><path id="G" d="M90.667 121.92v-1.27m0 0h.484m0 0l.121.06m0 0l.06.06m0 0l.06.12m.001 0v.181m0-.001l-.06.12m-.001 0l-.06.06m0 0l-.121.06m0 0h-.484m1.452.61l-.121-.06m0-.01l-.06-.06m-.001 0l-.06-.121m0 .001v-.363m0 .003l.06-.121m0 .001l.06-.06m.001 0l.121-.06m0 0h.181m0 0l.12.06m.001 0l.06.06m.001 0l.06.121m0-.001v.363m0-.003l-.06.121m0-.001l-.06.06m-.001 0l-.12.06m-.001.01h-.181m1.511-.85v1.028m0 .002l-.06.12m0 0l-.06.06m0 0l-.121.06m0 0h-.181m-.001 0l-.121-.06m.544-.43l-.12.06m0 .01h-.242m0 0l-.121-.06m0-.01l-.06-.06m-.001 0l-.06-.121m0 .001v-.363m0 .003l.06-.121m0 .001l.06-.06m.001 0l.121-.06m0 0h.242m0 0l.12.06m.787.79l-.121-.06m0-.01l-.06-.06m-.001 0l-.06-.121m0 .001v-.363m0 .003l.06-.121m0 .001l.06-.06m.001 0l.121-.06m0 0h.181m0 0l.12.06m.001 0l.06.06m.001 0l.06.121m0-.001v.363m0-.003l-.06.121m0-.001l-.06.06m-.001 0l-.12.06m-.001.01h-.181m2.479-.85v.847m-.302-1.337l-.302.907m-.001.003h.786m.484-.06h.968m.605-.36v1.27m0-1.21l.121-.06m0 0h.242m0 0l.12.06m.001 0l.06.06m0 0l.06.121m0-.001v.363m0-.003l-.06.121m0-.001l-.06.06m0 0l-.12.06m-.001.01h-.242m0 0l-.121-.06m1.146.06v-.847m0-.423l-.06.06m0 0l.06.06m0 0l.06-.06m0 0l-.06-.06m0 0v.121m.61.299v.847m0-.727l.06-.06m0 0l.121-.06m-.001 0h.181m-.001 0l.12.06m0 0l.06.121m0-.001v.665m1.51-1.145l.06-.06m0 0l.121-.06m.009 0h.302m-.002 0l.12.06m0 0l.06.06m0 0l.06.12m0 0v.121m0-.001l-.06.181m0-.001l-.726.726m-.004.004h.786m.544 0v-.847m0 .117l.06-.06m0 0l.121-.06m.009 0h.181m-.001 0l.12.06m0 0l.06.121m0-.001v.665m0-.665l.06-.121m0 .001l.12-.06m0 0h.181m-.001 0l.12.06m0 0l.06.121m0-.001v.665m.61.005v-.847m0 .117l.06-.06m0 0l.121-.06m-.001 0h.181m-.001 0l.12.06m0 0l.06.121m0-.001v.665m0-.665l.06-.121m0 .001l.12-.06m0 0h.181m-.001 0l.12.06m.01 0l.06.121m0-.001v.665"/><path id="H" d="M107.28 126.32l-.121-.06m.001 0h-.181m-.009 0l-.181.06m.001 0l-.121.121m.001-.001l-.06.12m0 0l-.06.242m0-.002v.181m0-.001l.06.242m0 .008l.06.121m0-.001l.121.121m-.001-.001l.181.06m-.001 0h.12m0 0l.181-.06m.009 0l.06-.06m0 0v-.423m0-.007h-.242m.782.55v-1.27m0 0l.726 1.27m.004 0v-1.27m.6 1.27v-1.27m0 0h.302m-.002 0l.181.06m.009 0l.121.121m-.001-.001l.06.12m0 0l.06.242m0-.002v.181m0-.001l-.06.242m0 .008l-.06.121m0-.001l-.121.121m.001-.001l-.181.06m-.009 0h-.302"/><path id="I" d="M156.69 84.155l.339 1.016m-.009 0l.339-1.016m.341 1.016v-1.016m0 0h.242m-.002 0l.145.048m.005 0l.097.097m.003 0l.048.097m-.008 0l.048.194m.002-.001v.145m0 .001l-.048.194m-.002-.001l-.048.097m.008 0l-.097.097m-.003 0l-.145.048m-.005 0h-.242m1.022 0v-1.016m0 0h.242m-.002 0l.145.048m.005 0l.097.097m-.007 0l.048.097m.002 0l.048.194m.002-.001v.145m0 .001l-.048.194m-.002-.001l-.048.097m-.002 0l-.097.097m.007 0l-.145.048m-.005 0h-.242m1.502-1.016h-.484m-.006 0l-.048.484m.008 0l.048-.048m-.008-.001l.097-.048m.003 0h.242m-.002 0l.097.048m.003 0l.048.048m.002.001l.048.097m.002 0v.242m0 0l-.048.097m-.002-.001l-.048.048m-.002.001l-.097.048m-.003 0h-.242m.002 0l-.097-.048m-.003 0l-.048-.048m.878-.92l.339 1.016m.001 0l.339-1.016"/><path id="J" d="M154.49 84.323h-.58m.29 0v-1.016m0 0l-.097.145m.007 0l-.097.097m-.003-.001l-.097.048"/><path id="K" d="M156.69 87.965l.339 1.016m-.009 0l.339-1.016m.341 1.016v-1.016m0 0h.242m-.002 0l.145.048m.005 0l.097.097m.003 0l.048.097m-.008 0l.048.194m.002-.001v.145m0 .001l-.048.194m-.002-.001l-.048.097m.008 0l-.097.097m-.003 0l-.145.048m-.005 0h-.242m1.022 0v-1.016m0 0h.242m-.002 0l.145.048m.005 0l.097.097m-.007 0l.048.097m.002 0l.048.194m.002-.001v.145m0 .001l-.048.194m-.002-.001l-.048.097m-.002 0l-.097.097m.007 0l-.145.048m-.005 0h-.242m.922-1.016h.629m.001 0l-.339.387m-.001 0h.145m-.005 0l.097.048m.003 0l.048.048m.002.001l.048.097m.002 0v.242m0 0l-.048.097m-.002-.001l-.048.048m-.002.001l-.097.048m-.003 0h-.29m0 0l-.097-.048m.007 0l-.048-.048m.918-.92l.339 1.016m.001 0l.339-1.016m.241 0h.629m-.009 0l-.339.387m.009 0h.145m-.005 0l.097.048m.003 0l.048.048m.002.001l.048.097m-.008 0v.242m0 0l-.048.097m.008-.001l-.048.048m-.002.001l-.097.048m-.003 0h-.29m0 0l-.097-.048m-.003 0l-.048-.048"/><path id="L" d="M153.91 87.213l.048-.048m.002 0l.097-.048m.003 0h.242m-.002 0l.097.048m.003 0l.048.048m.002 0l.048.097m-.008 0v.097m0 0l-.048.145m.008 0l-.58.58m-.01.001h.629"/><path id="M" d="M157.02 91.775h.194m.006 0l.097.048m.003 0l.097.097m-.007 0l.048.194m.002 0v.339m0-.001l-.048.194m-.002 0l-.097.097m.007 0l-.097.048m-.003 0h-.194m-.006 0l-.097-.048m.007 0l-.097-.097m-.003 0l-.048-.194m-.002 0v-.339m0 .001l.048-.194m.002 0l.097-.097m.003 0l.097-.048m.873 0v.823m0 0l.048.097m-.008-.001l.048.048m.002.001l.097.048m.003 0h.194m-.004 0l.097-.048m.003 0l.048-.048m.002-.001l.048-.097m.002.001v-.823m.34 0h.58m-.29 1.016v-1.016"/><path id="N" d="M153.86 90.927h.629m.001 0l-.339.387m.009 0h.145m-.005 0l.097.048m.003 0l.048.048m.002 0l.048.097m-.008 0v.242m0 0l-.048.097m.008 0l-.048.048m-.002 0l-.097.048m-.003.001h-.29m0 0l-.097-.048m-.003-.001l-.048-.048"/><path id="O" d="M157.36 95.633l-.097-.048m.007 0h-.145m-.005 0l-.145.048m.005 0l-.097.097m-.003 0l-.048.097m-.002 0l-.048.194m-.002-.001v.145m0 .001l.048.194m.002-.001l.048.097m.002 0l.097.097m.003 0l.145.048m-.005 0h.097m.003 0l.145-.048m-.005 0l.048-.048m.002-.001v-.339m0 .001h-.194m.634.435v-1.016m0 0l.58 1.016m0 0v-1.016m.48 1.016v-1.016m0 0h.242m-.002 0l.145.048m.005 0l.097.097m.003 0l.048.097m-.008 0l.048.194m.002-.001v.145m0 .001l-.048.194m-.002-.001l-.048.097m.008 0l-.097.097m-.003 0l-.145.048m-.005 0h-.242"/><path id="P" d="M170.55 96.601v-1.016m0 0h.387m.003 0l.097.048m.003 0l.048.048m-.008.001l.048.097m.002 0v.145m0 0l-.048.097m-.002-.001l-.048.048m.008.001l-.097.048m-.003 0h-.387m1.547-.484l-.097-.048m-.003 0h-.145m.005 0l-.145.048m-.005 0l-.097.097m.007 0l-.048.097m-.002 0l-.048.194m-.002-.001v.145m0 .001l.048.194m.002-.001l.048.097m.002 0l.097.097m-.007 0l.145.048m.005 0h.097m.003 0l.145-.048m-.005 0l.048-.048m.002-.001v-.339m0 .001h-.194m.824-.581h.194m-.004 0l.097.048m.003 0l.097.097m.003 0l.048.194m-.008 0v.339m0-.001l-.048.194m.008 0l-.097.097m-.003 0l-.097.048m-.003 0h-.194m.004 0l-.097-.048m-.003 0l-.097-.097m-.003 0l-.048-.194m.008 0v-.339m0 .001l.048-.194m-.008 0l.097-.097m.003 0l.097-.048"/><path id="Q" d="M176.04 94.737h-.484m-.006 0l-.048.484m-.002-.001l.048-.048m.002 0l.097-.048m.003 0h.242m-.002 0l.097.048m.003 0l.048.048m.002 0l.048.097m-.008 0v.242m0 0l-.048.097m.008 0l-.048.048m-.002 0l-.097.048m-.003.001h-.242m.002 0l-.097-.048m-.003-.001l-.048-.048"/><path id="R" d="M170.75 92.743l.145.048m-.005 0h.242m-.002 0l.097-.048m.003 0l.048-.048m.002-.001l.048-.097m.002.001v-.097m0 0l-.048-.097m-.002 0l-.048-.048m-.002 0l-.097-.048m-.003-.001l-.194-.048m.004 0l-.097-.048m-.003-.001l-.048-.048m-.002 0l-.048-.097m.008 0v-.097m0 .001l.048-.097m-.008 0l.048-.048m.002-.001l.097-.048m.003 0h.242m-.002 0l.145.048m.435.968v-1.016m0 0h.242m-.002 0l.145.048m.005 0l.097.097m.003 0l.048.097m-.008 0l.048.194m.002-.001v.145m0 .001l-.048.194m-.002-.001l-.048.097m.008 0l-.097.097m-.003 0l-.145.048m-.005 0h-.242m.972-.29h.484m-.584.29l.339-1.016m.001 0l.339 1.016"/><path id="S" d="M175.99 90.927h-.194m-.006 0l-.097.048m.007 0l-.048.048m-.002 0l-.097.145m-.003 0l-.048.194m-.002 0v.387m0 0l.048.097m.002 0l.048.048m.002 0l.097.048m.003.001h.194m-.004 0l.097-.048m.003-.001l.048-.048m.002 0l.048-.097m-.008 0v-.242m0 0l-.048-.097m.008 0l-.048-.048m-.002 0l-.097-.048m-.003 0h-.194m.004 0l-.097.048m-.003 0l-.048.048m-.002 0l-.048.097"/><path id="T" d="M170.79 88.933l.145.048m.005 0h.242m-.002 0l.097-.048m.003 0l.048-.048m.002-.001l.048-.097m.002.001v-.097m0 0l-.048-.097m-.002 0l-.048-.048m-.002 0l-.097-.048m-.003-.001l-.194-.048m.004 0l-.097-.048m-.003-.001l-.048-.048m-.002 0l-.048-.097m-.002 0v-.097m0 .001l.048-.097m.002 0l.048-.048m.002-.001l.097-.048m.003 0h.242m-.002 0l.145.048m1.015.871l-.048.048m-.002.001l-.145.048m.005 0h-.097m-.003 0l-.145-.048m.005 0l-.097-.097m-.003 0l-.048-.097m-.002 0l-.048-.194m-.002.001v-.145m0-.001l.048-.194m.002.001l.048-.097m.002 0l.097-.097m.003 0l.145-.048m-.005 0h.097m.003 0l.145.048m-.005 0l.048.048m.922.92h-.484m.004 0v-1.016"/><path id="U" d="M171.13 85.171v-1.016m0 0h.242m.008 0l.145.048m-.005 0l.097.097m.003 0l.048.097m.002 0l.048.194m-.008-.001v.145m0 .001l-.048.194m.008-.001l-.048.097m-.002 0l-.097.097m-.003 0l-.145.048m.005 0h-.242m1.012 0v-1.016m1.06 1.016l-.339-.484m-.241.484v-1.016m0 0h.387m.003 0l.097.048m.003 0l.048.048m.002.001l.048.097m-.008 0v.145m0 0l-.048.097m.008-.001l-.048.048m-.002.001l-.097.048m-.003 0h-.387"/><path id="V" d="M175.7 83.742l-.097-.048m-.003 0l-.048-.048m-.002-.001l-.048-.097m-.002 0V83.5m0 0l.048-.097m.002 0l.048-.048m.002 0l.097-.048m.003 0h.194m-.004 0l.097.048m.003 0l.048.048m.002 0l.048.097m-.008 0v.048m0 0l-.048.097m.008 0l-.048.048m-.002.001l-.097.048m-.003 0h-.194m.004 0l-.097.048m-.003 0l-.048.048m-.002.001l-.048.097m-.002 0v.194m0-.001l.048.097m.002 0l.048.048m.002 0l.097.048m.003.001h.194m-.004 0l.097-.048m.003-.001l.048-.048m.002 0l.048-.097m-.008 0v-.194m0 .001l-.048-.097m.008 0l-.048-.048m-.002-.001l-.097-.048"/><path id="W" d="M164.03 76.322v1.028m0 0l.06.121m0 0l.06.06m0 .001l.12.06m0 0h.242m-.002 0l.121-.06m.009 0l.06-.06m0-.001l.06-.121m0 0v-1.028m1.27 1.27h-.726m.356 0v-1.27m0 0l-.12.181m0 .001l-.121.12m.001.001l-.12.06"/><path id="X" d="M161.67 79.77h.605m-.725.362l.423-1.27m-.003 0l.423 1.27m.367-.06l.181.06m-.001 0h.302m-.002 0l.12-.06m.01 0l.06-.06m0-.001l.06-.121m0 0v-.12m0 0l-.06-.121m0-.001l-.06-.06m0 0l-.12-.06m-.01 0l-.242-.06m.002-.001l-.121-.06m.001 0l-.06-.06m0-.001l-.06-.12m0-.001v-.121m0 0l.06-.12m0-.001l.06-.06m0 0l.121-.06m-.001-.001h.302m.008 0l.181.06m1.149-.06h-.605m-.005 0l-.06.605m0 0l.06-.06m0 0l.121-.06m-.001-.001h.302m-.002 0l.12.06m.01.001l.06.06m0 0l.06.12m0 .001v.302m0 0l-.06.121m0 0l-.06.06m0 .001l-.12.06m-.01 0h-.302m.002 0l-.121-.06m.001 0l-.06-.06m1.81-1.15h-.242m.002 0l-.12.06m0 .001l-.06.06m0 0l-.121.181m.001.001l-.06.242m0 0v.484m0-.001l.06.121m0 0l.06.06m0 .001l.121.06m-.001 0h.242m-.002 0l.12-.06m0 0l.06-.06m.01-.001l.06-.121m0 0v-.302m0 0l-.06-.12m0-.001l-.06-.06m-.01 0l-.12-.06m0-.001h-.242m.002 0l-.121.06m.001.001l-.06.06m0 0l-.06.12m1.51-.725h.121m-.001 0l.12.06m0 .001l.06.06m0 0l.06.12m0 .001l.06.242m.01 0v.302m0 0l-.06.242m-.01 0l-.06.121m0 0l-.06.06m0 .001l-.12.06m0 0h-.121m.001 0l-.12-.06m0 0l-.06-.06m0-.001l-.06-.121m0 0l-.06-.242m0 0v-.302m0 0l.06-.242m0 0l.06-.12m0-.001l.06-.06m0 0l.12-.06m1.21-.001h.121m-.001 0l.12.06m0 .001l.06.06m0 0l.06.12m0 .001l.06.242m0 0v.302m0 0l-.06.242m0 0l-.06.121m0 0l-.06.06m0 .001l-.12.06m0 0h-.121m.001 0l-.12-.06m0 0l-.06-.06m0-.001l-.06-.121m0 0l-.06-.242m0 0v-.302m0 0l.06-.242m0 0l.06-.12m0-.001l.06-.06m0 0l.12-.06"/><path id="Y" d="M152.4 99.878l-.121-.06m.001-.001h-.181m.001 0l-.181.06m-.009.001l-.121.121m.001 0l-.06.12m0 .001l-.06.242m0-.002v.181m0-.001l.06.242m0-.002l.06.121m0 .009l.121.121m-.001-.001l.181.06m.009 0h.12m0 0l.181-.06m-.001 0l.06-.06m0 0v-.423m0-.007h-.242m.782.55v-1.27m0-.003l.726 1.27m.004.003v-1.27m.6 1.27v-1.27m0-.003h.302m.008 0l.181.06m-.001.001l.121.121m-.001 0l.06.12m0 .001l.06.242m0-.002v.181m0-.001l-.06.242m0-.002l-.06.121m0 .009l-.121.121m.001-.001l-.181.06m.001 0h-.302"/><path id="Z" d="M136.43 89.41l-.06.121m0 0v.181m0 .001l.06.181m0 0l.121.121m-.001 0l.12.06m0 .001l.242.06m-.002 0h.181m-.001 0l.242-.06m.008 0l.121-.06m-.001-.001l.121-.121m-.001 0l.06-.181m0 0v-.12m0-.001l-.06-.181m0-.001l-.06-.06m0 0h-.423m-.007 0v.242m.55-.786h-1.27m0 0l1.27-.726m0 0h-1.27m1.27-.605h-1.27m0 0v-.302m0 0l.06-.181m0-.001l.121-.121m-.001 0l.12-.06m0 0l.242-.06m-.002-.001h.181m-.001 0l.242.06m.008.001l.121.06m-.001 0l.121.121m-.001 0l.06.181m0 .001v.302"/><path id="a" d="M143.22 81.628v-.423m.67-.181v.605m0-.001h-1.27m0 0v-.605m1.15-1.269l.06.06m0 0l.06.181m0 .001v.12m0 0l-.06.181m0 .001l-.121.121m-.009 0l-.121.06m.001 0l-.242.06m.002.001h-.181m.001 0l-.242-.06m.002-.001l-.12-.06m0 0l-.121-.121m.001 0l-.06-.181m0-.001v-.12m0 0l.06-.181m0-.001l.06-.06m.3-1.089h.847m-1.327.302l.907.302m-.007.001v-.786"/><path id="b" d="M136.41 80.005h-.726m.366 0v-1.27m0 0l-.12.181m0 .001l-.121.12m.001.001l-.12.06m1.51-.363h.121m-.001 0l.12.06m0 .001l.06.06m0 0l.06.12m0 .001l.06.242m0 0v.302m0 .001l-.06.242m0-.001l-.06.121m0 0l-.06.06m0 .001l-.12.06m0 0h-.121m.001 0l-.12-.06m0 0l-.06-.06m-.01-.001l-.06-.121m0 0l-.06-.242m0 .001v-.302m0-.001l.06-.242m0 0l.06-.12m0-.001l.06-.06m.01 0l.12-.06m1.51.423v.847m-.55-.847v.665m0 0l.06.121m0 0l.121.06m.009 0h.181m-.001 0l.12-.06m0 0l.06-.06m1.03-.545h-.423m-.007.665v-1.27m0 0h.605"/><path id="c" d="M138.59 83.568l-.06.121m0 0v.181m0 .001l.06.181m0 0l.121.121m-.001 0l.12.06m0 .001l.242.06m-.002 0h.181m-.001 0l.242-.06m-.002 0l.121-.06m.009-.001l.121-.121m-.001 0l.06-.181m0 0v-.12m0-.001l-.06-.181m0-.001l-.06-.06m0 0h-.423m-.007 0v.242m.55-.786h-1.27m0 0l1.27-.726m0 0h-1.27m1.27-.605h-1.27m0 0v-.302m0 0l.06-.181m0-.001l.121-.121m-.001 0l.12-.06m0 0l.242-.06m-.002-.001h.181m-.001 0l.242.06m-.002.001l.121.06m.009 0l.121.121m-.001 0l.06.181m0 .001v.302"/><path id="d" d="M177.02 81.943l-.06.121m0 0v.181m0 0l.06.181m0 0l.121.121m-.001.001l.12.06m0 0l.242.06m-.002 0h.181m-.001 0l.242-.06m-.002 0l.121-.06m.009 0l.121-.121m-.001-.001l.06-.181m0 0v-.12m0-.001l-.06-.181m0 0l-.06-.06m0-.001h-.423m-.007 0v.242m.55-.786h-1.27m0 0l1.27-.726m0 0h-1.27m1.27-.604h-1.27m0 0v-.302m0-.001l.06-.181m0 0l.121-.121m-.001 0l.12-.06m0-.001l.242-.06m-.002 0h.181m-.001 0l.242.06m-.002 0l.121.06m.009.001l.121.121m-.001 0l.06.181m0 0v.302"/><path id="e" d="M103.29 86.32l.181.06m-.001.001h.302m-.002 0l.12-.06m0-.001l.06-.06m0 0l.06-.121m0 0v-.12m0-.001l-.06-.121m0 0l-.06-.06m0-.001l-.12-.06m0 0l-.242-.06m.002 0l-.121-.06m.001-.001l-.06-.06m0-.001l-.06-.12m0 0v-.121m0 0l.06-.12m0-.001l.06-.06m0-.001l.121-.06m-.001 0h.302m-.002 0l.181.06m1.029 1.149l-.12.06m0 .001h-.242m.002 0l-.121-.06m.001-.001l-.06-.121m0 0v-.484m0 .001l.06-.121m0-.001l.121-.06m-.001 0h.242m-.002 0l.12.06m0 0l.06.121m0 .001v.12m0 0l-.605.121m1.155-.423v.847m0-.726l.06-.06m0-.001l.121-.06m-.001 0h.181m-.001 0l.12.06m0 0l.06.121m0 .001v.665m.55-.061l.12.06m0 .001h.242m-.002 0l.121-.06m-.001-.001l.06-.121m0 0v-.06m0 0l-.06-.12m0-.001l-.121-.06m.001-.001h-.181m.001 0l-.121-.06m.001 0l-.06-.12m0-.001v-.06m0 0l.06-.121m0-.001l.121-.06m-.001 0h.181m-.001 0l.121.06m1.089.726l-.12.06m0 .001h-.242m-.008 0l-.121-.06m.001-.001l-.06-.121m0 0v-.484m0 .001l.06-.121m0-.001l.121-.06m-.001 0h.242m.008 0l.12.06m0 0l.06.121m0 .001v.12m0 0l-.605.121m1.145-.06h.968"/><path id="f" d="M103.26 88.479l.181.06m-.001.001h.302m.008 0l.12-.06m0-.001l.06-.06m0 0l.06-.121m0 0v-.12m0-.001l-.06-.121m0 0l-.06-.06m0-.001l-.12-.06m0 0l-.242-.06m-.008-.001l-.121-.06m.001 0l-.06-.06m0 0l-.06-.12m0-.001v-.121m0 0l.06-.12m0-.001l.06-.06m0-.001l.121-.06m-.001 0h.302m.008 0l.181.06m1.029 1.149l-.12.06m0 .001h-.242m-.008 0l-.121-.06m.001-.001l-.06-.121m0 0v-.484m0 0l.06-.121m0 .001l.121-.06m-.001-.001h.242m.008 0l.12.06m0 .001l.06.121m0-.001v.12m0 .001l-.605.121m1.145-.423v.847m0-.726l.06-.06m0 0l.121-.06m-.001-.001h.181m-.001 0l.12.06m.01.001l.06.121m0-.001v.665m.54-.06l.12.06m0 .001h.242m-.002 0l.121-.06m-.001-.001l.06-.121m0 0v-.06m0 0l-.06-.12m0-.001l-.121-.06m.001-.001h-.181m.001 0l-.121-.06m.001 0l-.06-.12m0-.001v-.06m0-.001l.06-.121m0 .001l.121-.06m-.001-.001h.181m-.001 0l.121.06m1.089.726l-.12.06m0 .001h-.242m.002 0l-.121-.06m.001-.001l-.06-.121m0 0v-.484m0 0l.06-.121m0 .001l.121-.06m-.001-.001h.242m-.002 0l.12.06m0 .001l.06.121m0-.001v.12m0 .001l-.605.121m1.155-.06h.968"/><path id="g" d="M100.78 86.394l.06-.06m0-.001l.121-.06m-.001 0h.302m-.002 0l.12.06m0 0l.06.06m.01.001l.06.12m0 .001v.121m0 0l-.06.181m0 0l-.726.726m-.004 0h.786"/><path id="h" d="M103.26 90.613l.181.06m-.001 0h.302m.008 0l.12-.06m0 0l.06-.06m0-.001l.06-.121m0 0v-.12m0-.001l-.06-.121m0 .001l-.06-.06m0-.001l-.12-.06m0 0l-.242-.06m-.008-.001l-.121-.06m.001 0l-.06-.06m0-.001l-.06-.12m0-.001v-.121m0 0l.06-.12m0-.001l.06-.06m0 0l.121-.06m-.001-.001h.302m.008 0l.181.06m1.029 1.15l-.12.06m0 0h-.242m-.008 0l-.121-.06m.001 0l-.06-.121m0 0v-.484m0 0l.06-.121m0 0l.121-.06m-.001 0h.242m.008 0l.12.06m0 0l.06.121m0 0v.12m0 .001l-.605.121m1.145-.423v.847m0-.726l.06-.06m0-.001l.121-.06m-.001 0h.181m-.001 0l.12.06m.01 0l.06.121m0 0v.665m.54-.06l.12.06m0 0h.242m-.002 0l.121-.06m-.001 0l.06-.121m0 0v-.06m0-.001l-.06-.12m0-.001l-.121-.06m.001 0h-.181m.001 0l-.121-.06m.001 0l-.06-.12m0-.001v-.06m0-.001l.06-.121m0 0l.121-.06m-.001 0h.181m-.001 0l.121.06m1.089.726l-.12.06m0 0h-.242m.002 0l-.121-.06m.001 0l-.06-.121m0 0v-.484m0 0l.06-.121m0 0l.121-.06m-.001 0h.242m-.002 0l.12.06m0 0l.06.121m0 0v.12m0 .001l-.605.121m1.155-.06h.968"/><path id="i" d="M100.72 88.406h.786m.004 0l-.423.484m-.007 0h.181m-.001 0l.12.06m0 .001l.06.06m.01 0l.06.12m0 .001v.302m0 0l-.06.121m0 0l-.06.06m-.01.001l-.12.06m0 0h-.363m.003 0l-.12-.06m0 0l-.06-.06"/><path id="j" d="M103.24 92.772l.181.06m-.001 0h.302m-.002 0l.12-.06m0 0l.06-.06m0-.001l.06-.121m0 0v-.12m0 0l-.06-.121m0-.001l-.06-.06m0 0l-.12-.06m0 0l-.242-.06m.002-.001l-.121-.06m.001 0l-.06-.06m0-.001l-.06-.12m0-.001v-.121m0 0l.06-.12m0-.001l.06-.06m0 0l.121-.06m-.001-.001h.302m-.002 0l.181.06m1.029 1.15l-.12.06m0 0h-.242m.002 0l-.121-.06m.001 0l-.06-.121m0 0v-.484m0 0l.06-.121m0 0l.121-.06m-.001 0h.242m-.002 0l.12.06m0 0l.06.121m0 0v.12m0 .001l-.605.121m1.155-.423v.847m0-.726l.06-.06m0-.001l.121-.06m-.001 0h.181m-.001 0l.12.06m0 0l.06.121m0 0v.665m.54-.06l.12.06m.01 0h.242m-.002 0l.121-.06m-.001 0l.06-.121m0 0v-.06m0-.001l-.06-.12m0 0l-.121-.06m.001-.001h-.181m.001 0l-.121-.06m-.009-.001l-.06-.12m0 0v-.06m0-.001l.06-.121m0 0l.121-.06m.009 0h.181m-.001 0l.121.06m1.089.726l-.12.06m0 0h-.242m-.008 0l-.121-.06m.001 0l-.06-.121m0 0v-.484m0 0l.06-.121m0 0l.121-.06m-.001 0h.242m.008 0l.12.06m0 0l.06.121m0 0v.12m0 .001l-.605.121m1.145-.061h.968"/><path id="k" d="M103.26 94.982l.181.06m-.001 0h.302m.008 0l.12-.06m0 0l.06-.06m0-.001l.06-.121m0 0v-.12m0-.001l-.06-.121m0 0l-.06-.06m0 0l-.12-.06m0-.001l-.242-.06m-.008 0l-.121-.06m.001-.001l-.06-.06m0 0l-.06-.12m0-.001v-.121m0 0l.06-.12m0-.001l.06-.06m0 0l.121-.06m-.001-.001h.302m.008 0l.181.06m1.029 1.15l-.12.06m0 0h-.242m-.008 0l-.121-.06m.001 0l-.06-.121m0 0v-.484m0 0l.06-.121m0 0l.121-.06m-.001 0h.242m.008 0l.12.06m0 0l.06.121m0 0v.12m0 .001l-.605.121m1.145-.423v.847m0-.727l.06-.06m0 0l.121-.06m-.001 0h.181m-.001 0l.12.06m.01 0l.06.121m0 0v.665m.54-.06l.12.06m0 0h.242m-.002 0l.121-.06m-.001 0l.06-.121m0 0v-.06m0-.001l-.06-.12m0-.001l-.121-.06m.001 0h-.181m.001 0l-.121-.06m.001-.001l-.06-.12m0-.001v-.06m0 0l.06-.121m0 0l.121-.06m-.001 0h.181m-.001 0l.121.06m1.089.726l-.12.06m0 0h-.242m.002 0l-.121-.06m.001 0l-.06-.121m0 0v-.484m0 0l.06-.121m0 0l.121-.06m-.001 0h.242m-.002 0l.12.06m0 0l.06.121m0 0v.12m0 .001l-.605.121m1.155-.061h.968"/><path id="l" d="M101.45 92.775h-.605m-.005 0l-.06.605m0 0l.06-.06m0-.001l.121-.06m-.001 0h.302m-.002 0l.12.06m0 0l.06.06m.01.001l.06.12m0 .001v.302m0 0l-.06.121m0 0l-.06.06m-.01.001l-.12.06m0 0h-.302m.002 0l-.121-.06m.001 0l-.06-.06"/><path id="m" d="M112.53 89.429v1.028m0 0l.06.121m0 0l.06.06m0 0l.12.06m0 .001h.242m-.002 0l.121-.06m-.001-.001l.06-.06m0 0l.06-.121m0 0v-1.028m.55.121l.06-.06m0-.001l.121-.06m-.001 0h.302m-.002 0l.12.06m0 0l.06.06m0 .001l.06.12m0 .001v.121m0 0l-.06.181m0 0l-.726.726m.006 0h.786"/><path id="n" d="M95.237 97.512l-.06.06m-.001 0l-.181.06m0 .001h-.12m-.001 0l-.181-.06m-.001-.001l-.121-.121m.001.001l-.06-.121m-.001-.001l-.06-.242m0 .001v-.181m0-.001l.06-.242m0 0l.06-.12m.001-.001l.121-.121m-.001 0l.181-.06m.001 0h.12m.001 0l.181.06m0 0l.06.06m1.271 1.15l-.423-.605m-.303.605v-1.27m0 0h.484m0 0l.121.06m0 0l.06.06m0 .001l.06.12m.001.001v.181m0 0l-.06.12m-.001.001l-.06.06m0 .001l-.121.06m0 0h-.484m1.935.605h-.726m.363 0v-1.27m0 0l-.12.181m-.001 0l-.121.12m.001.001l-.12.06"/><path id="o" d="M95.135 94.915h-.726m.363 0v-1.27m0 0l-.12.181m-.001.001l-.121.12m0 .001l-.12.06m1.269.907v-1.27m.726 1.27l-.544-.726m.544-.544l-.726.726m1.149-.726h.847m0 0l-.544 1.27"/></defs></svg>