<svg xmlns="http://www.w3.org/2000/svg" width="297mm" height="793.739" viewBox="0 0 297 210.01"><rect width="297" height="210.01" fill="#F5F4EF" stroke="none" stroke-linecap="round" stroke-linejoin="round" stroke-width="0" rx="0"/><g fill="#840000" fill-opacity="0" stroke="#840000" stroke-linecap="round" stroke-linejoin="round" stroke-width=".152"><path fill="none" d="M177 166.01h108v32H177v-32"/><path fill="none" d="M10 10h277v190.01H10V10"/><path fill="none" d="M12 12h273v186.01H12V12M60 12v-2M110 12v-2M160 12v-2M210 12v-2M260 12v-2"/><g class="stroked-text"><path fill="none" d="M36.091 11.594h-.743M35.719 11.594v-1.3M35.719 10.294l-.124.186M35.595 10.479l-.124.124M35.472 10.603l-.124.062"/></g><g class="stroked-text"><path fill="none" d="m85.348 10.417.062-.062M85.41 10.355l.124-.062M85.534 10.294h.31M85.843 10.294l.124.062M85.967 10.355l.062.062M86.029 10.417l.062.124M86.091 10.541v.124M86.091 10.665l-.062.186M86.029 10.851l-.743.743M85.286 11.594h.805"/></g><g class="stroked-text"><path fill="none" d="M135.29 10.294h.805M136.09 10.294l-.433.495M135.66 10.789h.186M135.84 10.789l.124.062M135.97 10.851l.062.062M136.03 10.912l.062.124M136.09 11.036v.31M136.09 11.346l-.062.124M136.03 11.47l-.062.062M135.97 11.532l-.124.062M135.84 11.594h-.371M135.47 11.594l-.124-.062M135.35 11.532l-.062-.062"/></g><g class="stroked-text"><path fill="none" d="M185.97 10.727v.867M185.66 10.232l-.31.928M185.35 11.16h.805"/></g><g class="stroked-text"><path fill="none" d="M236.03 10.294h-.619M235.41 10.294l-.062.619M235.35 10.912l.062-.062M235.41 10.851l.124-.062M235.53 10.789h.31M235.84 10.789l.124.062M235.97 10.851l.062.062M236.03 10.912l.062.124M236.09 11.036v.31M236.09 11.346l-.062.124M236.03 11.47l-.062.062M235.97 11.532l-.124.062M235.84 11.594h-.31M235.53 11.594l-.124-.062M235.41 11.532l-.062-.062"/></g><g class="stroked-text"><path fill="none" d="M285.97 10.294h-.248M285.72 10.294l-.124.062M285.6 10.355l-.062.062M285.53 10.417l-.124.186M285.41 10.603l-.062.248M285.35 10.851v.495M285.35 11.346l.062.124M285.41 11.47l.062.062M285.47 11.532l.124.062M285.6 11.594h.248M285.84 11.594l.124-.062M285.97 11.532l.062-.062M286.03 11.47l.062-.124M286.09 11.346v-.31M286.09 11.036l-.062-.124M286.03 10.912l-.062-.062M285.97 10.851l-.124-.062M285.84 10.789h-.248M285.6 10.789l-.124.062M285.47 10.851l-.062.062M285.41 10.912l-.062.124"/></g><path fill="none" d="M60 198.01v2M110 198.01v2M160 198.01v2M210 198.01v2M260 198.01v2"/><g class="stroked-text"><path fill="none" d="M36.091 199.6h-.743M35.719 199.6v-1.3M35.719 198.3l-.124.186M35.595 198.49l-.124.124M35.472 198.61l-.124.062"/></g><g class="stroked-text"><path fill="none" d="m85.348 198.42.062-.062M85.41 198.36l.124-.062M85.534 198.3h.31M85.843 198.3l.124.062M85.967 198.36l.062.062M86.029 198.42l.062.124M86.091 198.55v.124M86.091 198.67l-.062.186M86.029 198.86l-.743.743M85.286 199.6h.805"/></g><g class="stroked-text"><path fill="none" d="M135.29 198.3h.805M136.09 198.3l-.433.495M135.66 198.8h.186M135.84 198.8l.124.062M135.97 198.86l.062.062M136.03 198.92l.062.124M136.09 199.04v.31M136.09 199.35l-.062.124M136.03 199.48l-.062.062M135.97 199.54l-.124.062M135.84 199.6h-.371M135.47 199.6l-.124-.062M135.35 199.54l-.062-.062"/></g><g class="stroked-text"><path fill="none" d="M185.97 198.73v.867M185.66 198.24l-.31.928M185.35 199.17h.805"/></g><g class="stroked-text"><path fill="none" d="M236.03 198.3h-.619M235.41 198.3l-.062.619M235.35 198.92l.062-.062M235.41 198.86l.124-.062M235.53 198.8h.31M235.84 198.8l.124.062M235.97 198.86l.062.062M236.03 198.92l.062.124M236.09 199.04v.31M236.09 199.35l-.062.124M236.03 199.48l-.062.062M235.97 199.54l-.124.062M235.84 199.6h-.31M235.53 199.6l-.124-.062M235.41 199.54l-.062-.062"/></g><g class="stroked-text"><path fill="none" d="M285.97 198.3h-.248M285.72 198.3l-.124.062M285.6 198.36l-.062.062M285.53 198.42l-.124.186M285.41 198.61l-.062.248M285.35 198.86v.495M285.35 199.35l.062.124M285.41 199.48l.062.062M285.47 199.54l.124.062M285.6 199.6h.248M285.84 199.6l.124-.062M285.97 199.54l.062-.062M286.03 199.48l.062-.124M286.09 199.35v-.31M286.09 199.04l-.062-.124M286.03 198.92l-.062-.062M285.97 198.86l-.124-.062M285.84 198.8h-.248M285.6 198.8l-.124.062M285.47 198.86l-.062.062M285.41 198.92l-.062.124"/></g><path fill="none" d="M10 60h2M10 110h2M10 160h2"/><g class="stroked-text"><path fill="none" d="M10.69 35.222h.619M10.567 35.594l.433-1.3M11 34.294l.433 1.3"/></g><g class="stroked-text"><path fill="none" d="m11.093 84.912.186.062M11.278 84.974l.062.062M11.34 85.036l.062.124M11.402 85.16v.186M11.402 85.346l-.062.124M11.34 85.47l-.062.062M11.278 85.532l-.124.062M11.155 85.594h-.495M10.66 85.594v-1.3M10.66 84.294h.433M11.093 84.294l.124.062M11.217 84.355l.062.062M11.278 84.417l.062.124M11.34 84.541v.124M11.34 84.665l-.062.124M11.278 84.789l-.062.062M11.217 84.851l-.124.062M11.093 84.912h-.433"/></g><g class="stroked-text"><path fill="none" d="m11.402 135.47-.062.062M11.34 135.53l-.186.062M11.155 135.59h-.124M11.031 135.59l-.186-.062M10.845 135.53l-.124-.124M10.721 135.41l-.062-.124M10.66 135.28l-.062-.248M10.598 135.04v-.186M10.598 134.85l.062-.248M10.66 134.6l.062-.124M10.721 134.48l.124-.124M10.845 134.36l.186-.062M11.031 134.29h.124M11.155 134.29l.186.062M11.34 134.36l.062.062"/></g><g class="stroked-text"><path fill="none" d="M10.66 185.59v-1.3M10.66 184.29h.31M10.969 184.29l.186.062M11.155 184.36l.124.124M11.278 184.48l.062.124M11.34 184.6l.062.248M11.402 184.85v.186M11.402 185.04l-.062.248M11.34 185.28l-.062.124M11.278 185.41l-.124.124M11.155 185.53l-.186.062M10.969 185.59h-.31"/></g><path fill="none" d="M287 60h-2M287 110h-2M287 160h-2"/><g class="stroked-text"><path fill="none" d="M285.69 35.222h.619M285.57 35.594l.433-1.3M286 34.294l.433 1.3"/></g><g class="stroked-text"><path fill="none" d="m286.1 84.912.186.062M286.28 84.974l.062.062M286.34 85.036l.062.124M286.4 85.16v.186M286.4 85.346l-.062.124M286.34 85.47l-.062.062M286.28 85.532l-.124.062M286.16 85.594h-.495M285.66 85.594v-1.3M285.66 84.294h.433M286.1 84.294l.124.062M286.22 84.355l.062.062M286.28 84.417l.062.124M286.34 84.541v.124M286.34 84.665l-.062.124M286.28 84.789l-.062.062M286.22 84.851l-.124.062M286.1 84.912h-.433"/></g><g class="stroked-text"><path fill="none" d="m286.4 135.47-.062.062M286.34 135.53l-.186.062M286.16 135.59h-.124M286.03 135.59l-.186-.062M285.85 135.53l-.124-.124M285.72 135.41l-.062-.124M285.66 135.28l-.062-.248M285.6 135.04v-.186M285.6 134.85l.062-.248M285.66 134.6l.062-.124M285.72 134.48l.124-.124M285.85 134.36l.186-.062M286.03 134.29h.124M286.16 134.29l.186.062M286.34 134.36l.062.062"/></g><g class="stroked-text"><path fill="none" d="M285.66 185.59v-1.3M285.66 184.29h.31M285.97 184.29l.186.062M286.16 184.36l.124.124M286.28 184.48l.062.124M286.34 184.6l.062.248M286.4 184.85v.186M286.4 185.04l-.062.248M286.34 185.28l-.062.124M286.28 185.41l-.124.124M286.16 185.53l-.186.062M285.97 185.59h-.31"/></g><g class="stroked-text"><path fill="none" d="M200.46 193.79v-1.5M200.46 192.29h.357M200.82 192.29l.214.071M201.03 192.36l.143.143M201.17 192.51l.071.143M201.25 192.65l.071.286M201.32 192.94v.214M201.32 193.15l-.071.286M201.25 193.44l-.071.143M201.17 193.58l-.143.143M201.03 193.72l-.214.071M200.82 193.79h-.357M202.6 193.79v-.786M202.6 193.01l-.071-.143M202.53 192.86l-.143-.071M202.39 192.79h-.286M202.1 192.79l-.143.071M202.6 193.72l-.143.071M202.46 193.79h-.357M202.1 193.79l-.143-.071M201.96 193.72l-.071-.143M201.89 193.58v-.143M201.89 193.44l.071-.143M201.96 193.29l.143-.071M202.1 193.22h.357M202.46 193.22l.143-.071M203.1 192.79h.571M203.32 192.29v1.286M203.32 193.58l.071.143M203.39 193.72l.143.071M203.53 193.79h.143M204.75 193.72l-.143.071M204.6 193.79h-.286M204.32 193.79l-.143-.071M204.17 193.72l-.071-.143M204.1 193.58v-.571M204.1 193.01l.071-.143M204.17 192.86l.143-.071M204.32 192.79h.286M204.6 192.79l.143.071M204.75 192.86l.071.143M204.82 193.01v.143M204.82 193.15l-.714.143M205.46 193.65l.071.071M205.53 193.72l-.071.071M205.46 193.79l-.071-.071M205.39 193.72l.071-.071M205.46 193.65v.143M205.46 192.86l.071.071M205.53 192.94l-.071.071M205.46 193.01l-.071-.071M205.39 192.94l.071-.071M205.46 192.86v.143M207.25 192.44l.071-.071M207.32 192.36l.143-.071M207.46 192.29h.357M207.82 192.29l.143.071M207.96 192.36l.071.071M208.03 192.44l.071.143M208.1 192.58v.143M208.1 192.72l-.071.214M208.03 192.94l-.857.857M207.17 193.79h.929M209.03 192.29h.143M209.17 192.29l.143.071M209.32 192.36l.071.071M209.39 192.44l.071.143M209.46 192.58l.071.286M209.53 192.86v.357M209.53 193.22l-.071.286M209.46 193.51l-.071.143M209.39 193.65l-.071.071M209.32 193.72l-.143.071M209.17 193.79h-.143M209.03 193.79l-.143-.071M208.89 193.72l-.071-.071M208.82 193.65l-.071-.143M208.75 193.51l-.071-.286M208.67 193.22v-.357M208.67 192.86l.071-.286M208.75 192.58l.071-.143M208.82 192.44l.071-.071M208.89 192.36l.143-.071M210.1 192.44l.071-.071M210.17 192.36l.143-.071M210.32 192.29h.357M210.67 192.29l.143.071M210.82 192.36l.071.071M210.89 192.44l.071.143M210.96 192.58v.143M210.96 192.72l-.071.214M210.89 192.94l-.857.857M210.03 193.79h.929M212.25 192.79v1M211.89 192.22l-.357 1.071M211.53 193.29h.928M213.03 193.22h1.143M215.17 192.29h.143M215.32 192.29l.143.071M215.46 192.36l.071.071M215.53 192.44l.071.143M215.6 192.58l.071.286M215.67 192.86v.357M215.67 193.22l-.071.286M215.6 193.51l-.071.143M215.53 193.65l-.071.071M215.46 193.72l-.143.071M215.32 193.79h-.143M215.17 193.79l-.143-.071M215.03 193.72l-.071-.071M214.96 193.65l-.071-.143M214.89 193.51l-.071-.286M214.82 193.22v-.357M214.82 192.86l.071-.286M214.89 192.58l.071-.143M214.96 192.44l.071-.071M215.03 192.36l.143-.071M216.25 192.44l.071-.071M216.32 192.36l.143-.071M216.46 192.29h.357M216.82 192.29l.143.071M216.96 192.36l.071.071M217.03 192.44l.071.143M217.1 192.58v.143M217.1 192.72l-.071.214M217.03 192.94l-.857.857M216.17 193.79h.929M217.75 193.22h1.143M219.53 192.44l.071-.071M219.6 192.36l.143-.071M219.75 192.29h.357M220.1 192.29l.143.071M220.25 192.36l.071.071M220.32 192.44l.071.143M220.39 192.58v.143M220.39 192.72l-.071.214M220.32 192.94l-.857.857M219.46 193.79h.929M221.82 193.79h-.857M221.39 193.79v-1.5M221.39 192.29l-.143.214M221.25 192.51l-.143.143M221.1 192.65l-.143.071"/></g><path fill="none" d="M177 194.51h108"/><g class="stroked-text"><path fill="none" d="M178.46 196.59v-1.5M179.32 196.59l-.643-.857M179.32 195.09l-.857.857M179.96 196.59v-1M179.96 195.09l-.071.071M179.89 195.16l.071.071M179.96 195.24l.071-.071M180.03 195.16l-.071-.071M179.96 195.09v.143M181.53 196.45l-.071.071M181.46 196.52l-.214.071M181.25 196.59h-.143M181.1 196.59l-.214-.071M180.89 196.52l-.143-.143M180.75 196.38l-.071-.143M180.67 196.24l-.071-.286M180.6 195.95v-.214M180.6 195.74l.071-.286M180.67 195.45l.071-.143M180.75 195.31l.143-.143M180.89 195.16l.214-.071M181.1 195.09h.143M181.25 195.09l.214.071M181.46 195.16l.071.071M182.82 196.59v-.786M182.82 195.81l-.071-.143M182.75 195.66l-.143-.071M182.6 195.59h-.286M182.32 195.59l-.143.071M182.82 196.52l-.143.071M182.67 196.59h-.357M182.32 196.59l-.143-.071M182.17 196.52l-.071-.143M182.1 196.38v-.143M182.1 196.24l.071-.143M182.17 196.09l.143-.071M182.32 196.02h.357M182.67 196.02l.143-.071M184.17 196.59v-1.5M184.17 196.52l-.143.071M184.03 196.59h-.286M183.75 196.59l-.143-.071M183.6 196.52l-.071-.071M183.53 196.45l-.071-.143M183.46 196.31v-.429M183.46 195.88l.071-.143M183.53 195.74l.071-.071M183.6 195.66l.143-.071M183.75 195.59h.286M184.03 195.59l.143.071M186.03 195.81h.5M186.75 196.59h-.714M186.03 196.59v-1.5M186.03 195.09h.714M187.39 196.45l.071.071M187.46 196.52l-.071.071M187.39 196.59l-.071-.071M187.32 196.52l.071-.071M187.39 196.45v.143M188.1 196.59v-1.5M188.1 195.09h.357M188.46 195.09l.214.071M188.67 195.16l.143.143M188.82 195.31l.071.143M188.89 195.45l.071.286M188.96 195.74v.214M188.96 195.95l-.071.286M188.89 196.24l-.071.143M188.82 196.38l-.143.143M188.67 196.52l-.214.071M188.46 196.59h-.357M189.6 196.45l.071.071M189.67 196.52l-.071.071M189.6 196.59l-.071-.071M189.53 196.52l.071-.071M189.6 196.45v.143M190.25 196.16h.714M190.1 196.59l.5-1.5M190.6 195.09l.5 1.5M191.6 196.45l.071.071M191.67 196.52l-.071.071M191.6 196.59l-.071-.071M191.53 196.52l.071-.071M191.6 196.45v.143M194.6 196.59v-1.5M194.75 196.02l.428.571M195.17 195.59l-.571.571M195.82 196.59v-1M195.82 195.09l-.071.071M195.75 195.16l.071.071M195.82 195.24l.071-.071M195.89 195.16l-.071-.071M195.82 195.09v.143M197.17 196.52l-.143.071M197.03 196.59h-.286M196.75 196.59l-.143-.071M196.6 196.52l-.071-.071M196.53 196.45l-.071-.143M196.46 196.31v-.429M196.46 195.88l.071-.143M196.53 195.74l.071-.071M196.6 195.66l.143-.071M196.75 195.59h.286M197.03 195.59l.143.071M198.46 196.59v-.786M198.46 195.81l-.071-.143M198.39 195.66l-.143-.071M198.25 195.59h-.286M197.96 195.59l-.143.071M198.46 196.52l-.143.071M198.32 196.59h-.357M197.96 196.59l-.143-.071M197.82 196.52l-.071-.143M197.75 196.38v-.143M197.75 196.24l.071-.143M197.82 196.09l.143-.071M197.96 196.02h.357M198.32 196.02l.143-.071M199.82 196.59v-1.5M199.82 196.52l-.143.071M199.67 196.59h-.286M199.39 196.59l-.143-.071M199.25 196.52l-.071-.071M199.17 196.45l-.071-.143M199.1 196.31v-.429M199.1 195.88l.071-.143M199.17 195.74l.071-.071M199.25 195.66l.143-.071M199.39 195.59h.286M199.67 195.59l.143.071M201.53 195.09h1M202.53 195.09l-.643 1.5M203.1 196.45l.071.071M203.17 196.52l-.071.071M203.1 196.59l-.071-.071M203.03 196.52l.071-.071M203.1 196.45v.143M204.1 195.09h.143M204.25 195.09l.143.071M204.39 195.16l.071.071M204.46 195.24l.071.143M204.53 195.38l.071.286M204.6 195.66v.357M204.6 196.02l-.071.286M204.53 196.31l-.071.143M204.46 196.45l-.071.071M204.39 196.52l-.143.071M204.25 196.59h-.143M204.1 196.59l-.143-.071M203.96 196.52l-.071-.071M203.89 196.45l-.071-.143M203.82 196.31l-.071-.286M203.75 196.02v-.357M203.75 195.66l.071-.286M203.82 195.38l.071-.143M203.89 195.24l.071-.071M203.96 195.16l.143-.071M205.25 196.45l.071.071M205.32 196.52l-.071.071M205.25 196.59l-.071-.071M205.17 196.52l.071-.071M205.25 196.45v.143M206.75 196.59h-.857M206.32 196.59v-1.5M206.32 195.09l-.143.214M206.17 195.31l-.143.143M206.03 195.45l-.143.071M207.67 195.09h.143M207.82 195.09l.143.071M207.96 195.16l.071.071M208.03 195.24l.071.143M208.1 195.38l.071.286M208.17 195.66v.357M208.17 196.02l-.071.286M208.1 196.31l-.071.143M208.03 196.45l-.071.071M207.96 196.52l-.143.071M207.82 196.59h-.143M207.67 196.59l-.143-.071M207.53 196.52l-.071-.071M207.46 196.45l-.071-.143M207.39 196.31l-.071-.286M207.32 196.02v-.357M207.32 195.66l.071-.286M207.39 195.38l.071-.143M207.46 195.24l.071-.071M207.53 195.16l.143-.071"/></g><path fill="none" d="M177 191.51h108"/></g><g fill="#840000" fill-opacity="0" stroke="#840000" stroke-linecap="round" stroke-linejoin="round" stroke-width=".3" class="stroked-text"><path fill="none" d="m264.41 193.79-.5-.714M263.56 193.79v-1.5M263.56 192.29h.571M264.13 192.29l.143.071M264.27 192.36l.071.071M264.34 192.43l.071.143M264.41 192.57v.214M264.41 192.79l-.071.143M264.34 192.93l-.071.071M264.27 193l-.143.071M264.13 193.07h-.571M265.63 193.71l-.143.071M265.49 193.79h-.286M265.2 193.79l-.143-.071M265.06 193.71l-.071-.143M264.99 193.57v-.571M264.99 193l.071-.143M265.06 192.86l.143-.071M265.2 192.79h.286M265.49 192.79l.143.071M265.63 192.86l.071.143M265.7 193v.143M265.7 193.14l-.714.143M266.2 192.79l.357 1M266.56 193.79l.357-1M267.49 193.64l.071.071M267.56 193.71l-.071.071M267.49 193.79l-.071-.071M267.41 193.71l.071-.071M267.49 193.64v.143M267.49 192.86l.071.071M267.56 192.93l-.071.071M267.49 193l-.071-.071M267.41 192.93l.071-.071M267.49 192.86v.143M269.63 192.29h.143M269.77 192.29l.143.071M269.91 192.36l.071.071M269.99 192.43l.071.143M270.06 192.57l.071.286M270.13 192.86v.357M270.13 193.21l-.071.286M270.06 193.5l-.071.143M269.99 193.64l-.071.071M269.91 193.71l-.143.071M269.77 193.79h-.143M269.63 193.79l-.143-.071M269.49 193.71l-.071-.071M269.41 193.64l-.071-.143M269.34 193.5l-.071-.286M269.27 193.21v-.357M269.27 192.86l.071-.286M269.34 192.57l.071-.143M269.41 192.43l.071-.071M269.49 192.36l.143-.071M271.56 193.79h-.857M271.13 193.79v-1.5M271.13 192.29l-.143.214M270.99 192.5l-.143.143M270.84 192.64l-.143.071M272.2 193.21h1.143M273.99 192.43l.071-.071M274.06 192.36l.143-.071M274.2 192.29h.357M274.56 192.29l.143.071M274.7 192.36l.071.071M274.77 192.43l.071.143M274.84 192.57v.143M274.84 192.71l-.071.214M274.77 192.93l-.857.857M273.91 193.79h.929M275.77 192.29h.143M275.91 192.29l.143.071M276.06 192.36l.071.071M276.13 192.43l.071.143M276.2 192.57l.071.286M276.27 192.86v.357M276.27 193.21l-.071.286M276.2 193.5l-.071.143M276.13 193.64l-.071.071M276.06 193.71l-.143.071M275.91 193.79h-.143M275.77 193.79l-.143-.071M275.63 193.71l-.071-.071M275.56 193.64l-.071-.143M275.49 193.5l-.071-.286M275.41 193.21v-.357M275.41 192.86l.071-.286M275.49 192.57l.071-.143M275.56 192.43l.071-.071M275.63 192.36l.143-.071M276.84 192.43l.071-.071M276.91 192.36l.143-.071M277.06 192.29h.357M277.41 192.29l.143.071M277.56 192.36l.071.071M277.63 192.43l.071.143M277.7 192.57v.143M277.7 192.71l-.071.214M277.63 192.93l-.857.857M276.77 193.79h.929M278.99 192.79v1M278.63 192.21l-.357 1.071M278.27 193.29h.928"/></g><g fill="#840000" fill-opacity="0" stroke="#840000" stroke-linecap="round" stroke-linejoin="round" stroke-width=".152"><g class="stroked-text"><path fill="none" d="m178.39 193.72.214.071M178.6 193.79h.357M178.96 193.79l.143-.071M179.1 193.72l.071-.071M179.17 193.65l.071-.143M179.25 193.51v-.143M179.25 193.36l-.071-.143M179.17 193.22l-.071-.071M179.1 193.15l-.143-.071M178.96 193.08l-.286-.071M178.67 193.01l-.143-.071M178.53 192.94l-.071-.071M178.46 192.86l-.071-.143M178.39 192.72v-.143M178.39 192.58l.071-.143M178.46 192.44l.071-.071M178.53 192.36l.143-.071M178.67 192.29h.357M179.03 192.29l.214.071M179.89 193.79v-1M179.89 192.29l-.071.071M179.82 192.36l.071.071M179.89 192.44l.071-.071M179.96 192.36l-.071-.071M179.89 192.29v.143M180.46 192.79h.786M181.25 192.79l-.786 1M180.46 193.79h.786M182.39 193.72l-.143.071M182.25 193.79h-.286M181.96 193.79l-.143-.071M181.82 193.72l-.071-.143M181.75 193.58v-.571M181.75 193.01l.071-.143M181.82 192.86l.143-.071M181.96 192.79h.286M182.25 192.79l.143.071M182.39 192.86l.071.143M182.46 193.01v.143M182.46 193.15l-.714.143M183.1 193.65l.071.071M183.17 193.72l-.071.071M183.1 193.79l-.071-.071M183.03 193.72l.071-.071M183.1 193.65v.143M183.1 192.86l.071.071M183.17 192.94l-.071.071M183.1 193.01l-.071-.071M183.03 192.94l.071-.071M183.1 192.86v.143M184.89 193.36h.714M184.75 193.79l.5-1.5M185.25 192.29l.5 1.5M186.89 192.79v1M186.53 192.22l-.357 1.071M186.17 193.29h.928"/></g><g class="stroked-text"><path fill="none" d="M263.46 196.59v-1.5M264.82 196.59v-1.5M264.82 196.52l-.143.071M264.67 196.59h-.286M264.39 196.59l-.143-.071M264.25 196.52l-.071-.071M264.17 196.45l-.071-.143M264.1 196.31v-.429M264.1 195.88l.071-.143M264.17 195.74l.071-.071M264.25 195.66l.143-.071M264.39 195.59h.286M264.67 195.59l.143.071M265.53 196.45l.071.071M265.6 196.52l-.071.071M265.53 196.59l-.071-.071M265.46 196.52l.071-.071M265.53 196.45v.143M265.53 195.66l.071.071M265.6 195.74l-.071.071M265.53 195.81l-.071-.071M265.46 195.74l.071-.071M265.53 195.66v.143M268.17 196.59h-.857M267.75 196.59v-1.5M267.75 195.09l-.143.214M267.6 195.31l-.143.143M267.46 195.45l-.143.071M269.89 195.02l-1.286 1.929M271.17 196.59h-.857M270.75 196.59v-1.5M270.75 195.09l-.143.214M270.6 195.31l-.143.143M270.46 195.45l-.143.071"/></g><path fill="none" d="M177 187.51h108"/></g><g fill="#840000" fill-opacity="0" stroke="#840000" stroke-linecap="round" stroke-linejoin="round" stroke-width=".4" class="stroked-text"><path fill="none" d="M178.69 188.21h1.143M179.02 190.21l.25-2M180.25 190.21l.167-1.333M180.5 188.21l-.107.095M180.4 188.31l.083.095M180.48 188.4l.107-.095M180.59 188.31l-.083-.095M180.5 188.21l-.024.19M181.09 188.88h.762M181.46 188.21l-.214 1.714M181.24 189.93l.071.19M181.31 190.12l.179.095M181.49 190.21h.19M182.63 190.21l-.179-.095M182.46 190.12l-.071-.19M182.38 189.93l.214-1.714M184.17 190.12l-.202.095M183.97 190.21h-.381M183.59 190.21l-.179-.095M183.41 190.12l-.071-.19M183.34 189.93l.095-.762M183.43 189.16l.119-.19M183.55 188.97l.202-.095M183.75 188.88h.38M184.13 188.88l.179.095M184.31 188.97l.071.19M184.38 189.16l-.024.19M184.36 189.35l-.976.19M185.13 190.02l.083.095M185.22 190.12l-.107.095M185.11 190.21l-.083-.095M185.03 190.12l.107-.095M185.13 190.02l-.024.19M185.27 188.97l.083.095M185.35 189.07l-.107.095M185.24 189.16l-.083-.095M185.16 189.07l.107-.095M185.27 188.97l-.024.19M187.59 190.21l.25-2M188.71 188.88l-.167 1.333M188.68 189.07l.107-.095M188.79 188.97l.202-.095M188.99 188.88h.286M189.28 188.88l.179.095M189.46 188.97l.071.19M189.53 189.16l-.13 1.048M190.27 190.12l.179.095M190.44 190.21h.38M190.82 190.21l.202-.095M191.03 190.12l.12-.19M191.15 189.93l.012-.095M191.16 189.83l-.071-.19M191.09 189.64l-.178-.095M190.91 189.54h-.286M190.62 189.54l-.178-.095M190.44 189.45l-.071-.19M190.37 189.26l.012-.095M190.38 189.16l.119-.19M190.5 188.97l.202-.095M190.71 188.88h.286M190.99 188.88l.179.095M191.85 188.88h.762M192.22 188.21l-.214 1.714M192 189.93l.071.19M192.07 190.12l.179.095M192.25 190.21h.19M193.11 190.21l.167-1.333M193.23 189.26l.119-.19M193.35 189.07l.107-.095M193.46 188.97l.202-.095M193.66 188.88h.19M195.37 188.88l-.167 1.333M194.52 188.88l-.13 1.048M194.38 189.93l.071.19M194.46 190.12l.179.095M194.63 190.21h.286M194.92 190.21l.202-.095M195.12 190.12l.107-.095M196.16 190.21l.167-1.333M196.3 189.07l.107-.095M196.41 188.97l.202-.095M196.61 188.88h.286M196.9 188.88l.179.095M197.07 188.97l.071.19M197.15 189.16l-.13 1.048M197.15 189.16l.12-.19M197.27 188.97l.202-.095M197.47 188.88h.286M197.75 188.88l.178.095M197.93 188.97l.071.19M198 189.16l-.131 1.048M199.6 190.12l-.202.095M199.4 190.21h-.381M199.02 190.21l-.179-.095M198.84 190.12l-.071-.19M198.77 189.93l.095-.762M198.86 189.16l.119-.19M198.98 188.97l.202-.095M199.18 188.88h.38M199.56 188.88l.179.095M199.74 188.97l.071.19M199.81 189.16l-.024.19M199.79 189.35l-.976.19M200.71 188.88l-.167 1.333M200.68 189.07l.107-.095M200.79 188.97l.202-.095M200.99 188.88h.286M201.28 188.88l.179.095M201.46 188.97l.071.19M201.53 189.16l-.13 1.048M202.23 188.88h.762M202.6 188.21l-.214 1.714M202.38 189.93l.071.19M202.46 190.12l.179.095M202.63 190.21h.19M203.41 190.12l.179.095M203.59 190.21h.38M203.97 190.21l.202-.095M204.17 190.12l.12-.19M204.29 189.93l.012-.095M204.3 189.83l-.071-.19M204.23 189.64l-.178-.095M204.05 189.54h-.286M203.77 189.54l-.178-.095M203.59 189.45l-.071-.19M203.52 189.26l.012-.095M203.53 189.16l.119-.19M203.65 188.97l.202-.095M203.85 188.88h.286M204.13 188.88l.179.095M207.8 190.02l-.107.095M207.69 190.12l-.298.095M207.4 190.21h-.19M207.21 190.21l-.274-.095M206.93 190.12l-.167-.19M206.77 189.93l-.071-.19M206.69 189.74l-.048-.381M206.65 189.35l.036-.286M206.68 189.07l.143-.38M206.82 188.69l.12-.19M206.94 188.5l.214-.19M207.16 188.31l.298-.095M207.46 188.21h.19M207.65 188.21l.274.095M207.92 188.31l.083.095M208.92 190.21l-.179-.095M208.74 190.12l-.071-.19M208.67 189.93l.214-1.714M210.71 188.88l-.167 1.333M209.85 188.88l-.13 1.048M209.72 189.93l.071.19M209.79 190.12l.179.095M209.97 190.21h.286M210.25 190.21l.202-.095M210.46 190.12l.107-.095M211.41 190.12l.179.095M211.59 190.21h.38M211.97 190.21l.202-.095M212.17 190.12l.12-.19M212.29 189.93l.012-.095M212.3 189.83l-.071-.19M212.23 189.64l-.178-.095M212.05 189.54h-.286M211.77 189.54l-.178-.095M211.59 189.45l-.071-.19M211.52 189.26l.012-.095M211.53 189.16l.119-.19M211.65 188.97l.202-.095M211.85 188.88h.286M212.13 188.88l.179.095M212.99 188.88h.762M213.36 188.21l-.214 1.714M213.15 189.93l.071.19M213.22 190.12l.179.095M213.4 190.21h.19M215.03 190.12l-.202.095M214.82 190.21h-.381M214.44 190.21l-.179-.095M214.27 190.12l-.071-.19M214.19 189.93l.095-.762M214.29 189.16l.119-.19M214.41 188.97l.202-.095M214.61 188.88h.38M214.99 188.88l.179.095M215.17 188.97l.071.19M215.24 189.16l-.024.19M215.22 189.35l-.976.19M215.97 190.21l.167-1.333M216.09 189.26l.119-.19M216.21 189.07l.107-.095M216.31 188.97l.202-.095M216.52 188.88h.19M219.68 190.21h-.952M218.73 190.21l.25-2M220.48 189.16h.667M221.3 190.21h-.952M220.35 190.21l.25-2M220.6 188.21h.952M222.16 190.21l.25-2M222.41 188.21h.476M222.88 188.21l.274.095M223.16 188.31l.167.19M223.32 188.5l.071.19M223.4 188.69l.048.38M223.44 189.07l-.036.286M223.41 189.35l-.143.381M223.27 189.74l-.12.19M223.15 189.93l-.214.19M222.93 190.12l-.298.095M222.63 190.21h-.476M226.71 188.88l-.167 1.333M225.85 188.88l-.13 1.048M225.72 189.93l.071.19M225.79 190.12l.179.095M225.97 190.21h.286M226.25 190.21l.202-.095M226.46 190.12l.107-.095M227.66 188.88l-.25 2M227.65 188.97l.202-.095M227.85 188.88h.38M228.23 188.88l.179.095M228.41 188.97l.083.095M228.49 189.07l.071.19M228.56 189.26l-.071.571M228.49 189.83l-.119.19M228.37 190.02l-.107.095M228.27 190.12l-.202.095M228.06 190.21h-.381M227.68 190.21l-.179-.095M230.32 188.88l-.202 1.619M230.12 190.5l-.12.19M230 190.69l-.107.095M229.9 190.78l-.202.095M229.69 190.88h-.286M229.41 190.88l-.179-.095M230.17 190.12l-.202.095M229.97 190.21h-.38M229.59 190.21l-.179-.095M229.41 190.12l-.083-.095M229.32 190.02l-.071-.19M229.25 189.83l.071-.571M229.32 189.26l.12-.19M229.44 189.07l.107-.095M229.55 188.97l.202-.095M229.75 188.88h.381M230.13 188.88l.178.095M231.11 190.21l.167-1.333M231.23 189.26l.119-.19M231.35 189.07l.107-.095M231.46 188.97l.202-.095M231.66 188.88h.19M233.21 190.21l.13-1.048M233.34 189.16l-.071-.19M233.27 188.97l-.179-.095M233.09 188.88h-.38M232.71 188.88l-.202.095M233.22 190.12l-.202.095M233.02 190.21h-.476M232.54 190.21l-.179-.095M232.36 190.12l-.071-.19M232.29 189.93l.024-.19M232.31 189.74l.12-.19M232.43 189.54l.202-.095M232.63 189.45h.476M233.11 189.45l.202-.095M235.02 190.21l.25-2M235.03 190.12l-.202.095M234.82 190.21h-.38M234.44 190.21l-.179-.095M234.27 190.12l-.083-.095M234.18 190.02l-.071-.19M234.11 189.83l.071-.571M234.18 189.26l.12-.19M234.3 189.07l.107-.095M234.41 188.97l.202-.095M234.61 188.88h.381M234.99 188.88l.178.095M236.74 190.12l-.202.095M236.54 190.21h-.381M236.16 190.21l-.179-.095M235.98 190.12l-.071-.19M235.91 189.93l.095-.762M236 189.16l.119-.19M236.12 188.97l.202-.095M236.32 188.88h.38M236.71 188.88l.179.095M236.88 188.97l.071.19M236.96 189.16l-.024.19M236.93 189.35l-.976.19"/></g><g fill="#840000" fill-opacity="0" stroke="#840000" stroke-linecap="round" stroke-linejoin="round" stroke-width=".152"><g class="stroked-text"><path fill="none" d="M178.96 185.61h-.5M178.46 186.39v-1.5M178.46 184.89h.714M179.75 186.39v-1M179.75 184.89l-.071.071M179.67 184.96l.071.071M179.75 185.04l.071-.071M179.82 184.96l-.071-.071M179.75 184.89v.143M180.67 186.39l-.143-.071M180.53 186.32l-.071-.143M180.46 186.18v-1.286M181.82 186.32l-.143.071M181.67 186.39h-.286M181.39 186.39l-.143-.071M181.25 186.32l-.071-.143M181.17 186.18v-.571M181.17 185.61l.071-.143M181.25 185.46l.143-.071M181.39 185.39h.286M181.67 185.39l.143.071M181.82 185.46l.071.143M181.89 185.61v.143M181.89 185.75l-.714.143M182.53 186.25l.071.071M182.6 186.32l-.071.071M182.53 186.39l-.071-.071M182.46 186.32l.071-.071M182.53 186.25v.143M182.53 185.46l.071.071M182.6 185.54l-.071.071M182.53 185.61l-.071-.071M182.46 185.54l.071-.071M182.53 185.46v.143M184.39 186.39v-1M184.39 184.89l-.071.071M184.32 184.96l.071.071M184.39 185.04l.071-.071M184.46 184.96l-.071-.071M184.39 184.89v.143M185.1 185.39v1M185.1 185.54l.071-.071M185.17 185.46l.143-.071M185.32 185.39h.214M185.53 185.39l.143.071M185.67 185.46l.071.143M185.75 185.61v.786M186.39 186.32l.143.071M186.53 186.39h.286M186.82 186.39l.143-.071M186.96 186.32l.071-.143M187.03 186.18v-.071M187.03 186.11l-.071-.143M186.96 185.96l-.143-.071M186.82 185.89h-.214M186.6 185.89l-.143-.071M186.46 185.82l-.071-.143M186.39 185.68v-.071M186.39 185.61l.071-.143M186.46 185.46l.143-.071M186.6 185.39h.214M186.82 185.39l.143.071M187.46 185.39h.571M187.67 184.89v1.286M187.67 186.18l.071.143M187.75 186.32l.143.071M187.89 186.39h.143M188.53 186.39v-1M188.53 185.68l.071-.143M188.6 185.54l.071-.071M188.67 185.46l.143-.071M188.82 185.39h.143M190.1 185.39v1M189.46 185.39v.786M189.46 186.18l.071.143M189.53 186.32l.143.071M189.67 186.39h.214M189.89 186.39l.143-.071M190.03 186.32l.071-.071M190.82 186.39v-1M190.82 185.54l.071-.071M190.89 185.46l.143-.071M191.03 185.39h.214M191.25 185.39l.143.071M191.39 185.46l.071.143M191.46 185.61v.786M191.46 185.61l.071-.143M191.53 185.46l.143-.071M191.67 185.39h.214M191.89 185.39l.143.071M192.03 185.46l.071.143M192.1 185.61v.786M193.39 186.32l-.143.071M193.25 186.39h-.286M192.96 186.39l-.143-.071M192.82 186.32l-.071-.143M192.75 186.18v-.571M192.75 185.61l.071-.143M192.82 185.46l.143-.071M192.96 185.39h.286M193.25 185.39l.143.071M193.39 185.46l.071.143M193.46 185.61v.143M193.46 185.75l-.714.143M194.1 185.39v1M194.1 185.54l.071-.071M194.17 185.46l.143-.071M194.32 185.39h.214M194.53 185.39l.143.071M194.67 185.46l.071.143M194.75 185.61v.786M195.25 185.39h.571M195.46 184.89v1.286M195.46 186.18l.071.143M195.53 186.32l.143.071M195.67 186.39h.143M195.96 186.54h1.143M198.1 186.32l-.143.071M197.96 186.39h-.286M197.67 186.39l-.143-.071M197.53 186.32l-.071-.071M197.46 186.25l-.071-.143M197.39 186.11v-.429M197.39 185.68l.071-.143M197.46 185.54l.071-.071M197.53 185.46l.143-.071M197.67 185.39h.286M197.96 185.39l.143.071M198.96 186.39l-.143-.071M198.82 186.32l-.071-.143M198.75 186.18v-1.286M200.17 185.39v1M199.53 185.39v.786M199.53 186.18l.071.143M199.6 186.32l.143.071M199.75 186.39h.214M199.96 186.39l.143-.071M200.1 186.32l.071-.071M200.82 186.32l.143.071M200.96 186.39h.286M201.24 186.39l.143-.071M201.39 186.32l.071-.143M201.46 186.18v-.071M201.46 186.11l-.071-.143M201.39 185.96l-.143-.071M201.24 185.89h-.214M201.03 185.89l-.143-.071M200.89 185.82l-.071-.143M200.82 185.68v-.071M200.82 185.61l.071-.143M200.89 185.46l.143-.071M201.03 185.39h.214M201.24 185.39l.143.071M201.89 185.39h.571M202.1 184.89v1.286M202.1 186.18l.071.143M202.17 186.32l.143.071M202.32 186.39h.143M203.53 186.32l-.143.071M203.39 186.39h-.286M203.1 186.39l-.143-.071M202.96 186.32l-.071-.143M202.89 186.18v-.571M202.89 185.61l.071-.143M202.96 185.46l.143-.071M203.1 185.39h.286M203.39 185.39l.143.071M203.53 185.46l.071.143M203.6 185.61v.143M203.6 185.75l-.714.143M204.24 186.39v-1M204.24 185.68l.071-.143M204.32 185.54l.071-.071M204.39 185.46l.143-.071M204.53 185.39h.143M204.82 186.54h1.143M206.96 186.39v-1.5M206.96 186.32l-.143.071M206.82 186.39h-.286M206.53 186.39l-.143-.071M206.39 186.32l-.071-.071M206.32 186.25l-.071-.143M206.25 186.11v-.429M206.25 185.68l.071-.143M206.32 185.54l.071-.071M206.39 185.46l.143-.071M206.53 185.39h.286M206.82 185.39l.143.071M207.67 186.39v-1M207.67 184.89l-.071.071M207.6 184.96l.071.071M207.67 185.04l.071-.071M207.74 184.96l-.071-.071M207.67 184.89v.143M209.03 186.39v-.786M209.03 185.61l-.071-.143M208.96 185.46l-.143-.071M208.82 185.39h-.286M208.53 185.39l-.143.071M209.03 186.32l-.143.071M208.89 186.39h-.357M208.53 186.39l-.143-.071M208.39 186.32l-.071-.143M208.32 186.18v-.143M208.32 186.04l.071-.143M208.39 185.89l.143-.071M208.53 185.82h.357M208.89 185.82l.143-.071M209.96 186.39l-.143-.071M209.82 186.32l-.071-.143M209.74 186.18v-1.286M210.46 186.32l.143.071M210.6 186.39h.286M210.89 186.39l.143-.071M211.03 186.32l.071-.143M211.1 186.18v-.071M211.1 186.11l-.071-.143M211.03 185.96l-.143-.071M210.89 185.89h-.214M210.67 185.89l-.143-.071M210.53 185.82l-.071-.143M210.46 185.68v-.071M210.46 185.61l.071-.143M210.53 185.46l.143-.071M210.67 185.39h.214M210.89 185.39l.143.071M211.39 186.54h1.143M213.1 186.39l-.143-.071M212.96 186.32l-.071-.143M212.89 186.18v-1.286M214.24 186.32l-.143.071M214.1 186.39h-.286M213.82 186.39l-.143-.071M213.67 186.32l-.071-.143M213.6 186.18v-.571M213.6 185.61l.071-.143M213.67 185.46l.143-.071M213.82 185.39h.286M214.1 185.39l.143.071M214.24 185.46l.071.143M214.32 185.61v.143M214.32 185.75l-.714.143M215.6 186.39v-1.5M215.6 186.32l-.143.071M215.46 186.39h-.286M215.17 186.39l-.143-.071M215.03 186.32l-.071-.071M214.96 186.25l-.071-.143M214.89 186.11v-.429M214.89 185.68l.071-.143M214.96 185.54l.071-.071M215.03 185.46l.143-.071M215.17 185.39h.286M215.46 185.39l.143.071M216.32 186.25l.071.071M216.39 186.32l-.071.071M216.32 186.39l-.071-.071M216.24 186.32l.071-.071M216.32 186.25v.143M217.03 186.39v-1.5M217.17 185.82l.428.571M217.6 185.39l-.571.571M218.24 186.39v-1M218.24 184.89l-.071.071M218.17 184.96l.071.071M218.24 185.04l.071-.071M218.32 184.96l-.071-.071M218.24 184.89v.143M219.6 186.32l-.143.071M219.46 186.39h-.286M219.17 186.39l-.143-.071M219.03 186.32l-.071-.071M218.96 186.25l-.071-.143M218.89 186.11v-.429M218.89 185.68l.071-.143M218.96 185.54l.071-.071M219.03 185.46l.143-.071M219.17 185.39h.286M219.46 185.39l.143.071M220.89 186.39v-.786M220.89 185.61l-.071-.143M220.82 185.46l-.143-.071M220.67 185.39h-.286M220.39 185.39l-.143.071M220.89 186.32l-.143.071M220.74 186.39h-.357M220.39 186.39l-.143-.071M220.24 186.32l-.071-.143M220.17 186.18v-.143M220.17 186.04l.071-.143M220.24 185.89l.143-.071M220.39 185.82h.357M220.74 185.82l.143-.071M222.24 186.39v-1.5M222.24 186.32l-.143.071M222.1 186.39h-.286M221.82 186.39l-.143-.071M221.67 186.32l-.071-.071M221.6 186.25l-.071-.143M221.53 186.11v-.429M221.53 185.68l.071-.143M221.6 185.54l.071-.071M221.67 185.46l.143-.071M221.82 185.39h.286M222.1 185.39l.143.071M222.6 186.54h1.143M224.03 186.32l.143.071M224.17 186.39h.286M224.46 186.39l.143-.071M224.6 186.32l.071-.143M224.67 186.18v-.071M224.67 186.11l-.071-.143M224.6 185.96l-.143-.071M224.46 185.89h-.214M224.24 185.89l-.143-.071M224.1 185.82l-.071-.143M224.03 185.68v-.071M224.03 185.61l.071-.143M224.1 185.46l.143-.071M224.24 185.39h.214M224.46 185.39l.143.071M225.96 186.32l-.143.071M225.82 186.39h-.286M225.53 186.39l-.143-.071M225.39 186.32l-.071-.071M225.32 186.25l-.071-.143M225.24 186.11v-.429M225.24 185.68l.071-.143M225.32 185.54l.071-.071M225.39 185.46l.143-.071M225.53 185.39h.286M225.82 185.39l.143.071M226.6 186.39v-1.5M227.24 186.39v-.786M227.24 185.61l-.071-.143M227.17 185.46l-.143-.071M227.03 185.39h-.214M226.82 185.39l-.143.071M226.67 185.46l-.071.071"/></g><path fill="none" d="M177 181.51h108"/><g class="stroked-text"><path fill="none" d="m178.39 183.62.214.071M178.6 183.69h.357M178.96 183.69l.143-.071M179.1 183.62l.071-.071M179.17 183.55l.071-.143M179.25 183.41v-.143M179.25 183.26l-.071-.143M179.17 183.12l-.071-.071M179.1 183.05l-.143-.071M178.96 182.98l-.286-.071M178.67 182.91l-.143-.071M178.53 182.84l-.071-.071M178.46 182.76l-.071-.143M178.39 182.62v-.143M178.39 182.48l.071-.143M178.46 182.34l.071-.071M178.53 182.26l.143-.071M178.67 182.19h.357M179.03 182.19l.214.071M179.89 183.69v-1.5M180.53 183.69v-.786M180.53 182.91l-.071-.143M180.46 182.76l-.143-.071M180.32 182.69h-.214M180.1 182.69l-.143.071M179.96 182.76l-.071.071M181.82 183.62l-.143.071M181.67 183.69h-.286M181.39 183.69l-.143-.071M181.25 183.62l-.071-.143M181.17 183.48v-.571M181.17 182.91l.071-.143M181.25 182.76l.143-.071M181.39 182.69h.286M181.67 182.69l.143.071M181.82 182.76l.071.143M181.89 182.91v.143M181.89 183.05l-.714.143M183.1 183.62l-.143.071M182.96 183.69h-.286M182.67 183.69l-.143-.071M182.53 183.62l-.071-.143M182.46 183.48v-.571M182.46 182.91l.071-.143M182.53 182.76l.143-.071M182.67 182.69h.286M182.96 182.69l.143.071M183.1 182.76l.071.143M183.17 182.91v.143M183.17 183.05l-.714.143M183.6 182.69h.571M183.82 182.19v1.286M183.82 183.48l.071.143M183.89 183.62l.143.071M184.03 183.69h.143M184.67 183.55l.071.071M184.75 183.62l-.071.071M184.67 183.69l-.071-.071M184.6 183.62l.071-.071M184.67 183.55v.143M184.67 182.76l.071.071M184.75 182.84l-.071.071M184.67 182.91l-.071-.071M184.6 182.84l.071-.071M184.67 182.76v.143M187.6 182.12l-1.286 1.929"/></g></g><g fill="#840000" fill-opacity="0" stroke="#840000" stroke-linecap="round" stroke-linejoin="round" stroke-width=".3" class="stroked-text"><path fill="none" d="m178.41 179.19.357 1.5M178.77 180.69l.286-1.071M179.06 179.61l.286 1.071M179.34 180.69l.357-1.5M180.13 179.19l.357 1.5M180.49 180.69l.286-1.071M180.77 179.61l.286 1.071M181.06 180.69l.357-1.5M181.84 179.19l.357 1.5M182.2 180.69l.286-1.071M182.49 179.61l.286 1.071M182.77 180.69l.357-1.5M183.7 180.54l.071.071M183.77 180.61l-.071.071M183.7 180.69l-.071-.071M183.63 180.61l.071-.071M183.7 180.54v.143M184.34 180.26h.714M184.2 180.69l.5-1.5M184.7 179.19l.5 1.5M185.7 179.9h.5M186.41 180.69h-.714M185.7 180.69v-1.5M185.7 179.19h.714M187.34 179.19h.286M187.63 179.19l.143.071M187.77 179.26l.143.143M187.91 179.4l.071.286M187.99 179.69v.5M187.99 180.19l-.071.286M187.91 180.47l-.143.143M187.77 180.61l-.143.071M187.63 180.69h-.286M187.34 180.69l-.143-.071M187.2 180.61l-.143-.143M187.06 180.47l-.071-.286M186.99 180.19v-.5M186.99 179.69l.071-.286M187.06 179.4l.143-.143M187.2 179.26l.143-.071M188.63 180.69v-1.5M188.63 179.19l.857 1.5M189.49 180.69v-1.5M190.91 180.69h-.714M190.2 180.69v-1.5M191.34 180.26h.714M191.2 180.69l.5-1.5M191.7 179.19l.5 1.5M193.2 179.9l.214.071M193.41 179.97l.071.071M193.49 180.04l.071.143M193.56 180.19v.214M193.56 180.4l-.071.143M193.49 180.54l-.071.071M193.41 180.61l-.143.071M193.27 180.69h-.571M192.7 180.69v-1.5M192.7 179.19h.5M193.2 179.19l.143.071M193.34 179.26l.071.071M193.41 179.33l.071.143M193.49 179.47v.143M193.49 179.61l-.071.143M193.41 179.76l-.071.071M193.34 179.83l-.143.071M193.2 179.9h-.5M194.13 180.61l.214.071M194.34 180.69h.357M194.7 180.69l.143-.071M194.84 180.61l.071-.071M194.91 180.54l.071-.143M194.99 180.4v-.143M194.99 180.26l-.071-.143M194.91 180.11l-.071-.071M194.84 180.04l-.143-.071M194.7 179.97l-.286-.071M194.41 179.9l-.143-.071M194.27 179.83l-.071-.071M194.2 179.76l-.071-.143M194.13 179.61v-.143M194.13 179.47l.071-.143M194.2 179.33l.071-.071M194.27 179.26l.143-.071M194.41 179.19h.357M194.77 179.19l.214.071M195.63 180.54l.071.071M195.7 180.61l-.071.071M195.63 180.69l-.071-.071M195.56 180.61l.071-.071M195.63 180.54v.143M196.27 180.61l.214.071M196.49 180.69h.357M196.84 180.69l.143-.071M196.99 180.61l.071-.071M197.06 180.54l.071-.143M197.13 180.4v-.143M197.13 180.26l-.071-.143M197.06 180.11l-.071-.071M196.99 180.04l-.143-.071M196.84 179.97l-.286-.071M196.56 179.9l-.143-.071M196.41 179.83l-.071-.071M196.34 179.76l-.071-.143M196.27 179.61v-.143M196.27 179.47l.071-.143M196.34 179.33l.071-.071M196.41 179.26l.143-.071M196.56 179.19h.357M196.91 179.19l.214.071M198.63 180.54l-.071.071M198.56 180.61l-.214.071M198.34 180.69h-.143M198.2 180.69l-.214-.071M197.99 180.61l-.143-.143M197.84 180.47l-.071-.143M197.77 180.33l-.071-.286M197.7 180.04v-.214M197.7 179.83l.071-.286M197.77 179.54l.071-.143M197.84 179.4l.143-.143M197.99 179.26l.214-.071M198.2 179.19h.143M198.34 179.19l.214.071M198.56 179.26l.071.071M199.27 180.69v-1.5M199.99 179.9h.5M200.7 180.69h-.714M199.99 180.69v-1.5M199.99 179.19h.714M201.34 180.69v-1.5M201.34 179.19l.857 1.5M202.2 180.69v-1.5M203.77 180.54l-.071.071M203.7 180.61l-.214.071M203.49 180.69h-.143M203.34 180.69l-.214-.071M203.13 180.61l-.143-.143M202.99 180.47l-.071-.143M202.91 180.33l-.071-.286M202.84 180.04v-.214M202.84 179.83l.071-.286M202.91 179.54l.071-.143M202.99 179.4l.143-.143M203.13 179.26l.214-.071M203.34 179.19h.143M203.49 179.19l.214.071M203.7 179.26l.071.071M204.41 179.9h.5M205.13 180.69h-.714M204.41 180.69v-1.5M204.41 179.19h.714"/></g><g fill="#840000" fill-opacity="0" stroke="#840000" stroke-linecap="round" stroke-linejoin="round" stroke-width=".152"><g class="stroked-text"><path fill="none" d="m179.1 177.62-.143.071M178.96 177.69h-.286M178.67 177.69l-.143-.071M178.53 177.62l-.071-.071M178.46 177.55l-.071-.143M178.39 177.41v-.429M178.39 176.98l.071-.143M178.46 176.84l.071-.071M178.53 176.76l.143-.071M178.67 176.69h.286M178.96 176.69l.143.071M179.75 177.69v-1M179.75 176.98l.071-.143M179.82 176.84l.071-.071M179.89 176.76l.143-.071M180.03 176.69h.143M181.25 177.62l-.143.071M181.1 177.69h-.286M180.82 177.69l-.143-.071M180.67 177.62l-.071-.143M180.6 177.48v-.571M180.6 176.91l.071-.143M180.67 176.76l.143-.071M180.82 176.69h.286M181.1 176.69l.143.071M181.25 176.76l.071.143M181.32 176.91v.143M181.32 177.05l-.714.143M182.6 177.69v-.786M182.6 176.91l-.071-.143M182.53 176.76l-.143-.071M182.39 176.69h-.286M182.1 176.69l-.143.071M182.6 177.62l-.143.071M182.46 177.69h-.357M182.1 177.69l-.143-.071M181.96 177.62l-.071-.143M181.89 177.48v-.143M181.89 177.34l.071-.143M181.96 177.19l.143-.071M182.1 177.12h.357M182.46 177.12l.143-.071M183.1 176.69h.571M183.32 176.19v1.286M183.32 177.48l.071.143M183.39 177.62l.143.071M183.53 177.69h.143M184.17 177.69v-1M184.17 176.19l-.071.071M184.1 176.26l.071.071M184.17 176.34l.071-.071M184.25 176.26l-.071-.071M184.17 176.19v.143M184.75 176.69l.357 1M185.1 177.69l.357-1M186.6 177.62l-.143.071M186.46 177.69h-.286M186.17 177.69l-.143-.071M186.03 177.62l-.071-.143M185.96 177.48v-.571M185.96 176.91l.071-.143M186.03 176.76l.143-.071M186.17 176.69h.286M186.46 176.69l.143.071M186.6 176.76l.071.143M186.67 176.91v.143M186.67 177.05l-.714.143M189.1 177.62l-.143.071M188.96 177.69h-.286M188.67 177.69l-.143-.071M188.53 177.62l-.071-.071M188.46 177.55l-.071-.143M188.39 177.41v-.429M188.39 176.98l.071-.143M188.46 176.84l.071-.071M188.53 176.76l.143-.071M188.67 176.69h.286M188.96 176.69l.143.071M189.96 177.69l-.143-.071M189.82 177.62l-.071-.071M189.75 177.55l-.071-.143M189.67 177.41v-.429M189.67 176.98l.071-.143M189.75 176.84l.071-.071M189.82 176.76l.143-.071M189.96 176.69h.214M190.17 176.69l.143.071M190.32 176.76l.071.071M190.39 176.84l.071.143M190.46 176.98v.429M190.46 177.41l-.071.143M190.39 177.55l-.071.071M190.32 177.62l-.143.071M190.17 177.69h-.214M191.1 177.69v-1M191.1 176.84l.071-.071M191.17 176.76l.143-.071M191.32 176.69h.214M191.53 176.69l.143.071M191.67 176.76l.071.143M191.75 176.91v.786M191.75 176.91l.071-.143M191.82 176.76l.143-.071M191.96 176.69h.214M192.17 176.69l.143.071M192.32 176.76l.071.143M192.39 176.91v.786M193.1 177.69v-1M193.1 176.84l.071-.071M193.17 176.76l.143-.071M193.32 176.69h.214M193.53 176.69l.143.071M193.67 176.76l.071.143M193.75 176.91v.786M193.75 176.91l.071-.143M193.82 176.76l.143-.071M193.96 176.69h.214M194.17 176.69l.143.071M194.32 176.76l.071.143M194.39 176.91v.786M195.32 177.69l-.143-.071M195.17 177.62l-.071-.071M195.1 177.55l-.071-.143M195.03 177.41v-.429M195.03 176.98l.071-.143M195.1 176.84l.071-.071M195.17 176.76l.143-.071M195.32 176.69h.214M195.53 176.69l.143.071M195.67 176.76l.071.071M195.75 176.84l.071.143M195.82 176.98v.429M195.82 177.41l-.071.143M195.75 177.55l-.071.071M195.67 177.62l-.143.071M195.53 177.69h-.214M196.46 176.69v1M196.46 176.84l.071-.071M196.53 176.76l.143-.071M196.67 176.69h.214M196.89 176.69l.143.071M197.03 176.76l.071.143M197.1 176.91v.786M197.75 177.62l.143.071M197.89 177.69h.286M198.17 177.69l.143-.071M198.32 177.62l.071-.143M198.39 177.48v-.071M198.39 177.41l-.071-.143M198.32 177.26l-.143-.071M198.17 177.19h-.214M197.96 177.19l-.143-.071M197.82 177.12l-.071-.143M197.75 176.98v-.071M197.75 176.91l.071-.143M197.82 176.76l.143-.071M197.96 176.69h.214M198.17 176.69l.143.071M200.1 177.62l.143.071M200.25 177.69h.286M200.53 177.69l.143-.071M200.67 177.62l.071-.143M200.75 177.48v-.071M200.75 177.41l-.071-.143M200.67 177.26l-.143-.071M200.53 177.19h-.214M200.32 177.19l-.143-.071M200.17 177.12l-.071-.143M200.1 176.98v-.071M200.1 176.91l.071-.143M200.17 176.76l.143-.071M200.32 176.69h.214M200.53 176.69l.143.071M201.39 177.69v-1.5M202.03 177.69v-.786M202.03 176.91l-.071-.143M201.96 176.76l-.143-.071M201.82 176.69h-.214M201.6 176.69l-.143.071M201.46 176.76l-.071.071M203.39 177.69v-.786M203.39 176.91l-.071-.143M203.32 176.76l-.143-.071M203.17 176.69h-.286M202.89 176.69l-.143.071M203.39 177.62l-.143.071M203.25 177.69h-.357M202.89 177.69l-.143-.071M202.75 177.62l-.071-.143M202.67 177.48v-.143M202.67 177.34l.071-.143M202.75 177.19l.143-.071M202.89 177.12h.357M203.25 177.12l.143-.071M204.1 177.69v-1M204.1 176.98l.071-.143M204.17 176.84l.071-.071M204.25 176.76l.143-.071M204.39 176.69h.143M205.6 177.62l-.143.071M205.46 177.69h-.286M205.17 177.69l-.143-.071M205.03 177.62l-.071-.143M204.96 177.48v-.571M204.96 176.91l.071-.143M205.03 176.76l.143-.071M205.17 176.69h.286M205.46 176.69l.143.071M205.6 176.76l.071.143M205.67 176.91v.143M205.67 177.05l-.714.143M208.1 177.69v-.786M208.1 176.91l-.071-.143M208.03 176.76l-.143-.071M207.89 176.69h-.286M207.6 176.69l-.143.071M208.1 177.62l-.143.071M207.96 177.69h-.357M207.6 177.69l-.143-.071M207.46 177.62l-.071-.143M207.39 177.48v-.143M207.39 177.34l.071-.143M207.46 177.19l.143-.071M207.6 177.12h.357M207.96 177.12l.143-.071M209.03 177.69l-.143-.071M208.89 177.62l-.071-.143M208.82 177.48v-1.286M209.6 177.69v-1M209.6 176.19l-.071.071M209.53 176.26l.071.071M209.6 176.34l.071-.071M209.67 176.26l-.071-.071M209.6 176.19v.143M210.32 177.69v-1.5M210.46 177.12l.428.571M210.89 176.69l-.571.571M212.1 177.62l-.143.071M211.96 177.69h-.286M211.67 177.69l-.143-.071M211.53 177.62l-.071-.143M211.46 177.48v-.571M211.46 176.91l.071-.143M211.53 176.76l.143-.071M211.67 176.69h.286M211.96 176.69l.143.071M212.1 176.76l.071.143M212.17 176.91v.143M212.17 177.05l-.714.143M213.96 176.69v1M213.96 176.84l.071-.071M214.03 176.76l.143-.071M214.17 176.69h.214M214.39 176.69l.143.071M214.53 176.76l.071.143M214.6 176.91v.786M215.53 177.69l-.143-.071M215.39 177.62l-.071-.071M215.32 177.55l-.071-.143M215.25 177.41v-.429M215.25 176.98l.071-.143M215.32 176.84l.071-.071M215.39 176.76l.143-.071M215.53 176.69h.214M215.75 176.69l.143.071M215.89 176.76l.071.071M215.96 176.84l.071.143M216.03 176.98v.429M216.03 177.41l-.071.143M215.96 177.55l-.071.071M215.89 177.62l-.143.071M215.75 177.69h-.214M216.67 176.69v1M216.67 176.84l.071-.071M216.74 176.76l.143-.071M216.89 176.69h.214M217.1 176.69l.143.071M217.24 176.76l.071.143M217.32 176.91v.786M219.82 177.62l-.143.071M219.67 177.69h-.286M219.39 177.69l-.143-.071M219.24 177.62l-.071-.071M219.17 177.55l-.071-.143M219.1 177.41v-.429M219.1 176.98l.071-.143M219.17 176.84l.071-.071M219.24 176.76l.143-.071M219.39 176.69h.286M219.67 176.69l.143.071M220.67 177.69l-.143-.071M220.53 177.62l-.071-.071M220.46 177.55l-.071-.143M220.39 177.41v-.429M220.39 176.98l.071-.143M220.46 176.84l.071-.071M220.53 176.76l.143-.071M220.67 176.69h.214M220.89 176.69l.143.071M221.03 176.76l.071.071M221.1 176.84l.071.143M221.17 176.98v.429M221.17 177.41l-.071.143M221.1 177.55l-.071.071M221.03 177.62l-.143.071M220.89 177.69h-.214M221.82 177.69v-1M221.82 176.84l.071-.071M221.89 176.76l.143-.071M222.03 176.69h.214M222.24 176.69l.143.071M222.39 176.76l.071.143M222.46 176.91v.786M222.46 176.91l.071-.143M222.53 176.76l.143-.071M222.67 176.69h.214M222.89 176.69l.143.071M223.03 176.76l.071.143M223.1 176.91v.786M223.82 177.69v-1M223.82 176.84l.071-.071M223.89 176.76l.143-.071M224.03 176.69h.214M224.24 176.69l.143.071M224.39 176.76l.071.143M224.46 176.91v.786M224.46 176.91l.071-.143M224.53 176.76l.143-.071M224.67 176.69h.214M224.89 176.69l.143.071M225.03 176.76l.071.143M225.1 176.91v.786M226.39 177.62l-.143.071M226.24 177.69h-.286M225.96 177.69l-.143-.071M225.82 177.62l-.071-.143M225.74 177.48v-.571M225.74 176.91l.071-.143M225.82 176.76l.143-.071M225.96 176.69h.286M226.24 176.69l.143.071M226.39 176.76l.071.143M226.46 176.91v.143M226.46 177.05l-.714.143M227.1 177.69v-1M227.1 176.98l.071-.143M227.17 176.84l.071-.071M227.24 176.76l.143-.071M227.39 176.69h.143M228.67 177.62l-.143.071M228.53 177.69h-.286M228.24 177.69l-.143-.071M228.1 177.62l-.071-.071M228.03 177.55l-.071-.143M227.96 177.41v-.429M227.96 176.98l.071-.143M228.03 176.84l.071-.071M228.1 176.76l.143-.071M228.24 176.69h.286M228.53 176.69l.143.071M229.32 177.69v-1M229.32 176.19l-.071.071M229.24 176.26l.071.071M229.32 176.34l.071-.071M229.39 176.26l-.071-.071M229.32 176.19v.143M230.67 177.69v-.786M230.67 176.91l-.071-.143M230.6 176.76l-.143-.071M230.46 176.69h-.286M230.17 176.69l-.143.071M230.67 177.62l-.143.071M230.53 177.69h-.357M230.17 177.69l-.143-.071M230.03 177.62l-.071-.143M229.96 177.48v-.143M229.96 177.34l.071-.143M230.03 177.19l.143-.071M230.17 177.12h.357M230.53 177.12l.143-.071M231.6 177.69l-.143-.071M231.46 177.62l-.071-.143M231.39 177.48v-1.286"/></g><path fill="none" d="M197 191.51v3M261 191.51v6.5M143.13 106.65v1.27h1.27l-1.27 1.27-1.27-1.27h1.27"/><g fill="#006464" stroke="#006464" class="stroked-text"><path fill="none" d="m142.16 110.37-.121-.06M142.04 110.31h-.181M141.86 110.31l-.181.06M141.68 110.37l-.121.121M141.56 110.49l-.06.12M141.5 110.61l-.06.242M141.44 110.85v.181M141.44 111.03l.06.242M141.5 111.28l.06.121M141.56 111.4l.121.121M141.68 111.52l.181.06M141.86 111.58h.12M141.98 111.58l.181-.06M142.16 111.52l.06-.06M142.22 111.46v-.423M142.22 111.03h-.242M142.77 111.58v-1.27M142.77 110.31l.726 1.27M143.49 111.58v-1.27M144.1 111.58v-1.27M144.1 110.31h.302M144.4 110.31l.181.06M144.58 110.37l.121.121M144.7 110.49l.06.12M144.76 110.61l.06.242M144.82 110.85v.181M144.82 111.03l-.06.242M144.76 111.28l-.06.121M144.7 111.4l-.121.121M144.58 111.52l-.181.06M144.4 111.58h-.302"/></g></g><g fill-opacity="0" stroke-linecap="round" stroke-linejoin="round" stroke-width=".152"><g fill="none" stroke="#840000"><path d="m146.68 93.599 1.27.762M145.42 94.361h2.54M147.96 94.361l-1.27.762"/></g><g fill="#006464" stroke="#006464" class="stroked-text"><path fill="none" d="m149.08 93.67.423 1.27M149.5 94.94l.423-1.27M150.35 94.94v-1.27M150.35 93.67h.302M150.65 93.67l.181.06M150.83 93.731l.121.121M150.95 93.852l.06.12M151.01 93.973l.06.242M151.07 94.215v.181M151.07 94.396l-.06.242M151.01 94.638l-.06.121M150.95 94.759l-.121.121M150.83 94.88l-.181.06M150.65 94.94h-.302M152.34 94.82l-.06.06M152.28 94.88l-.181.06M152.1 94.94h-.12M151.98 94.94l-.181-.06M151.8 94.88l-.121-.121M151.68 94.759l-.06-.121M151.62 94.638l-.06-.242M151.56 94.396v-.181M151.56 94.215l.06-.242M151.62 93.973l.06-.12M151.68 93.852l.121-.121M151.8 93.731l.181-.06M151.98 93.67h.12M152.1 93.67l.181.06M152.28 93.731l.06.06"/></g></g><g fill-opacity="0" stroke-linecap="round" stroke-linejoin="round" stroke-width=".152"><path fill="none" stroke="#840000" d="M130.18 94.361h-1.27v1.27l-1.27-1.27 1.27-1.27v1.27"/><g fill="#006464" stroke="#006464" class="stroked-text"><path fill="none" d="m122.97 93.731-.121-.06M122.85 93.67h-.181M122.67 93.67l-.181.06M122.49 93.731l-.121.121M122.37 93.852l-.06.12M122.3 93.973l-.06.242M122.24 94.215v.181M122.24 94.396l.06.242M122.3 94.638l.06.121M122.37 94.759l.121.121M122.49 94.88l.181.06M122.67 94.94h.12M122.79 94.94l.181-.06M122.97 94.88l.06-.06M123.03 94.82v-.423M123.03 94.396h-.242M123.57 94.94v-1.27M123.57 93.67l.726 1.27M124.3 94.94v-1.27M124.91 94.94v-1.27M124.91 93.67h.302M125.21 93.67l.181.06M125.39 93.731l.121.121M125.51 93.852l.06.12M125.57 93.973l.06.242M125.63 94.215v.181M125.63 94.396l-.06.242M125.57 94.638l-.06.121M125.51 94.759l-.121.121M125.39 94.88l-.181.06M125.21 94.94h-.302"/></g></g><g fill-opacity="0" stroke-linecap="round" stroke-linejoin="round"><path fill="none" stroke="#840000" stroke-width=".254" d="M132.72 95.631v-2.54"/><path fill="none" stroke="#840000" stroke-width=".152" d="M132.72 94.361h2.54"/><path fill="none" stroke="#840000" stroke-width=".254" d="M135.26 95.631v-2.54l-2.54 1.27z"/><g fill="none" stroke="#840000" stroke-width=".152"><path d="m130.94 95.123-1.524 1.524h.762-.762v-.762M132.21 95.123l-1.524 1.524h.762-.762v-.762M132.72 94.361h-2.54M135.26 94.361h2.54"/></g><g fill="#006464" stroke="#006464" stroke-width=".152"><g class="stroked-text"><path fill="none" d="M131.46 88.514v-1.27M131.46 87.244h.302M131.76 87.244l.181.06M131.94 87.305l.121.121M132.06 87.426l.06.12M132.13 87.547l.06.242M132.19 87.789v.181M132.19 87.97l-.06.242M132.13 88.212l-.06.121M132.06 88.333l-.121.121M131.94 88.454l-.181.06M131.76 88.514h-.302M133.4 88.514h-.726M133.03 88.514v-1.27M133.03 87.244l-.12.181M132.91 87.426l-.121.12M132.79 87.547l-.12.06"/></g><g class="stroked-text"><path fill="none" d="M131.58 91.054h-.605M130.98 91.054v-1.27M132 90.389h.423M132.61 91.054h-.605M132 91.054v-1.27M132 89.784h.605M133.15 91.054v-1.27M133.15 89.784h.302M133.46 89.784l.181.06M133.64 89.845l.121.121M133.76 89.966l.06.12M133.82 90.087l.06.242M133.88 90.329v.181M133.88 90.51l-.06.242M133.82 90.752l-.06.121M133.76 90.873l-.121.121M133.64 90.994l-.181.06M133.46 91.054h-.302"/></g></g></g><g fill-opacity="0" stroke-linecap="round" stroke-linejoin="round"><rect width="5.08" height="2.032" x="139.06" y="93.345" fill="none" stroke="#840000" stroke-width=".254" rx="0"/><g fill="none" stroke="#840000" stroke-width=".152"><path d="M139.06 94.361h-1.27M144.14 94.361h1.27"/></g><g fill="#006464" stroke="#006464" stroke-width=".152"><g class="stroked-text"><path fill="none" d="m141.39 88.413-.423-.605M140.67 88.413v-1.27M140.67 87.143h.484M141.15 87.143l.121.06M141.27 87.203l.06.06M141.33 87.264l.06.12M141.39 87.385v.181M141.39 87.566l-.06.12M141.33 87.687l-.06.06M141.27 87.748l-.121.06M141.15 87.808h-.484M142.6 88.413h-.726M142.24 88.413v-1.27M142.24 87.143l-.12.181M142.12 87.324l-.121.12M142 87.445l-.12.06"/></g><g class="stroked-text"><path fill="none" d="m142 90.953-.423-.605M141.27 90.953v-1.27M141.27 89.683h.484M141.76 89.683l.121.06M141.88 89.743l.06.06M141.94 89.804l.06.12M142 89.925v.181M142 90.106l-.06.12M141.94 90.227l-.06.06M141.88 90.288l-.121.06M141.76 90.348h-.484"/></g></g></g><g fill-opacity="0" stroke-linecap="round" stroke-linejoin="round" stroke-width=".152"><g fill="none" stroke="#840000"><path d="m146.96 108-.762 1.27M146.2 106.73v2.54M146.2 109.27l-.762-1.27"/></g><g fill="#006464" stroke="#006464" class="stroked-text"><path fill="none" d="m144.51 110.56.423 1.27M144.93 111.83l.423-1.27M145.78 111.83v-1.27M145.78 110.56h.302M146.08 110.56l.181.06M146.26 110.62l.121.121M146.38 110.74l.06.12M146.44 110.86l.06.242M146.5 111.11v.181M146.5 111.29l-.06.242M146.44 111.53l-.06.121M146.38 111.65l-.121.121M146.26 111.77l-.181.06M146.08 111.83h-.302M147.77 111.71l-.06.06M147.71 111.77l-.181.06M147.53 111.83h-.12M147.41 111.83l-.181-.06M147.23 111.77l-.121-.121M147.11 111.65l-.06-.121M147.05 111.53l-.06-.242M146.99 111.29v-.181M146.99 111.11l.06-.242M147.05 110.86l.06-.12M147.11 110.74l.121-.121M147.23 110.62l.181-.06M147.41 110.56h.12M147.53 110.56l.181.06M147.71 110.62l.06.06"/></g></g><g fill-opacity="0" stroke-linecap="round" stroke-linejoin="round" stroke-width=".152"><g fill="none" stroke="#840000"><circle cx="146.2" cy="103.43" r=".762"/><path d="M146.2 104.19v2.54"/></g><g fill="#006464" stroke="#006464"><g class="stroked-text"><path fill="none" d="m148.16 102.76.423 1.27M148.58 104.03l.423-1.27M149.43 104.03v-1.27M149.43 102.76h.302M149.73 102.76l.181.06M149.92 102.82l.121.121M150.04 102.95l.06.12M150.1 103.07l.06.242M150.16 103.31v.181M150.16 103.49l-.06.242M150.1 103.73l-.06.121M150.04 103.85l-.121.121M149.92 103.97l-.181.06M149.73 104.03h-.302M151.43 103.91l-.06.06M151.37 103.97l-.181.06M151.19 104.03h-.12M151.06 104.03l-.181-.06M150.88 103.97l-.121-.121M150.76 103.85l-.06-.121M150.7 103.73l-.06-.242M150.64 103.49v-.181M150.64 103.31l.06-.242M150.7 103.07l.06-.12M150.76 102.95l.121-.121M150.88 102.82l.181-.06M151.06 102.76h.12M151.19 102.76l.181.06M151.37 102.82l.06.06M152.64 104.03h-.726M152.27 104.03v-1.27M152.27 102.76l-.12.181M152.15 102.95l-.121.12M152.03 103.07l-.12.06"/></g><g class="stroked-text"><path fill="none" d="M148.31 105.02h.726M148.68 106.29v-1.27M149.95 106.23l-.12.06M149.83 106.29h-.242M149.58 106.29l-.121-.06M149.46 106.23l-.06-.121M149.4 106.11v-.484M149.4 105.63l.06-.121M149.46 105.51l.121-.06M149.58 105.45h.242M149.83 105.45l.12.06M149.95 105.51l.06.121M150.01 105.63v.12M150.01 105.75l-.605.121M150.49 106.23l.12.06M150.61 106.29h.242M150.85 106.29l.121-.06M150.98 106.23l.06-.121M151.04 106.11v-.06M151.04 106.05l-.06-.12M150.98 105.93l-.121-.06M150.85 105.87h-.181M150.67 105.87l-.121-.06M150.55 105.81l-.06-.12M150.49 105.69v-.06M150.49 105.63l.06-.121M150.55 105.51l.121-.06M150.67 105.45h.181M150.85 105.45l.121.06M151.4 105.45h.484M151.58 105.02v1.089M151.58 106.11l.06.121M151.64 106.23l.121.06M151.76 106.29h.12M152.31 106.29v-1.27M152.31 105.02h.484M152.79 105.02l.121.06M152.91 105.08l.06.06M152.97 105.15l.06.12M153.03 105.27v.181M153.03 105.45l-.06.12M152.97 105.57l-.06.06M152.91 105.63l-.121.06M152.79 105.69h-.484M153.76 106.29l-.121-.06M153.64 106.23l-.06-.06M153.58 106.17l-.06-.121M153.52 106.05v-.363M153.52 105.69l.06-.121M153.58 105.57l.06-.06M153.64 105.51l.121-.06M153.76 105.45h.181M153.94 105.45l.12.06M154.06 105.51l.06.06M154.12 105.57l.06.121M154.18 105.69v.363M154.18 106.05l-.06.121M154.12 106.17l-.06.06M154.06 106.23l-.12.06M153.94 106.29h-.181M154.72 106.29v-.847M154.72 105.02l-.06.06M154.66 105.08l.06.06M154.72 105.15l.06-.06M154.78 105.08l-.06-.06M154.72 105.02v.121M155.33 105.45v.847M155.33 105.57l.06-.06M155.39 105.51l.121-.06M155.51 105.45h.181M155.69 105.45l.12.06M155.81 105.51l.06.121M155.87 105.63v.665M156.3 105.45h.484M156.48 105.02v1.089M156.48 106.11l.06.121M156.54 106.23l.121.06M156.66 106.29h.12"/></g></g></g><g fill-opacity="0" stroke-linecap="round" stroke-linejoin="round" stroke-width=".152"><g fill="none" stroke="#840000"><circle cx="143.13" cy="103.35" r=".762"/><path d="M143.13 104.11v2.54"/></g><g fill="#006464" stroke="#006464"><g class="stroked-text"><path fill="none" d="m139.03 102.7-.121-.06M138.91 102.64h-.181M138.72 102.64l-.181.06M138.54 102.7l-.121.121M138.42 102.82l-.06.12M138.36 102.94l-.06.242M138.3 103.18v.181M138.3 103.36l.06.242M138.36 103.6l.06.121M138.42 103.73l.121.121M138.54 103.85l.181.06M138.72 103.91h.12M138.84 103.91l.181-.06M139.03 103.85l.06-.06M139.09 103.79v-.423M139.09 103.36h-.242M139.63 103.91v-1.27M139.63 102.64l.726 1.27M140.36 103.91v-1.27M140.96 103.91v-1.27M140.96 102.64h.302M141.26 102.64l.181.06M141.45 102.7l.121.121M141.57 102.82l.06.12M141.63 102.94l.06.242M141.69 103.18v.181M141.69 103.36l-.06.242M141.63 103.6l-.06.121M141.57 103.73l-.121.121M141.45 103.85l-.181.06M141.26 103.91h-.302M142.9 103.91h-.726M142.53 103.91v-1.27M142.53 102.64l-.12.181M142.41 102.82l-.121.12M142.29 102.94l-.12.06"/></g><g class="stroked-text"><path fill="none" d="M132.95 104.64h.726M133.31 105.91v-1.27M134.58 105.85l-.12.06M134.46 105.91h-.242M134.22 105.91l-.121-.06M134.1 105.85l-.06-.121M134.04 105.73v-.484M134.04 105.25l.06-.121M134.1 105.13l.121-.06M134.22 105.07h.242M134.46 105.07l.12.06M134.58 105.13l.06.121M134.64 105.25v.12M134.64 105.37l-.605.121M135.12 105.85l.12.06M135.25 105.91h.242M135.49 105.91l.121-.06M135.61 105.85l.06-.121M135.67 105.73v-.06M135.67 105.67l-.06-.12M135.61 105.55l-.121-.06M135.49 105.49h-.181M135.31 105.49l-.121-.06M135.18 105.43l-.06-.12M135.12 105.31v-.06M135.12 105.25l.06-.121M135.18 105.13l.121-.06M135.31 105.07h.181M135.49 105.07l.121.06M136.03 105.07h.484M136.21 104.64v1.089M136.21 105.73l.06.121M136.27 105.85l.121.06M136.39 105.91h.12M136.94 105.91v-1.27M136.94 104.64h.484M137.42 104.64l.121.06M137.54 104.7l.06.06M137.6 104.76l.06.12M137.66 104.89v.181M137.66 105.07l-.06.12M137.6 105.19l-.06.06M137.54 105.25l-.121.06M137.42 105.31h-.484M138.39 105.91l-.121-.06M138.27 105.85l-.06-.06M138.21 105.79l-.06-.121M138.15 105.67v-.363M138.15 105.31l.06-.121M138.21 105.19l.06-.06M138.27 105.13l.121-.06M138.39 105.07h.181M138.57 105.07l.12.06M138.69 105.13l.06.06M138.75 105.19l.06.121M138.81 105.31v.363M138.81 105.67l-.06.121M138.75 105.79l-.06.06M138.69 105.85l-.12.06M138.57 105.91h-.181M139.36 105.91v-.847M139.36 104.64l-.06.06M139.3 104.7l.06.06M139.36 104.76l.06-.06M139.42 104.7l-.06-.06M139.36 104.64v.121M139.96 105.07v.847M139.96 105.19l.06-.06M140.02 105.13l.121-.06M140.14 105.07h.181M140.33 105.07l.12.06M140.45 105.13l.06.121M140.51 105.25v.665M140.93 105.07h.484M141.11 104.64v1.089M141.11 105.73l.06.121M141.17 105.85l.121.06M141.29 105.91h.12"/></g></g></g><g fill-opacity="0" stroke-linecap="round" stroke-linejoin="round" stroke-width=".152"><g fill="none" stroke="#840000"><path d="m146.46 69.875 1.27.762M145.19 70.637h2.54M147.73 70.637l-1.27.762"/></g><g fill="#006464" stroke="#006464" class="stroked-text"><path fill="none" d="m148.85 69.947.423 1.27M149.27 71.217l.423-1.27M150.12 71.217v-1.27M150.12 69.947h.302M150.42 69.947l.181.06M150.6 70.007l.121.121M150.72 70.128l.06.12M150.78 70.249l.06.242M150.84 70.491v.181M150.84 70.673l-.06.242M150.78 70.914l-.06.121M150.72 71.036l-.121.121M150.6 71.156l-.181.06M150.42 71.217h-.302M152.11 71.096l-.06.06M152.05 71.156l-.181.06M151.87 71.217h-.12M151.75 71.217l-.181-.06M151.57 71.156l-.121-.121M151.45 71.036l-.06-.121M151.39 70.914l-.06-.242M151.33 70.673v-.181M151.33 70.491l.06-.242M151.39 70.249l.06-.12M151.45 70.128l.121-.121M151.57 70.007l.181-.06M151.75 69.947h.12M151.87 69.947l.181.06M152.05 70.007l.06.06"/></g></g><g fill-opacity="0" stroke-linecap="round" stroke-linejoin="round"><rect width="5.08" height="2.032" x="138.84" y="69.621" fill="none" stroke="#840000" stroke-width=".254" rx="0"/><g fill="none" stroke="#840000" stroke-width=".152"><path d="M138.84 70.637h-1.27M143.92 70.637h1.27"/></g><g fill="#006464" stroke="#006464" stroke-width=".152"><g class="stroked-text"><path fill="none" d="m141.16 64.689-.423-.605M140.44 64.689v-1.27M140.44 63.419h.484M140.92 63.419l.121.06M141.04 63.48l.06.06M141.1 63.54l.06.12M141.16 63.661v.181M141.16 63.842l-.06.12M141.1 63.963l-.06.06M141.04 64.024l-.121.06M140.92 64.084h-.484M141.59 63.419h.786M142.37 63.419l-.423.484M141.95 63.903h.181M142.13 63.903l.12.06M142.25 63.963l.06.06M142.31 64.024l.06.12M142.37 64.145v.302M142.37 64.447l-.06.121M142.31 64.568l-.06.06M142.25 64.629l-.12.06M142.13 64.689h-.363M141.77 64.689l-.12-.06M141.65 64.629l-.06-.06"/></g><g class="stroked-text"><path fill="none" d="m141.77 67.229-.423-.605M141.04 67.229v-1.27M141.04 65.959h.484M141.53 65.959l.121.06M141.65 66.02l.06.06M141.71 66.08l.06.12M141.77 66.201v.181M141.77 66.382l-.06.12M141.71 66.503l-.06.06M141.65 66.564l-.121.06M141.53 66.624h-.484"/></g></g></g><g fill-opacity="0" stroke-linecap="round" stroke-linejoin="round" stroke-width=".152"><path fill="none" stroke="#840000" d="M129.95 70.637h-1.27v1.27l-1.27-1.27 1.27-1.27v1.27"/><g fill="#006464" stroke="#006464" class="stroked-text"><path fill="none" d="m122.74 70.007-.121-.06M122.62 69.947h-.181M122.44 69.947l-.181.06M122.26 70.007l-.121.121M122.14 70.128l-.06.12M122.08 70.249l-.06.242M122.02 70.491v.181M122.02 70.673l.06.242M122.08 70.914l.06.121M122.14 71.036l.121.121M122.26 71.156l.181.06M122.44 71.217h.12M122.56 71.217l.181-.06M122.74 71.156l.06-.06M122.8 71.096v-.423M122.8 70.673h-.242M123.35 71.217v-1.27M123.35 69.947l.726 1.27M124.07 71.217v-1.27M124.68 71.217v-1.27M124.68 69.947h.302M124.98 69.947l.181.06M125.16 70.007l.121.121M125.28 70.128l.06.12M125.34 70.249l.06.242M125.4 70.491v.181M125.4 70.673l-.06.242M125.34 70.914l-.06.121M125.28 71.036l-.121.121M125.16 71.156l-.181.06M124.98 71.217h-.302"/></g></g><g fill-opacity="0" stroke-linecap="round" stroke-linejoin="round" stroke-width=".152"><path fill="none" stroke="#840000" d="M129.77 82.575h-1.27v1.27l-1.27-1.27 1.27-1.27v1.27"/><g fill="#006464" stroke="#006464" class="stroked-text"><path fill="none" d="m122.56 81.945-.121-.06M122.44 81.885h-.181M122.26 81.885l-.181.06M122.08 81.945l-.121.121M121.96 82.066l-.06.12M121.9 82.187l-.06.242M121.84 82.429v.181M121.84 82.611l.06.242M121.9 82.852l.06.121M121.96 82.974l.121.121M122.08 83.094l.181.06M122.26 83.155h.12M122.38 83.155l.181-.06M122.56 83.094l.06-.06M122.62 83.034v-.423M122.62 82.611h-.242M123.17 83.155v-1.27M123.17 81.885l.726 1.27M123.89 83.155v-1.27M124.5 83.155v-1.27M124.5 81.885h.302M124.8 81.885l.181.06M124.98 81.945l.121.121M125.1 82.066l.06.12M125.16 82.187l.06.242M125.22 82.429v.181M125.22 82.611l-.06.242M125.16 82.852l-.06.121M125.1 82.974l-.121.121M124.98 83.094l-.181.06M124.8 83.155h-.302"/></g></g><g fill-opacity="0" stroke-linecap="round" stroke-linejoin="round"><rect width="5.08" height="2.032" x="138.66" y="81.559" fill="none" stroke="#840000" stroke-width=".254" rx="0"/><g fill="none" stroke="#840000" stroke-width=".152"><path d="M138.66 82.575h-1.27M143.74 82.575h1.27"/></g><g fill="#006464" stroke="#006464" stroke-width=".152"><g class="stroked-text"><path fill="none" d="m140.99 76.627-.423-.605M140.26 76.627v-1.27M140.26 75.357h.484M140.74 75.357l.121.06M140.87 75.418l.06.06M140.93 75.478l.06.12M140.99 75.599v.181M140.99 75.78l-.06.12M140.93 75.901l-.06.06M140.87 75.962l-.121.06M140.74 76.022h-.484M141.47 75.478l.06-.06M141.53 75.418l.121-.06M141.65 75.357h.302M141.95 75.357l.12.06M142.08 75.418l.06.06M142.14 75.478l.06.12M142.2 75.599v.121M142.2 75.72l-.06.181M142.14 75.901l-.726.726M141.41 76.627h.786"/></g><g class="stroked-text"><path fill="none" d="m141.59 79.167-.423-.605M140.87 79.167v-1.27M140.87 77.897h.484M141.35 77.897l.121.06M141.47 77.958l.06.06M141.53 78.018l.06.12M141.59 78.139v.181M141.59 78.32l-.06.12M141.53 78.441l-.06.06M141.47 78.502l-.121.06M141.35 78.562h-.484"/></g></g></g><g fill-opacity="0" stroke-linecap="round" stroke-linejoin="round"><path fill="none" stroke="#840000" stroke-width=".254" d="M132.31 83.845v-2.54"/><path fill="none" stroke="#840000" stroke-width=".152" d="M132.31 82.575h2.54"/><path fill="none" stroke="#840000" stroke-width=".254" d="M134.85 83.845v-2.54l-2.54 1.27z"/><g fill="none" stroke="#840000" stroke-width=".152"><path d="m130.53 83.337-1.524 1.524h.762-.762v-.762M131.8 83.337l-1.524 1.524h.762-.762v-.762M132.31 82.575h-2.54M134.85 82.575h2.54"/></g><g fill="#006464" stroke="#006464" stroke-width=".152"><g class="stroked-text"><path fill="none" d="M131.05 76.729v-1.27M131.05 75.459h.302M131.36 75.459l.181.06M131.54 75.519l.121.121M131.66 75.64l.06.12M131.72 75.761l.06.242M131.78 76.003v.181M131.78 76.184l-.06.242M131.72 76.426l-.06.121M131.66 76.547l-.121.121M131.54 76.668l-.181.06M131.36 76.729h-.302M132.26 75.58l.06-.06M132.32 75.519l.121-.06M132.44 75.459h.302M132.75 75.459l.12.06M132.87 75.519l.06.06M132.93 75.58l.06.12M132.99 75.701v.121M132.99 75.822l-.06.181M132.93 76.003l-.726.726M132.2 76.729h.786"/></g><g class="stroked-text"><path fill="none" d="M131.17 79.269h-.605M130.57 79.269v-1.27M131.6 78.604h.423M132.2 79.269h-.605M131.6 79.269v-1.27M131.6 77.999h.605M132.75 79.269v-1.27M132.75 77.999h.302M133.05 77.999l.181.06M133.23 78.059l.121.121M133.35 78.18l.06.12M133.41 78.301l.06.242M133.47 78.543v.181M133.47 78.724l-.06.242M133.41 78.966l-.06.121M133.35 79.087l-.121.121M133.23 79.208l-.181.06M133.05 79.269h-.302"/></g></g></g><g fill-opacity="0" stroke-linecap="round" stroke-linejoin="round"><path fill="none" stroke="#840000" stroke-width=".254" d="M132.49 71.907v-2.54"/><path fill="none" stroke="#840000" stroke-width=".152" d="M132.49 70.637h2.54"/><path fill="none" stroke="#840000" stroke-width=".254" d="M135.03 71.907v-2.54l-2.54 1.27z"/><g fill="none" stroke="#840000" stroke-width=".152"><path d="m130.71 71.399-1.524 1.524h.762-.762v-.762M131.98 71.399l-1.524 1.524h.762-.762v-.762M132.49 70.637h-2.54M135.03 70.637h2.54"/></g><g fill="#006464" stroke="#006464" stroke-width=".152"><g class="stroked-text"><path fill="none" d="M131.23 64.791v-1.27M131.23 63.521h.302M131.53 63.521l.181.06M131.72 63.581l.121.121M131.84 63.702l.06.12M131.9 63.823l.06.242M131.96 64.065v.181M131.96 64.246l-.06.242M131.9 64.488l-.06.121M131.84 64.609l-.121.121M131.72 64.73l-.181.06M131.53 64.791h-.302M132.38 63.521h.786M133.17 63.521l-.423.484M132.74 64.004h.181M132.92 64.004l.12.06M133.05 64.065l.06.06M133.11 64.126l.06.12M133.17 64.246v.302M133.17 64.549l-.06.121M133.11 64.67l-.06.06M133.05 64.73l-.12.06M132.92 64.791h-.363M132.56 64.791l-.12-.06M132.44 64.73l-.06-.06"/></g><g class="stroked-text"><path fill="none" d="M131.35 67.331h-.605M130.75 67.331v-1.27M131.78 66.666h.423M132.38 67.331h-.605M131.78 67.331v-1.27M131.78 66.061h.605M132.92 67.331v-1.27M132.92 66.061h.302M133.23 66.061l.181.06M133.41 66.121l.121.121M133.53 66.242l.06.12M133.59 66.363l.06.242M133.65 66.605v.181M133.65 66.786l-.06.242M133.59 67.028l-.06.121M133.53 67.149l-.121.121M133.41 67.27l-.181.06M133.23 67.331h-.302"/></g></g></g><g fill-opacity="0" stroke-linecap="round" stroke-linejoin="round" stroke-width=".152"><g fill="none" stroke="#840000"><path d="m146.28 81.813 1.27.762M145.01 82.575h2.54M147.55 82.575l-1.27.762"/></g><g fill="#006464" stroke="#006464" class="stroked-text"><path fill="none" d="m148.67 81.885.423 1.27M149.09 83.155l.423-1.27M149.94 83.155v-1.27M149.94 81.885h.302M150.24 81.885l.181.06M150.42 81.945l.121.121M150.54 82.066l.06.12M150.6 82.187l.06.242M150.67 82.429v.181M150.67 82.611l-.06.242M150.6 82.852l-.06.121M150.54 82.974l-.121.121M150.42 83.094l-.181.06M150.24 83.155h-.302M151.94 83.034l-.06.06M151.88 83.094l-.181.06M151.69 83.155h-.12M151.57 83.155l-.181-.06M151.39 83.094l-.121-.121M151.27 82.974l-.06-.121M151.21 82.852l-.06-.242M151.15 82.611v-.181M151.15 82.429l.06-.242M151.21 82.187l.06-.12M151.27 82.066l.121-.121M151.39 81.945l.181-.06M151.57 81.885h.12M151.69 81.885l.181.06M151.88 81.945l.06.06"/></g></g><g fill="#006464" fill-opacity="0" stroke="#006464" stroke-linecap="round" stroke-linejoin="round" stroke-width=".152"><g class="stroked-text"><path fill="none" d="m142.16 110.37-.121-.06M142.04 110.31h-.181M141.86 110.31l-.181.06M141.68 110.37l-.121.121M141.56 110.49l-.06.12M141.5 110.61l-.06.242M141.44 110.85v.181M141.44 111.03l.06.242M141.5 111.28l.06.121M141.56 111.4l.121.121M141.68 111.52l.181.06M141.86 111.58h.12M141.98 111.58l.181-.06M142.16 111.52l.06-.06M142.22 111.46v-.423M142.22 111.03h-.242M142.77 111.58v-1.27M142.77 110.31l.726 1.27M143.49 111.58v-1.27M144.1 111.58v-1.27M144.1 110.31h.302M144.4 110.31l.181.06M144.58 110.37l.121.121M144.7 110.49l.06.12M144.76 110.61l.06.242M144.82 110.85v.181M144.82 111.03l-.06.242M144.76 111.28l-.06.121M144.7 111.4l-.121.121M144.58 111.52l-.181.06M144.4 111.58h-.302"/></g><g class="stroked-text"><path fill="none" d="m149.08 93.67.423 1.27M149.5 94.94l.423-1.27M150.35 94.94v-1.27M150.35 93.67h.302M150.65 93.67l.181.06M150.83 93.731l.121.121M150.95 93.852l.06.12M151.01 93.973l.06.242M151.07 94.215v.181M151.07 94.396l-.06.242M151.01 94.638l-.06.121M150.95 94.759l-.121.121M150.83 94.88l-.181.06M150.65 94.94h-.302M152.34 94.82l-.06.06M152.28 94.88l-.181.06M152.1 94.94h-.12M151.98 94.94l-.181-.06M151.8 94.88l-.121-.121M151.68 94.759l-.06-.121M151.62 94.638l-.06-.242M151.56 94.396v-.181M151.56 94.215l.06-.242M151.62 93.973l.06-.12M151.68 93.852l.121-.121M151.8 93.731l.181-.06M151.98 93.67h.12M152.1 93.67l.181.06M152.28 93.731l.06.06"/></g><g class="stroked-text"><path fill="none" d="m122.97 93.731-.121-.06M122.85 93.67h-.181M122.67 93.67l-.181.06M122.49 93.731l-.121.121M122.37 93.852l-.06.12M122.3 93.973l-.06.242M122.24 94.215v.181M122.24 94.396l.06.242M122.3 94.638l.06.121M122.37 94.759l.121.121M122.49 94.88l.181.06M122.67 94.94h.12M122.79 94.94l.181-.06M122.97 94.88l.06-.06M123.03 94.82v-.423M123.03 94.396h-.242M123.57 94.94v-1.27M123.57 93.67l.726 1.27M124.3 94.94v-1.27M124.91 94.94v-1.27M124.91 93.67h.302M125.21 93.67l.181.06M125.39 93.731l.121.121M125.51 93.852l.06.12M125.57 93.973l.06.242M125.63 94.215v.181M125.63 94.396l-.06.242M125.57 94.638l-.06.121M125.51 94.759l-.121.121M125.39 94.88l-.181.06M125.21 94.94h-.302"/></g><g class="stroked-text"><path fill="none" d="M131.46 88.514v-1.27M131.46 87.244h.302M131.76 87.244l.181.06M131.94 87.305l.121.121M132.06 87.426l.06.12M132.13 87.547l.06.242M132.19 87.789v.181M132.19 87.97l-.06.242M132.13 88.212l-.06.121M132.06 88.333l-.121.121M131.94 88.454l-.181.06M131.76 88.514h-.302M133.4 88.514h-.726M133.03 88.514v-1.27M133.03 87.244l-.12.181M132.91 87.426l-.121.12M132.79 87.547l-.12.06"/></g><g class="stroked-text"><path fill="none" d="M131.58 91.054h-.605M130.98 91.054v-1.27M132 90.389h.423M132.61 91.054h-.605M132 91.054v-1.27M132 89.784h.605M133.15 91.054v-1.27M133.15 89.784h.302M133.46 89.784l.181.06M133.64 89.845l.121.121M133.76 89.966l.06.12M133.82 90.087l.06.242M133.88 90.329v.181M133.88 90.51l-.06.242M133.82 90.752l-.06.121M133.76 90.873l-.121.121M133.64 90.994l-.181.06M133.46 91.054h-.302"/></g></g><g fill="none" fill-opacity="0" stroke="#840000" stroke-linecap="round" stroke-linejoin="round" stroke-width=".152"><path d="M132.72 94.361h-2.54M135.26 94.361h2.54"/></g><g fill="#006464" fill-opacity="0" stroke="#006464" stroke-linecap="round" stroke-linejoin="round" stroke-width=".152"><g class="stroked-text"><path fill="none" d="m141.39 88.413-.423-.605M140.67 88.413v-1.27M140.67 87.143h.484M141.15 87.143l.121.06M141.27 87.203l.06.06M141.33 87.264l.06.12M141.39 87.385v.181M141.39 87.566l-.06.12M141.33 87.687l-.06.06M141.27 87.748l-.121.06M141.15 87.808h-.484M142.6 88.413h-.726M142.24 88.413v-1.27M142.24 87.143l-.12.181M142.12 87.324l-.121.12M142 87.445l-.12.06"/></g><g class="stroked-text"><path fill="none" d="m142 90.953-.423-.605M141.27 90.953v-1.27M141.27 89.683h.484M141.76 89.683l.121.06M141.88 89.743l.06.06M141.94 89.804l.06.12M142 89.925v.181M142 90.106l-.06.12M141.94 90.227l-.06.06M141.88 90.288l-.121.06M141.76 90.348h-.484"/></g></g><g fill="none" fill-opacity="0" stroke="#840000" stroke-linecap="round" stroke-linejoin="round" stroke-width=".152"><path d="M139.06 94.361h-1.27M144.14 94.361h1.27"/></g><g fill="#006464" fill-opacity="0" stroke="#006464" stroke-linecap="round" stroke-linejoin="round" stroke-width=".152"><g class="stroked-text"><path fill="none" d="m144.51 110.56.423 1.27M144.93 111.83l.423-1.27M145.78 111.83v-1.27M145.78 110.56h.302M146.08 110.56l.181.06M146.26 110.62l.121.121M146.38 110.74l.06.12M146.44 110.86l.06.242M146.5 111.11v.181M146.5 111.29l-.06.242M146.44 111.53l-.06.121M146.38 111.65l-.121.121M146.26 111.77l-.181.06M146.08 111.83h-.302M147.77 111.71l-.06.06M147.71 111.77l-.181.06M147.53 111.83h-.12M147.41 111.83l-.181-.06M147.23 111.77l-.121-.121M147.11 111.65l-.06-.121M147.05 111.53l-.06-.242M146.99 111.29v-.181M146.99 111.11l.06-.242M147.05 110.86l.06-.12M147.11 110.74l.121-.121M147.23 110.62l.181-.06M147.41 110.56h.12M147.53 110.56l.181.06M147.71 110.62l.06.06"/></g><g class="stroked-text"><path fill="none" d="m148.16 102.76.423 1.27M148.58 104.03l.423-1.27M149.43 104.03v-1.27M149.43 102.76h.302M149.73 102.76l.181.06M149.92 102.82l.121.121M150.04 102.95l.06.12M150.1 103.07l.06.242M150.16 103.31v.181M150.16 103.49l-.06.242M150.1 103.73l-.06.121M150.04 103.85l-.121.121M149.92 103.97l-.181.06M149.73 104.03h-.302M151.43 103.91l-.06.06M151.37 103.97l-.181.06M151.19 104.03h-.12M151.06 104.03l-.181-.06M150.88 103.97l-.121-.121M150.76 103.85l-.06-.121M150.7 103.73l-.06-.242M150.64 103.49v-.181M150.64 103.31l.06-.242M150.7 103.07l.06-.12M150.76 102.95l.121-.121M150.88 102.82l.181-.06M151.06 102.76h.12M151.19 102.76l.181.06M151.37 102.82l.06.06M152.64 104.03h-.726M152.27 104.03v-1.27M152.27 102.76l-.12.181M152.15 102.95l-.121.12M152.03 103.07l-.12.06"/></g><g class="stroked-text"><path fill="none" d="M148.31 105.02h.726M148.68 106.29v-1.27M149.95 106.23l-.12.06M149.83 106.29h-.242M149.58 106.29l-.121-.06M149.46 106.23l-.06-.121M149.4 106.11v-.484M149.4 105.63l.06-.121M149.46 105.51l.121-.06M149.58 105.45h.242M149.83 105.45l.12.06M149.95 105.51l.06.121M150.01 105.63v.12M150.01 105.75l-.605.121M150.49 106.23l.12.06M150.61 106.29h.242M150.85 106.29l.121-.06M150.98 106.23l.06-.121M151.04 106.11v-.06M151.04 106.05l-.06-.12M150.98 105.93l-.121-.06M150.85 105.87h-.181M150.67 105.87l-.121-.06M150.55 105.81l-.06-.12M150.49 105.69v-.06M150.49 105.63l.06-.121M150.55 105.51l.121-.06M150.67 105.45h.181M150.85 105.45l.121.06M151.4 105.45h.484M151.58 105.02v1.089M151.58 106.11l.06.121M151.64 106.23l.121.06M151.76 106.29h.12M152.31 106.29v-1.27M152.31 105.02h.484M152.79 105.02l.121.06M152.91 105.08l.06.06M152.97 105.15l.06.12M153.03 105.27v.181M153.03 105.45l-.06.12M152.97 105.57l-.06.06M152.91 105.63l-.121.06M152.79 105.69h-.484M153.76 106.29l-.121-.06M153.64 106.23l-.06-.06M153.58 106.17l-.06-.121M153.52 106.05v-.363M153.52 105.69l.06-.121M153.58 105.57l.06-.06M153.64 105.51l.121-.06M153.76 105.45h.181M153.94 105.45l.12.06M154.06 105.51l.06.06M154.12 105.57l.06.121M154.18 105.69v.363M154.18 106.05l-.06.121M154.12 106.17l-.06.06M154.06 106.23l-.12.06M153.94 106.29h-.181M154.72 106.29v-.847M154.72 105.02l-.06.06M154.66 105.08l.06.06M154.72 105.15l.06-.06M154.78 105.08l-.06-.06M154.72 105.02v.121M155.33 105.45v.847M155.33 105.57l.06-.06M155.39 105.51l.121-.06M155.51 105.45h.181M155.69 105.45l.12.06M155.81 105.51l.06.121M155.87 105.63v.665M156.3 105.45h.484M156.48 105.02v1.089M156.48 106.11l.06.121M156.54 106.23l.121.06M156.66 106.29h.12"/></g></g><path fill="none" fill-opacity="0" stroke="#840000" stroke-linecap="round" stroke-linejoin="round" stroke-width=".152" d="M146.2 104.19v2.54"/><g fill="#006464" fill-opacity="0" stroke="#006464" stroke-linecap="round" stroke-linejoin="round" stroke-width=".152"><g class="stroked-text"><path fill="none" d="m139.03 102.7-.121-.06M138.91 102.64h-.181M138.72 102.64l-.181.06M138.54 102.7l-.121.121M138.42 102.82l-.06.12M138.36 102.94l-.06.242M138.3 103.18v.181M138.3 103.36l.06.242M138.36 103.6l.06.121M138.42 103.73l.121.121M138.54 103.85l.181.06M138.72 103.91h.12M138.84 103.91l.181-.06M139.03 103.85l.06-.06M139.09 103.79v-.423M139.09 103.36h-.242M139.63 103.91v-1.27M139.63 102.64l.726 1.27M140.36 103.91v-1.27M140.96 103.91v-1.27M140.96 102.64h.302M141.26 102.64l.181.06M141.45 102.7l.121.121M141.57 102.82l.06.12M141.63 102.94l.06.242M141.69 103.18v.181M141.69 103.36l-.06.242M141.63 103.6l-.06.121M141.57 103.73l-.121.121M141.45 103.85l-.181.06M141.26 103.91h-.302M142.9 103.91h-.726M142.53 103.91v-1.27M142.53 102.64l-.12.181M142.41 102.82l-.121.12M142.29 102.94l-.12.06"/></g><g class="stroked-text"><path fill="none" d="M132.95 104.64h.726M133.31 105.91v-1.27M134.58 105.85l-.12.06M134.46 105.91h-.242M134.22 105.91l-.121-.06M134.1 105.85l-.06-.121M134.04 105.73v-.484M134.04 105.25l.06-.121M134.1 105.13l.121-.06M134.22 105.07h.242M134.46 105.07l.12.06M134.58 105.13l.06.121M134.64 105.25v.12M134.64 105.37l-.605.121M135.12 105.85l.12.06M135.25 105.91h.242M135.49 105.91l.121-.06M135.61 105.85l.06-.121M135.67 105.73v-.06M135.67 105.67l-.06-.12M135.61 105.55l-.121-.06M135.49 105.49h-.181M135.31 105.49l-.121-.06M135.18 105.43l-.06-.12M135.12 105.31v-.06M135.12 105.25l.06-.121M135.18 105.13l.121-.06M135.31 105.07h.181M135.49 105.07l.121.06M136.03 105.07h.484M136.21 104.64v1.089M136.21 105.73l.06.121M136.27 105.85l.121.06M136.39 105.91h.12M136.94 105.91v-1.27M136.94 104.64h.484M137.42 104.64l.121.06M137.54 104.7l.06.06M137.6 104.76l.06.12M137.66 104.89v.181M137.66 105.07l-.06.12M137.6 105.19l-.06.06M137.54 105.25l-.121.06M137.42 105.31h-.484M138.39 105.91l-.121-.06M138.27 105.85l-.06-.06M138.21 105.79l-.06-.121M138.15 105.67v-.363M138.15 105.31l.06-.121M138.21 105.19l.06-.06M138.27 105.13l.121-.06M138.39 105.07h.181M138.57 105.07l.12.06M138.69 105.13l.06.06M138.75 105.19l.06.121M138.81 105.31v.363M138.81 105.67l-.06.121M138.75 105.79l-.06.06M138.69 105.85l-.12.06M138.57 105.91h-.181M139.36 105.91v-.847M139.36 104.64l-.06.06M139.3 104.7l.06.06M139.36 104.76l.06-.06M139.42 104.7l-.06-.06M139.36 104.64v.121M139.96 105.07v.847M139.96 105.19l.06-.06M140.02 105.13l.121-.06M140.14 105.07h.181M140.33 105.07l.12.06M140.45 105.13l.06.121M140.51 105.25v.665M140.93 105.07h.484M141.11 104.64v1.089M141.11 105.73l.06.121M141.17 105.85l.121.06M141.29 105.91h.12"/></g></g><path fill="none" fill-opacity="0" stroke="#840000" stroke-linecap="round" stroke-linejoin="round" stroke-width=".152" d="M143.13 104.11v2.54"/><g fill="#006464" fill-opacity="0" stroke="#006464" stroke-linecap="round" stroke-linejoin="round" stroke-width=".152"><g class="stroked-text"><path fill="none" d="m148.85 69.947.423 1.27M149.27 71.217l.423-1.27M150.12 71.217v-1.27M150.12 69.947h.302M150.42 69.947l.181.06M150.6 70.007l.121.121M150.72 70.128l.06.12M150.78 70.249l.06.242M150.84 70.491v.181M150.84 70.673l-.06.242M150.78 70.914l-.06.121M150.72 71.036l-.121.121M150.6 71.156l-.181.06M150.42 71.217h-.302M152.11 71.096l-.06.06M152.05 71.156l-.181.06M151.87 71.217h-.12M151.75 71.217l-.181-.06M151.57 71.156l-.121-.121M151.45 71.036l-.06-.121M151.39 70.914l-.06-.242M151.33 70.673v-.181M151.33 70.491l.06-.242M151.39 70.249l.06-.12M151.45 70.128l.121-.121M151.57 70.007l.181-.06M151.75 69.947h.12M151.87 69.947l.181.06M152.05 70.007l.06.06"/></g><g class="stroked-text"><path fill="none" d="m141.16 64.689-.423-.605M140.44 64.689v-1.27M140.44 63.419h.484M140.92 63.419l.121.06M141.04 63.48l.06.06M141.1 63.54l.06.12M141.16 63.661v.181M141.16 63.842l-.06.12M141.1 63.963l-.06.06M141.04 64.024l-.121.06M140.92 64.084h-.484M141.59 63.419h.786M142.37 63.419l-.423.484M141.95 63.903h.181M142.13 63.903l.12.06M142.25 63.963l.06.06M142.31 64.024l.06.12M142.37 64.145v.302M142.37 64.447l-.06.121M142.31 64.568l-.06.06M142.25 64.629l-.12.06M142.13 64.689h-.363M141.77 64.689l-.12-.06M141.65 64.629l-.06-.06"/></g><g class="stroked-text"><path fill="none" d="m141.77 67.229-.423-.605M141.04 67.229v-1.27M141.04 65.959h.484M141.53 65.959l.121.06M141.65 66.02l.06.06M141.71 66.08l.06.12M141.77 66.201v.181M141.77 66.382l-.06.12M141.71 66.503l-.06.06M141.65 66.564l-.121.06M141.53 66.624h-.484"/></g></g><g fill="none" fill-opacity="0" stroke="#840000" stroke-linecap="round" stroke-linejoin="round" stroke-width=".152"><path d="M138.84 70.637h-1.27M143.92 70.637h1.27"/></g><g fill="#006464" fill-opacity="0" stroke="#006464" stroke-linecap="round" stroke-linejoin="round" stroke-width=".152"><g class="stroked-text"><path fill="none" d="m122.74 70.007-.121-.06M122.62 69.947h-.181M122.44 69.947l-.181.06M122.26 70.007l-.121.121M122.14 70.128l-.06.12M122.08 70.249l-.06.242M122.02 70.491v.181M122.02 70.673l.06.242M122.08 70.914l.06.121M122.14 71.036l.121.121M122.26 71.156l.181.06M122.44 71.217h.12M122.56 71.217l.181-.06M122.74 71.156l.06-.06M122.8 71.096v-.423M122.8 70.673h-.242M123.35 71.217v-1.27M123.35 69.947l.726 1.27M124.07 71.217v-1.27M124.68 71.217v-1.27M124.68 69.947h.302M124.98 69.947l.181.06M125.16 70.007l.121.121M125.28 70.128l.06.12M125.34 70.249l.06.242M125.4 70.491v.181M125.4 70.673l-.06.242M125.34 70.914l-.06.121M125.28 71.036l-.121.121M125.16 71.156l-.181.06M124.98 71.217h-.302"/></g><g class="stroked-text"><path fill="none" d="m122.56 81.945-.121-.06M122.44 81.885h-.181M122.26 81.885l-.181.06M122.08 81.945l-.121.121M121.96 82.066l-.06.12M121.9 82.187l-.06.242M121.84 82.429v.181M121.84 82.611l.06.242M121.9 82.852l.06.121M121.96 82.974l.121.121M122.08 83.094l.181.06M122.26 83.155h.12M122.38 83.155l.181-.06M122.56 83.094l.06-.06M122.62 83.034v-.423M122.62 82.611h-.242M123.17 83.155v-1.27M123.17 81.885l.726 1.27M123.89 83.155v-1.27M124.5 83.155v-1.27M124.5 81.885h.302M124.8 81.885l.181.06M124.98 81.945l.121.121M125.1 82.066l.06.12M125.16 82.187l.06.242M125.22 82.429v.181M125.22 82.611l-.06.242M125.16 82.852l-.06.121M125.1 82.974l-.121.121M124.98 83.094l-.181.06M124.8 83.155h-.302"/></g><g class="stroked-text"><path fill="none" d="m140.99 76.627-.423-.605M140.26 76.627v-1.27M140.26 75.357h.484M140.74 75.357l.121.06M140.87 75.418l.06.06M140.93 75.478l.06.12M140.99 75.599v.181M140.99 75.78l-.06.12M140.93 75.901l-.06.06M140.87 75.962l-.121.06M140.74 76.022h-.484M141.47 75.478l.06-.06M141.53 75.418l.121-.06M141.65 75.357h.302M141.95 75.357l.12.06M142.08 75.418l.06.06M142.14 75.478l.06.12M142.2 75.599v.121M142.2 75.72l-.06.181M142.14 75.901l-.726.726M141.41 76.627h.786"/></g><g class="stroked-text"><path fill="none" d="m141.59 79.167-.423-.605M140.87 79.167v-1.27M140.87 77.897h.484M141.35 77.897l.121.06M141.47 77.958l.06.06M141.53 78.018l.06.12M141.59 78.139v.181M141.59 78.32l-.06.12M141.53 78.441l-.06.06M141.47 78.502l-.121.06M141.35 78.562h-.484"/></g></g><g fill="none" fill-opacity="0" stroke="#840000" stroke-linecap="round" stroke-linejoin="round" stroke-width=".152"><path d="M138.66 82.575h-1.27M143.74 82.575h1.27"/></g><g fill="#006464" fill-opacity="0" stroke="#006464" stroke-linecap="round" stroke-linejoin="round" stroke-width=".152"><g class="stroked-text"><path fill="none" d="M131.05 76.729v-1.27M131.05 75.459h.302M131.36 75.459l.181.06M131.54 75.519l.121.121M131.66 75.64l.06.12M131.72 75.761l.06.242M131.78 76.003v.181M131.78 76.184l-.06.242M131.72 76.426l-.06.121M131.66 76.547l-.121.121M131.54 76.668l-.181.06M131.36 76.729h-.302M132.26 75.58l.06-.06M132.32 75.519l.121-.06M132.44 75.459h.302M132.75 75.459l.12.06M132.87 75.519l.06.06M132.93 75.58l.06.12M132.99 75.701v.121M132.99 75.822l-.06.181M132.93 76.003l-.726.726M132.2 76.729h.786"/></g><g class="stroked-text"><path fill="none" d="M131.17 79.269h-.605M130.57 79.269v-1.27M131.6 78.604h.423M132.2 79.269h-.605M131.6 79.269v-1.27M131.6 77.999h.605M132.75 79.269v-1.27M132.75 77.999h.302M133.05 77.999l.181.06M133.23 78.059l.121.121M133.35 78.18l.06.12M133.41 78.301l.06.242M133.47 78.543v.181M133.47 78.724l-.06.242M133.41 78.966l-.06.121M133.35 79.087l-.121.121M133.23 79.208l-.181.06M133.05 79.269h-.302"/></g></g><g fill="none" fill-opacity="0" stroke="#840000" stroke-linecap="round" stroke-linejoin="round" stroke-width=".152"><path d="M132.31 82.575h-2.54M134.85 82.575h2.54"/></g><g fill="#006464" fill-opacity="0" stroke="#006464" stroke-linecap="round" stroke-linejoin="round" stroke-width=".152"><g class="stroked-text"><path fill="none" d="M131.23 64.791v-1.27M131.23 63.521h.302M131.53 63.521l.181.06M131.72 63.581l.121.121M131.84 63.702l.06.12M131.9 63.823l.06.242M131.96 64.065v.181M131.96 64.246l-.06.242M131.9 64.488l-.06.121M131.84 64.609l-.121.121M131.72 64.73l-.181.06M131.53 64.791h-.302M132.38 63.521h.786M133.17 63.521l-.423.484M132.74 64.004h.181M132.92 64.004l.12.06M133.05 64.065l.06.06M133.11 64.126l.06.12M133.17 64.246v.302M133.17 64.549l-.06.121M133.11 64.67l-.06.06M133.05 64.73l-.12.06M132.92 64.791h-.363M132.56 64.791l-.12-.06M132.44 64.73l-.06-.06"/></g><g class="stroked-text"><path fill="none" d="M131.35 67.331h-.605M130.75 67.331v-1.27M131.78 66.666h.423M132.38 67.331h-.605M131.78 67.331v-1.27M131.78 66.061h.605M132.92 67.331v-1.27M132.92 66.061h.302M133.23 66.061l.181.06M133.41 66.121l.121.121M133.53 66.242l.06.12M133.59 66.363l.06.242M133.65 66.605v.181M133.65 66.786l-.06.242M133.59 67.028l-.06.121M133.53 67.149l-.121.121M133.41 67.27l-.181.06M133.23 67.331h-.302"/></g></g><g fill="none" fill-opacity="0" stroke="#840000" stroke-linecap="round" stroke-linejoin="round" stroke-width=".152"><path d="M132.49 70.637h-2.54M135.03 70.637h2.54"/></g><g fill="#006464" fill-opacity="0" stroke="#006464" stroke-linecap="round" stroke-linejoin="round" stroke-width=".152" class="stroked-text"><path fill="none" d="m148.67 81.885.423 1.27M149.09 83.155l.423-1.27M149.94 83.155v-1.27M149.94 81.885h.302M150.24 81.885l.181.06M150.42 81.945l.121.121M150.54 82.066l.06.12M150.6 82.187l.06.242M150.67 82.429v.181M150.67 82.611l-.06.242M150.6 82.852l-.06.121M150.54 82.974l-.121.121M150.42 83.094l-.181.06M150.24 83.155h-.302M151.94 83.034l-.06.06M151.88 83.094l-.181.06M151.69 83.155h-.12M151.57 83.155l-.181-.06M151.39 83.094l-.121-.121M151.27 82.974l-.06-.121M151.21 82.852l-.06-.242M151.15 82.611v-.181M151.15 82.429l.06-.242M151.21 82.187l.06-.12M151.27 82.066l.121-.121M151.39 81.945l.181-.06M151.57 81.885h.12M151.69 81.885l.181.06M151.88 81.945l.06.06"/></g></svg>