<svg xmlns="http://www.w3.org/2000/svg" xmlns:xlink="http://www.w3.org/1999/xlink" width="1122.52" height="793.739" viewBox="0 0 297 210.01" xmlns:v="https://vecta.io/nano"><style><![CDATA[.B{stroke-linejoin:round}.C{stroke-linecap:round}.D{fill:none}.E{stroke-width:.152}.F{fill-opacity:0}.G{stroke:#006464}.H{stroke:#840000}.I{stroke-width:.254}]]></style><path fill="#f5f4ef" d="M0 0h297v210.01H0z"/><g class="H B C D"><g class="E F"><path d="M177 166.01h108v32H177v-32"/><path d="M10 10h277v190.01H10V10"/><path d="M12 12h273v186.01H12V12m48 0v-2m50 2v-2m50 2v-2m50 2v-2m50 2v-2M36.091 11.594h-.743m.371 0v-1.3m0 0l-.124.186m0-.001l-.124.124m.001 0l-.124.062m50-.248l.062-.062m0 0l.124-.062m0 .001h.31m-.001 0l.124.062m0-.001l.062.062m0 0l.062.124m0 0v.124m0 0l-.062.186m0 0l-.743.743m0 0h.805m49.199-1.3h.805m-.005 0l-.433.495m.003 0h.186m-.006 0l.124.062m.006 0l.062.062m-.002-.001l.062.124m-.002 0v.31m0 0l-.062.124m.002 0l-.062.062m.002 0l-.124.062m-.006 0h-.371m.001 0l-.124-.062m.004 0l-.062-.062m50.682-.743v.867m-.31-1.362l-.31.928m0 0h.805m49.875-.866h-.619m-.001 0l-.062.619m.002-.001l.062-.062m-.002.001l.124-.062m-.004 0h.31m0 0l.124.062m.006 0l.062.062m-.002-.001l.062.124m-.002 0v.31m0 0l-.062.124m.002 0l-.062.062m.002 0l-.124.062m-.006 0h-.31m0 0l-.124-.062m.004 0l-.062-.062m50.622-1.176h-.248m-.002 0l-.124.062m.004-.001l-.062.062m-.008 0l-.124.186m.004 0l-.062.248m.002 0v.495m0 0l.062.124m-.002 0l.062.062m-.002 0l.124.062m.006 0h.248m-.008 0l.124-.062m.006 0l.062-.062m-.002 0l.062-.124m-.002 0v-.31m0 0l-.062-.124m.002 0l-.062-.062m.002.001l-.124-.062m-.006 0h-.248m.008 0l-.124.062m-.006 0l-.062.062m.002-.001l-.062.124M60 198.01v2m50-2v2m50-2v2m50-2v2m50-2v2m-223.909-.41h-.743m.371 0v-1.3m0 0l-.124.186m0 .004l-.124.124m.001-.004l-.124.062m50-.252l.062-.062m0 .002l.124-.062m0 .002h.31m-.001 0l.124.062m0-.002l.062.062m0-.002l.062.124m0 .006v.124m0-.004l-.062.186m0 .004l-.743.743m0-.003h.805m49.199-1.3h.805m-.005 0l-.433.495m.003.005h.186m-.006 0l.124.062m.006-.002l.062.062m-.002-.002l.062.124m-.002-.004v.31m0 0l-.062.124m.002.006l-.062.062m.002-.002l-.124.062m-.006-.002h-.371m.001 0l-.124-.062m.004.002l-.062-.062m50.682-.748v.867m-.31-1.357l-.31.928m0 .002h.805m49.875-.87h-.619m-.001 0l-.062.619m.002.001l.062-.062m-.002.002l.124-.062m-.004.002h.31m0 0l.124.062m.006-.002l.062.062m-.002-.002l.062.124m-.002-.004v.31m0 0l-.062.124m.002.006l-.062.062m.002-.002l-.124.062m-.006-.002h-.31m0 0l-.124-.062m.004.002l-.062-.062m50.622-1.178h-.248m-.002 0l-.124.062m.004-.002l-.062.062m-.008-.002l-.124.186m.004.004l-.062.248m.002.002v.495m0-.005l.062.124m-.002.006l.062.062m-.002-.002l.124.062m.006-.002h.248m-.008 0l.124-.062m.006.002l.062-.062m-.002.002l.062-.124m-.002-.006v-.31m0 0l-.062-.124m.002.004l-.062-.062m.002.002l-.124-.062m-.006.002h-.248m.008 0l-.124.062m-.006-.002l-.062.062m.002-.002l-.062.124M10 60h2m-2 50h2m-2 50h2"/><path d="M10.69 35.222h.619m-.742.372l.433-1.3m0 0l.433 1.3m-.34 49.318l.186.062m-.001 0l.062.062m0 0l.062.124m0 0v.186m0 0l-.062.124m0 0l-.062.062m0 0l-.124.062m.001 0h-.495m0 0v-1.3m0 0h.433m0 0l.124.062m0-.001l.062.062m-.001 0l.062.124m0 0v.124m0 0l-.062.124m0 0l-.062.062m.001 0l-.124.062m0-.001h-.433m.742 50.558l-.062.062m0-.002l-.186.062m.001-.002h-.124m0 0l-.186-.062m0 .002l-.124-.124m0 .004l-.062-.124m.001-.006l-.062-.248m0 .008v-.186m0-.004l.062-.248m0-.002l.062-.124m-.001.004l.124-.124m0 .004l.186-.062m0-.008h.124m0 0l.186.062m-.001.008l.062.062m-.742 51.168v-1.3m0 0h.31m-.001 0l.186.062m0 .008l.124.124m-.001-.004l.062.124m0-.004l.062.248m0 .002v.186m0 .004l-.062.248m0-.008l-.062.124m0 .006l-.124.124m.001-.004l-.186.062m0-.002h-.31M287 60h-2m2 50h-2m2 50h-2"/><path d="M285.69 35.222h.619m-.739.372l.433-1.3m-.003 0l.433 1.3m-.333 49.318l.186.062m-.006 0l.062.062m-.002 0l.062.124m-.002 0v.186m0 0l-.062.124m.002 0l-.062.062m.002 0l-.124.062m.004 0h-.495m-.005 0v-1.3m0 0h.433m.007 0l.124.062m-.004-.001l.062.062m-.002 0l.062.124m-.002 0v.124m0 0l-.062.124m.002 0l-.062.062m.002 0l-.124.062m.004-.001h-.433m.733 50.558l-.062.062m.002-.002l-.186.062m.006-.002h-.124m-.006 0l-.186-.062m.006.002l-.124-.124m-.006.004l-.062-.124m.002-.006l-.062-.248m.002.008v-.186m0-.004l.062-.248m-.002-.002l.062-.124m-.002.004l.124-.124m.006.004l.186-.062m-.006-.008h.124m.006 0l.186.062m-.006.008l.062.062m-.742 51.168v-1.3m0 0h.31m0 0l.186.062m.004.008l.124.124m-.004-.004l.062.124m-.002-.004l.062.248m-.002.002v.186m0 .004l-.062.248m.002-.008l-.062.124m.002.006l-.124.124m.004-.004l-.186.062m-.004-.002h-.31m-85.2 8.2v-1.5m0 0h.357m.003 0l.214.071m-.004-.001l.143.143m-.003.007l.071.143m.009-.003l.071.286m-.001.004v.214m0-.004l-.071.286m.001.004l-.071.143m-.009-.003l-.143.143m.003-.003l-.214.071m.004-.001h-.357m2.137 0v-.786m0 .006l-.071-.143m.001-.007l-.143-.071m.003.001h-.286m-.004 0l-.143.071m.643.859l-.143.071m.003-.001h-.357m-.003 0l-.143-.071m.003.001l-.071-.143m.001.003v-.143m0 .003l.071-.143m-.001-.007l.143-.071m-.003.001h.357m.003 0l.143-.071m.497-.359h.571m-.351-.5v1.286m0 .004l.071.143m-.001-.003l.143.071m-.003-.001h.143m1.077-.07l-.143.071m-.007-.001h-.286m.006 0l-.143-.071m-.007.001l-.071-.143m.001.003v-.571m0 .001l.071-.143m-.001-.007l.143-.071m.007.001h.286m-.006 0l.143.071m.007-.001l.071.143m-.001.007v.143m0-.003l-.714.143m1.354.357l.071.071m-.001-.001l-.071.071m.001-.001l-.071-.071m.001.001l.071-.071m-.001.001v.143m0-.933l.071.071m-.001.009l-.071.071m.001-.001l-.071-.071m.001.001l.071-.071m-.001-.009v.143m1.79-.563l.071-.071m-.001-.009l.143-.071m-.003.001h.357m.003 0l.143.071m-.003-.001l.071.071m-.001.009l.071.143m-.001-.003v.143m0-.003l-.071.214m.001.006l-.857.857m-.003-.007h.929m.931-1.5h.143m-.003 0l.143.071m.007-.001l.071.071m-.001.009l.071.143m-.001-.003l.071.286m-.001-.006v.357m0 .003l-.071.286m.001.004l-.071.143m.001-.003l-.071.071m.001-.001l-.143.071m-.007-.001h-.143m.003 0l-.143-.071m.003.001l-.071-.071m.001.001l-.071-.143m.001.003l-.071-.286m-.009-.004v-.357m0-.003l.071-.286m.009.006l.071-.143m-.001.003l.071-.071m-.001-.009l.143-.071m1.067.151l.071-.071m-.001-.009l.143-.071m.007.001h.357m-.007 0l.143.071m.007-.001l.071.071m-.001.009l.071.143m-.001-.003v.143m0-.003l-.071.214m.001.006l-.857.857m-.003-.007h.929m1.291-1v1m-.36-1.57l-.357 1.071m-.003-.001h.928m.572-.07h1.143m.997-.93h.143m.007 0l.143.071m-.003-.001l.071.071m-.001.009l.071.143m-.001-.003l.071.286m-.001-.006v.357m0 .003l-.071.286m.001.004l-.071.143m.001-.003l-.071.071m.001-.001l-.143.071m.003-.001h-.143m-.007 0l-.143-.071m.003.001l-.071-.071m.001.001l-.071-.143m.001.003l-.071-.286m.001-.004v-.357m0-.003l.071-.286m-.001.006l.071-.143m-.001.003l.071-.071m-.001-.009l.143-.071m1.077.151l.071-.071m-.001-.009l.143-.071m-.003.001h.357m.003 0l.143.071m-.003-.001l.071.071m-.001.009l.071.143m-.001-.003v.143m0-.003l-.071.214m.001.006l-.857.857m-.003-.007h.929m.651-.57h1.143m.637-.78l.071-.071m-.001-.009l.143-.071m.007.001h.357m-.007 0l.143.071m.007-.001l.071.071m-.001.009l.071.143m-.001-.003v.143m0-.003l-.071.214m.001.006l-.857.857m-.003-.007h.929m1.431 0h-.857m.427 0v-1.5m0 0l-.143.214m.003.006l-.143.143m-.007-.003l-.143.071M177 194.51h108m-106.54 2.08v-1.5m.86 1.5l-.643-.857m.643-.643l-.857.857m1.497.643v-1m0-.5l-.071.071m.001-.001l.071.071m-.001.009l.071-.071m-.001-.009l-.071-.071m.001.001v.143m1.57 1.217l-.071.071m.001-.001l-.214.071m.004-.001h-.143m-.007 0l-.214-.071m.004.001l-.143-.143m.003.003l-.071-.143m-.009.003l-.071-.286m.001-.004v-.214m0 .004l.071-.286m-.001-.004l.071-.143m.009.003l.143-.143m-.003-.007l.214-.071m-.004.001h.143m.007 0l.214.071m-.004-.001l.071.071m1.289 1.359v-.786m0 .006l-.071-.143m.001-.007l-.143-.071m-.007.001h-.286m.006 0l-.143.071m.643.859l-.143.071m-.007-.001h-.357m.007 0l-.143-.071m-.007.001l-.071-.143m.001.003v-.143m0 .003l.071-.143m-.001-.007l.143-.071m.007.001h.357m-.007 0l.143-.071m1.357.641v-1.5m0 1.43l-.143.071m.003-.001h-.286m.006 0l-.143-.071m-.007.001l-.071-.071m.001.001l-.071-.143m.001.003v-.429m0-.001l.071-.143m-.001.003l.071-.071m-.001-.009l.143-.071m.007.001h.286m-.006 0l.143.071m1.857.149h.5m.22.78h-.714m-.006 0v-1.5m0 0h.714m.646 1.36l.071.071m-.001-.001l-.071.071m.001-.001l-.071-.071m.001.001l.071-.071m-.001.001v.143m.71-.003v-1.5m0 0h.357m.003 0l.214.071m-.004-.001l.143.143m.007.007l.071.143m-.001-.003l.071.286m-.001.004v.214m0-.004l-.071.286m.001.004l-.071.143m.001-.003l-.143.143m-.007-.003l-.214.071m.004-.001h-.357m1.497-.14l.071.071m-.001-.001l-.071.071m.001-.001l-.071-.071m.001.001l.071-.071m-.001.001v.143m.65-.433h.714m-.864.43l.5-1.5m0 0l.5 1.5m.5-.14l.071.071m-.001-.001l-.071.071m.001-.001l-.071-.071m.001.001l.071-.071m-.001.001v.143m3-.003v-1.5m.15.93l.428.571m-.008-1.001l-.571.571m1.221.429v-1m0-.5l-.071.071m.001-.001l.071.071m-.001.009l.071-.071m-.001-.009l-.071-.071m.001.001v.143m1.35 1.287l-.143.071m.003-.001h-.286m.006 0l-.143-.071m-.007.001l-.071-.071m.001.001l-.071-.143m.001.003v-.429m0-.001l.071-.143m-.001.003l.071-.071m-.001-.009l.143-.071m.007.001h.286m-.006 0l.143.071m1.287.929v-.786m0 .006l-.071-.143m.001-.007l-.143-.071m.003.001h-.286m-.004 0l-.143.071m.643.859l-.143.071m.003-.001h-.357m-.003 0l-.143-.071m.003.001l-.071-.143m.001.003v-.143m0 .003l.071-.143m-.001-.007l.143-.071m-.003.001h.357m.003 0l.143-.071m1.357.641v-1.5m0 1.43l-.143.071m-.007-.001h-.286m.006 0l-.143-.071m.003.001l-.071-.071m-.009.001l-.071-.143m.001.003v-.429m0-.001l.071-.143m-.001.003l.071-.071m.009-.009l.143-.071m-.003.001h.286m-.006 0l.143.071m1.717-.571h1m0 0l-.643 1.5m1.213-.14l.071.071m-.001-.001l-.071.071m.001-.001l-.071-.071m.001.001l.071-.071m-.001.001v.143m1-1.503h.143m.007 0l.143.071m-.003-.001l.071.071m-.001.009l.071.143m-.001-.003l.071.286m-.001-.006v.357m0 .003l-.071.286m.001.004l-.071.143m.001-.003l-.071.071m.001-.001l-.143.071m.003-.001h-.143m-.007 0l-.143-.071m.003.001l-.071-.071m.001.001l-.071-.143m.001.003l-.071-.286m.001-.004v-.357m0-.003l.071-.286m-.001.006l.071-.143m-.001.003l.071-.071m-.001-.009l.143-.071m1.147 1.361l.071.071m-.001-.001l-.071.071m.001-.001l-.071-.071m-.009.001l.071-.071m.009.001v.143m1.5-.003h-.857m.427 0v-1.5m0 0l-.143.214m-.007.006l-.143.143m.003-.003l-.143.071m1.783-.431h.143m.007 0l.143.071m-.003-.001l.071.071m-.001.009l.071.143m-.001-.003l.071.286m-.001-.006v.357m0 .003l-.071.286m.001.004l-.071.143m.001-.003l-.071.071m.001-.001l-.143.071m.003-.001h-.143m-.007 0l-.143-.071m.003.001l-.071-.071m.001.001l-.071-.143m.001.003l-.071-.286m.001-.004v-.357m0-.003l.071-.286m-.001.006l.071-.143m-.001.003l.071-.071m-.001-.009l.143-.071"/><path d="M177 191.51h108"/></g><path d="M264.41 193.79l-.5-.714m-.35.714v-1.5m0 0h.571m-.001 0l.143.071m-.003-.001l.071.071m-.001-.001l.071.143m-.001-.003v.214m0 .006l-.071.143m.001-.003l-.071.071m.001-.001l-.143.071m.003-.001h-.571m2.071.64l-.143.071m.003.009h-.286m-.004 0l-.143-.071m.003-.009l-.071-.143m.001.003v-.571m0 .001l.071-.143m-.001.003l.143-.071m-.003.001h.286m.004 0l.143.071m-.003-.001l.071.143M265.7 193v.143m0-.003l-.714.143m1.214-.493l.357 1m.003 0l.357-1m.573.85l.071.071m-.001-.001l-.071.071m.001.009l-.071-.071m-.009-.009l.071-.071m.009.001v.143m0-.923l.071.071m-.001-.001l-.071.071m.001-.001l-.071-.071m-.009.001l.071-.071m.009.001v.143m2.14-.713h.143m-.003 0l.143.071m-.003-.001l.071.071m.009-.001l.071.143m-.001-.003l.071.286m-.001.004v.357m0-.007l-.071.286m.001.004l-.071.143m.001-.003l-.071.071m-.009-.001l-.143.071m.003.009h-.143m.003 0l-.143-.071m.003-.009l-.071-.071m-.009.001l-.071-.143m.001.003l-.071-.286m.001-.004v-.357m0 .007l.071-.286m-.001-.004l.071-.143m-.001.003l.071-.071m.009.001l.143-.071m1.927 1.501h-.857m.427 0v-1.5m0 0l-.143.214m.003-.004l-.143.143m-.007-.003l-.143.071m1.503.499h1.143m.647-.78l.071-.071m-.001.001l.143-.071m-.003.001h.357m.003 0l.143.071m-.003-.001l.071.071m-.001-.001l.071.143m-.001-.003v.143m0-.003l-.071.214m.001.006l-.857.857m-.003.003h.929m.931-1.5h.143m-.003 0l.143.071m.007-.001l.071.071m-.001-.001l.071.143m-.001-.003l.071.286m-.001.004v.357m0-.007l-.071.286m.001.004l-.071.143m.001-.003l-.071.071m.001-.001l-.143.071m-.007.009h-.143m.003 0l-.143-.071m.003-.009l-.071-.071m.001.001l-.071-.143m.001.003l-.071-.286m-.009-.004v-.357m0 .007l.071-.286m.009-.004l.071-.143m-.001.003l.071-.071m-.001.001l.143-.071m1.067.141l.071-.071m-.001.001l.143-.071m.007.001h.357m-.007 0l.143.071m.007-.001l.071.071m-.001-.001l.071.143m-.001-.003v.143m0-.003l-.071.214m.001.006l-.857.857m-.003.003h.929m1.291-1v1m-.36-1.58l-.357 1.071m-.003.009h.928" stroke-width=".3"/><path d="M178.39 193.72l.214.071m-.004-.001h.357m.003 0l.143-.071m-.003.001l.071-.071m-.001.001l.071-.143m.009.003v-.143m0-.007l-.071-.143m-.009.003l-.071-.071m.001.001l-.143-.071m.003.001l-.286-.071m-.004.001l-.143-.071m.003.001l-.071-.071m.001-.009l-.071-.143m.001.003v-.143m0 .003l.071-.143m-.001.003l.071-.071m-.001-.009l.143-.071m-.003.001h.357m.003 0l.214.071m.646 1.429v-1m0-.5l-.071.071m.001-.001l.071.071m-.001.009l.071-.071m-.001-.009l-.071-.071m.001.001v.143m.57.357h.786m.004 0l-.786 1m-.004 0h.786m1.144-.07l-.143.071m.003-.001h-.286m-.004 0l-.143-.071m.003.001l-.071-.143m.001.003v-.571m0 .001l.071-.143m-.001-.007l.143-.071m-.003.001h.286m.004 0l.143.071m-.003-.001l.071.143m-.001.007v.143m0-.003l-.714.143m1.354.357l.071.071m-.001-.001l-.071.071m.001-.001l-.071-.071m.001.001l.071-.071m-.001.001v.143m0-.933l.071.071m-.001.009l-.071.071m.001-.001l-.071-.071m.001.001l.071-.071m-.001-.009v.143m1.79.357h.714m-.854.43l.5-1.5m0 0l.5 1.5m1.14-1v1m-.36-1.57l-.357 1.071m-.003-.001h.928m76.362 3.3v-1.5m1.36 1.5v-1.5m0 1.43l-.143.071m-.007-.001h-.286m.006 0l-.143-.071m.003.001l-.071-.071m-.009.001l-.071-.143m.001.003v-.429m0-.001l.071-.143m-.001.003l.071-.071m.009-.009l.143-.071m-.003.001h.286m-.006 0l.143.071m.717.789l.071.071m-.001-.001l-.071.071m.001-.001l-.071-.071m.001.001l.071-.071m-.001.001v.143m0-.933l.071.071m-.001.009l-.071.071m.001-.001l-.071-.071m.001.001l.071-.071m-.001-.009v.143m2.64.787h-.857m.437 0v-1.5m0 0l-.143.214m-.007.006l-.143.143m.003-.003l-.143.071m2.573-.501l-1.286 1.929m2.566-.359h-.857m.437 0v-1.5m0 0l-.143.214m-.007.006l-.143.143m.003-.003l-.143.071M177 187.51h108" class="E F"/><path d="M178.69 188.21h1.143m-.813 2l.25-2m.98 2l.167-1.333m.083-.667l-.107.095m.007.005l.083.095m-.003-.005l.107-.095m.003.005l-.083-.095m-.007-.005l-.024.19m.614.48h.762m-.392-.67l-.214 1.714m-.006.006l.071.19m-.001 0l.179.095m.001-.005h.19m.95 0l-.179-.095m.009.005l-.071-.19m-.009 0l.214-1.714m1.576 1.904l-.202.095m.002-.005h-.381m.001 0l-.179-.095m-.001.005l-.071-.19m.001 0l.095-.762m-.005-.008l.119-.19m.001 0l.202-.095m-.002.005h.38m0 0l.179.095m.001-.005l.071.19m-.001 0l-.024.19m.004 0l-.976.19m1.746.48l.083.095m.007.005l-.107.095m-.003-.005l-.083-.095m.003.005l.107-.095m-.007-.005l-.024.19m.164-1.24l.083.095m-.003.005l-.107.095m-.003-.005l-.083-.095m.003.005l.107-.095m.003-.005l-.024.19m2.344 1.05l.25-2m.87.67l-.167 1.333m.137-1.143l.107-.095m.003-.005l.202-.095m-.002.005h.286m.004 0l.179.095m.001-.005l.071.19m-.001 0l-.13 1.048m.87-.088l.179.095m-.009-.005h.38m0 0l.202-.095m.008.005l.12-.19m0 0l.012-.095m-.002-.005l-.071-.19m.001 0l-.178-.095m-.002-.005h-.286m-.004 0l-.178-.095m-.002.005l-.071-.19m.001 0l.012-.095m-.002-.005l.119-.19m.001 0l.202-.095m.008.005h.286m-.006 0l.179.095m.681-.095h.762m-.392-.67l-.214 1.714m-.006.006l.071.19m-.001 0l.179.095m.001-.005h.19m.67 0l.167-1.333m-.047.383l.119-.19m.001 0l.107-.095m.003-.005l.202-.095m-.002.005h.19m1.52 0l-.167 1.333m-.683-1.333l-.13 1.048m-.01.002l.071.19m.009 0l.179.095m-.009-.005h.286m.004 0l.202-.095m-.002.005l.107-.095m.933.185l.167-1.333m-.027.193l.107-.095m.003-.005l.202-.095m-.002.005h.286m.004 0l.179.095m-.009-.005l.071.19m.009 0l-.13 1.048m.13-1.048l.12-.19m0 0l.202-.095m-.002.005h.286m-.006 0l.178.095m.002-.005l.071.19m-.001 0l-.131 1.048m1.731-.088l-.202.095m.002-.005h-.381m.001 0l-.179-.095m-.001.005l-.071-.19m.001 0l.095-.762m-.005-.008l.119-.19m.001 0l.202-.095m-.002.005h.38m0 0l.179.095m.001-.005l.071.19m-.001 0l-.024.19m.004 0l-.976.19m1.896-.66l-.167 1.333m.137-1.143l.107-.095m.003-.005l.202-.095m-.002.005h.286m.004 0l.179.095m.001-.005l.071.19m-.001 0l-.13 1.048m.83-1.328h.762m-.392-.67l-.214 1.714m-.006.006l.071.19m.009 0l.179.095m-.009-.005h.19m.59-.09l.179.095m.001-.005h.38m0 0l.202-.095m-.002.005l.12-.19m0 0l.012-.095m-.002-.005l-.071-.19m.001 0l-.178-.095m-.002-.005h-.286m.006 0l-.178-.095m-.002.005l-.071-.19m.001 0l.012-.095m-.002-.005l.119-.19m.001 0l.202-.095m-.002.005h.286m-.006 0l.179.095m3.491 1.045l-.107.095m-.003.005l-.298.095m.008-.005h-.19m0 0l-.274-.095m-.006.005l-.167-.19m.007 0l-.071-.19m-.009 0l-.048-.381m.008-.009l.036-.286m-.006.006l.143-.38m-.003 0l.12-.19m0 0l.214-.19m.006 0l.298-.095m.002-.005h.19m0 0l.274.095m-.004.005l.083.095m.917 1.805l-.179-.095m-.001.005l-.071-.19m.001 0l.214-1.714m1.826.664l-.167 1.333m-.693-1.333l-.13 1.048m0 .002l.071.19m-.001 0l.179.095m.001-.005h.286m-.006 0l.202-.095m.008.005l.107-.095m.843.095l.179.095m.001-.005h.38m0 0l.202-.095m-.002.005l.12-.19m0 0l.012-.095m-.002-.005l-.071-.19m.001 0l-.178-.095m-.002-.005h-.286m.006 0l-.178-.095m-.002.005l-.071-.19m.001 0l.012-.095m-.002-.005l.119-.19m.001 0l.202-.095m-.002.005h.286m-.006 0l.179.095m.681-.095h.762m-.392-.67l-.214 1.714m.004.006l.071.19m-.001 0l.179.095m.001-.005h.19m1.44-.09l-.202.095m-.008-.005h-.381m.001 0l-.179-.095m.009.005l-.071-.19m-.009 0l.095-.762m.005-.008l.119-.19m.001 0l.202-.095m-.002.005h.38m0 0l.179.095m.001-.005l.071.19m-.001 0l-.024.19m.004 0l-.976.19m1.726.67l.167-1.333m-.047.383l.119-.19m.001 0l.107-.095m-.007-.005l.202-.095m.008.005h.19m2.97 1.33h-.952m.002 0l.25-2m1.5.95h.667m.153 1.05h-.952m.002 0l.25-2m0 0h.952m.608 2l.25-2m0 0h.476m-.006 0l.274.095m.006.005l.167.19m-.007 0l.071.19m.009 0l.048.38m-.008 0l-.036.286m.006-.006l-.143.381m.003.009l-.12.19m0 0l-.214.19m-.006 0l-.298.095m-.002-.005h-.476m4.556-1.33l-.167 1.333m-.693-1.333l-.13 1.048m0 .002l.071.19m-.001 0l.179.095m.001-.005h.286m-.006 0l.202-.095m.008.005l.107-.095m1.093-1.145l-.25 2m.24-1.91l.202-.095m-.002.005h.38m0 0l.179.095m.001-.005l.083.095m-.003.005l.071.19m-.001 0l-.071.571m.001-.001l-.119.19m-.001 0l-.107.095m.007.005l-.202.095m-.008-.005h-.381m.001 0l-.179-.095m2.819-1.235l-.202 1.619m.002.001l-.12.19m0 0l-.107.095m.007-.005l-.202.095m-.008.005h-.286m.006 0l-.179-.095m.939-.665l-.202.095m.002-.005h-.38m0 0l-.179-.095m-.001.005l-.083-.095m-.007-.005l-.071-.19m.001 0l.071-.571m-.001.001l.12-.19m0 0l.107-.095m.003-.005l.202-.095m-.002.005h.381m-.001 0l.178.095m.802 1.235l.167-1.333m-.047.383l.119-.19m.001 0l.107-.095m.003-.005l.202-.095m-.002.005h.19m1.36 1.33l.13-1.048m0-.002l-.071-.19m.001 0l-.179-.095m-.001.005h-.38m0 0l-.202.095m.712 1.145l-.202.095m.002-.005h-.476m-.004 0l-.179-.095m-.001.005l-.071-.19m.001 0l.024-.19m-.004 0l.12-.19m0-.01l.202-.095m-.002.005h.476m.004 0l.202-.095m1.708.855l.25-2m-.24 1.91l-.202.095m-.008-.005h-.38m0 0l-.179-.095m.009.005l-.083-.095m-.007-.005l-.071-.19m.001 0l.071-.571m-.001.001l.12-.19m0 0l.107-.095m.003-.005l.202-.095m-.002.005h.381m-.001 0l.178.095m1.572 1.145l-.202.095m.002-.005h-.381m.001 0l-.179-.095m-.001.005l-.071-.19m.001 0l.095-.762m-.005-.008l.119-.19m.001 0l.202-.095m-.002.005h.38m.01 0l.179.095m-.009-.005l.071.19m.009 0l-.024.19m-.006 0l-.976.19" stroke-width=".4"/><path d="M178.96 185.61h-.5m0 .78v-1.5m0 0h.714m.576 1.5v-1m0-.5l-.071.071m-.009-.001l.071.071m.009.009l.071-.071m-.001-.009l-.071-.071m.001.001v.143m.92 1.357l-.143-.071m.003.001l-.071-.143m.001.003v-1.286m1.36 1.426l-.143.071m-.007-.001h-.286m.006 0l-.143-.071m.003.001l-.071-.143m-.009.003v-.571m0 .001l.071-.143m.009-.007l.143-.071m-.003.001h.286m-.006 0l.143.071m.007-.001l.071.143m-.001.007v.143m0-.003l-.714.143m1.354.357l.071.071m-.001-.001l-.071.071m.001-.001l-.071-.071m.001.001l.071-.071m-.001.001v.143m0-.933l.071.071m-.001.009l-.071.071m.001-.001l-.071-.071m.001.001l.071-.071m-.001-.009v.143m1.86.787v-1m0-.5l-.071.071m.001-.001l.071.071m-.001.009l.071-.071m-.001-.009l-.071-.071m.001.001v.143m.71.357v1m0-.85l.071-.071m-.001-.009l.143-.071m.007.001h.214m-.004 0l.143.071m-.003-.001l.071.143m.009.007v.786m.64-.076l.143.071m-.003-.001h.286m.004 0l.143-.071m-.003.001l.071-.143m-.001.003v-.071m0 .001l-.071-.143m.001-.007l-.143-.071m.003.001h-.214m-.006 0l-.143-.071m.003.001l-.071-.143m.001.003v-.071m0 .001l.071-.143m-.001-.007l.143-.071m-.003.001h.214m.006 0l.143.071m.497-.071h.571m-.361-.5v1.286m0 .004l.071.143m.009-.003l.143.071m-.003-.001h.143m.497 0v-1m0 .29l.071-.143m-.001.003l.071-.071m-.001-.009l.143-.071m.007.001h.143m1.137 0v1m-.64-1v.786m0 .004l.071.143m-.001-.003l.143.071m-.003-.001h.214m.006 0l.143-.071m-.003.001l.071-.071m.719.141v-1m0 .15l.071-.071m-.001-.009l.143-.071m-.003.001h.214m.006 0l.143.071m-.003-.001l.071.143m-.001.007v.786m0-.786l.071-.143m-.001-.007l.143-.071m-.003.001h.214m.006 0l.143.071m-.003-.001l.071.143m-.001.007v.786m1.29-.076l-.143.071m.003-.001h-.286m-.004 0l-.143-.071m.003.001l-.071-.143m.001.003v-.571m0 .001l.071-.143m-.001-.007l.143-.071m-.003.001h.286m.004 0l.143.071m-.003-.001l.071.143m-.001.007v.143m0-.003l-.714.143m1.354-.503v1m0-.85l.071-.071m-.001-.009l.143-.071m.007.001h.214m-.004 0l.143.071m-.003-.001l.071.143m.009.007v.786m.5-1.006h.571m-.361-.5v1.286m0 .004l.071.143m-.001-.003l.143.071m-.003-.001h.143m.147.15h1.143m.997-.22l-.143.071m.003-.001h-.286m-.004 0l-.143-.071m.003.001l-.071-.071m.001.001l-.071-.143m.001.003v-.429m0-.001l.071-.143m-.001.003l.071-.071m-.001-.009l.143-.071m-.003.001h.286m.004 0l.143.071m.857.929l-.143-.071m.003.001l-.071-.143m.001.003v-1.286m1.42.496v1m-.64-1v.786m0 .004l.071.143m-.001-.003l.143.071m.007-.001h.214m-.004 0l.143-.071m-.003.001l.071-.071m.649.071l.143.071m-.003-.001h.286m-.006 0l.143-.071m.007.001l.071-.143m-.001.003v-.071m0 .001l-.071-.143m.001-.007l-.143-.071m-.007.001h-.214m.004 0l-.143-.071m.003.001l-.071-.143m.001.003v-.071m0 .001l.071-.143m-.001-.007l.143-.071m-.003.001h.214m-.004 0l.143.071m.507-.071h.571m-.361-.5v1.286m0 .004l.071.143m-.001-.003l.143.071m.007-.001h.143m1.067-.07l-.143.071m.003-.001h-.286m-.004 0l-.143-.071m.003.001l-.071-.143m.001.003v-.571m0 .001l.071-.143m-.001-.007l.143-.071m-.003.001h.286m.004 0l.143.071m-.003-.001l.071.143m-.001.007v.143m0-.003l-.714.143m1.354.497v-1m0 .29l.071-.143m.009.003l.071-.071m-.001-.009l.143-.071m-.003.001h.143m.147 1.15h1.143m.997-.15v-1.5m0 1.43l-.143.071m.003-.001h-.286m-.004 0l-.143-.071m.003.001l-.071-.071m.001.001l-.071-.143m.001.003v-.429m0-.001l.071-.143m-.001.003l.071-.071m-.001-.009l.143-.071m-.003.001h.286m.004 0l.143.071m.707.929v-1m0-.5l-.071.071m.001-.001l.071.071m-.001.009l.071-.071m-.001-.009l-.071-.071m.001.001v.143m1.36 1.357v-.786m0 .006l-.071-.143m.001-.007l-.143-.071m.003.001h-.286m-.004 0l-.143.071m.643.859l-.143.071m.003-.001h-.357m-.003 0l-.143-.071m.003.001l-.071-.143m.001.003v-.143m0 .003l.071-.143m-.001-.007l.143-.071m-.003.001h.357m.003 0l.143-.071m.927.641l-.143-.071m.003.001l-.071-.143m-.009.003v-1.286m.72 1.426l.143.071m-.003-.001h.286m.004 0l.143-.071m-.003.001l.071-.143m-.001.003v-.071m0 .001l-.071-.143m.001-.007l-.143-.071m.003.001h-.214m-.006 0l-.143-.071m.003.001l-.071-.143m.001.003v-.071m0 .001l.071-.143m-.001-.007l.143-.071m-.003.001h.214m.006 0l.143.071m.357 1.079h1.143m.567-.15l-.143-.071m.003.001l-.071-.143m.001.003v-1.286m1.35 1.426l-.143.071m.003-.001h-.286m.006 0l-.143-.071m-.007.001l-.071-.143m.001.003v-.571m0 .001l.071-.143m-.001-.007l.143-.071m.007.001h.286m-.006 0l.143.071m-.003-.001l.071.143m.009.007v.143m0-.003l-.714.143m1.994.497v-1.5m0 1.43l-.143.071m.003-.001h-.286m-.004 0l-.143-.071m.003.001l-.071-.071m.001.001l-.071-.143m.001.003v-.429m0-.001l.071-.143m-.001.003l.071-.071m-.001-.009l.143-.071m-.003.001h.286m.004 0l.143.071m.717.789l.071.071m-.001-.001l-.071.071m.001-.001l-.071-.071m-.009.001l.071-.071m.009.001v.143m.71-.003v-1.5m.14.93l.428.571m.002-1.001l-.571.571m1.211.429v-1m0-.5l-.071.071m.001-.001l.071.071m-.001.009l.071-.071m.009-.009l-.071-.071m-.009.001v.143m1.36 1.287l-.143.071m.003-.001h-.286m-.004 0l-.143-.071m.003.001l-.071-.071m.001.001l-.071-.143m.001.003v-.429m0-.001l.071-.143m-.001.003l.071-.071m-.001-.009l.143-.071m-.003.001h.286m.004 0l.143.071m1.287.929v-.786m0 .006l-.071-.143m.001-.007l-.143-.071m-.007.001h-.286m.006 0l-.143.071m.643.859l-.143.071m-.007-.001h-.357m.007 0l-.143-.071m-.007.001l-.071-.143m.001.003v-.143m0 .003l.071-.143m-.001-.007l.143-.071m.007.001h.357m-.007 0l.143-.071m1.357.641v-1.5m0 1.43l-.143.071m.003-.001h-.286m.006 0l-.143-.071m-.007.001l-.071-.071m.001.001l-.071-.143m.001.003v-.429m0-.001l.071-.143m-.001.003l.071-.071m-.001-.009l.143-.071m.007.001h.286m-.006 0l.143.071m.357 1.079h1.143m.287-.22l.143.071m-.003-.001h.286m.004 0l.143-.071m-.003.001l.071-.143m-.001.003v-.071m0 .001l-.071-.143m.001-.007l-.143-.071m.003.001h-.214m-.006 0l-.143-.071m.003.001l-.071-.143m.001.003v-.071m0 .001l.071-.143m-.001-.007l.143-.071m-.003.001h.214m.006 0l.143.071m1.357.859l-.143.071m.003-.001h-.286m-.004 0l-.143-.071m.003.001l-.071-.071m.001.001l-.071-.143m-.009.003v-.429m0-.001l.071-.143m.009.003l.071-.071m-.001-.009l.143-.071m-.003.001h.286m.004 0l.143.071m.637.929v-1.5m.64 1.5v-.786m0 .006l-.071-.143m.001-.007l-.143-.071m.003.001h-.214m.004 0l-.143.071m-.007-.001l-.071.071M177 181.51h108m-106.61 2.11l.214.071m-.004-.001h.357m.003 0l.143-.071m-.003.001l.071-.071m-.001.001l.071-.143m.009.003v-.143m0-.007l-.071-.143m-.009.003l-.071-.071m.001.001l-.143-.071m.003.001l-.286-.071m-.004.001l-.143-.071m.003.001l-.071-.071m.001-.009l-.071-.143m.001.003v-.143m0 .003l.071-.143m-.001.003l.071-.071m-.001-.009l.143-.071m-.003.001h.357m.003 0l.214.071m.646 1.429v-1.5m.64 1.5v-.786m0 .006l-.071-.143m.001-.007l-.143-.071m.003.001h-.214m-.006 0l-.143.071m.003-.001l-.071.071m1.931.789l-.143.071m-.007-.001h-.286m.006 0l-.143-.071m.003.001l-.071-.143m-.009.003v-.571m0 .001l.071-.143m.009-.007l.143-.071m-.003.001h.286m-.006 0l.143.071m.007-.001l.071.143m-.001.007v.143m0-.003l-.714.143m1.924.427l-.143.071m.003-.001h-.286m-.004 0l-.143-.071m.003.001l-.071-.143m.001.003v-.571m0 .001l.071-.143m-.001-.007l.143-.071m-.003.001h.286m.004 0l.143.071m-.003-.001l.071.143m-.001.007v.143m0-.003l-.714.143m1.144-.503h.571m-.351-.5v1.286m0 .004l.071.143m-.001-.003l.143.071m-.003-.001h.143m.497-.14l.071.071m.009-.001l-.071.071m-.009-.001l-.071-.071m.001.001l.071-.071m-.001.001v.143m0-.933l.071.071m.009.009l-.071.071m-.009-.001l-.071-.071m.001.001l.071-.071m-.001-.009v.143m2.93-.783l-1.286 1.929" class="E F"/><path d="M178.41 179.19l.357 1.5m.003 0l.286-1.071m.004-.009l.286 1.071m-.006.009l.357-1.5m.433 0l.357 1.5m.003 0l.286-1.071m-.006-.009l.286 1.071m.004.009l.357-1.5m.423 0l.357 1.5m.003 0l.286-1.071m.004-.009l.286 1.071m-.006.009l.357-1.5m.573 1.35l.071.071m-.001-.001l-.071.071m.001.009l-.071-.071m.001-.009l.071-.071m-.001.001v.143m.64-.423h.714m-.854.43l.5-1.5m0 0l.5 1.5m.5-.79h.5m.21.79h-.714m.004 0v-1.5m0 0h.714m.926 0h.286m.004 0l.143.071m-.003-.001l.143.143m-.003-.003l.071.286m.009.004v.5m0 0l-.071.286m-.009-.006l-.143.143m.003-.003l-.143.071m.003.009h-.286m-.004 0l-.143-.071m.003-.009l-.143-.143m.003.003l-.071-.286m.001.006v-.5m0 0l.071-.286m-.001-.004l.143-.143m-.003.003l.143-.071m1.287 1.501v-1.5m0 0l.857 1.5m.003 0v-1.5m1.42 1.5h-.714m.004 0v-1.5m1.14 1.07h.714m-.854.43l.5-1.5m0 0l.5 1.5m1-.79l.214.071m-.004-.001l.071.071m.009-.001l.071.143m-.001.007v.214m0-.004l-.071.143m.001-.003l-.071.071m-.009-.001l-.143.071m.003.009h-.571m.001 0v-1.5m0 0h.5m0 0l.143.071m-.003-.001l.071.071m-.001-.001l.071.143m.009-.003v.143m0-.003l-.071.143m-.009.007l-.071.071m.001-.001l-.143.071m.003-.001h-.5m1.43.71l.214.071m-.004.009h.357m.003 0l.143-.071m-.003-.009l.071-.071m-.001.001l.071-.143m.009.003v-.143m0 .003l-.071-.143m-.009-.007l-.071-.071m.001.001l-.143-.071m.003.001l-.286-.071m-.004.001l-.143-.071m.003.001l-.071-.071m.001.001l-.071-.143m.001-.007v-.143m0 .003l.071-.143m-.001.003l.071-.071m-.001.001l.143-.071m-.003.001h.357m.003 0l.214.071m.646 1.279l.071.071m-.001-.001l-.071.071m.001.009l-.071-.071m.001-.009l.071-.071m-.001.001v.143m.64-.073l.214.071m.006.009h.357m-.007 0l.143-.071m.007-.009l.071-.071m-.001.001l.071-.143m-.001.003v-.143m0 .003l-.071-.143m.001-.007l-.071-.071m.001.001l-.143-.071m-.007.001l-.286-.071m.006.001l-.143-.071m-.007.001l-.071-.071m.001.001l-.071-.143m.001-.007v-.143m0 .003l.071-.143m-.001.003l.071-.071m-.001.001l.143-.071m.007.001h.357m-.007 0l.214.071m1.506 1.279l-.071.071m.001-.001l-.214.071m-.006.009h-.143m.003 0l-.214-.071m.004-.009l-.143-.143m-.007.003l-.071-.143m.001.003l-.071-.286m.001-.004v-.214m0 .004l.071-.286m-.001-.004l.071-.143m-.001.003l.143-.143m.007.003l.214-.071m-.004.001h.143m-.003 0l.214.071m.006-.001l.071.071m.639 1.359v-1.5m.72.71h.5m.21.79h-.714m.004 0v-1.5m0 0h.714m.636 1.5v-1.5m0 0l.857 1.5m.003 0v-1.5m1.57 1.35l-.071.071m.001-.001l-.214.071m.004.009h-.143m-.007 0l-.214-.071m.004-.009l-.143-.143m.003.003l-.071-.143m-.009.003l-.071-.286m.001-.004v-.214m0 .004l.071-.286m-.001-.004l.071-.143m.009.003l.143-.143m-.003.003l.214-.071m-.004.001h.143m.007 0l.214.071m-.004-.001l.071.071m.639.569h.5m.22.79h-.714m-.006 0v-1.5m0 0h.714" stroke-width=".3"/><g class="E F"><path d="M179.1 177.62l-.143.071m.003-.001h-.286m-.004 0l-.143-.071m.003.001l-.071-.071m.001.001l-.071-.143m.001.003v-.429m0-.001l.071-.143m-.001.003l.071-.071m-.001-.009l.143-.071m-.003.001h.286m.004 0l.143.071m.647.929v-1m0 .29l.071-.143m-.001.003l.071-.071m-.001-.009l.143-.071m-.003.001h.143m1.077.93l-.143.071m-.007-.001h-.286m.006 0l-.143-.071m-.007.001l-.071-.143m.001.003v-.571m0 .001l.071-.143m-.001-.007l.143-.071m.007.001h.286m-.006 0l.143.071m.007-.001l.071.143m-.001.007v.143m0-.003l-.714.143m1.994.497v-.786m0 .006l-.071-.143m.001-.007l-.143-.071m.003.001h-.286m-.004 0l-.143.071m.643.859l-.143.071m.003-.001h-.357m-.003 0l-.143-.071m.003.001l-.071-.143m.001.003v-.143m0 .003l.071-.143m-.001-.007l.143-.071m-.003.001h.357m.003 0l.143-.071m.497-.359h.571m-.351-.5v1.286m0 .004l.071.143m-.001-.003l.143.071m-.003-.001h.143m.497 0v-1m0-.5l-.071.071m.001-.001l.071.071m-.001.009l.071-.071m.009-.009l-.071-.071m-.009.001v.143m.58.357l.357 1m-.007 0l.357-1m1.143.93l-.143.071m.003-.001h-.286m-.004 0l-.143-.071m.003.001l-.071-.143m.001.003v-.571m0 .001l.071-.143m-.001-.007l.143-.071m-.003.001h.286m.004 0l.143.071m-.003-.001l.071.143m-.001.007v.143m0-.003l-.714.143m3.144.427l-.143.071m.003-.001h-.286m-.004 0l-.143-.071m.003.001l-.071-.071m.001.001l-.071-.143m.001.003v-.429m0-.001l.071-.143m-.001.003l.071-.071m-.001-.009l.143-.071m-.003.001h.286m.004 0l.143.071m.857.929l-.143-.071m.003.001l-.071-.071m.001.001l-.071-.143m-.009.003v-.429m0-.001l.071-.143m.009.003l.071-.071m-.001-.009l.143-.071m-.003.001h.214m-.004 0l.143.071m.007-.001l.071.071m-.001.009l.071.143m-.001-.003v.429m0 .001l-.071.143m.001-.003l-.071.071m.001-.001l-.143.071m-.007-.001h-.214m1.144 0v-1m0 .15l.071-.071m-.001-.009l.143-.071m.007.001h.214m-.004 0l.143.071m-.003-.001l.071.143m.009.007v.786m0-.786l.071-.143m-.001-.007l.143-.071m-.003.001h.214m-.004 0l.143.071m.007-.001l.071.143m-.001.007v.786m.71-.006v-1m0 .15l.071-.071m-.001-.009l.143-.071m.007.001h.214m-.004 0l.143.071m-.003-.001l.071.143m.009.007v.786m0-.786l.071-.143m-.001-.007l.143-.071m-.003.001h.214m-.004 0l.143.071m.007-.001l.071.143m-.001.007v.786m.93-.006l-.143-.071m-.007.001l-.071-.071m.001.001l-.071-.143m.001.003v-.429m0-.001l.071-.143m-.001.003l.071-.071m-.001-.009l.143-.071m.007.001h.214m-.004 0l.143.071m-.003-.001l.071.071m.009.009l.071.143m-.001-.003v.429m0 .001l-.071.143m.001-.003l-.071.071m-.009-.001l-.143.071m.003-.001h-.214m1.144-1v1m0-.85l.071-.071m-.001-.009l.143-.071m-.003.001h.214m.006 0l.143.071m-.003-.001l.071.143m-.001.007v.786m.65-.076l.143.071m-.003-.001h.286m-.006 0l.143-.071m.007.001l.071-.143m-.001.003v-.071m0 .001l-.071-.143m.001-.007l-.143-.071m-.007.001h-.214m.004 0l-.143-.071m.003.001l-.071-.143m.001.003v-.071m0 .001l.071-.143m-.001-.007l.143-.071m-.003.001h.214m-.004 0l.143.071m1.787.859l.143.071m.007-.001h.286m-.006 0l.143-.071m-.003.001l.071-.143m.009.003v-.071m0 .001l-.071-.143m-.009-.007l-.143-.071m.003.001h-.214m.004 0l-.143-.071m-.007.001l-.071-.143m.001.003v-.071m0 .001l.071-.143m-.001-.007l.143-.071m.007.001h.214m-.004 0l.143.071m.717.929v-1.5m.64 1.5v-.786m0 .006l-.071-.143m.001-.007l-.143-.071m.003.001h-.214m-.006 0l-.143.071m.003-.001l-.071.071m2.001.859v-.786m0 .006l-.071-.143m.001-.007l-.143-.071m-.007.001h-.286m.006 0l-.143.071m.643.859l-.143.071m.003-.001h-.357m-.003 0l-.143-.071m.003.001l-.071-.143m-.009.003v-.143m0 .003l.071-.143m.009-.007l.143-.071m-.003.001h.357m.003 0l.143-.071m.707.641v-1m0 .29l.071-.143m-.001.003l.071-.071m.009-.009l.143-.071m-.003.001h.143m1.067.93l-.143.071m.003-.001h-.286m-.004 0l-.143-.071m.003.001l-.071-.143m.001.003v-.571m0 .001l.071-.143m-.001-.007l.143-.071m-.003.001h.286m.004 0l.143.071m-.003-.001l.071.143m-.001.007v.143m0-.003l-.714.143m3.144.497v-.786m0 .006l-.071-.143m.001-.007l-.143-.071m.003.001h-.286m-.004 0l-.143.071m.643.859l-.143.071m.003-.001h-.357m-.003 0l-.143-.071m.003.001l-.071-.143m.001.003v-.143m0 .003l.071-.143m-.001-.007l.143-.071m-.003.001h.357m.003 0l.143-.071m.927.641l-.143-.071m.003.001l-.071-.143m.001.003v-1.286m.78 1.496v-1m0-.5l-.071.071m.001-.001l.071.071m-.001.009l.071-.071m-.001-.009l-.071-.071m.001.001v.143m.72 1.357v-1.5m.14.93l.428.571m.002-1.001l-.571.571m1.781.359l-.143.071m.003-.001h-.286m-.004 0l-.143-.071m.003.001l-.071-.143m.001.003v-.571m0 .001l.071-.143m-.001-.007l.143-.071m-.003.001h.286m.004 0l.143.071m-.003-.001l.071.143m-.001.007v.143m0-.003l-.714.143m2.504-.503v1m0-.85l.071-.071m-.001-.009l.143-.071m-.003.001h.214m.006 0l.143.071m-.003-.001l.071.143m-.001.007v.786m.93-.006l-.143-.071m.003.001l-.071-.071m.001.001l-.071-.143m.001.003v-.429m0-.001l.071-.143m-.001.003l.071-.071m-.001-.009l.143-.071m-.003.001h.214m.006 0l.143.071m-.003-.001l.071.071m-.001.009l.071.143m-.001-.003v.429m0 .001l-.071.143m.001-.003l-.071.071m.001-.001l-.143.071m.003-.001h-.214m1.134-1v1m0-.85l.071-.071m-.001-.009l.143-.071m.007.001h.214m-.004 0l.143.071m-.003-.001l.071.143m.009.007v.786m2.5-.076l-.143.071m-.007-.001h-.286m.006 0l-.143-.071m-.007.001l-.071-.071m.001.001l-.071-.143m.001.003v-.429m0-.001l.071-.143m-.001.003l.071-.071m-.001-.009l.143-.071m.007.001h.286m-.006 0l.143.071m.857.929l-.143-.071m.003.001l-.071-.071m.001.001l-.071-.143m.001.003v-.429m0-.001l.071-.143m-.001.003l.071-.071m-.001-.009l.143-.071m-.003.001h.214m.006 0l.143.071m-.003-.001l.071.071m-.001.009l.071.143m-.001-.003v.429m0 .001l-.071.143m.001-.003l-.071.071m.001-.001l-.143.071m.003-.001h-.214m1.144 0v-1m0 .15l.071-.071m-.001-.009l.143-.071m-.003.001h.214m-.004 0l.143.071m.007-.001l.071.143m-.001.007v.786m0-.786l.071-.143m-.001-.007l.143-.071m-.003.001h.214m.006 0l.143.071m-.003-.001l.071.143m-.001.007v.786m.72-.006v-1m0 .15l.071-.071m-.001-.009l.143-.071m-.003.001h.214m-.004 0l.143.071m.007-.001l.071.143m-.001.007v.786m0-.786l.071-.143m-.001-.007l.143-.071m-.003.001h.214m.006 0l.143.071m-.003-.001l.071.143m-.001.007v.786m1.29-.076l-.143.071m-.007-.001h-.286m.006 0l-.143-.071m.003.001l-.071-.143m-.009.003v-.571m0 .001l.071-.143m.009-.007l.143-.071m-.003.001h.286m-.006 0l.143.071m.007-.001l.071.143m-.001.007v.143m0-.003l-.714.143m1.354.497v-1m0 .29l.071-.143m-.001.003l.071-.071m-.001-.009l.143-.071m.007.001h.143m1.137.93l-.143.071m.003-.001h-.286m-.004 0l-.143-.071m.003.001l-.071-.071m.001.001l-.071-.143m.001.003v-.429m0-.001l.071-.143m-.001.003l.071-.071m-.001-.009l.143-.071m-.003.001h.286m.004 0l.143.071m.647.929v-1m0-.5l-.071.071m-.009-.001l.071.071m.009.009l.071-.071m-.001-.009l-.071-.071m.001.001v.143m1.35 1.357v-.786m0 .006l-.071-.143m.001-.007l-.143-.071m.003.001h-.286m-.004 0l-.143.071m.643.859l-.143.071m.003-.001h-.357m-.003 0l-.143-.071m.003.001l-.071-.143m.001.003v-.143m0 .003l.071-.143m-.001-.007l.143-.071m-.003.001h.357m.003 0l.143-.071m.927.641l-.143-.071m.003.001l-.071-.143m.001.003v-1.286M197 191.51v3m64-3v6.5m-117.87-91.36v1.27h1.27l-1.27 1.27-1.27-1.27h1.27"/><use xlink:href="#B" class="G"/></g></g><g class="B C D E F"><path d="M146.68 93.599l1.27.762m-2.53 0h2.54m0 0l-1.27.762" class="H"/><use xlink:href="#C" class="G"/></g><g class="B C D E F"><path d="M130.18 94.361h-1.27v1.27l-1.27-1.27 1.27-1.27v1.27" class="H"/><use xlink:href="#D" class="G"/></g><g class="F D B"><g class="H"><g class="C"><path d="M132.72 95.631v-2.54" class="I"/><path d="M132.72 94.361h2.54" class="E"/></g><path d="M135.26 95.631v-2.54l-2.54 1.27z" class="I"/><use xlink:href="#E" class="C E"/></g><g class="C E G"><use xlink:href="#F"/><use xlink:href="#G"/></g></g><g class="F B D"><g class="H"><path d="M139.06 93.345h5.08v2.032h-5.08z" class="I"/><path d="M139.06 94.361h-1.27m6.35 0h1.27" class="C E"/></g><g class="C E G"><use xlink:href="#H"/><use xlink:href="#I"/></g></g><g class="B C D E F"><path d="M146.96 108l-.762 1.27m.002-2.54v2.54m0 0l-.762-1.27" class="H"/><use xlink:href="#J" class="G"/></g><g class="F B D E"><g class="H"><circle cx="146.2" cy="103.43" r=".762"/><path d="M146.2 104.19v2.54" class="C"/></g><g class="C G"><use xlink:href="#K"/><use xlink:href="#L"/></g></g><g class="F B D E"><g class="H"><circle cx="143.13" cy="103.35" r=".762"/><path d="M143.13 104.11v2.54" class="C"/></g><g class="C G"><use xlink:href="#M"/><use xlink:href="#N"/></g></g><g class="B C D E F"><path d="M146.46 69.875l1.27.762m-2.54 0h2.54m0 0l-1.27.762" class="H"/><use xlink:href="#O" class="G"/></g><g class="F B D"><g class="H"><path d="M138.84 69.621h5.08v2.032h-5.08z" class="I"/><path d="M138.84 70.637h-1.27m6.35 0h1.27" class="C E"/></g><g class="C E G"><use xlink:href="#P"/><use xlink:href="#Q"/></g></g><g class="B C D E F"><path d="M129.95 70.637h-1.27v1.27l-1.27-1.27 1.27-1.27v1.27" class="H"/><use xlink:href="#R" class="G"/></g><g class="B C D E F"><path d="M129.77 82.575h-1.27v1.27l-1.27-1.27 1.27-1.27v1.27" class="H"/><use xlink:href="#R" x="-0.18" y="11.938" class="G"/></g><g class="F B D"><g class="H"><path d="M138.66 81.559h5.08v2.032h-5.08z" class="I"/><path d="M138.66 82.575h-1.27m6.35 0h1.27" class="C E"/></g><g class="C E G"><use xlink:href="#S"/><use xlink:href="#T"/></g></g><g class="F D B"><g class="H"><g class="C"><path d="M132.31 83.845v-2.54" class="I"/><path d="M132.31 82.575h2.54" class="E"/></g><path d="M134.85 83.845v-2.54l-2.54 1.27z" class="I"/><use xlink:href="#E" x="-0.41" y="-11.786" class="C E"/></g><g class="C E G"><use xlink:href="#U"/><use xlink:href="#V"/></g></g><g class="F D B"><g class="H"><g class="C"><path d="M132.49 71.907v-2.54" class="I"/><path d="M132.49 70.637h2.54" class="E"/></g><path d="M135.03 71.907v-2.54l-2.54 1.27z" class="I"/><use xlink:href="#E" x="-0.23" y="-23.724" class="C E"/></g><g class="C E G"><use xlink:href="#W"/><use xlink:href="#X"/></g></g><g class="B C D E F"><path d="M146.28 81.813l1.27.762m-2.54 0h2.54m0 0l-1.27.762" class="H"/><use xlink:href="#Y" class="G"/></g><g class="B C D E F G"><use xlink:href="#B"/><use xlink:href="#C"/><use xlink:href="#D"/><use xlink:href="#F"/><use xlink:href="#G"/></g><path d="M132.72 94.361h-2.54m5.08 0h2.54" class="B C D E H"/><g class="B C D E F G"><use xlink:href="#H"/><use xlink:href="#I"/></g><path d="M139.06 94.361h-1.27m6.35 0h1.27" class="B C D E H"/><g class="B C D E F G"><use xlink:href="#J"/><use xlink:href="#K"/><use xlink:href="#L"/></g><path d="M146.2 104.19v2.54" class="B C D E H"/><g class="B C D E F G"><use xlink:href="#M"/><use xlink:href="#N"/></g><path d="M143.13 104.11v2.54" class="B C D E H"/><g class="B C D E F G"><use xlink:href="#O"/><use xlink:href="#P"/><use xlink:href="#Q"/></g><path d="M138.84 70.637h-1.27m6.35 0h1.27" class="B C D E H"/><g class="B C D E F G"><use xlink:href="#R"/><use xlink:href="#R" x="-0.18" y="11.938"/><use xlink:href="#S"/><use xlink:href="#T"/></g><path d="M138.66 82.575h-1.27m6.35 0h1.27" class="B C D E H"/><g class="B C D E F G"><use xlink:href="#U"/><use xlink:href="#V"/></g><path d="M132.31 82.575h-2.54m5.08 0h2.54" class="B C D E H"/><g class="B C D E F G"><use xlink:href="#W"/><use xlink:href="#X"/></g><g class="B C D E"><path d="M132.49 70.637h-2.54m5.08 0h2.54" class="H"/><use xlink:href="#Y" class="G"/></g><defs ><path id="B" d="M142.16 110.37l-.121-.06m.001 0h-.181m.001 0l-.181.06m.001 0l-.121.121m.001-.001l-.06.12m0 0l-.06.242m0-.002v.181m0-.001l.06.242m0 .008l.06.121m0-.001l.121.121m-.001-.001l.181.06m-.001 0h.12m0 0l.181-.06m-.001 0l.06-.06m0 0v-.423m0-.007h-.242m.792.55v-1.27m0 0l.726 1.27m-.006 0v-1.27m.61 1.27v-1.27m0 0h.302m-.002 0l.181.06m-.001 0l.121.121m-.001-.001l.06.12m0 0l.06.242m0-.002v.181m0-.001l-.06.242m0 .008l-.06.121m0-.001l-.121.121m.001-.001l-.181.06m.001 0h-.302"/><path id="C" d="M149.08 93.67l.423 1.27m-.003 0l.423-1.27m.427 1.27v-1.27m0 0h.302m-.002 0l.181.06m-.001.001l.121.121m-.001 0l.06.12m0 .001l.06.242m0 0v.181m0 0l-.06.242m0 0l-.06.121m0 0l-.121.121m.001 0l-.181.06m.001 0h-.302m1.992-.12l-.06.06m0 0l-.181.06m.001 0h-.12m0 0l-.181-.06m.001 0l-.121-.121m.001 0l-.06-.121m0 0l-.06-.242m0 0v-.181m0 0l.06-.242m0 0l.06-.12m0-.001l.121-.121m-.001 0l.181-.06m-.001-.001h.12m0 0l.181.06m-.001.001l.06.06"/><path id="D" d="M122.97 93.731l-.121-.06m.001-.001h-.181m.001 0l-.181.06m.001.001l-.121.121m.001 0l-.06.12m-.01.001l-.06.242m0 0v.181m0 0l.06.242m0 0l.06.121m.01 0l.121.121m-.001 0l.181.06m-.001 0h.12m0 0l.181-.06m-.001 0l.06-.06m0 0v-.423m0-.001h-.242m.782.544v-1.27m0 0l.726 1.27m.004 0v-1.27m.61 1.27v-1.27m0 0h.302m-.002 0l.181.06m-.001.001l.121.121m-.001 0l.06.12m0 .001l.06.242m0 0v.181m0 0l-.06.242m0 0l-.06.121m0 0l-.121.121m.001 0l-.181.06m.001 0h-.302"/><path id="E" d="M130.94 95.123l-1.524 1.524h.762-.762v-.762m2.794-.762l-1.524 1.524h.762-.762v-.762m2.034-1.524h-2.54m5.08 0h2.54"/><path id="F" d="M131.46 88.514v-1.27m0 0h.302m-.002 0l.181.06m-.001.001l.121.121m-.001 0l.06.12m.01.001l.06.242m0 0v.181m0 0l-.06.242m0 0l-.06.121m-.01 0l-.121.121m.001 0l-.181.06m.001 0h-.302m1.942 0h-.726m.356 0v-1.27m0 0l-.12.181m0 .001l-.121.12m.001.001l-.12.06"/><path id="G" d="M131.58 91.054h-.605m.005 0v-1.27m1.02.605h.423m.187.665h-.605m-.005 0v-1.27m0 0h.605m.545 1.27v-1.27m0 0h.302m.008 0l.181.06m-.001.001l.121.121m-.001 0l.06.12m0 .001l.06.242m0 0v.181m0 0l-.06.242m0 0l-.06.121m0 0l-.121.121m.001 0l-.181.06m.001 0h-.302"/><path id="H" d="M141.39 88.413l-.423-.605m-.297.605v-1.27m0 0h.484m-.004 0l.121.06m-.001 0l.06.06m0 .001l.06.12m0 .001v.181m0 0l-.06.12m0 .001l-.06.06m0 .001l-.121.06m.001 0h-.484m1.934.605h-.726m.366 0v-1.27m0 0l-.12.181m0 0l-.121.12m.001.001l-.12.06"/><path id="I" d="M142 90.953l-.423-.605m-.307.605v-1.27m0 0h.484m.006 0l.121.06m-.001 0l.06.06m0 .001l.06.12m0 .001v.181m0 0l-.06.12m0 .001l-.06.06m0 .001l-.121.06m.001 0h-.484"/><path id="J" d="M144.51 110.56l.423 1.27m-.003 0l.423-1.27m.427 1.27v-1.27m0 0h.302m-.002 0l.181.06m-.001 0l.121.121m-.001-.001l.06.12m0 0l.06.242m0 .008v.181m0-.001l-.06.242m0-.002l-.06.121m0-.001l-.121.121m.001-.001l-.181.06m.001 0h-.302m1.992-.12l-.06.06m0 0l-.181.06m.001 0h-.12m0 0l-.181-.06m.001 0l-.121-.121m.001.001l-.06-.121m0 .001l-.06-.242m0 .002v-.181m0 .001l.06-.242m0-.008l.06-.12m0 0l.121-.121m-.001.001l.181-.06m-.001 0h.12m0 0l.181.06m-.001 0l.06.06"/><path id="K" d="M148.16 102.76l.423 1.27m-.003 0l.423-1.27m.427 1.27v-1.27m0 0h.302m-.002 0l.181.06m.009 0l.121.121m-.001.009l.06.12m0 0l.06.242m0-.002v.181m0-.001l-.06.242m0-.002l-.06.121m0-.001l-.121.121m.001-.001l-.181.06m-.009 0h-.302m2.002-.12l-.06.06m0 0l-.181.06m.001 0h-.12m-.01 0l-.181-.06m.001 0l-.121-.121m.001.001l-.06-.121m0 .001l-.06-.242m0 .002v-.181m0 .001l.06-.242m0 .002l.06-.12m0 0l.121-.121m-.001-.009l.181-.06m-.001 0h.12m.01 0l.181.06m-.001 0l.06.06m1.21 1.15h-.726m.356 0v-1.27m0 0l-.12.181m0 .009l-.121.12m.001 0l-.12.06"/><path id="L" d="M148.31 105.02h.726m-.356 1.27v-1.27m1.27 1.21l-.12.06m0 0h-.242m-.008 0l-.121-.06m.001 0l-.06-.121m0 .001v-.484m0 .004l.06-.121m0 .001l.121-.06m-.001 0h.242m.008 0l.12.06m0 0l.06.121m0-.001v.12m0 0l-.605.121m1.085.359l.12.06m0 0h.242m-.002 0l.121-.06m.009 0l.06-.121m0 .001v-.06m0 0l-.06-.12m0 0l-.121-.06m-.009 0h-.181m.001 0l-.121-.06m.001 0l-.06-.12m0 0v-.06m0 0l.06-.121m0 .001l.121-.06m-.001 0h.181m-.001 0l.121.06m.429-.06h.484m-.304-.43v1.089m0 .001l.06.121m0-.001l.121.06m-.001 0h.12m.43 0v-1.27m0 0h.484m-.004 0l.121.06m-.001 0l.06.06m0 .01l.06.12m0 0v.181m0-.001l-.06.12m0 0l-.06.06m0 0l-.121.06m.001 0h-.484m1.454.6l-.121-.06m.001 0l-.06-.06m0 0l-.06-.121m0 .001v-.363m0 .003l.06-.121m0 .001l.06-.06m0 0l.121-.06m-.001 0h.181m-.001 0l.12.06m0 0l.06.06m0 0l.06.121m0-.001v.363m0-.003l-.06.121m0-.001l-.06.06m0 0l-.12.06m0 0h-.181m.961 0v-.847m0-.423l-.06.06m0 0l.06.06m0 .01l.06-.06m0-.01l-.06-.06m0 0v.121m.61.309v.847m0-.727l.06-.06m0 0l.121-.06m-.001 0h.181m-.001 0l.12.06m0 0l.06.121m0-.001v.665m.43-.845h.484m-.304-.43v1.089m0 .001l.06.121m0-.001l.121.06m-.001 0h.12"/><path id="M" d="M139.03 102.7l-.121-.06m.001 0h-.181m-.009 0l-.181.06m.001 0l-.121.121m.001-.001l-.06.12m0 0l-.06.242m0-.002v.181m0-.001l.06.242m0-.002l.06.121m0 .009l.121.121m-.001-.001l.181.06m-.001 0h.12m0 0l.181-.06m.009 0l.06-.06m0 0v-.423m0-.007h-.242m.782.55v-1.27m0 0l.726 1.27m.004 0v-1.27m.6 1.27v-1.27m0 0h.302m-.002 0l.181.06m.009 0l.121.121m-.001-.001l.06.12m0 0l.06.242m0-.002v.181m0-.001l-.06.242m0-.002l-.06.121m0 .009l-.121.121m.001-.001l-.181.06m-.009 0h-.302m1.942 0h-.726m.356 0v-1.27m0 0l-.12.181m0-.001l-.121.12m.001 0l-.12.06"/><path id="N" d="M132.95 104.64h.726m-.366 1.27v-1.27m1.27 1.21l-.12.06m0 0h-.242m.002 0l-.121-.06m.001 0l-.06-.121m0 .001v-.484m0 .004l.06-.121m0 .001l.121-.06m-.001 0h.242m-.002 0l.12.06m0 0l.06.121m0-.001v.12m0 0l-.605.121m1.085.359l.12.06m.01 0h.242m-.002 0l.121-.06m-.001 0l.06-.121m0 .001v-.06m0 0l-.06-.12m0 0l-.121-.06m.001 0h-.181m.001 0l-.121-.06m-.009 0l-.06-.12m0 0v-.06m0 0l.06-.121m0 .001l.121-.06m.009 0h.181m-.001 0l.121.06m.419-.06h.484m-.304-.43v1.089m0 .001l.06.121m0-.001l.121.06m-.001 0h.12m.43 0v-1.27m0 0h.484m-.004 0l.121.06m-.001 0l.06.06m0 0l.06.12m0 .01v.181m0-.001l-.06.12m0 0l-.06.06m0 0l-.121.06m.001 0h-.484m1.454.6l-.121-.06m.001 0l-.06-.06m0 0l-.06-.121m0 .001v-.363m0 .003l.06-.121m0 .001l.06-.06m0 0l.121-.06m-.001 0h.181m-.001 0l.12.06m0 0l.06.06m0 0l.06.121m0-.001v.363m0-.003l-.06.121m0-.001l-.06.06m0 0l-.12.06m0 0h-.181m.971 0v-.847m0-.423l-.06.06m0 0l.06.06m0 0l.06-.06m0 0l-.06-.06m0 0v.121m.6.309v.847m0-.727l.06-.06m0 0l.121-.06m-.001 0h.181m.009 0l.12.06m0 0l.06.121m0-.001v.665m.42-.845h.484m-.304-.43v1.089m0 .001l.06.121m0-.001l.121.06m-.001 0h.12"/><path id="O" d="M148.85 69.947l.423 1.27m-.003 0l.423-1.27m.427 1.27v-1.27m0 0h.302m-.002 0l.181.06m-.001 0l.121.121m-.001 0l.06.12m0 .001l.06.242m0 0v.181m0 .001l-.06.242m0-.001l-.06.121m0 .001l-.121.121m.001-.001l-.181.06m.001.001h-.302m1.992-.121l-.06.06m0 0l-.181.06m.001.001h-.12m0 0l-.181-.06m.001-.001l-.121-.121m.001.001l-.06-.121m0-.001l-.06-.242m0 .001v-.181m0-.001l.06-.242m0 0l.06-.12m0-.001l.121-.121m-.001 0l.181-.06m-.001 0h.12m0 0l.181.06m-.001 0l.06.06"/><path id="P" d="M141.16 64.689l-.423-.605m-.297.605v-1.27m0 0h.484m-.004 0l.121.06m-.001.001l.06.06m0 0l.06.12m0 .001v.181m0 0l-.06.12m0 .001l-.06.06m0 .001l-.121.06m.001 0h-.484m1.154-.665h.786m-.006 0l-.423.484m.003 0h.181m-.001 0l.12.06m0 0l.06.06m0 .001l.06.12m0 .001v.302m0 0l-.06.121m0 0l-.06.06m0 .001l-.12.06m0 0h-.363m.003 0l-.12-.06m0 0l-.06-.06"/><path id="Q" d="M141.77 67.229l-.423-.605m-.307.605v-1.27m0 0h.484m.006 0l.121.06m-.001.001l.06.06m0 0l.06.12m0 .001v.181m0 0l-.06.12m0 .001l-.06.06m0 .001l-.121.06m.001 0h-.484"/><path id="R" d="M122.74 70.007l-.121-.06m.001 0h-.181m.001 0l-.181.06m.001 0l-.121.121m.001 0l-.06.12m0 .001l-.06.242m0 0v.181m0 .001l.06.242m0-.001l.06.121m0 .001l.121.121m-.001-.001l.181.06m-.001.001h.12m0 0l.181-.06m-.001-.001l.06-.06m0 0v-.423m0 0h-.242m.792.544v-1.27m0 0l.726 1.27m-.006 0v-1.27m.61 1.27v-1.27m0 0h.302m-.002 0l.181.06m-.001 0l.121.121m-.001 0l.06.12m0 .001l.06.242m0 0v.181m0 .001l-.06.242m0-.001l-.06.121m0 .001l-.121.121m.001-.001l-.181.06m.001.001h-.302"/><path id="S" d="M140.99 76.627l-.423-.605m-.307.605v-1.27m0 0h.484m-.004 0l.121.06m.009.001l.06.06m0 0l.06.12m0 .001v.181m0 0l-.06.12m0 .001l-.06.06m0 .001l-.121.06m-.009 0h-.484m1.214-.544l.06-.06m0 0l.121-.06m-.001-.001h.302m-.002 0l.12.06m.01.001l.06.06m0 0l.06.12m0 .001v.121m0 0l-.06.181m0 0l-.726.726m-.004 0h.786"/><path id="T" d="M141.59 79.167l-.423-.605m-.297.605v-1.27m0 0h.484m-.004 0l.121.06m-.001.001l.06.06m0 0l.06.12m0 .001v.181m0 0l-.06.12m0 .001l-.06.06m0 .001l-.121.06m.001 0h-.484"/><path id="U" d="M131.05 76.729v-1.27m0 0h.302m.008 0l.181.06m-.001 0l.121.121m-.001 0l.06.12m0 .001l.06.242m0 0v.181m0 0l-.06.242m0 0l-.06.121m0 0l-.121.121m.001 0l-.181.06m.001.001h-.302m1.202-1.149l.06-.06m0-.001l.121-.06m-.001 0h.302m.008 0l.12.06m0 0l.06.06m0 .001l.06.12m0 .001v.121m0 0l-.06.181m0 0l-.726.726m-.004 0h.786"/><path id="V" d="M131.17 79.269h-.605m.005 0v-1.27m1.03.605h.423m.177.665h-.605m.005 0v-1.27m0 0h.605m.545 1.27v-1.27m0 0h.302m-.002 0l.181.06m-.001 0l.121.121m-.001 0l.06.12m0 .001l.06.242m0 0v.181m0 0l-.06.242m0 0l-.06.121m0 0l-.121.121m.001 0l-.181.06m.001.001h-.302"/><path id="W" d="M131.23 64.791v-1.27m0 0h.302m-.002 0l.181.06m.009 0l.121.121m-.001 0l.06.12m0 .001l.06.242m0 0v.181m0 0l-.06.242m0 0l-.06.121m0 0l-.121.121m.001 0l-.181.06m-.009.001h-.302m1.152-1.27h.786m.004 0l-.423.484m-.007-.001h.181m-.001 0l.12.06m.01.001l.06.06m0 .001l.06.12m0 0v.302m0 .001l-.06.121m0 0l-.06.06m0 0l-.12.06m-.01.001h-.363m.003 0l-.12-.06m0-.001l-.06-.06"/><path id="X" d="M131.35 67.331h-.605m.005 0v-1.27m1.03.605h.423m.177.665h-.605m.005 0v-1.27m0 0h.605m.535 1.27v-1.27m0 0h.302m.008 0l.181.06m-.001 0l.121.121m-.001 0l.06.12m0 .001l.06.242m0 0v.181m0 0l-.06.242m0 0l-.06.121m0 0l-.121.121m.001 0l-.181.06m.001.001h-.302"/><path id="Y" d="M148.67 81.885l.423 1.27m-.003 0l.423-1.27m.427 1.27v-1.27m0 0h.302m-.002 0l.181.06m-.001 0l.121.121m-.001 0l.06.12m0 .001l.06.242m.01 0v.181m0 .001l-.06.242m-.01-.001l-.06.121m0 .001l-.121.121m.001-.001l-.181.06m.001.001h-.302m2.002-.121l-.06.06m0 0l-.181.06m-.009.001h-.12m0 0l-.181-.06m.001-.001l-.121-.121m.001.001l-.06-.121m0-.001l-.06-.242m0 .001v-.181m0-.001l.06-.242m0 0l.06-.12m0-.001l.121-.121m-.001 0l.181-.06m-.001 0h.12m0 0l.181.06m.009 0l.06.06"/></defs></svg>