<svg xmlns="http://www.w3.org/2000/svg" width="1122.527" height="793.727" viewBox="0 0 297.002 210.007" xmlns:v="https://vecta.io/nano"><style><![CDATA[.B{stroke-linejoin:round}.C{stroke-width:.152}.D{stroke-linecap:round}.E{opacity:0}.F{font-size:1.733px}.G{font-size:2px}.H{text-anchor:middle}.I{stroke-width:.3}]]></style><path d="M0 0h297.002v210.007H0z" fill="#fff" stroke="#fff" stroke-width="0" class="B"/><g fill="none" stroke="#840000" class="B"><g class="C D"><path d="M177.002 166.007h108v32h-108v-32"/><path d="M10 10h277.002v190.007H10V10"/><path d="M12 12h273.002v186.007H12V12m48 0v-2m50 2v-2m50 2v-2m50 2v-2m50 2v-2"/></g><text x="35" y="11.65" textLength="1.4353" lengthAdjust="spacingAndGlyphs" class="C E F">1</text><g class="C D"><path d="M36.091 11.594h-.743"/><path d="M35.719 11.594v-1.3m0 0l-.124.186m0-.001l-.124.124m.001 0l-.124.062"/></g><text x="85" y="11.65" textLength="1.4353" lengthAdjust="spacingAndGlyphs" class="C E F">2</text><path d="M85.348 10.417l.062-.062m0 0l.124-.062m0 .001h.309m0 0l.124.062m0-.001l.062.062m0 0l.062.124m0 0v.124m0 0l-.062.186m0 0l-.743.743m0 0h.805" class="C D"/><text x="135" y="11.65" textLength="1.4353" lengthAdjust="spacingAndGlyphs" class="C E F">3</text><g class="C D"><path d="M135.286 10.294h.805"/><path d="M136.091 10.294l-.433.495m-.001 0h.186m0 0l.124.062m0 0l.062.062m0 0l.062.124m0-.001v.309m0 .001l-.062.124m0 0l-.062.062m0 0l-.124.062m0 0h-.371m0 0l-.124-.062m0 0l-.062-.062"/></g><text x="185" y="11.65" textLength="1.4353" lengthAdjust="spacingAndGlyphs" class="C E F">4</text><g class="C D"><path d="M185.967 10.727v.867m-.31-1.362l-.309.928"/><path d="M185.348 11.16h.805"/></g><text x="235" y="11.65" textLength="1.4353" lengthAdjust="spacingAndGlyphs" class="C E F">5</text><path d="M236.029 10.294h-.619m0 0l-.062.619m0 0l.062-.062m0 0l.124-.062m0 0h.309m0 0l.124.062m0 0l.062.062m0 0l.062.124m0-.001v.309m0 .001l-.062.124m0 0l-.062.062m0 0l-.124.062m0 0h-.309m0 0l-.124-.062m0 0l-.062-.062" class="C D"/><text x="285" y="11.65" textLength="1.4353" lengthAdjust="spacingAndGlyphs" class="C E F">6</text><g class="C D"><path d="M285.967 10.294h-.248m0 0l-.124.062m0-.001l-.062.062m.001 0l-.124.186m0 0l-.062.248m0 0v.495m0 0l.062.124m0 0l.062.062m0 0l.124.062m-.001 0h.248m0 0l.124-.062m0 0l.062-.062m0 0l.062-.124"/><path d="M286.091 11.346v-.309m0-.001l-.062-.124m0 .001l-.062-.062m0 0l-.124-.062m0 0h-.248m0 0l-.124.062m.001 0l-.062.062m0 0l-.062.124M60 198.007v2m50-2v2m50-2v2m50-2v2m50-2v2"/></g><text x="35" y="199.657" textLength="1.4353" lengthAdjust="spacingAndGlyphs" class="C E F">1</text><g class="C D"><path d="M36.091 199.601h-.743"/><path d="M35.719 199.601v-1.3m0 0l-.124.186m0-.001l-.124.124m.001 0l-.124.062"/></g><text x="85" y="199.657" textLength="1.4353" lengthAdjust="spacingAndGlyphs" class="C E F">2</text><path d="M85.348 198.425l.062-.062m0 0l.124-.062m0 0h.309m0 0l.124.062m0 0l.062.062m0 0l.062.124m0-.001v.124m0 0l-.062.186m0 0l-.743.743m0 0h.805" class="C D"/><text x="135" y="199.657" textLength="1.4353" lengthAdjust="spacingAndGlyphs" class="C E F">3</text><g class="C D"><path d="M135.286 198.301h.805"/><path d="M136.091 198.301l-.433.495m-.001 0h.186m0 0l.124.062m0 0l.062.062m0 0l.062.124m0 0v.31m0-.001l-.062.124m0 0l-.062.062m0 0l-.124.062m0 0h-.371m0 0l-.124-.062m0 0l-.062-.062"/></g><text x="185" y="199.657" textLength="1.4353" lengthAdjust="spacingAndGlyphs" class="C E F">4</text><g class="C D"><path d="M185.967 198.734v.867m-.31-1.362l-.309.929"/><path d="M185.348 199.167h.805"/></g><text x="235" y="199.657" textLength="1.4353" lengthAdjust="spacingAndGlyphs" class="C E F">5</text><path d="M236.029 198.301h-.619m0 0l-.062.619m0 0l.062-.062m0 0l.124-.062m0 0h.309m0 0l.124.062m0 0l.062.062m0 0l.062.124m0 0v.31m0-.001l-.062.124m0 0l-.062.062m0 0l-.124.062m0 0h-.309m0 0l-.124-.062m0 0l-.062-.062" class="C D"/><text x="285" y="199.657" textLength="1.4353" lengthAdjust="spacingAndGlyphs" class="C E F">6</text><g class="C D"><path d="M285.967 198.301h-.248m0 0l-.124.062m0 0l-.062.062m.001 0l-.124.186m0-.001l-.062.248m0 0v.495m0 0l.062.124m0 0l.062.062m0 0l.124.062m-.001 0h.248m0 0l.124-.062m0 0l.062-.062m0 0l.062-.124"/><path d="M286.091 199.353v-.31m0 .001l-.062-.124m0 0l-.062-.062m0 0l-.124-.062m0 0h-.248m0 0l-.124.062m.001 0l-.062.062m0 0l-.062.124M10 60h2m-2 50h2m-2 50h2"/></g><text x="11" y="35.65" textLength="1.3115" lengthAdjust="spacingAndGlyphs" class="C E F H">A</text><g class="C D"><path d="M10.691 35.222h.619m-.743.372l.433-1.3"/><path d="M11 34.294l.433 1.3"/></g><text x="11" y="85.65" textLength="1.4972" lengthAdjust="spacingAndGlyphs" class="C E F H">B</text><g class="C D"><path d="M11.093 84.913l.186.062m0-.001l.062.062m-.001 0l.062.124m0 0v.186m0 0l-.062.124m0 0l-.062.062m.001 0l-.124.062m0 0h-.495"/><path d="M10.66 85.594v-1.3m0 0h.433m0 0l.124.062m0-.001l.062.062m0 0l.062.124m-.001 0v.124m0 0l-.062.124m.001 0l-.062.062m0 0l-.124.062"/><path d="M11.093 84.913h-.433"/></g><text x="11" y="135.65" textLength="1.4972" lengthAdjust="spacingAndGlyphs" class="C E F H">C</text><g class="C D"><path d="M11.402 135.47l-.062.062m0 0l-.186.062m.001 0h-.124m0 0l-.186-.062m0 0l-.124-.124m0 0l-.062-.124m.001 0l-.062-.248m0 0v-.186m0 .001l.062-.248m0 0l.062-.124m-.001 0l.124-.124m0 0l.186-.062"/><path d="M11.031 134.294h.124m0 0l.186.062m-.001-.001l.062.062"/></g><text x="11" y="185.65" textLength="1.4972" lengthAdjust="spacingAndGlyphs" class="C E F H">D</text><g class="C D"><path d="M10.66 185.594v-1.3m0 0h.309m0 0l.186.062m0-.001l.124.124m0 0l.062.124m-.001 0l.062.248m0 0v.186m0-.001l-.062.248m0 0l-.062.124m.001 0l-.124.124m0 0l-.186.062"/><path d="M10.969 185.594h-.309M287.002 60h-2m2 50h-2m2 50h-2"/></g><text x="286.002" y="35.65" textLength="1.3115" lengthAdjust="spacingAndGlyphs" class="C E F H">A</text><g class="C D"><path d="M285.693 35.222h.619m-.743.372l.433-1.3"/><path d="M286.002 34.294l.433 1.3"/></g><text x="286.002" y="85.65" textLength="1.4972" lengthAdjust="spacingAndGlyphs" class="C E F H">B</text><g class="C D"><path d="M286.095 84.913l.186.062m0-.001l.062.062m0 0l.062.124m0 0v.186m0 0l-.062.124m0 0l-.062.062m0 0l-.124.062m0 0h-.495"/><path d="M285.662 85.594v-1.3m0 0h.433m0 0l.124.062m0-.001l.062.062m0 0l.062.124m0 0v.124m0 0l-.062.124m0 0l-.062.062m0 0l-.124.062"/><path d="M286.095 84.913h-.433"/></g><text x="286.002" y="135.65" textLength="1.4972" lengthAdjust="spacingAndGlyphs" class="C E F H">C</text><g class="C D"><path d="M286.405 135.47l-.062.062m0 0l-.186.062m0 0h-.124m0 0l-.186-.062m0 0l-.124-.124m.001 0l-.062-.124m0 0l-.062-.248m0 0v-.186m0 .001l.062-.248m0 0l.062-.124m0 0l.124-.124m-.001 0l.186-.062"/><path d="M286.033 134.294h.124m0 0l.186.062m0-.001l.062.062"/></g><text x="286.002" y="185.65" textLength="1.4972" lengthAdjust="spacingAndGlyphs" class="C E F H">D</text><g class="C D"><path d="M285.662 185.594v-1.3m0 0h.31m-.001 0l.186.062m0-.001l.124.124m0 0l.062.124m0 0l.062.248m0 0v.186m0-.001l-.062.248m0 0l-.062.124m0 0l-.124.124m0 0l-.186.062"/><path d="M285.971 185.594h-.31"/></g><text x="200.002" y="193.857" textLength="22.1573" lengthAdjust="spacingAndGlyphs" class="C E G">Date: 2024-02-27</text><g class="C D"><path d="M200.46 193.793v-1.5m0 0h.357m0 0l.214.071m0 .001l.143.143m0-.001l.071.143m0 0l.071.286m.001 0v.214m0 0l-.071.286m-.001 0l-.071.143m0 0l-.143.143m0 0l-.214.071"/><path d="M200.817 193.793h-.357m2.142 0v-.786m0 0l-.071-.143m0 .001l-.143-.071m0-.001h-.286m0 0l-.143.071m.643.858l-.143.071m.001 0h-.357m-.001 0l-.143-.071m.001 0l-.071-.143m-.001 0v-.143"/><path d="M201.888 193.436l.071-.143m.001 0l.143-.071m-.001 0h.357m.001 0l.143-.071m.499-.358h.571"/><path d="M203.317 192.293v1.286m0 0l.071.143m0 0l.143.071m0 0h.143m1.071-.071l-.143.071m0 0h-.286m.001 0l-.143-.071m0 0l-.071-.143m-.001 0v-.571"/><path d="M204.102 193.007l.071-.143m.001.001l.143-.071m0-.001h.286m-.001 0l.143.071m0 .001l.071.143m.001-.001v.143m0 0l-.714.143m1.356.357l.071.071m.001.001l-.071.071m-.001 0l-.071-.071"/><path d="M205.388 193.722l.071-.071m0-.001v.143m0-.928l.071.071m.001 0l-.071.071"/><path d="M205.459 193.007l-.071-.071m0 0l.071-.071"/><path d="M205.459 192.865v.143m1.786-.572l.071-.071m.001 0l.143-.071m0-.001h.357m0 0l.143.071m0 .001l.071.071m0 0l.071.143m0 0v.143m0 0l-.071.214m0 0l-.857.857m0 0h.929m.928-1.5h.143m0 0l.143.071m0 .001l.072.071m-.001 0l.071.143m.001 0l.071.286m0 0v.357m0 0l-.071.286m0-.001l-.071.143m-.001 0l-.072.071m.001.001l-.143.071m0 0h-.143m0 0l-.143-.071m0 0l-.072-.071m.001-.001l-.071-.143m-.001 0l-.071-.286"/><path d="M208.674 193.222v-.357m0 0l.071-.286m0 0l.071-.143m.001 0l.072-.071m-.001 0l.143-.071m1.071.142l.071-.071m.001 0l.143-.071m0-.001h.357m0 0l.143.071m0 .001l.071.071m0 0l.071.143m.001 0v.143m0 0l-.071.214m-.001 0l-.857.857m0 0h.929m1.285-1v1m-.357-1.571l-.357 1.071"/><path d="M211.531 193.293h.928m.572-.071h1.143m1-.929h.143m0 0l.143.071m0 .001l.072.071m-.001 0l.071.143m0 0l.071.286m.001 0v.357m0 0l-.071.286m-.001-.001l-.071.143m0 0l-.072.071m.001.001l-.143.071m0 0h-.143m0 0l-.143-.071m0 0l-.072-.071m.001-.001l-.071-.143m-.001 0l-.071-.286"/><path d="M214.817 193.222v-.357m0 0l.071-.286m0 0l.071-.143m.001 0l.072-.071m-.001 0l.143-.071m1.071.142l.071-.071m.001 0l.143-.071m0-.001h.357m0 0l.143.071m0 .001l.071.071m0 0l.071.143m0 0v.143m0 0l-.071.214m0 0l-.857.857m0 0h.929m.642-.571h1.143m.643-.786l.071-.071m0 0l.143-.071m0-.001h.357m0 0l.143.071m0 .001l.071.071m.001 0l.071.143m0 0v.143m0 0l-.071.214m0 0l-.857.857m0 0h.929m.499-1.5h1"/><path d="M221.888 192.293l-.643 1.5m-44.243.714h108"/></g><text x="178.002" y="196.657" textLength="33.7285" lengthAdjust="spacingAndGlyphs" class="C E G">KiCad E.D.A. 8.99.0-unknown</text><g class="C D"><path d="M178.46 196.593v-1.5m.857 1.5l-.643-.857"/><path d="M179.317 195.093l-.857.857m1.5.643v-1m0-.5l-.071.071m-.001.001l.071.071m.001 0l.071-.071"/><path d="M180.031 195.165l-.071-.071m0-.001v.143m1.571 1.214l-.071.072m0 0l-.214.071m-.001 0h-.143m0 0l-.214-.071m0 0l-.143-.143m0 0l-.071-.143m0 0l-.071-.286m-.001 0v-.214"/><path d="M180.602 195.736l.071-.286m.001 0l.071-.143m0 0l.143-.143m0 .001l.214-.071m0-.001h.143m0 0l.214.071m.001.001l.071.071m1.286 1.357v-.786m0 0l-.071-.143m-.001.001l-.143-.071m0-.001h-.286m.001 0l-.143.071m.643.858l-.143.071m0 0h-.357m0 0l-.143-.071m0 0l-.071-.143m-.001 0v-.143"/><path d="M182.102 196.236l.071-.143m.001 0l.143-.071m0 0h.357m0 0l.143-.072m1.357.643v-1.5m0 1.429l-.143.071m0 0h-.286m0 0l-.143-.071m0 0l-.071-.072m0 0l-.071-.143"/><path d="M183.46 196.307v-.429m0 .001l.071-.143m0 0l.071-.071m0 0l.143-.071m0-.001h.286m0 0l.143.071m1.857.143h.5m.214.786h-.714"/><path d="M186.031 196.593v-1.5m0 0h.714m.643 1.357l.071.072m0 0l-.071.071m0 0l-.071-.071"/><path d="M187.317 196.522l.071-.072m0 0v.143m.714 0v-1.5m0 0h.357m0 0l.214.071m.001.001l.143.143m0-.001l.071.143m0 0l.071.286m0 0v.214m0 0l-.071.286m0 0l-.071.143m0 0l-.143.143m0 0l-.214.071"/><path d="M188.459 196.593h-.357m1.5-.143l.071.072m.001 0l-.071.071m-.001 0l-.071-.071"/><path d="M189.531 196.522l.071-.072m0 0v.143m.643-.428h.714m-.857.428l.5-1.5"/><path d="M190.602 195.093l.5 1.5m.5-.143l.071.072m.001 0l-.071.071m-.001 0l-.071-.071"/><path d="M191.531 196.522l.071-.072m0 0v.143m2.072-.857l-.143-.071m0 0l-.071-.071m0-.001l-.071-.143m-.001 0v-.071m0 0l.071-.143m.001 0l.071-.071m0 0l.143-.071m0-.001h.286m0 0l.143.071m-.001.001l.071.071m.001 0l.071.143m0 0v.071m0 0l-.071.143m0 0l-.071.071m-.001.001l-.143.071"/><path d="M193.96 195.736h-.286m0 0l-.143.072m0-.001l-.071.071m0 .001l-.071.143m-.001 0v.286m0-.001l.071.143m.001 0l.071.072m0 0l.143.071m0 0h.286m0 0l.143-.071m-.001 0l.071-.072m.001 0l.071-.143"/><path d="M194.245 196.307v-.286m0 .001l-.071-.143m0 0l-.071-.071m-.001-.001l-.143-.072m.929.715l.071.072m.001 0l-.071.071m-.001 0l-.071-.071"/><path d="M194.817 196.522l.071-.072m0 0v.143m.786 0h.286m0 0l.143-.071m-.001 0l.071-.072m.001 0l.143-.214m0 0l.071-.286m0 0v-.571m0 0l-.071-.143m0 0l-.071-.071m-.001 0l-.143-.071"/><path d="M196.102 195.093h-.286m.001 0l-.143.071m0 .001l-.071.071m-.001 0l-.071.143m0 0v.357m0 0l.071.143m0 0l.071.071m.001 0l.143.072m0 0h.286m-.001 0l.143-.072m0 0l.071-.071m.001 0l.071-.143m.714.857h.286m0 0l.143-.071m0 0l.071-.072m0 0l.143-.214m0 0l.071-.286m.001 0v-.571"/><path d="M197.817 195.379l-.071-.143m-.001 0l-.071-.071m0 0l-.143-.071m0-.001h-.286m0 0l-.143.071m0 .001l-.071.071m0 0l-.071.143m0 0v.357m0 0l.071.143m0 0l.071.071m0 0l.143.072m0 0h.286m0 0l.143-.072m0 0l.071-.071m0 0l.071-.143m.644.714l.071.072m0 0l-.071.071m0 0l-.071-.071"/><path d="M198.388 196.522l.071-.072m.001 0v.143m1-1.5h.143m0 0l.143.071m-.001.001l.072.071m0 0l.071.143m0 0l.071.286m.001 0v.357m0 0l-.071.286m-.001-.001l-.071.143m0 0l-.072.072m0 0l-.143.071m.001 0h-.143m0 0l-.143-.071m0 0l-.072-.072m0 0l-.071-.143m0 0l-.071-.286"/><path d="M199.103 196.022v-.357m0 0l.071-.286m0 0l.071-.143m0 0l.072-.071m0 0l.143-.071m1.143.928h1.143m1.357-.429v1m-.643-1v.786m0 0l.071.143m0 0l.143.071m0 0h.214m0 0l.143-.071"/><path d="M203.031 196.522l.071-.072m.715-.857v1m0-.857l.071-.071m0 0l.143-.071m0-.001h.214m0 0l.143.071m0 .001l.071.143m.001-.001v.786m.714 0v-1.5m.143.929l.429.571"/><path d="M205.745 195.593l-.571.571m1.214-.571v1m0-.857l.071-.071m.001 0l.143-.071m-.001-.001h.214m.001 0l.143.071m0 .001l.072.143m-.001-.001v.786m.929 0l-.143-.071m0 0l-.071-.072m-.001 0l-.071-.143"/><path d="M207.674 196.307v-.429m0 .001l.071-.143m0 0l.071-.071m.001 0l.143-.071m0-.001h.214m0 0l.143.071m0 .001l.072.071m-.001 0l.071.143m.001 0v.429m0-.001l-.071.143m-.001 0l-.072.072m.001 0l-.143.071m0 0h-.214m.999-1l.286 1m0 0l.286-.714m0 0l.286.714m0 0l.286-1m.571 0v1m0-.857l.071-.071m0 0l.143-.071m0-.001h.214m0 0l.143.071m0 .001l.071.143m.001-.001v.786m-34.315-5.086h108"/></g><text x="263.002" y="193.857" textLength="6.3858" lengthAdjust="spacingAndGlyphs" class="E G I">Rev: </text><g class="D I"><path d="M264.414 193.786l-.5-.714m-.357.714v-1.5"/><path d="M263.557 192.286h.571m0 0l.143.071m0 0l.071.071m0 0l.071.143m.001 0v.214m0 .001l-.071.143m-.001-.001l-.071.071m0 .001l-.143.071m0 0h-.571m2.071.643l-.143.071m0 .001h-.286m.001 0l-.143-.071m0-.001l-.071-.143m-.001 0V193"/><path d="M264.985 193l.071-.143m.001 0l.143-.071m0 0h.286m-.001 0l.143.071m0 0l.072.143m0 0v.143m0 0l-.714.143m1.213-.5l.357 1m.001 0l.357-1m.571.857l.071.072m.001-.001l-.071.071m-.001.001l-.071-.071"/><path d="M267.414 193.714l.071-.072m0 .001v.143m0-.929l.071.071m.001 0l-.071.071"/><path d="M267.485 193l-.071-.071m0-.001l.071-.071"/><path d="M267.485 192.857V193"/></g><text x="178.002" y="193.857" textLength="9.3716" lengthAdjust="spacingAndGlyphs" class="C E G">Size: A4</text><g class="C D"><path d="M178.388 193.722l.214.071m0 0h.357m.001 0l.143-.071m-.001 0l.071-.071m.001-.001l.071-.143m0 0v-.143m0 .001l-.071-.143m0 0l-.071-.071m-.001-.001l-.143-.071m.001 0l-.286-.071m0-.001l-.143-.071m0 0l-.071-.071m0 0l-.071-.143m-.001 0v-.143m0 0l.071-.143m.001 0l.071-.071m0 0l.143-.071m0-.001h.357m0 0l.214.071m.643 1.429v-1m0-.5l-.071.071m0 .001l.071.071m0 0l.071-.071"/><path d="M179.96 192.365l-.071-.071m-.001-.001v.143m.572.357h.786"/><path d="M181.245 192.793l-.786 1m.001 0h.786m1.142-.071l-.143.071m0 0h-.286m.001 0l-.143-.071m0 0l-.071-.143m-.001 0v-.571"/><path d="M181.745 193.007l.071-.143m.001.001l.143-.071m0-.001h.286m-.001 0l.143.071m0 .001l.071.143m.001-.001v.143m0 0l-.714.143m1.356.357l.071.071m.001.001l-.071.071m-.001 0l-.071-.071"/><path d="M183.031 193.722l.071-.071m0-.001v.143m0-.928l.071.071m.001 0l-.071.071"/><path d="M183.102 193.007l-.071-.071m0 0l.071-.071"/><path d="M183.102 192.865v.143m1.786.357h.714m-.857.428l.5-1.5"/><path d="M185.245 192.293l.5 1.5m1.143-1v1m-.357-1.571l-.357 1.071"/><path d="M186.174 193.293h.928"/></g><text x="263.002" y="196.657" textLength="8.5144" lengthAdjust="spacingAndGlyphs" class="C E G">Id: 1/1</text><g class="C D"><path d="M263.46 196.593v-1.5m1.357 1.5v-1.5m0 1.429l-.143.071m0 0h-.286m0 0l-.143-.071m0 0l-.071-.072m0 0l-.071-.143m-.001 0v-.429"/><path d="M264.102 195.879l.071-.143m.001 0l.071-.071m0 0l.143-.071m0-.001h.286m0 0l.143.071m.714.786l.071.072m0 0l-.071.071m0 0l-.071-.071"/><path d="M265.46 196.522l.071-.072m0 0v.143m0-.928l.071.071"/><path d="M265.602 195.736l-.071.072m0-.001l-.071-.072m0 .001l.071-.071"/><path d="M265.531 195.665v.143m2.643.785h-.857"/><path d="M267.745 196.593v-1.5m0 0l-.143.214m0 0l-.143.143m.001 0l-.143.072m2.571-.5l-1.286 1.928m2.572-.357h-.857"/><path d="M270.745 196.593v-1.5m0 0l-.143.214m0 0l-.143.143m.001 0l-.143.072m-93.315-8.015h108"/></g><text x="178.002" y="190.307" textLength="54.5144" font-size="2.667" lengthAdjust="spacingAndGlyphs" stroke-width=".4" class="E">Title: Solar Cell reinforcement PCB</text><g stroke-width=".4" class="D"><path d="M178.694 188.212h1.143"/><path d="M179.015 190.212l.25-2m.988 2l.167-1.333m.083-.667l-.107.095m0 0l.083.095m.001 0l.107-.095"/><path d="M180.587 188.307l-.083-.095m-.001 0l-.024.19m.608.476h.762"/><path d="M181.456 188.212l-.214 1.714m0 0l.071.19m0 0l.179.095m0 .001h.19m.952 0l-.179-.095m.001-.001l-.071-.19"/><path d="M182.384 189.926l.214-1.714m1.572 1.904l-.202.095m0 .001h-.381m0 0l-.179-.095m0-.001l-.071-.19"/><path d="M183.337 189.926l.095-.762m0 0l.119-.19m0 0l.202-.095m0-.001h.381m0 0l.179.095m0 .001l.071.19m0 0l-.024.19"/><path d="M184.361 189.354l-.976.191m1.749.476l.083.095m.001 0l-.107.095m0 .001l-.083-.095"/><path d="M185.027 190.116l.107-.095m0 0l-.024.191m.155-1.238l.083.095m.001 0l-.107.095m0 0l-.083-.095"/><path d="M185.158 189.069l.107-.095m0 0l-.024.19m2.262.952l.274.095m0 .001h.476m0 0l.202-.095m.001-.001l.107-.095m0 0l.119-.19m0 0l.024-.19"/><path d="M188.706 189.64l-.071-.19m-.001 0l-.083-.095m0-.001l-.178-.095m0 0l-.369-.095m-.001 0l-.179-.095m.001 0l-.083-.095m0 0l-.071-.191m-.001 0l.024-.19m0 0l.119-.19m0-.001l.107-.095m0 0l.202-.095"/><path d="M188.123 188.212h.476m0 0l.274.095m.904 1.905l-.179-.095m.001-.001l-.083-.095m-.001 0l-.071-.19"/><path d="M189.444 189.831l.071-.571m0-.001l.119-.19m0 0l.107-.095m.001 0l.202-.095m0-.001h.286m0 0l.179.095m-.001.001l.083.095m.001 0l.071.19m0 0l-.071.571m0 .001l-.119.19m0 0l-.107.095m-.001 0l-.202.095m0 .001h-.286m1.81 0l-.179-.095m0-.001l-.071-.19m0 0l.214-1.714m1.655 2l.131-1.048"/><path d="M193.337 189.164l-.071-.19m-.001 0l-.179-.095m.001-.001h-.381m0 0l-.202.095m.714 1.143l-.202.095m-.001.001h-.476m0 0l-.179-.095m.001-.001l-.071-.19"/><path d="M192.289 189.926l.024-.191m0 0l.119-.19m0 0l.202-.095m0 0h.476m.001 0l.202-.095m.845.857l.167-1.333m-.048.38l.119-.19m0 0l.107-.095m0 0l.202-.095m.001-.001h.19m3.191 1.143l-.107.095m0 0l-.298.095m0 .001h-.19m0 0l-.274-.095m0-.001l-.167-.19m0 0l-.071-.191m0 0l-.048-.381"/><path d="M196.932 189.354l.036-.286m0 .001l.143-.381m0 0l.119-.191m0 0l.214-.19m0 0l.298-.095m0 0h.19m0 0l.274.095m0 0l.083.095m1.405 1.714l-.202.095m0 .001h-.381m0 0l-.179-.095m0-.001l-.071-.19"/><path d="M198.861 189.926l.095-.762m0 0l.119-.19m0 0l.202-.095m0-.001h.381m0 0l.179.095m0 .001l.071.19m0 0l-.024.19"/><path d="M199.884 189.354l-.976.191m2.012.667l-.179-.095m.001-.001l-.071-.19m-.001 0l.214-1.714m1.084 2l-.179-.095m0-.001l-.071-.19"/><path d="M201.718 189.926l.214-1.714m2.321 2l.167-1.333m-.048.38l.119-.19m0 0l.107-.095m.001 0l.202-.095m0-.001h.19m1.274 1.238l-.202.095m0 .001h-.381m0 0l-.179-.095m0-.001l-.071-.19"/><path d="M205.432 189.926l.095-.762m0 0l.119-.19m0 0l.202-.095m.001-.001h.381m0 0l.179.095m-.001.001l.071.19m.001 0l-.024.19"/><path d="M206.456 189.354l-.976.191m1.726.667l.167-1.333m.083-.667l-.107.095m0 0l.083.095m0 0l.107-.095"/><path d="M207.539 188.307l-.083-.095m0 0l-.024.19m.893.476l-.167 1.333m.143-1.142l.107-.095m0 0l.202-.095m.001-.001h.286m-.001 0l.179.095m0 .001l.071.19m0 0l-.131 1.048m.834-1.334h.762"/><path d="M209.968 190.212l.214-1.714m0-.001l.119-.19m0 0l.202-.095m0 0h.19m.703 2l-.179-.095m.001-.001l-.083-.095m-.001 0l-.071-.19"/><path d="M211.063 189.831l.071-.571m0-.001l.119-.19m0 0l.107-.095m.001 0l.202-.095m0-.001h.286m0 0l.179.095m-.001.001l.083.095m.001 0l.071.19m0 0l-.071.571m0 .001l-.119.19m0 0l-.107.095m-.001 0l-.202.095m0 .001h-.286m1.524 0l.167-1.333m-.048.38l.119-.19m0 0l.107-.095m0 0l.202-.095m.001-.001h.19m1.369 1.238l-.202.095m0 .001h-.381m0 0l-.179-.095m0-.001l-.083-.095m0 0l-.071-.19"/><path d="M214.111 189.831l.071-.571m0-.001l.119-.19m0 0l.107-.095m0 0l.202-.095m.001-.001h.381m0 0l.178.095m1.476 1.143l-.202.095m0 .001h-.381m0 0l-.179-.095m0-.001l-.071-.19"/><path d="M215.813 189.926l.095-.762m0 0l.119-.19m0 0l.202-.095m.001-.001h.381m0 0l.179.095m-.001.001l.071.19m.001 0l-.024.19"/><path d="M216.837 189.354l-.976.191m1.726.667l.167-1.333m-.024.19l.107-.095m0 0l.202-.095m0-.001h.286m0 0l.179.095m-.001.001l.071.19m.001 0l-.131 1.048m.131-1.048l.119-.19m0 0l.202-.095m0-.001h.286m0 0l.179.095m0 .001l.071.19m0 0l-.131 1.048m1.726-.096l-.202.095m0 .001h-.381m0 0l-.179-.095m0-.001l-.071-.19"/><path d="M220.194 189.926l.095-.762m0 0l.119-.19m0 0l.202-.095m.001-.001h.381m0 0l.179.095m-.001.001l.071.19m.001 0l-.024.19"/><path d="M221.218 189.354l-.976.191m1.892-.667l-.167 1.333m.144-1.142l.107-.095m0 0l.202-.095m0-.001h.286m0 0l.179.095m-.001.001l.071.19m.001 0l-.131 1.048m.833-1.334h.762"/><path d="M224.027 188.212l-.214 1.714m0 0l.071.19m0 0l.179.095m0 .001h.19m2.191 0l.25-2m0 0h.762m0 0l.179.095m-.001 0l.083.095m.001 0l.071.19m0 .001l-.036.286m.001-.001l-.119.19m-.001.001l-.107.095m0 0l-.202.095"/><path d="M227.325 189.259h-.762m3.048.762l-.107.095m0 0l-.298.095m0 .001h-.19m-.001 0l-.274-.095m.001-.001l-.167-.19m0 0l-.071-.191m0 0l-.048-.381m0 0l.036-.286m0 .001l.143-.381m-.001 0l.119-.191m.001 0l.214-.19m0 0l.298-.095"/><path d="M229.265 188.212h.19m.001 0l.274.095m0 0l.083.095m1.429.762l.274.095m-.001 0l.083.095m.001 0l.071.191m0 0l-.036.286m0 0l-.119.19m0 0l-.107.095m0 0l-.202.095m0 .001h-.762"/><path d="M230.444 190.212l.25-2m0 0h.667m0 0l.179.095m-.001 0l.083.095m.001 0l.071.19m0 .001l-.024.19m0 0l-.119.191m0 0l-.107.095m0 0l-.202.095"/><path d="M231.242 189.164h-.667"/></g><text x="178.002" y="186.457" textLength="43.3717" lengthAdjust="spacingAndGlyphs" class="C E G">File: 78,1x39,1mm Solr tile.kicad_sch</text><g class="C D"><path d="M178.96 185.607h-.5m0 .786v-1.5"/><path d="M178.46 184.893h.714m.571 1.5v-1m0-.5l-.071.071m0 .001l.071.071m0 0l.071-.071"/><path d="M179.817 184.965l-.071-.071m-.001-.001v.143m.929 1.357l-.143-.071m0 0l-.071-.143"/><path d="M180.46 186.179v-1.286m1.357 1.429l-.143.071m0 0h-.286m0 0l-.143-.071m0 0l-.071-.143"/><path d="M181.174 186.179v-.571m0-.001l.071-.143m0 .001l.143-.071m0-.001h.286m0 0l.143.071m0 .001l.072.143m-.001-.001v.143"/><path d="M181.888 185.75l-.714.143m1.357.357l.071.071m0 .001l-.071.071m0 0l-.071-.071"/><path d="M182.46 186.322l.071-.071m0-.001v.143m0-.928l.071.071"/><path d="M182.602 185.536l-.071.072m0-.001l-.071-.072m0 .001l.071-.071"/><path d="M182.531 185.465v.143m1.714-.715h1"/><path d="M185.245 184.893l-.643 1.5m1.429-.857l-.143-.071m0 0l-.071-.071m0-.001l-.071-.143m-.001 0v-.071"/><path d="M185.745 185.179l.071-.143m.001 0l.071-.071m0 0l.143-.071m0-.001h.286m0 0l.143.071m0 .001l.071.071m0 0l.071.143m0 0v.071m0 0l-.071.143m0 0l-.071.071m0 .001l-.143.071m0 0h-.286m0 0l-.143.072m0-.001l-.071.071m0 .001l-.071.143m-.001 0v.286m0-.001l.071.143m.001 0l.071.071m0 .001l.143.071m0 0h.286m0 0l.143-.071m0 0l.071-.071m0-.001l.071-.143"/><path d="M186.602 186.107v-.286m0 .001l-.071-.143m0 0l-.071-.071m0-.001l-.143-.072m1 .787v.071m0 0l-.071.143m-.001 0l-.071.072m1.571-.215h-.857"/><path d="M188.317 186.393v-1.5m0 0l-.143.214m0 0l-.143.143m0 0l-.143.071m1.357 1.072l.786-1"/><path d="M189.245 185.393l.786 1m.429-1.5h.929"/><path d="M191.388 184.893l-.5.571m0 .001h.214m.001 0l.143.071m-.001 0l.071.072m.001-.001l.071.143m0 0v.357m0 0l-.071.143m0 0l-.071.071m-.001.001l-.143.071m.001 0h-.429m0 0l-.143-.071m0 0l-.072-.071m1.644.142h.286m-.001 0l.143-.071m0 0l.071-.071m.001-.001l.143-.214m-.001 0l.071-.286m.001 0v-.571"/><path d="M192.817 185.179l-.071-.143m-.001 0l-.071-.071m0 0l-.143-.071m0-.001h-.286m0 0l-.143.071m.001.001l-.071.071m-.001 0l-.071.143m0 0v.357m0 0l.071.143m0 0l.071.071m.001 0l.143.071m-.001.001h.286m0 0l.143-.071m0-.001l.071-.071m0 0l.071-.143m.715.786v.071m0 0l-.071.143m0 0l-.071.072m1.571-.215h-.857"/><path d="M194.531 186.393v-1.5m0 0l-.143.214m0 0l-.143.143m0 0l-.143.071m1.501 1.072v-1m0 .143l.071-.071m0 0l.143-.071m0-.001h.214m0 0l.143.071m0 .001l.071.143m.001-.001v.786m0-.786l.071-.143m0 .001l.143-.071m0-.001h.214m0 0l.143.071m0 .001l.071.143m0-.001v.786m.715 0v-1m0 .143l.071-.071m0 0l.143-.071m0-.001h.214m0 0l.143.071m0 .001l.071.143m.001-.001v.786m0-.786l.071-.143m0 .001l.143-.071m0-.001h.214m0 0l.143.071m0 .001l.071.143m0-.001v.786m1.786-.071l.214.071m0 0h.357m.001 0l.143-.071m-.001 0l.071-.071m.001-.001l.071-.143"/><path d="M201.531 186.107v-.143m0 .001l-.071-.143m0 0l-.071-.071m-.001-.001l-.143-.071m.001 0l-.286-.071m0-.001l-.143-.072m0 .001l-.071-.071m0 0l-.071-.143m-.001 0v-.143m0 0l.071-.143m.001 0l.071-.071m0 0l.143-.071"/><path d="M200.96 184.893h.357m0 0l.214.071m.857 1.429l-.143-.071m.001 0l-.071-.071m-.001-.001l-.071-.143"/><path d="M202.103 186.107v-.429m0 .001l.071-.143m0 0l.071-.071m.001 0l.143-.071m-.001-.001h.214m.001 0l.143.071m0 .001l.072.071m-.001 0l.071.143m0 0v.429m0-.001l-.071.143m0 0l-.072.071m.001.001l-.143.071m0 0h-.214m1.357 0l-.143-.071m0 0l-.071-.143m-.001 0v-1.286m.786 1.5v-1m0 .286l.071-.143m0 0l.072-.071m0 0l.143-.071m0-.001h.143m1.428 0h.571"/><path d="M206.388 184.893v1.286m0 0l.071.143m.001 0l.143.071m0 0h.143m.5 0v-1m0-.5l-.071.071m-.001.001l.071.071m.001 0l.071-.071"/><path d="M207.317 184.965l-.071-.071m0-.001v.143m.928 1.357l-.143-.071m0 0l-.071-.143"/><path d="M207.96 186.179v-1.286m1.357 1.429l-.143.071m0 0h-.286m0 0l-.143-.071m.001 0l-.071-.143m-.001 0v-.571m0-.001l.071-.143"/><path d="M208.746 185.465l.143-.071m-.001-.001h.286m0 0l.143.071m0 .001l.071.143m0-.001v.143m0 0l-.714.143m1.357.357l.071.071m.001.001l-.071.071m-.001 0l-.071-.071"/><path d="M209.96 186.322l.071-.071m0-.001v.143m.715 0v-1.5m.142.929l.429.571"/><path d="M211.317 185.393l-.571.571m1.214.429v-1m0-.5l-.071.071m-.001.001l.071.071m.001 0l.071-.071"/><path d="M212.031 184.965l-.071-.071m0-.001v.143m1.357 1.286l-.143.071m0 0h-.286m0 0l-.143-.071m.001 0l-.071-.071m-.001-.001l-.071-.143"/><path d="M212.603 186.107v-.429m0 .001l.071-.143m0 0l.071-.071m.001 0l.143-.071m-.001-.001h.286m0 0l.143.071m1.286.929v-.786m0 0l-.071-.143m-.001.001l-.143-.071m0-.001h-.286m.001 0l-.143.071m.643.858l-.143.071m0 0h-.357m0 0l-.143-.071m0 0l-.071-.143m-.001 0v-.143"/><path d="M213.888 186.036l.071-.143m.001 0l.143-.071m0 0h.357m0 0l.143-.071m1.357.642v-1.5m0 1.429l-.143.071m0 0h-.286m0 0l-.143-.071m0 0l-.071-.071m0-.001l-.071-.143"/><path d="M215.246 186.107v-.429m0 .001l.071-.143m0 0l.071-.071m0 0l.143-.071m0-.001h.286m0 0l.143.071m.357 1.072h1.143m.286-.214l.143.071m-.001 0h.286m0 0l.143-.071m0 0l.071-.143"/><path d="M218.388 186.179v-.071m0-.001l-.071-.143m0 .001l-.143-.071m0-.001h-.214m0 0l-.143-.071m0 0l-.071-.143m0 0v-.071m0-.001l.071-.143m0 .001l.143-.071"/><path d="M217.96 185.393h.214m0 0l.143.071m1.357.858l-.143.071m0 0h-.286m.001 0l-.143-.071m0 0l-.071-.071m-.001-.001l-.071-.143"/><path d="M218.96 186.107v-.429m0 .001l.071-.143m0 0l.071-.071m.001 0l.143-.071m0-.001h.286m-.001 0l.143.071m.643.929v-1.5m.643 1.5v-.786m0 0l-.072-.143m0 .001l-.143-.071m.001-.001h-.214m-.001 0l-.143.071"/><path d="M220.388 185.465l-.071.071m-43.315-4.029h108"/></g><text x="178.002" y="183.757" textLength="9.8000" lengthAdjust="spacingAndGlyphs" class="C E G">Sheet: /</text><g class="C D"><path d="M178.388 183.622l.214.071m0 0h.357m.001 0l.143-.071m-.001 0l.071-.072m.001 0l.071-.143m0 0v-.143m0 .001l-.071-.143m0 0l-.071-.072m-.001 0l-.143-.071m.001 0l-.286-.071m0-.001l-.143-.071m0 0l-.071-.071m0 0l-.071-.143m-.001 0v-.143m0 0l.071-.143m.001 0l.071-.071m0 0l.143-.071m0-.001h.357m0 0l.214.071m.643 1.429v-1.5m.643 1.5v-.786m0 0l-.072-.143m.001.001l-.143-.071m0-.001h-.214m-.001 0l-.143.071"/><path d="M179.96 182.765l-.071.071m1.928.786l-.143.071m0 0h-.286m0 0l-.143-.071m0 0l-.071-.143"/><path d="M181.174 183.479v-.571m0-.001l.071-.143m0 .001l.143-.071m0-.001h.286m0 0l.143.071m0 .001l.072.143m-.001-.001v.143"/><path d="M181.888 183.05l-.714.143m1.928.429l-.143.071m.001 0h-.286m0 0l-.143-.071m0 0l-.071-.143"/><path d="M182.46 183.479v-.571m0-.001l.071-.143m0 .001l.143-.071m0-.001h.286m0 0l.143.071m-.001.001l.071.143m.001-.001v.143"/><path d="M183.174 183.05l-.714.143m1.142-.5h.571"/><path d="M183.817 182.193v1.286m0 0l.071.143m0 0l.143.071m0 0h.143m.5-.143l.071.072m0 0l-.071.071m0 0l-.071-.071"/><path d="M184.602 183.622l.071-.072m.001 0v.143m0-.928l.071.071m0 0l-.071.071"/><path d="M184.674 182.907l-.071-.071m-.001 0l.071-.071"/><path d="M184.674 182.765v.143m2.928-.786l-1.286 1.928"/></g><text x="178.002" y="180.757" textLength="27.8142" lengthAdjust="spacingAndGlyphs" class="E G I">WWW.AEONLABS.SCIENCE</text><g class="D I"><path d="M178.414 179.186l.357 1.5m0 0l.286-1.071m0-.001l.286 1.071m-.001.001l.357-1.5m.429 0l.357 1.5m0 0l.286-1.071m0-.001l.286 1.071m0 .001l.357-1.5m.428 0l.357 1.5m.001 0l.286-1.071m-.001-.001l.286 1.071m0 .001l.357-1.5m.572 1.357l.071.072m0-.001l-.071.071m0 .001l-.071-.071"/><path d="M183.628 180.614l.071-.072m.001.001v.143m.642-.429h.714m-.856.429l.5-1.5"/><path d="M184.7 179.186l.5 1.5m.5-.786h.5m.214.786h-.714"/><path d="M185.7 180.686v-1.5m0 0h.714m.928 0h.286m0 0l.143.071m0 0l.143.143m0 0l.071.286m0 0v.5m0 0l-.071.286m0-.001l-.143.143m0 0l-.143.071m0 .001h-.286m0 0l-.143-.071m.001-.001l-.143-.143m0 0l-.071-.286m-.001.001v-.5"/><path d="M186.985 179.686l.071-.286m.001 0l.143-.143m0 0l.143-.071m1.285 1.5v-1.5m0 0l.857 1.5m0 0v-1.5m1.429 1.5h-.714m-.001 0v-1.5m1.143 1.071h.714"/><path d="M191.199 180.686l.5-1.5m0 0l.5 1.5m1-.786l.214.071m.001 0l.071.071m0 .001l.071.143m.001 0v.214m0 0l-.071.143m-.001 0l-.071.072m0-.001l-.143.071m0 .001h-.571m-.001 0v-1.5"/><path d="M192.699 179.186h.5m0 0l.143.071m0 0l.071.071m.001 0l.071.143m0 0v.143m0 0l-.071.143m0 0l-.071.071m-.001 0l-.143.071m0 .001h-.5m1.429.714l.214.071m0 .001h.357m0 0l.143-.071m0-.001l.071-.072m.001.001l.071-.143m0 0v-.143"/><path d="M194.985 180.257l-.071-.143m0 0l-.071-.072m-.001.001l-.143-.071m0-.001l-.286-.071m.001 0l-.143-.071m0-.001l-.071-.071m-.001 0l-.071-.143m0 0v-.143m0 0l.071-.143m0 0l.071-.071m.001 0l.143-.071"/><path d="M194.414 179.186h.357m0 0l.214.071m.643 1.286l.071.072m0-.001l-.071.071m0 .001l-.071-.071"/><path d="M195.557 180.614l.071-.072m0 .001v.143m.643-.072l.214.071m0 .001h.357m0 0l.143-.071m0-.001l.071-.072m.001.001l.071-.143m0 0v-.143m0 0l-.071-.143m0 0l-.071-.072m-.001.001l-.143-.071m0-.001l-.286-.071m.001 0l-.143-.071m0-.001l-.071-.071m-.001 0l-.071-.143m0 0v-.143m0 0l.071-.143m0 0l.071-.071m.001 0l.143-.071m0 0h.357m0 0l.214.071m1.5 1.286l-.071.072m0-.001l-.214.071m-.001.001h-.143m.001 0l-.214-.071m-.001-.001l-.143-.143m0 0l-.071-.143m0 0l-.071-.286"/><path d="M197.7 180.043v-.214m0-.001l.071-.286m0 .001l.071-.143m0 0l.143-.143m0 0l.214-.071m.001 0h.143m-.001 0l.214.071m.001 0l.071.071m.643 1.358v-1.5m.714.714h.5m.215.786h-.714"/><path d="M199.985 180.686v-1.5m0 0h.714m.643 1.5v-1.5m0 0l.857 1.5"/><path d="M202.199 180.686v-1.5m1.572 1.357l-.071.072m-.001-.001l-.214.071m0 .001h-.143m0 0l-.214-.071m0-.001l-.143-.143m0 0l-.071-.143m0 0l-.071-.286m-.001.001v-.214"/><path d="M202.842 179.828l.071-.286m.001.001l.071-.143m0 0l.143-.143m0 0l.214-.071m0 0h.143m0 0l.214.071m0 0l.071.071m.644.572h.5m.214.786h-.714"/><path d="M204.414 180.686v-1.5m0 0h.714"/></g><text x="178.002" y="177.757" textLength="60.1567" lengthAdjust="spacingAndGlyphs" class="C E G">contact AeonLabs for a commercial/reseller license</text><g class="C D"><path d="M179.102 177.622l-.143.071m.001 0h-.286m0 0l-.143-.071m0 0l-.071-.072m0 0l-.071-.143m-.001 0v-.429m0 .001l.071-.143m.001 0l.071-.071m0 0l.143-.071m0-.001h.286"/><path d="M178.96 176.693l.143.071m.857.929l-.143-.071m0 0l-.071-.072m-.001 0l-.071-.143"/><path d="M179.674 177.407v-.429m0 .001l.071-.143m0 0l.071-.071m.001 0l.143-.071m0-.001h.214m0 0l.143.071m0 .001l.072.071m-.001 0l.071.143m.001 0v.429m0-.001l-.071.143m-.001 0l-.072.072m.001 0l-.143.071m0 0h-.214m1.142-1v1m0-.857l.071-.071m.001 0l.143-.071m0-.001h.214m0 0l.143.071m0 .001l.072.143m-.001-.001v.786m.5-1h.571"/><path d="M182.459 176.193v1.286m0 0l.071.143m.001 0l.143.071m0 0h.143m1.142 0v-.786m0 0l-.071-.143m0 .001l-.143-.071m0-.001h-.286m0 0l-.143.071m.643.858l-.143.071m.001 0h-.357m-.001 0l-.143-.071m.001 0l-.071-.143m-.001 0v-.143"/><path d="M183.245 177.336l.071-.143m.001 0l.143-.071m-.001 0h.357m.001 0l.143-.072m1.357.572l-.143.071m0 0h-.286m0 0l-.143-.071m0 0l-.071-.072m0 0l-.071-.143m-.001 0v-.429m0 .001l.071-.143m.001 0l.071-.071m0 0l.143-.071"/><path d="M184.888 176.693h.286m0 0l.143.071m.428-.071h.571"/><path d="M185.959 176.193v1.286m0 0l.071.143m.001 0l.143.071m0 0h.143m1.571-.428h.714m-.857.428l.5-1.5"/><path d="M188.245 176.193l.5 1.5m1.071-.071l-.143.071m.001 0h-.286m0 0l-.143-.071m0 0l-.071-.143"/><path d="M189.174 177.479v-.571m0-.001l.071-.143m0 .001l.143-.071m0-.001h.286m0 0l.143.071m-.001.001l.072.143m0-.001v.143"/><path d="M189.888 177.05l-.714.143m1.571.5l-.143-.071m0 0l-.071-.072m0 0l-.071-.143m-.001 0v-.429m0 .001l.071-.143m.001 0l.071-.071m0 0l.143-.071m0-.001h.214m0 0l.143.071m0 .001l.071.071m.001 0l.071.143m0 0v.429m0-.001l-.071.143m0 0l-.071.072m-.001 0l-.143.071"/><path d="M190.959 177.693h-.214m1.143-1v1m0-.857l.071-.071m0 0l.143-.071m0-.001h.214m0 0l.143.071m0 .001l.071.143m.001-.001v.786m1.428 0h-.714"/><path d="M193.245 177.693v-1.5m1.857 1.5v-.786m0 0l-.072-.143m.001.001l-.143-.071m0-.001h-.286m0 0l-.143.071m.643.858l-.143.071m0 0h-.357m0 0l-.143-.071m0 0l-.071-.143"/><path d="M194.388 177.479v-.143m0 0l.071-.143m0 0l.143-.071m0 0h.357m0 0l.143-.072m.714.643v-1.5m0 .572l.143-.071m0-.001h.286m0 0l.143.071m0 .001l.072.071m-.001 0l.071.143m.001 0v.429m0-.001l-.071.143m-.001 0l-.072.072m.001 0l-.143.071m0 0h-.286"/><path d="M195.959 177.693l-.143-.071m1.286 0l.143.071m0 0h.286m0 0l.143-.071m-.001 0l.071-.143m.001 0v-.071m0-.001l-.071-.143m-.001.001l-.143-.071"/><path d="M197.531 177.193h-.214m-.001 0l-.143-.071m0 0l-.071-.143m0 0v-.071m0-.001l.071-.143m0 .001l.143-.071"/><path d="M197.316 176.693h.214m.001 0l.143.071m1.642-.071h.571"/><path d="M199.531 177.693v-1.286m0 0l.071-.143m0 .001l.143-.071m0-.001h.143m.714 1.5l-.143-.071m0 0l-.071-.072m0 0l-.071-.143m-.001 0v-.429"/><path d="M200.316 176.979l.071-.143m.001 0l.071-.071m0 0l.143-.071m0-.001h.214m0 0l.143.071m0 .001l.071.071m.001 0l.071.143m0 0v.429m0-.001l-.071.143m0 0l-.071.072m-.001 0l-.143.071m0 0h-.214m1.143 0v-1m0 .286l.071-.143m0 0l.071-.071m.001 0l.143-.071m0-.001h.143m2.285 1v-.786m0 0l-.072-.143m.001.001l-.143-.071m0-.001h-.286m0 0l-.143.071m.643.858l-.143.071m0 0h-.357m0 0l-.143-.071m0 0l-.071-.143"/><path d="M203.745 177.479v-.143m0 0l.071-.143m0 0l.143-.071m0 0h.357m0 0l.143-.072m2.5.572l-.143.071m0 0h-.286m.001 0l-.143-.071m0 0l-.071-.072m-.001 0l-.071-.143"/><path d="M206.245 177.407v-.429m0 .001l.071-.143m0 0l.071-.071m.001 0l.143-.071m0-.001h.286m-.001 0l.143.071m.857.929l-.143-.071m0 0l-.071-.072m0 0l-.071-.143"/><path d="M207.531 177.407v-.429m0 .001l.071-.143m0 0l.071-.071m0 0l.143-.071m0-.001h.214m.001 0l.143.071m-.001.001l.072.071m0 0l.071.143m0 0v.429m0-.001l-.071.143m0 0l-.072.072m0 0l-.143.071m.001 0h-.214m1.142 0v-1m0 .143l.071-.071m.001 0l.143-.071m-.001-.001h.214m.001 0l.143.071m0 .001l.072.143m-.001-.001v.786m0-.786l.071-.143m0 .001l.143-.071m0-.001h.214m.001 0l.143.071m-.001.001l.071.143m.001-.001v.786m.714 0v-1m0 .143l.071-.071m.001 0l.143-.071m-.001-.001h.214m.001 0l.143.071m0 .001l.072.143m-.001-.001v.786m0-.786l.071-.143m0 .001l.143-.071m0-.001h.214m.001 0l.143.071m-.001.001l.071.143m.001-.001v.786m1.286-.071l-.143.071m0 0h-.286m0 0l-.143-.071m0 0l-.071-.143"/><path d="M212.888 177.479v-.571m0-.001l.071-.143m0 .001l.143-.071m0-.001h.286m0 0l.143.071m0 .001l.072.143m-.001-.001v.143"/><path d="M213.602 177.05l-.714.143m1.357.5v-1m0 .286l.071-.143m0 0l.071-.071m.001 0l.143-.071m0-.001h.143m1.142.929l-.143.071m0 0h-.286m.001 0l-.143-.071m0 0l-.071-.072m-.001 0l-.071-.143"/><path d="M215.102 177.407v-.429m0 .001l.071-.143m0 0l.071-.071m.001 0l.143-.071m0-.001h.286m-.001 0l.143.071m.643.929v-1m0-.5l-.071.071m0 .001l.071.071m0 0l.071-.071"/><path d="M216.531 176.265l-.071-.071m-.001-.001v.143m1.357 1.357v-.786m0 0l-.072-.143m.001.001l-.143-.071m0-.001h-.286m0 0l-.143.071m.643.858l-.143.071m0 0h-.357m0 0l-.143-.071m0 0l-.071-.143"/><path d="M217.102 177.479v-.143m0 0l.071-.143m0 0l.143-.071m0 0h.357m0 0l.143-.072m.929.643l-.143-.071m0 0l-.071-.143m0 0v-1.286m1.857-.071l-1.286 1.928m1.786-.357v-1m0 .286l.071-.143m0 0l.071-.071m.001 0l.143-.071m-.001-.001h.143m1.072.929l-.143.071m0 0h-.286m0 0l-.143-.071m0 0l-.071-.143"/><path d="M221.745 177.479v-.571m0-.001l.071-.143m0 .001l.143-.071m0-.001h.286m0 0l.143.071m0 .001l.072.143m-.001-.001v.143"/><path d="M222.459 177.05l-.714.143m1.286.429l.143.071m-.001 0h.286m0 0l.143-.071m0 0l.071-.143"/><path d="M223.673 177.479v-.071m0-.001l-.071-.143m0 .001l-.143-.071m0-.001h-.214m0 0l-.143-.071m0 0l-.071-.143m0 0v-.071m0-.001l.071-.143m0 .001l.143-.071"/><path d="M223.245 176.693h.214m0 0l.143.071m1.286.858l-.143.071m0 0h-.286m0 0l-.143-.071m0 0l-.071-.143"/><path d="M224.245 177.479v-.571m0-.001l.071-.143m0 .001l.143-.071m0-.001h.286m0 0l.143.071m0 .001l.072.143m-.001-.001v.143"/><path d="M224.959 177.05l-.714.143m1.571.5l-.143-.071m0 0l-.071-.143m0 0v-1.286m1 1.5l-.143-.071m0 0l-.071-.143"/><path d="M226.388 177.479v-1.286m1.357 1.429l-.143.071m0 0h-.286m0 0l-.143-.071m0 0l-.071-.143"/><path d="M227.102 177.479v-.571m0-.001l.071-.143m0 .001l.143-.071m0-.001h.286m0 0l.143.071m0 .001l.072.143m-.001-.001v.143"/><path d="M227.816 177.05l-.714.143m1.357.5v-1m0 .286l.071-.143m0 0l.072-.071m0 0l.143-.071m0-.001h.143m1.857 1l-.143-.071m0 0l-.071-.143"/><path d="M230.531 177.479v-1.286m.785 1.5v-1m0-.5l-.071.071m0 .001l.071.071m0 0l.071-.071"/><path d="M231.388 176.265l-.071-.071m-.001-.001v.143m1.357 1.286l-.143.071m.001 0h-.286m0 0l-.143-.071m0 0l-.071-.072m0 0l-.071-.143m-.001 0v-.429"/><path d="M231.959 176.979l.071-.143m.001 0l.071-.071m0 0l.143-.071m0-.001h.286m0 0l.143.071m1.214.858l-.143.071m0 0h-.286m0 0l-.143-.071m0 0l-.071-.143"/><path d="M233.245 177.479v-.571m0-.001l.071-.143m0 .001l.143-.071m0-.001h.286m0 0l.143.071m0 .001l.072.143m-.001-.001v.143"/><path d="M233.959 177.05l-.714.143m1.357-.5v1m0-.857l.071-.071m0 0l.143-.071m0-.001h.214m.001 0l.143.071m-.001.001l.071.143m.001-.001v.786m.643-.071l.143.071m-.001 0h.286m0 0l.143-.071m0 0l.071-.143"/><path d="M236.53 177.479v-.071m0-.001l-.071-.143m0 .001l-.143-.071m0-.001h-.214m0 0l-.143-.071m0 0l-.071-.143m0 0v-.071m0-.001l.071-.143m0 .001l.143-.071"/><path d="M236.102 176.693h.214m0 0l.143.071m1.286.858l-.143.071m0 0h-.286m0 0l-.143-.071m0 0l-.071-.143"/><path d="M237.102 177.479v-.571m0-.001l.071-.143m0 .001l.143-.071m0-.001h.286m0 0l.143.071m0 .001l.072.143m-.001-.001v.143"/><path d="M237.816 177.05l-.714.143"/></g><text x="178.002" y="174.757" textLength="64.3711" lengthAdjust="spacingAndGlyphs" class="C E G">license: creative commons share alike non-commercial</text><g class="C D"><path d="M178.674 174.693l-.143-.071m0 0l-.071-.143m0 0v-1.286m.785 1.5v-1m0-.5l-.071.071m0 .001l.071.071m0 0l.071-.071"/><path d="M179.317 173.265l-.071-.071m-.001-.001v.143m1.357 1.286l-.143.071m.001 0h-.286m0 0l-.143-.071m0 0l-.071-.072m0 0l-.071-.143m-.001 0v-.429"/><path d="M179.888 173.979l.071-.143m.001 0l.071-.071m0 0l.143-.071m0-.001h.286m0 0l.143.071m1.214.858l-.143.071m0 0h-.286m0 0l-.143-.071m0 0l-.071-.143"/><path d="M181.174 174.479v-.571m0-.001l.071-.143m0 .001l.143-.071m0-.001h.286m0 0l.143.071m0 .001l.072.143m-.001-.001v.143"/><path d="M181.888 174.05l-.714.143m1.357-.5v1m0-.857l.071-.071m0 0l.143-.071m0-.001h.214m.001 0l.143.071m-.001.001l.071.143m.001-.001v.786m.643-.071l.143.071m-.001 0h.286m0 0l.143-.071m0 0l.071-.143"/><path d="M184.459 174.479v-.071m0-.001l-.071-.143m0 .001l-.143-.071m0-.001h-.214m0 0l-.143-.071m0 0l-.071-.143m0 0v-.071m0-.001l.071-.143m0 .001l.143-.071"/><path d="M184.031 173.693h.214m0 0l.143.071m1.286.858l-.143.071m0 0h-.286m0 0l-.143-.071m0 0l-.071-.143"/><path d="M185.031 174.479v-.571m0-.001l.071-.143m0 .001l.143-.071m0-.001h.286m0 0l.143.071m0 .001l.072.143m-.001-.001v.143"/><path d="M185.745 174.05l-.714.143m1.357.357l.071.072m0 0l-.071.071m0 0l-.071-.071"/><path d="M186.317 174.622l.071-.072m0 0v.143m0-.928l.071.071"/><path d="M186.459 173.836l-.071.071m0 0l-.071-.071m0 0l.071-.071"/><path d="M186.388 173.765v.143m2.5.714l-.143.071m0 0h-.286m.001 0l-.143-.071m0 0l-.071-.072m-.001 0l-.071-.143"/><path d="M188.174 174.407v-.429m0 .001l.071-.143m0 0l.071-.071m.001 0l.143-.071m0-.001h.286m-.001 0l.143.071m.643.929v-1m0 .286l.071-.143m0 0l.071-.071m.001 0l.143-.071m0-.001h.143m1.071.929l-.143.071m0 0h-.286m0 0l-.143-.071m.001 0l-.071-.143m-.001 0v-.571m0-.001l.071-.143"/><path d="M190.46 173.765l.143-.071m-.001-.001h.286m0 0l.143.071m0 .001l.071.143m0-.001v.143m0 0l-.714.143m2 .5v-.786m0 0l-.072-.143m.001.001l-.143-.071m0-.001h-.286m0 0l-.143.071m.643.858l-.143.071m0 0h-.357m0 0l-.143-.071m0 0l-.071-.143"/><path d="M191.674 174.479v-.143m0 0l.071-.143m0 0l.143-.071m0 0h.357m0 0l.143-.072m.5-.357h.571"/><path d="M193.102 173.193v1.286m0 0l.071.143m.001 0l.143.071m0 0h.143m.499 0v-1m0-.5l-.071.071m0 .001l.071.071m0 0l.071-.071"/><path d="M194.031 173.265l-.071-.071m-.001-.001v.143m.572.357l.357 1m0 0l.357-1m1.143.929l-.143.071m0 0h-.286m.001 0l-.143-.071m0 0l-.071-.143m-.001 0v-.571"/><path d="M195.745 173.907l.071-.143m.001.001l.143-.071m0-.001h.286m-.001 0l.143.071m0 .001l.071.143m.001-.001v.143m0 0l-.714.143m3.142.429l-.143.071m0 0h-.286m.001 0l-.143-.071m0 0l-.071-.072m-.001 0l-.071-.143"/><path d="M198.174 174.407v-.429m0 .001l.071-.143m0 0l.071-.071m.001 0l.143-.071m0-.001h.286m-.001 0l.143.071m.857.929l-.143-.071m0 0l-.071-.072m0 0l-.071-.143"/><path d="M199.46 174.407v-.429m0 .001l.071-.143m0 0l.071-.071m0 0l.143-.071m0-.001h.214m.001 0l.143.071m-.001.001l.071.071m.001 0l.071.143m0 0v.429m0-.001l-.071.143m0 0l-.071.072m-.001 0l-.143.071m.001 0h-.214m1.142 0v-1m0 .143l.071-.071m0 0l.143-.071m0-.001h.214m.001 0l.143.071m-.001.001l.072.143m0-.001v.786m0-.786l.071-.143m0 .001l.143-.071m0-.001h.214m0 0l.143.071m0 .001l.071.143m.001-.001v.786m.714 0v-1m0 .143l.071-.071m0 0l.143-.071m0-.001h.214m.001 0l.143.071m-.001.001l.072.143m0-.001v.786m0-.786l.071-.143m0 .001l.143-.071m0-.001h.214m0 0l.143.071m0 .001l.071.143m.001-.001v.786m.928 0l-.143-.071m0 0l-.071-.072m0 0l-.071-.143"/><path d="M204.817 174.407v-.429m0 .001l.071-.143m0 0l.071-.071m0 0l.143-.071m0-.001h.214m.001 0l.143.071m-.001.001l.072.071m0 0l.071.143m0 0v.429m0-.001l-.071.143m0 0l-.072.072m0 0l-.143.071m.001 0h-.214m1.142-1v1m0-.857l.071-.071m.001 0l.143-.071m-.001-.001h.214m.001 0l.143.071m0 .001l.072.143m-.001-.001v.786m.643-.071l.143.071m0 0h.286m-.001 0l.143-.071m0 0l.071-.143m.001 0v-.071"/><path d="M208.174 174.407l-.071-.143m-.001.001l-.143-.071m0-.001h-.214m0 0l-.143-.071m0 0l-.071-.143m0 0v-.071m0-.001l.071-.143m0 .001l.143-.071"/><path d="M207.745 173.693h.214m0 0l.143.071m1.786.858l.143.071m0 0h.286m0 0l.143-.071m-.001 0l.071-.143m.001 0v-.071m0-.001l-.071-.143"/><path d="M210.459 174.265l-.143-.071m.001-.001h-.214m-.001 0l-.143-.071m0 0l-.071-.143m0 0v-.071m0-.001l.071-.143m0 .001l.143-.071m0-.001h.214m.001 0l.143.071m.714.929v-1.5m.643 1.5v-.786m0 0l-.071-.143m-.001.001l-.143-.071m0-.001h-.214m0 0l-.143.071"/><path d="M211.245 173.765l-.071.071m2 .857v-.786m0 0l-.071-.143m-.001.001l-.143-.071m0-.001h-.286m.001 0l-.143.071m.643.858l-.143.071m0 0h-.357m0 0l-.143-.071m0 0l-.071-.143m-.001 0v-.143"/><path d="M212.459 174.336l.071-.143m.001 0l.143-.071m0 0h.357m0 0l.143-.072m.714.643v-1m0 .286l.071-.143m0 0l.071-.071m.001 0l.143-.071m0-.001h.143m1.071.929l-.143.071m0 0h-.286m0 0l-.143-.071m.001 0l-.071-.143m-.001 0v-.571m0-.001l.071-.143"/><path d="M214.817 173.765l.143-.071m-.001-.001h.286m0 0l.143.071m0 .001l.071.143m0-.001v.143m0 0l-.714.143m3.143.5v-.786m0 0l-.072-.143m.001.001l-.143-.071m0-.001h-.286m0 0l-.143.071m.643.858l-.143.071m0 0h-.357m0 0l-.143-.071m0 0l-.071-.143"/><path d="M217.174 174.479v-.143m0 0l.071-.143m0 0l.143-.071m0 0h.357m0 0l.143-.072m.929.643l-.143-.071m0 0l-.071-.143m-.001 0v-1.286m.786 1.5v-1m0-.5l-.071.071m0 .001l.071.071m0 0l.071-.071"/><path d="M219.459 173.265l-.071-.071m0-.001v.143m.714 1.357v-1.5m.143.929l.428.571"/><path d="M220.674 173.693l-.571.571m1.785.358l-.143.071m0 0h-.286m0 0l-.143-.071m.001 0l-.071-.143m-.001 0v-.571m0-.001l.071-.143"/><path d="M221.317 173.765l.143-.071m-.001-.001h.286m0 0l.143.071m0 .001l.071.143m0-.001v.143m0 0l-.714.143m2.5-.5v1m0-.857l.071-.071m.001 0l.143-.071m-.001-.001h.214m.001 0l.143.071m0 .001l.072.143m-.001-.001v.786m.929 0l-.143-.071m0 0l-.071-.072m-.001 0l-.071-.143"/><path d="M225.031 174.407v-.429m0 .001l.071-.143m0 0l.071-.071m.001 0l.143-.071m0-.001h.214m0 0l.143.071m0 .001l.072.071m-.001 0l.071.143m.001 0v.429m0-.001l-.071.143m-.001 0l-.072.072m.001 0l-.143.071m0 0h-.214m1.142-1v1m0-.857l.071-.071m.001 0l.143-.071m0-.001h.214m0 0l.143.071m0 .001l.072.143m-.001-.001v.786m.714-.571h1.143m1.357.5l-.143.071m.001 0h-.286m0 0l-.143-.071m0 0l-.071-.072m0 0l-.071-.143m-.001 0v-.429"/><path d="M229.602 173.979l.071-.143m.001 0l.071-.071m0 0l.143-.071m0-.001h.286m0 0l.143.071m.857.929l-.143-.071m0 0l-.071-.072m-.001 0l-.071-.143"/><path d="M230.888 174.407v-.429m0 .001l.071-.143m0 0l.071-.071m.001 0l.143-.071m0-.001h.214m0 0l.143.071m0 .001l.072.071m-.001 0l.071.143m.001 0v.429m0-.001l-.071.143m-.001 0l-.072.072m.001 0l-.143.071m0 0h-.214m1.142 0v-1m0 .143l.071-.071m.001 0l.143-.071m0-.001h.214m0 0l.143.071m0 .001l.072.143m-.001-.001v.786m0-.786l.071-.143m.001.001l.143-.071m-.001-.001h.214m.001 0l.143.071m0 .001l.071.143m0-.001v.786m.714 0v-1m0 .143l.071-.071m.001 0l.143-.071m0-.001h.214m0 0l.143.071m0 .001l.072.143m-.001-.001v.786m0-.786l.071-.143m.001.001l.143-.071m-.001-.001h.214m.001 0l.143.071m0 .001l.071.143m0-.001v.786m1.286-.071l-.143.071m0 0h-.286m0 0l-.143-.071m0 0l-.071-.143"/><path d="M236.245 174.479v-.571m0-.001l.071-.143m0 .001l.143-.071m0-.001h.286m0 0l.143.071m0 .001l.072.143m-.001-.001v.143"/><path d="M236.959 174.05l-.714.143m1.357.5v-1m0 .286l.071-.143m0 0l.072-.071m0 0l.143-.071m0-.001h.143m1.143.929l-.143.071m0 0h-.286m0 0l-.143-.071m0 0l-.071-.072m0 0l-.071-.143m-.001 0v-.429"/><path d="M238.459 173.979l.071-.143m.001 0l.071-.071m0 0l.143-.071m0-.001h.286m0 0l.143.071m.642.929v-1m0-.5l-.071.071m0 .001l.071.071m0 0l.071-.071"/><path d="M239.888 173.265l-.071-.071m-.001-.001v.143m1.358 1.357v-.786m0 0l-.071-.143m-.001.001l-.143-.071m0-.001h-.286m.001 0l-.143.071m.643.858l-.143.071m0 0h-.357m0 0l-.143-.071m0 0l-.071-.143m-.001 0v-.143"/><path d="M240.459 174.336l.071-.143m.001 0l.143-.071m0 0h.357m0 0l.143-.072m.928.643l-.143-.071m0 0l-.071-.143m0 0v-1.286"/></g><path d="M197.002 191.507v3m64-3v6.5" class="C D"/></g></svg>